<?xml version="1.0" encoding="UTF-8"?>
<!DOCTYPE svg PUBLIC "-//W3C//DTD SVG 1.1//EN" "http://www.w3.org/Graphics/SVG/1.1/DTD/svg11.dtd">
<svg version="1.1" xmlns="http://www.w3.org/2000/svg" xmlns:xlink="http://www.w3.org/1999/xlink" x="0px" y="0px" width="500" height="530" viewBox="0, 0, 500, 530">
  <g id="Layer 1 Copy">
    <path d="M51.343,22.252 L51.343,31.396 L42.33,31.396 C39.898,31.437 37.58,32.06 35.456,33.147 C30.788,35.742 27.928,40.84 27.826,46.463 L27.826,479.457 C28.316,485.4 30.04,489.737 35.414,492.876 C36.394,493.448 37.705,493.967 38.812,494.218 C42.929,495.073 47.169,494.714 51.343,494.661 L51.343,503.802 L42.169,503.802 L42.006,503.8 C32.859,503.502 25.208,498.834 21.084,491.011 C19.175,487.535 18.533,483.673 18.269,479.807 C18.262,479.664 18.264,479.735 18.264,479.592 L18.265,46.384 C18.801,36.902 22.384,30.535 30.65,25.242 C34.13,23.307 37.472,22.489 41.91,22.259 L42.039,22.252 z" fill="#000000"/>
    <path d="M454.575,22.146 L454.746,22.149 C463.914,22.463 471.517,27.092 475.647,34.919 C477.454,38.343 478.246,41.773 478.46,46.108 L478.465,46.215 L478.465,478.937 L478.46,479.044 C478.451,479.215 478.444,479.384 478.434,479.592 C478.423,479.854 478.416,480.005 478.412,480.109 C478.377,480.879 478.348,481.345 478.293,481.868 C478.163,483.116 477.909,484.295 477.42,485.923 C475.181,493.367 469.294,499.508 461.761,501.892 C459.105,502.733 455.814,503.103 451.735,503.183 L450.193,503.2 L446.85,503.158 L446.737,503.155 L446.737,494.015 C449.674,494.08 448.073,494.06 451.538,494.054 C454.741,493.991 457.212,493.714 458.755,493.225 C463.209,491.815 466.846,488.022 468.235,483.401 C468.576,482.269 468.716,481.618 468.784,480.963 C468.816,480.655 468.837,480.328 468.864,479.717 C468.869,479.62 468.875,479.474 468.887,479.206 C468.903,478.84 468.896,479 468.909,478.725 L468.909,46.457 C468.844,44.479 468.492,42.555 467.852,40.668 C466.666,37.167 463.749,34.053 460.254,32.536 C459.059,32.018 457.738,31.822 456.48,31.465 L454.436,31.277 L446.737,31.277 L446.737,22.146 z" fill="#000000"/>
    <g>
      <path d="M76.989,18.259 Q74.837,16.558 72.61,16.558 Q68.139,16.558 68.139,20.199 Q68.139,21.739 70.514,23.88 L73.315,26.44 Q74.614,27.641 75.115,28.191 Q75.616,28.741 76.173,29.721 Q76.729,30.701 77.008,31.702 Q77.286,32.702 77.286,33.742 Q77.286,37.763 74.493,40.023 Q71.701,42.284 67.248,42.284 Q63.593,42.284 60.346,40.584 L61.904,35.442 Q64.39,37.463 67.675,37.463 Q69.66,37.463 70.968,36.553 Q72.276,35.643 72.276,33.962 Q72.276,32.302 69.901,30.301 L66.988,27.801 Q65.652,26.641 65.179,26.12 Q64.706,25.6 64.186,24.67 Q63.667,23.74 63.407,22.76 Q63.147,21.779 63.147,20.739 Q63.147,16.698 65.634,14.338 Q68.12,11.977 72.146,11.977 Q73.482,11.977 75.56,12.307 Q77.639,12.637 78.473,13.058 z" fill="#87B287"/>
      <path d="M76.989,18.259 Q74.837,16.558 72.61,16.558 Q68.139,16.558 68.139,20.199 Q68.139,21.739 70.514,23.88 L73.315,26.44 Q74.614,27.641 75.115,28.191 Q75.616,28.741 76.173,29.721 Q76.729,30.701 77.008,31.702 Q77.286,32.702 77.286,33.742 Q77.286,37.763 74.493,40.023 Q71.701,42.284 67.248,42.284 Q63.593,42.284 60.346,40.584 L61.904,35.442 Q64.39,37.463 67.675,37.463 Q69.66,37.463 70.968,36.553 Q72.276,35.643 72.276,33.962 Q72.276,32.302 69.901,30.301 L66.988,27.801 Q65.652,26.641 65.179,26.12 Q64.706,25.6 64.186,24.67 Q63.667,23.74 63.407,22.76 Q63.147,21.779 63.147,20.739 Q63.147,16.698 65.634,14.338 Q68.12,11.977 72.146,11.977 Q73.482,11.977 75.56,12.307 Q77.639,12.637 78.473,13.058 z" fill-opacity="0" stroke="#404040" stroke-width="0.95" stroke-linecap="round" stroke-linejoin="round"/>
    </g>
    <g>
      <path d="M100.72,18.119 Q98.604,16.498 96.025,16.498 Q91.85,16.498 89.021,20.789 Q86.191,25.08 86.191,30.301 Q86.191,33.682 87.731,35.703 Q89.271,37.723 92.017,37.723 Q96.285,37.723 98.716,35.222 L98.623,39.803 Q95.988,42.284 91.034,42.284 Q86.618,42.284 83.909,39.153 Q81.2,36.023 81.2,31.021 Q81.2,22.94 85.366,17.458 Q89.531,11.977 96.248,11.977 Q99.532,11.977 102.074,13.138 z" fill="#87B287"/>
      <path d="M100.72,18.119 Q98.604,16.498 96.025,16.498 Q91.85,16.498 89.021,20.789 Q86.191,25.08 86.191,30.301 Q86.191,33.682 87.731,35.703 Q89.271,37.723 92.017,37.723 Q96.285,37.723 98.716,35.222 L98.623,39.803 Q95.988,42.284 91.034,42.284 Q86.618,42.284 83.909,39.153 Q81.2,36.023 81.2,31.021 Q81.2,22.94 85.366,17.458 Q89.531,11.977 96.248,11.977 Q99.532,11.977 102.074,13.138 z" fill-opacity="0" stroke="#404040" stroke-width="0.95" stroke-linecap="round" stroke-linejoin="round"/>
    </g>
    <g>
      <path d="M119.923,41.784 L119.069,35.823 L109.347,35.823 L106.155,41.784 L101.127,41.784 L117.64,12.077 L119.366,12.077 L124.951,41.784 z M116.991,20.979 L111.406,31.922 L118.531,31.922 z" fill="#87B287"/>
      <path d="M119.923,41.784 L119.069,35.823 L109.347,35.823 L106.155,41.784 L101.127,41.784 L117.64,12.077 L119.366,12.077 L124.951,41.784 z M116.991,20.979 L111.406,31.922 L118.531,31.922 z" fill-opacity="0" stroke="#404040" stroke-width="0.95" stroke-linecap="round" stroke-linejoin="round"/>
    </g>
    <g>
      <path d="M147.364,42.184 L145.49,42.184 L135.471,23.24 L132.465,41.784 L127.678,41.784 L132.669,12.477 L134.895,12.477 L144.711,30.641 L147.661,12.477 L152.43,12.477 z" fill="#87B287"/>
      <path d="M147.364,42.184 L145.49,42.184 L135.471,23.24 L132.465,41.784 L127.678,41.784 L132.669,12.477 L134.895,12.477 L144.711,30.641 L147.661,12.477 L152.43,12.477 z" fill-opacity="0" stroke="#404040" stroke-width="0.95" stroke-linecap="round" stroke-linejoin="round"/>
    </g>
    <g>
      <path d="M184.898,42.184 L183.024,42.184 L173.005,23.24 L169.999,41.784 L165.212,41.784 L170.203,12.477 L172.43,12.477 L182.245,30.641 L185.195,12.477 L189.964,12.477 z" fill="#87B287"/>
      <path d="M184.898,42.184 L183.024,42.184 L173.005,23.24 L169.999,41.784 L165.212,41.784 L170.203,12.477 L172.43,12.477 L182.245,30.641 L185.195,12.477 L189.964,12.477 z" fill-opacity="0" stroke="#404040" stroke-width="0.95" stroke-linecap="round" stroke-linejoin="round"/>
    </g>
    <g>
      <path d="M191.67,30.881 Q191.67,23.06 195.631,17.508 Q199.593,11.957 205.938,11.957 Q210.818,11.957 213.453,14.748 Q216.088,17.539 216.088,22.82 Q216.088,31.482 212.043,36.883 Q207.998,42.284 200.966,42.284 Q196.661,42.284 194.165,39.153 Q191.67,36.023 191.67,30.881 z M196.68,30.341 Q196.68,33.722 197.923,35.723 Q199.166,37.723 201.559,37.723 Q205.975,37.723 208.536,33.442 Q211.097,29.161 211.097,23.22 Q211.097,16.498 205.604,16.498 Q201.745,16.498 199.212,20.899 Q196.68,25.3 196.68,30.341 z" fill="#87B287"/>
      <path d="M191.67,30.881 Q191.67,23.06 195.631,17.508 Q199.593,11.957 205.938,11.957 Q210.818,11.957 213.453,14.748 Q216.088,17.539 216.088,22.82 Q216.088,31.482 212.043,36.883 Q207.998,42.284 200.966,42.284 Q196.661,42.284 194.165,39.153 Q191.67,36.023 191.67,30.881 z M196.68,30.341 Q196.68,33.722 197.923,35.723 Q199.166,37.723 201.559,37.723 Q205.975,37.723 208.536,33.442 Q211.097,29.161 211.097,23.22 Q211.097,16.498 205.604,16.498 Q201.745,16.498 199.212,20.899 Q196.68,25.3 196.68,30.341 z" fill-opacity="0" stroke="#404040" stroke-width="0.95" stroke-linecap="round" stroke-linejoin="round"/>
    </g>
    <g>
      <path d="M240.616,42.184 L238.668,42.184 L235.718,24.3 L226.904,42.184 L224.956,42.184 L221.115,12.477 L226.032,12.477 L228.092,30.241 L236.664,12.477 L238.761,12.477 L241.284,30.121 L249.225,12.477 L254.458,12.477 z" fill="#87B287"/>
      <path d="M240.616,42.184 L238.668,42.184 L235.718,24.3 L226.904,42.184 L224.956,42.184 L221.115,12.477 L226.032,12.477 L228.092,30.241 L236.664,12.477 L238.761,12.477 L241.284,30.121 L249.225,12.477 L254.458,12.477 z" fill-opacity="0" stroke="#404040" stroke-width="0.95" stroke-linecap="round" stroke-linejoin="round"/>
    </g>
    <g>
      <path d="M280.284,41.784 L279.431,35.823 L269.708,35.823 L266.516,41.784 L261.488,41.784 L278.002,12.077 L279.727,12.077 L285.312,41.784 z M277.352,20.979 L271.767,31.922 L278.892,31.922 z" fill="#87B287"/>
      <path d="M280.284,41.784 L279.431,35.823 L269.708,35.823 L266.516,41.784 L261.488,41.784 L278.002,12.077 L279.727,12.077 L285.312,41.784 z M277.352,20.979 L271.767,31.922 L278.892,31.922 z" fill-opacity="0" stroke="#404040" stroke-width="0.95" stroke-linecap="round" stroke-linejoin="round"/>
    </g>
    <g>
      <path d="M307.725,42.184 L305.851,42.184 L295.832,23.24 L292.826,41.784 L288.039,41.784 L293.03,12.477 L295.257,12.477 L305.072,30.641 L308.022,12.477 L312.791,12.477 z" fill="#87B287"/>
      <path d="M307.725,42.184 L305.851,42.184 L295.832,23.24 L292.826,41.784 L288.039,41.784 L293.03,12.477 L295.257,12.477 L305.072,30.641 L308.022,12.477 L312.791,12.477 z" fill-opacity="0" stroke="#404040" stroke-width="0.95" stroke-linecap="round" stroke-linejoin="round"/>
    </g>
    <g>
      <path d="M320.026,41.784 L313.458,41.784 L318.412,12.537 Q321.121,12.017 323.496,12.017 Q329.712,12.017 333.107,15.078 Q336.503,18.139 336.503,23.94 Q336.503,32.082 332.013,36.933 Q327.522,41.784 320.026,41.784 z M322.438,16.758 L319.136,37.123 Q319.952,37.203 320.62,37.203 Q325.593,37.203 328.524,33.422 Q331.456,29.641 331.456,23.72 Q331.456,20.479 329.433,18.519 Q327.411,16.558 324.238,16.558 Q323.348,16.558 322.438,16.758 z" fill="#87B287"/>
      <path d="M320.026,41.784 L313.458,41.784 L318.412,12.537 Q321.121,12.017 323.496,12.017 Q329.712,12.017 333.107,15.078 Q336.503,18.139 336.503,23.94 Q336.503,32.082 332.013,36.933 Q327.522,41.784 320.026,41.784 z M322.438,16.758 L319.136,37.123 Q319.952,37.203 320.62,37.203 Q325.593,37.203 328.524,33.422 Q331.456,29.641 331.456,23.72 Q331.456,20.479 329.433,18.519 Q327.411,16.558 324.238,16.558 Q323.348,16.558 322.438,16.758 z" fill-opacity="0" stroke="#404040" stroke-width="0.95" stroke-linecap="round" stroke-linejoin="round"/>
    </g>
    <g>
      <path d="M371.476,39.123 Q367.283,42.284 361.216,42.284 Q356.54,42.284 353.618,39.053 Q350.695,35.823 350.695,30.861 Q350.695,22.16 355.139,17.068 Q359.583,11.977 367.246,11.977 Q371.402,11.977 373.425,13.978 L371.977,18.319 Q369.25,16.538 366.541,16.538 Q361.642,16.538 358.674,20.409 Q355.705,24.28 355.705,30.101 Q355.705,33.702 357.542,35.713 Q359.379,37.723 362.57,37.723 Q365.223,37.723 367.209,36.143 L368.192,30.341 L364.426,30.341 L365.168,25.98 L373.722,25.98 z" fill="#87B287"/>
      <path d="M371.476,39.123 Q367.283,42.284 361.216,42.284 Q356.54,42.284 353.618,39.053 Q350.695,35.823 350.695,30.861 Q350.695,22.16 355.139,17.068 Q359.583,11.977 367.246,11.977 Q371.402,11.977 373.425,13.978 L371.977,18.319 Q369.25,16.538 366.541,16.538 Q361.642,16.538 358.674,20.409 Q355.705,24.28 355.705,30.101 Q355.705,33.702 357.542,35.713 Q359.379,37.723 362.57,37.723 Q365.223,37.723 367.209,36.143 L368.192,30.341 L364.426,30.341 L365.168,25.98 L373.722,25.98 z" fill-opacity="0" stroke="#404040" stroke-width="0.95" stroke-linecap="round" stroke-linejoin="round"/>
    </g>
    <g>
      <path d="M381.439,41.784 L376.597,41.784 L381.588,12.477 L386.449,12.477 z" fill="#87B287"/>
      <path d="M381.439,41.784 L376.597,41.784 L381.588,12.477 L386.449,12.477 z" fill-opacity="0" stroke="#404040" stroke-width="0.95" stroke-linecap="round" stroke-linejoin="round"/>
    </g>
    <g>
      <path d="M398.917,42.184 L396.282,42.184 L390.827,12.477 L395.985,12.477 L399.232,31.922 L408.769,12.477 L414.169,12.477 z" fill="#87B287"/>
      <path d="M398.917,42.184 L396.282,42.184 L390.827,12.477 L395.985,12.477 L399.232,31.922 L408.769,12.477 L414.169,12.477 z" fill-opacity="0" stroke="#404040" stroke-width="0.95" stroke-linecap="round" stroke-linejoin="round"/>
    </g>
    <g>
      <path d="M435.357,17.038 L422.833,17.038 L421.701,23.78 L430.681,23.78 L429.921,28.141 L420.94,28.141 L419.419,37.223 L431.739,37.223 L430.941,41.784 L413.648,41.784 L418.658,12.477 L436.155,12.477 z" fill="#87B287"/>
      <path d="M435.357,17.038 L422.833,17.038 L421.701,23.78 L430.681,23.78 L429.921,28.141 L420.94,28.141 L419.419,37.223 L431.739,37.223 L430.941,41.784 L413.648,41.784 L418.658,12.477 L436.155,12.477 z" fill-opacity="0" stroke="#404040" stroke-width="0.95" stroke-linecap="round" stroke-linejoin="round"/>
    </g>
    <path d="M51.343,494.642 L191.67,494.642 L191.67,503.802 L51.343,503.802 z" fill="#000000"/>
    <path d="M425.71,494.04 L446.737,494.04 L446.737,503.2 L425.71,503.2 z" fill="#000000"/>
  </g>
  <g id="Layer 4">
    <g>
      <path d="M239.727,518.353 L238.38,483.58 L243.813,483.58 L244.138,501.482 C244.184,505.816 244.091,509.015 243.998,511.749 L244.091,511.749 C245.066,508.86 245.996,505.867 247.574,501.637 L254.587,483.58 L260.484,483.58 L260.717,501.121 C260.763,505.455 260.717,508.705 260.578,511.594 L260.671,511.594 C261.692,508.292 262.714,504.991 263.968,501.482 L270.702,483.58 L276.414,483.58 L262.297,518.353 L256.445,518.353 L255.981,501.586 C255.888,497.562 255.935,494.724 256.166,490.751 L256.027,490.751 C254.959,494.311 253.984,497.562 252.545,501.327 L245.672,518.352 L239.727,518.352 z" fill="#000000"/>
      <path d="M239.727,518.353 L238.38,483.58 L243.813,483.58 L244.138,501.482 C244.184,505.816 244.091,509.015 243.998,511.749 L244.091,511.749 C245.066,508.86 245.996,505.867 247.574,501.637 L254.587,483.58 L260.484,483.58 L260.717,501.121 C260.763,505.455 260.717,508.705 260.578,511.594 L260.671,511.594 C261.692,508.292 262.714,504.991 263.968,501.482 L270.702,483.58 L276.414,483.58 L262.297,518.353 L256.445,518.353 L255.981,501.586 C255.888,497.562 255.935,494.724 256.166,490.751 L256.027,490.751 C254.959,494.311 253.984,497.562 252.545,501.327 L245.672,518.352 L239.727,518.352 z" fill-opacity="0" stroke="#404040" stroke-width="0.539" stroke-linecap="round" stroke-linejoin="round"/>
    </g>
    <g>
      <path d="M285.048,483.58 L279.103,518.353 L273.67,518.353 L279.615,483.58 z" fill="#000000"/>
      <path d="M285.048,483.58 L279.103,518.353 L273.67,518.353 L279.615,483.58 z" fill-opacity="0" stroke="#404040" stroke-width="0.539" stroke-linecap="round" stroke-linejoin="round"/>
    </g>
    <g>
      <path d="M290.898,483.58 L308.173,483.58 L307.245,488.688 L295.449,488.688 L293.777,498.49 L304.737,498.49 L303.854,503.546 L292.894,503.546 L290.387,518.352 L284.953,518.352 z" fill="#000000"/>
      <path d="M290.898,483.58 L308.173,483.58 L307.245,488.688 L295.449,488.688 L293.777,498.49 L304.737,498.49 L303.854,503.546 L292.894,503.546 L290.387,518.352 L284.953,518.352 z" fill-opacity="0" stroke="#404040" stroke-width="0.539" stroke-linecap="round" stroke-linejoin="round"/>
    </g>
    <g>
      <path d="M317.644,488.842 L308.96,488.842 L309.889,483.579 L332.691,483.579 L331.762,488.842 L323.031,488.842 L318.016,518.352 L312.583,518.352 z" fill="#000000"/>
      <path d="M317.644,488.842 L308.96,488.842 L309.889,483.579 L332.691,483.579 L331.762,488.842 L323.031,488.842 L318.016,518.352 L312.583,518.352 z" fill-opacity="0" stroke="#404040" stroke-width="0.539" stroke-linecap="round" stroke-linejoin="round"/>
    </g>
    <g>
      <path d="M336.67,488.3 C332.63,492.169 330.401,498 330.401,504.19 L330.401,504.19 C330.401,508.163 331.516,511.981 333.977,514.612 L333.977,514.612 C336.438,517.347 339.966,518.688 344.285,518.688 L344.285,518.688 C348.139,518.688 351.715,517.605 353.851,516.78 L353.851,516.78 L356.822,499.238 L346.05,499.238 L345.168,504.088 L350.694,504.088 L349.208,512.807 C348.28,513.221 346.886,513.581 345.215,513.581 L345.215,513.581 C339.364,513.581 336.299,509.97 336.299,503.727 L336.299,503.727 C336.299,498.98 338.064,494.491 340.896,491.809 L340.896,491.809 C343.218,489.59 346.282,488.404 349.626,488.404 L349.626,488.404 C352.458,488.404 354.78,489.022 356.266,489.848 L356.266,489.848 L357.938,484.791 C356.823,484.12 353.991,483.192 350.044,483.192 L350.044,483.192 C344.796,483.192 340.106,485.048 336.67,488.3" fill="#87B287"/>
      <path d="M336.67,488.3 C332.63,492.169 330.401,498 330.401,504.19 L330.401,504.19 C330.401,508.163 331.516,511.981 333.977,514.612 L333.977,514.612 C336.438,517.347 339.966,518.688 344.285,518.688 L344.285,518.688 C348.139,518.688 351.715,517.605 353.851,516.78 L353.851,516.78 L356.822,499.238 L346.05,499.238 L345.168,504.088 L350.694,504.088 L349.208,512.807 C348.28,513.221 346.886,513.581 345.215,513.581 L345.215,513.581 C339.364,513.581 336.299,509.97 336.299,503.727 L336.299,503.727 C336.299,498.98 338.064,494.491 340.896,491.809 L340.896,491.809 C343.218,489.59 346.282,488.404 349.626,488.404 L349.626,488.404 C352.458,488.404 354.78,489.022 356.266,489.848 L356.266,489.848 L357.938,484.791 C356.823,484.12 353.991,483.192 350.044,483.192 L350.044,483.192 C344.796,483.192 340.106,485.048 336.67,488.3" fill-opacity="0" stroke="#404040" stroke-width="0.72" stroke-linecap="round" stroke-linejoin="round"/>
    </g>
    <g>
      <path d="M363.973,483.553 L358.029,518.328 L363.462,518.328 L369.406,483.553 z" fill="#87B287"/>
      <path d="M363.973,483.553 L358.029,518.328 L363.462,518.328 L369.406,483.553 z" fill-opacity="0" stroke="#404040" stroke-width="0.72" stroke-linecap="round" stroke-linejoin="round"/>
    </g>
    <g>
      <path d="M391.695,483.553 L383.336,502.437 C381.711,506.049 380.504,509.247 379.482,512.084 L379.482,512.084 L379.389,512.084 C379.25,509.093 379.065,506.306 378.693,502.694 L378.693,502.694 L376.882,483.553 L371.356,483.553 L375.211,518.328 L381.387,518.328 L397.685,483.553 z" fill="#87B287"/>
      <path d="M391.695,483.553 L383.336,502.437 C381.711,506.049 380.504,509.247 379.482,512.084 L379.482,512.084 L379.389,512.084 C379.25,509.093 379.065,506.306 378.693,502.694 L378.693,502.694 L376.882,483.553 L371.356,483.553 L375.211,518.328 L381.387,518.328 L397.685,483.553 z" fill-opacity="0" stroke="#404040" stroke-width="0.72" stroke-linecap="round" stroke-linejoin="round"/>
    </g>
    <g>
      <path d="M400.146,483.552 L394.203,518.328 L412.266,518.328 L413.148,513.219 L400.518,513.219 L402.283,502.849 L413.52,502.849 L414.402,497.793 L403.118,497.793 L404.697,488.66 L416.631,488.66 L417.513,483.552 z" fill="#87B287"/>
      <path d="M400.146,483.552 L394.203,518.328 L412.266,518.328 L413.148,513.219 L400.518,513.219 L402.283,502.849 L413.52,502.849 L414.402,497.793 L403.118,497.793 L404.697,488.66 L416.631,488.66 L417.513,483.552 z" fill-opacity="0" stroke="#404040" stroke-width="0.72" stroke-linecap="round" stroke-linejoin="round"/>
    </g>
    <g>
      <path d="M217.063,516.646 C217.392,514.327 217.73,512.008 218.044,509.69 C218.131,509.052 218.392,508.646 219.057,508.373 C220.617,507.732 222.143,506.99 223.53,505.958 C223.847,505.722 224.138,505.45 224.437,505.189 C225.628,504.15 225.465,502.586 224.868,501.797 C224.161,500.86 223.172,500.271 222.104,499.804 C220.949,499.298 219.751,498.87 218.567,498.418 C218.115,498.247 217.929,498.001 218.007,497.608 C218.082,497.224 218.338,496.987 218.822,496.887 C219.034,496.843 219.25,496.822 219.46,496.823 C224.024,496.851 228.588,496.889 233.154,496.906 C233.717,496.908 234.154,497.042 234.522,497.431 C235.45,498.414 236.164,499.514 236.341,500.94 C236.575,502.828 235.888,504.528 234.592,506.095 C233.251,507.719 231.558,508.907 229.805,509.998 C226.849,511.837 223.753,513.336 220.548,514.545 C220.288,514.643 220.209,514.762 220.177,515.005 C219.796,517.854 219.404,520.702 219.018,523.551 C218.88,524.57 218.628,524.805 217.595,524.848 C217.435,524.854 217.276,524.864 217.115,524.872 C216.221,524.918 215.934,524.609 216.059,523.724 C216.393,521.363 216.729,519.005 217.063,516.646 z" fill="#000000"/>
      <path d="M217.063,516.646 C217.392,514.327 217.73,512.008 218.044,509.69 C218.131,509.052 218.392,508.646 219.057,508.373 C220.617,507.732 222.143,506.99 223.53,505.958 C223.847,505.722 224.138,505.45 224.437,505.189 C225.628,504.15 225.465,502.586 224.868,501.797 C224.161,500.86 223.172,500.271 222.104,499.804 C220.949,499.298 219.751,498.87 218.567,498.418 C218.115,498.247 217.929,498.001 218.007,497.608 C218.082,497.224 218.338,496.987 218.822,496.887 C219.034,496.843 219.25,496.822 219.46,496.823 C224.024,496.851 228.588,496.889 233.154,496.906 C233.717,496.908 234.154,497.042 234.522,497.431 C235.45,498.414 236.164,499.514 236.341,500.94 C236.575,502.828 235.888,504.528 234.592,506.095 C233.251,507.719 231.558,508.907 229.805,509.998 C226.849,511.837 223.753,513.336 220.548,514.545 C220.288,514.643 220.209,514.762 220.177,515.005 C219.796,517.854 219.404,520.702 219.018,523.551 C218.88,524.57 218.628,524.805 217.595,524.848 C217.435,524.854 217.276,524.864 217.115,524.872 C216.221,524.918 215.934,524.609 216.059,523.724 C216.393,521.363 216.729,519.005 217.063,516.646 z" fill-opacity="0" stroke="#404040" stroke-width="0.539" stroke-linecap="round" stroke-linejoin="round"/>
    </g>
    <g>
      <path d="M215.015,509.787 C211.382,511.065 207.703,512.074 204.006,512.973 C203.095,513.194 202.854,513.577 203.079,514.426 C203.431,515.752 203.783,517.079 204.135,518.404 C204.337,519.167 204.632,519.323 205.462,519.072 C206.845,518.653 208.227,518.224 209.608,517.795 C210.487,517.523 211.364,517.242 212.348,516.932 C212.257,517.578 212.167,518.157 212.094,518.736 C211.873,520.486 211.659,522.234 211.443,523.983 C211.339,524.822 211.651,525.139 212.484,525.06 C212.711,525.039 212.937,525.039 213.165,525.02 C213.88,524.958 214.214,524.658 214.314,523.953 C214.943,519.541 215.57,515.128 216.192,510.716 C216.284,510.062 216.029,509.692 215.529,509.689 C215.379,509.688 215.207,509.72 215.015,509.787 z" fill="#000000"/>
      <path d="M215.015,509.787 C211.382,511.065 207.703,512.074 204.006,512.973 C203.095,513.194 202.854,513.577 203.079,514.426 C203.431,515.752 203.783,517.079 204.135,518.404 C204.337,519.167 204.632,519.323 205.462,519.072 C206.845,518.653 208.227,518.224 209.608,517.795 C210.487,517.523 211.364,517.242 212.348,516.932 C212.257,517.578 212.167,518.157 212.094,518.736 C211.873,520.486 211.659,522.234 211.443,523.983 C211.339,524.822 211.651,525.139 212.484,525.06 C212.711,525.039 212.937,525.039 213.165,525.02 C213.88,524.958 214.214,524.658 214.314,523.953 C214.943,519.541 215.57,515.128 216.192,510.716 C216.284,510.062 216.029,509.692 215.529,509.689 C215.379,509.688 215.207,509.72 215.015,509.787 z" fill-opacity="0" stroke="#404040" stroke-width="0.539" stroke-linecap="round" stroke-linejoin="round"/>
    </g>
    <path d="M219.893,478.097 C218.881,478.154 217.868,478.22 216.853,478.316 C216.186,478.38 215.92,478.698 215.851,479.412 C215.842,479.518 215.831,479.625 215.824,479.73 C215.677,482.29 215.527,484.852 215.388,487.412 C215.373,487.675 215.301,487.806 215.038,487.912 C212.283,489.042 209.632,490.441 207.129,492.212 C205.513,493.356 203.99,494.618 202.801,496.275 C202.099,497.255 201.577,498.308 201.485,499.467 C201.367,500.937 201.866,502.114 202.828,503.026 C204.16,504.287 205.831,504.979 207.554,505.576 C207.687,505.622 207.848,505.612 207.997,505.613 C211.027,505.634 214.056,505.655 217.085,505.676 C220.127,505.697 223.169,505.718 226.21,505.735 C226.396,505.737 226.59,505.714 226.777,505.67 C227.226,505.563 227.502,505.308 227.551,504.937 C227.606,504.53 227.422,504.282 227.078,504.154 C225.494,503.561 223.917,502.951 222.328,502.368 C220.093,501.548 217.839,500.768 215.615,499.924 C214.871,499.642 214.196,499.209 213.679,498.582 C213.104,497.887 212.9,496.894 213.911,495.918 C214.03,495.802 214.148,495.685 214.272,495.576 C215.365,494.613 216.601,493.95 217.881,493.407 C218.477,493.154 218.726,492.767 218.812,492.152 C219.407,487.873 220.02,483.592 220.626,479.313 C220.648,479.155 220.668,478.994 220.66,478.839 C220.634,478.355 220.413,478.097 219.97,478.094 C219.945,478.094 219.919,478.095 219.893,478.097 z" fill="#87B287"/>
    <path d="M219.893,478.097 C218.881,478.154 217.868,478.22 216.853,478.316 C216.186,478.38 215.92,478.698 215.851,479.412 C215.842,479.518 215.831,479.625 215.824,479.73 C215.677,482.291 215.527,484.852 215.388,487.412 C215.373,487.675 215.301,487.806 215.038,487.912 C212.283,489.042 209.632,490.441 207.129,492.212 C205.513,493.356 203.99,494.618 202.801,496.275 C202.099,497.255 201.577,498.308 201.485,499.467 C201.367,500.937 201.866,502.114 202.828,503.026 C204.16,504.287 205.831,504.979 207.554,505.576 C207.687,505.622 207.848,505.612 207.997,505.613 C211.027,505.634 214.056,505.655 217.085,505.676 C220.127,505.697 223.169,505.718 226.21,505.735 C226.396,505.737 226.59,505.714 226.777,505.67 C227.226,505.563 227.502,505.308 227.551,504.937 C227.606,504.53 227.422,504.282 227.078,504.154 C225.494,503.561 223.917,502.951 222.328,502.368 C220.093,501.548 217.839,500.768 215.615,499.924 C214.871,499.642 214.196,499.209 213.679,498.582 C213.104,497.887 212.9,496.894 213.911,495.918 C214.03,495.802 214.148,495.685 214.272,495.576 C215.365,494.613 216.601,493.95 217.881,493.407 C218.477,493.154 218.726,492.767 218.812,492.152 C219.407,487.873 220.02,483.592 220.626,479.313 C220.648,479.155 220.668,478.994 220.66,478.839 C220.634,478.355 220.413,478.097 219.97,478.094 C219.945,478.094 219.919,478.095 219.893,478.097 z" fill-opacity="0" stroke="#404040" stroke-width="0.539" stroke-linecap="round" stroke-linejoin="round"/>
    <path d="M225.333,477.889 C224.578,477.894 223.821,477.923 223.063,477.945 C222.3,477.965 221.986,478.258 221.87,479.068 C221.295,483.109 220.721,487.151 220.15,491.193 C220.031,492.034 220.419,492.398 221.204,492.153 C223.178,491.54 225.163,491.106 227.158,490.824 C228.091,490.694 229.023,490.6 229.983,490.487 C229.89,491.477 229.79,492.403 229.722,493.327 C229.701,493.609 229.709,493.919 229.805,494.161 C230.069,494.822 230.896,494.884 231.612,494.321 C232.703,493.463 233.788,492.597 234.877,491.735 C236.472,490.473 238.072,489.219 239.66,487.947 C240.343,487.401 240.452,486.468 239.889,485.99 C237.568,484.019 235.244,482.053 232.901,480.109 C232.693,479.937 232.341,479.85 232.053,479.886 C231.386,479.966 231.008,480.444 230.917,481.219 C230.821,482.053 230.743,482.888 230.655,483.722 C230.642,483.848 230.62,483.974 230.608,484.063 C228.71,484.334 226.87,484.598 224.991,484.868 C225.001,484.791 225.006,484.739 225.015,484.689 C225.408,482.814 225.798,480.938 226.196,479.063 C226.37,478.239 226.146,477.894 225.373,477.889 C225.36,477.889 225.347,477.889 225.333,477.889 z" fill="#87B287"/>
    <path d="M225.333,477.889 C224.578,477.894 223.821,477.923 223.063,477.945 C222.3,477.965 221.986,478.258 221.87,479.068 C221.295,483.109 220.721,487.151 220.15,491.193 C220.031,492.034 220.419,492.398 221.204,492.153 C223.178,491.54 225.163,491.106 227.158,490.824 C228.091,490.694 229.023,490.6 229.983,490.487 C229.89,491.477 229.79,492.403 229.722,493.327 C229.701,493.609 229.709,493.919 229.805,494.161 C230.069,494.822 230.896,494.884 231.612,494.321 C232.703,493.463 233.788,492.597 234.877,491.735 C236.472,490.473 238.072,489.219 239.66,487.947 C240.343,487.401 240.452,486.468 239.889,485.99 C237.568,484.019 235.244,482.053 232.901,480.109 C232.693,479.937 232.341,479.85 232.053,479.886 C231.386,479.966 231.008,480.444 230.917,481.22 C230.821,482.053 230.743,482.888 230.655,483.722 C230.642,483.848 230.62,483.974 230.608,484.063 C228.71,484.334 226.87,484.598 224.991,484.868 C225.001,484.791 225.006,484.739 225.015,484.689 C225.408,482.814 225.798,480.938 226.196,479.063 C226.37,478.239 226.146,477.894 225.373,477.889 C225.36,477.889 225.347,477.889 225.333,477.889 z" fill-opacity="0" stroke="#404040" stroke-width="0.539"/>
  </g>
  <g id="Layer 6">
    <g>
      <path d="M279.526,145.991 C286.276,146.038 289.303,150.431 287.885,157.127 C286.992,161.34 286.08,165.675 284.9,171.312 C284.563,172.926 284.311,174.129 283.676,177.165 L283.184,179.515 L288.104,178.81 C288.703,178.724 288.703,178.724 289.302,178.638 C291.584,178.311 293.945,177.973 296.94,177.544 C298.388,177.337 299.836,177.129 301.285,176.922 C301.443,175.372 301.359,176.198 301.537,174.444 C301.619,173.626 301.656,173.262 301.702,172.807 C301.976,170.112 302.178,168.216 302.399,166.312 C303.075,160.527 306.426,156.514 311.849,155.858 C314.461,155.537 317.405,156.299 319.4,157.949 C329.534,166.357 339.643,174.875 353.851,186.939 C358.933,191.252 358.014,199.113 352.626,203.417 C348.145,207.005 344.386,209.982 336.545,216.168 C335.998,216.6 335.998,216.6 335.451,217.032 C332.59,219.288 330.874,220.643 329.051,222.086 C327.486,223.325 326.214,224.334 323.429,226.545 C323.367,226.594 323.367,226.594 323.305,226.644 C318.196,230.699 315.85,232.557 312.963,234.829 C307.343,239.25 299.766,238.611 297.203,232.193 C296.485,230.383 296.327,228.405 296.492,226.122 C296.693,223.24 296.982,220.366 297.262,217.491 C294.473,217.796 291.689,218.138 288.909,218.514 C279.118,219.897 269.591,222.013 260.287,224.901 C253.24,227.099 248.357,222.616 249.388,215.32 C252.208,195.367 255.032,175.461 257.86,155.603 C258.726,149.53 262.026,146.429 267.993,146.27 C268.432,146.257 268.89,146.244 269.438,146.227 C269.918,146.212 269.918,146.212 270.399,146.197 C273.349,146.096 276.299,146.024 279.25,145.993 L279.334,145.991 z M279.302,150.425 C275.584,150.449 271.853,150.591 268.123,150.701 C264.361,150.801 262.816,152.243 262.248,156.229 C259.413,176.134 256.589,196.038 253.777,215.94 C253.191,220.085 255.102,221.876 258.967,220.67 C268.687,217.653 278.462,215.514 288.289,214.126 C292.881,213.483 297.474,213.024 302.201,212.467 C301.741,217.343 301.249,221.902 300.912,226.45 C300.811,227.843 300.85,229.366 301.323,230.557 C302.623,233.814 306.696,234.12 310.223,231.346 C315.593,227.119 320.94,222.855 326.3,218.611 C334.156,212.395 342.033,206.22 349.856,199.957 C353.221,197.27 353.757,192.673 350.983,190.318 C339.554,180.614 328.108,170.933 316.57,161.36 C315.543,160.511 313.812,160.082 312.391,160.257 C309.109,160.654 307.247,163.009 306.801,166.826 C306.324,170.933 305.942,175.044 305.51,179.151 C305.443,179.77 305.337,180.391 305.275,180.828 C295.929,182.166 286.868,183.463 277.615,184.793 C277.667,184.415 277.688,184.16 277.736,183.914 C279.671,174.679 281.592,165.442 283.549,156.208 C284.408,152.15 283.304,150.45 279.496,150.423 C279.431,150.423 279.367,150.423 279.302,150.425 z M250.376,243.669 C272.854,243.805 295.328,243.994 317.815,244.075 C320.588,244.085 322.741,244.748 324.551,246.665 C329.123,251.502 332.641,256.918 333.509,263.942 C334.661,273.242 331.279,281.613 324.9,289.332 C318.294,297.326 309.958,303.18 301.324,308.552 C286.768,317.606 271.521,324.989 255.734,330.942 C254.453,331.426 254.067,332.013 253.908,333.209 C252.032,347.238 250.1,361.266 248.202,375.295 C247.523,380.313 246.279,381.469 241.195,381.681 C240.406,381.714 239.62,381.761 238.828,381.8 C234.429,382.028 233.011,380.504 233.626,376.146 C235.273,364.521 236.927,352.905 238.573,341.293 C240.194,329.87 241.86,318.451 243.404,307.034 C243.831,303.892 245.118,301.894 248.394,300.546 C256.073,297.392 263.59,293.738 270.42,288.654 C271.98,287.494 273.417,286.154 274.888,284.867 C280.751,279.75 279.948,272.048 277.012,268.161 C273.529,263.549 268.657,260.646 263.398,258.348 C257.71,255.856 251.811,253.751 245.978,251.525 C243.754,250.679 242.838,249.467 243.22,247.536 C243.591,245.641 244.853,244.476 247.236,243.982 C248.277,243.766 249.345,243.662 250.376,243.669 z M250.403,239.237 C249.055,239.227 247.675,239.364 246.336,239.642 C242.327,240.473 239.611,242.901 238.871,246.685 C238.033,250.921 240.279,254.1 244.403,255.668 C245.56,256.109 246.491,256.46 248.574,257.243 C248.587,257.248 248.587,257.248 248.601,257.253 C255.193,259.729 258.105,260.868 261.62,262.408 C267.14,264.821 270.875,267.39 273.475,270.833 C275.632,273.688 275.368,278.565 271.974,281.528 C271.693,281.773 271.46,281.98 270.998,282.39 C270.971,282.413 270.971,282.413 270.945,282.437 C269.357,283.846 268.644,284.451 267.775,285.098 C261.975,289.415 255.382,292.885 246.71,296.447 C242.073,298.354 239.669,301.605 239.012,306.438 C238.075,313.363 237.3,318.86 235.506,331.41 C234.852,335.983 234.551,338.09 234.185,340.671 C233.491,345.564 233.159,347.909 231.61,358.811 C230.538,366.356 229.912,370.768 229.238,375.524 C228.233,382.647 231.877,386.598 239.057,386.226 C239.301,386.214 239.511,386.203 239.954,386.18 C240.36,386.158 240.536,386.149 240.754,386.138 C240.982,386.127 241.185,386.117 241.379,386.109 C248.602,385.809 251.626,383.044 252.594,375.889 C253.174,371.602 253.67,367.954 254.676,360.571 C254.708,360.338 254.708,360.338 254.739,360.105 C255.89,351.653 257.043,343.202 258.174,334.747 C273.948,328.588 289.321,321.362 303.665,312.315 C314.796,305.39 322.163,299.602 328.316,292.155 C335.781,283.122 339.169,273.583 337.908,263.397 C336.988,255.959 333.588,249.773 327.772,243.62 C325.148,240.842 321.911,239.658 317.831,239.643 C305.232,239.598 295.151,239.537 272.48,239.382 C268.324,239.353 266.481,239.341 264.174,239.325 C258.911,239.29 254.569,239.262 250.403,239.237 z M246.979,152.913 C249.159,152.928 250.251,154.197 250.377,156.583 C250.417,157.343 250.32,158.134 250.208,158.914 C247.226,179.988 244.208,201.068 241.277,222.143 C240.854,225.171 239.628,227.078 236.69,228.323 C230.39,230.996 224.303,234.261 218.92,239.004 C218.307,239.542 217.726,240.119 217.14,240.687 C212.16,245.497 213.169,250.386 215.996,253.809 C218.545,256.895 221.866,259.027 225.531,260.416 C236.486,264.573 247.584,268.416 258.594,272.455 C266.418,275.325 274.184,278.327 281.983,281.247 C283.677,281.88 284.584,283.098 284.316,285.103 C284.072,286.932 282.715,288.187 280.501,288.715 C279.579,288.929 278.625,289.042 277.71,289.036 C262.733,288.951 247.753,288.846 232.772,288.743 C217.853,288.641 202.937,288.539 188.018,288.433 C187.282,288.428 186.49,288.476 185.834,288.251 C177.348,285.309 169.12,281.902 162.563,275.693 C157.825,271.204 155.365,265.407 155.945,258.168 C156.4,252.458 158.971,247.271 162.429,242.448 C168.283,234.288 175.786,228.073 183.743,222.438 C196.067,213.718 209.124,206.828 222.692,201.264 C223.984,200.739 224.341,200.096 224.414,198.8 C225.097,186.192 225.837,173.578 226.563,160.97 C226.596,160.451 226.649,159.926 226.696,159.404 C227.032,155.886 228.343,154.319 231.629,154.005 C236.626,153.531 241.616,153.205 246.599,152.925 C246.729,152.917 246.856,152.912 246.979,152.913 z M247.01,148.481 C246.784,148.479 246.565,148.486 246.329,148.501 L246.351,148.499 C240.447,148.831 235.76,149.161 231.211,149.592 C225.749,150.115 222.819,153.385 222.284,158.983 C222.267,159.172 222.267,159.172 222.251,159.346 C222.243,159.434 222.243,159.434 222.234,159.524 C222.189,160.013 222.162,160.339 222.14,160.69 C222.016,162.838 221.922,164.474 221.696,168.387 C221.361,174.181 221.207,176.849 221.02,180.116 C220.688,185.935 220.357,191.755 220.042,197.575 C206.428,203.362 193.229,210.179 181.183,218.82 C171.342,225.788 164.382,232.122 158.828,239.865 C154.528,245.863 152.018,251.658 151.527,257.816 C150.857,266.181 153.648,273.352 159.514,278.911 C165.769,284.833 172.966,288.481 184.382,292.439 C185.38,292.781 186.209,292.863 187.35,292.867 C187.525,292.867 187.525,292.867 187.678,292.866 C187.851,292.865 187.911,292.865 187.988,292.866 C194.691,292.913 201.702,292.962 209.579,293.016 C215.953,293.06 221.199,293.096 232.45,293.173 C232.596,293.174 232.596,293.174 232.742,293.175 C235.543,293.194 235.543,293.194 238.345,293.214 C258.022,293.349 266.759,293.406 277.684,293.468 C278.937,293.477 280.235,293.326 281.501,293.033 C285.423,292.098 288.203,289.481 288.709,285.689 C289.247,281.667 287.203,278.467 283.535,277.095 C281.168,276.209 279.078,275.42 275.124,273.921 C274.855,273.819 274.855,273.819 274.587,273.717 C267.421,271.002 264.164,269.777 260.12,268.294 C256.604,267.004 253.727,265.965 247.484,263.725 C247.415,263.7 247.415,263.7 247.346,263.675 C237.198,260.033 232.685,258.39 227.103,256.272 C223.917,255.065 221.329,253.305 219.414,250.986 C217.486,248.652 217.502,246.499 220.219,243.875 C220.351,243.747 220.351,243.747 220.475,243.627 C220.517,243.585 220.517,243.585 220.559,243.545 C221.199,242.922 221.502,242.635 221.846,242.333 C226.339,238.375 231.61,235.294 238.422,232.403 C242.739,230.574 245.018,227.404 245.667,222.756 C246.938,213.615 248.268,204.164 249.967,192.174 C250.515,188.304 250.967,185.121 251.937,178.29 C253.285,168.792 253.861,164.732 254.596,159.535 C254.781,158.254 254.857,157.368 254.803,156.349 C254.558,151.71 251.651,148.512 247.01,148.481 z M227.256,307.029 C229.72,307.043 230.974,308.864 230.52,312.086 C227.456,333.817 224.372,355.545 221.271,377.275 C220.777,380.746 219.135,382.225 215.613,382.529 C214.492,382.624 213.377,382.625 212.258,382.726 C208.156,383.118 206.623,381.552 207.132,377.422 C208.197,368.809 209.252,360.2 210.337,351.584 C210.696,348.729 211.14,345.878 211.591,342.697 C206.746,344.225 202.423,345.607 198.097,346.95 C191.293,349.06 184.489,351.173 177.677,353.235 C173.59,354.475 172.137,353.705 171.141,349.949 C169.41,343.421 167.676,336.887 165.942,330.359 C164.833,326.176 166.024,324.292 170.507,323.202 C188.715,318.776 206.83,313.807 224.722,307.51 C225.668,307.182 226.518,307.024 227.256,307.029 z M227.281,302.597 C225.999,302.588 224.659,302.841 223.271,303.322 L223.251,303.329 C207.065,309.026 189.948,313.915 169.46,318.895 C162.626,320.557 159.895,324.846 161.658,331.494 C163.267,337.552 164.95,343.893 166.857,351.085 C168.522,357.363 172.566,359.417 178.963,357.477 C184.341,355.848 188.675,354.512 198.278,351.534 C198.844,351.359 198.844,351.359 199.41,351.183 C199.454,351.17 199.454,351.17 199.496,351.157 C201.412,350.561 203.357,349.95 206.029,349.105 L206.201,349.051 L205.951,350.938 C205.945,350.984 205.945,350.984 205.939,351.031 C205.317,355.975 204.725,360.745 203.803,368.214 C203.638,369.553 203.638,369.553 203.472,370.893 C203.096,373.94 202.938,375.222 202.734,376.878 C201.879,383.811 205.745,387.8 212.679,387.138 C212.942,387.115 213.252,387.095 213.663,387.075 C213.804,387.068 213.916,387.063 214.182,387.051 C215.055,387.012 215.456,386.991 215.988,386.946 C221.57,386.463 224.874,383.415 225.659,377.899 C228.834,355.651 231.911,333.966 234.909,312.705 C235.699,307.094 232.766,302.628 227.281,302.597 z" fill="#000000"/>
      <path d="M279.526,145.991 C286.276,146.038 289.303,150.431 287.885,157.127 C286.992,161.34 286.08,165.675 284.9,171.312 C284.563,172.926 284.311,174.129 283.676,177.165 L283.184,179.515 L288.104,178.81 C288.703,178.724 288.703,178.724 289.302,178.638 C291.584,178.311 293.945,177.973 296.94,177.544 C298.388,177.337 299.836,177.129 301.285,176.922 C301.443,175.372 301.359,176.198 301.537,174.444 C301.619,173.626 301.656,173.262 301.702,172.807 C301.976,170.112 302.178,168.216 302.399,166.312 C303.075,160.527 306.426,156.514 311.849,155.858 C314.461,155.537 317.405,156.299 319.4,157.949 C329.534,166.357 339.643,174.875 353.851,186.939 C358.933,191.252 358.014,199.113 352.626,203.417 C348.145,207.005 344.386,209.982 336.545,216.168 C335.998,216.6 335.998,216.6 335.451,217.032 C332.59,219.288 330.874,220.643 329.051,222.086 C327.486,223.325 326.214,224.334 323.429,226.545 C323.367,226.594 323.367,226.594 323.305,226.644 C318.196,230.699 315.85,232.557 312.963,234.829 C307.343,239.25 299.766,238.611 297.203,232.193 C296.485,230.383 296.327,228.405 296.492,226.122 C296.693,223.24 296.982,220.366 297.262,217.491 C294.473,217.796 291.689,218.138 288.909,218.514 C279.118,219.897 269.591,222.013 260.287,224.901 C253.24,227.099 248.357,222.616 249.388,215.32 C252.208,195.367 255.032,175.461 257.86,155.603 C258.726,149.53 262.026,146.429 267.993,146.27 C268.432,146.257 268.89,146.244 269.438,146.227 C269.918,146.212 269.918,146.212 270.399,146.197 C273.349,146.096 276.299,146.024 279.25,145.993 L279.334,145.991 z M279.302,150.425 C275.584,150.449 271.853,150.591 268.123,150.701 C264.361,150.801 262.816,152.243 262.248,156.229 C259.413,176.134 256.589,196.038 253.777,215.94 C253.191,220.085 255.102,221.876 258.967,220.67 C268.687,217.653 278.462,215.514 288.289,214.126 C292.881,213.483 297.474,213.024 302.201,212.467 C301.741,217.343 301.249,221.902 300.912,226.45 C300.811,227.843 300.85,229.366 301.323,230.557 C302.623,233.814 306.696,234.12 310.223,231.346 C315.593,227.119 320.94,222.855 326.3,218.611 C334.156,212.395 342.033,206.22 349.856,199.957 C353.221,197.27 353.757,192.673 350.983,190.318 C339.554,180.614 328.108,170.933 316.57,161.36 C315.543,160.511 313.812,160.082 312.391,160.257 C309.109,160.654 307.247,163.009 306.801,166.826 C306.324,170.933 305.942,175.044 305.51,179.151 C305.443,179.77 305.337,180.391 305.275,180.828 C295.929,182.166 286.868,183.463 277.615,184.793 C277.667,184.415 277.688,184.16 277.736,183.914 C279.671,174.679 281.592,165.442 283.549,156.208 C284.408,152.15 283.304,150.45 279.496,150.423 C279.431,150.423 279.367,150.423 279.302,150.425 z M250.376,243.669 C272.854,243.805 295.328,243.994 317.815,244.075 C320.588,244.085 322.741,244.748 324.551,246.665 C329.123,251.502 332.641,256.918 333.509,263.942 C334.661,273.242 331.279,281.613 324.9,289.332 C318.294,297.326 309.958,303.18 301.324,308.552 C286.768,317.606 271.521,324.989 255.734,330.942 C254.453,331.426 254.067,332.013 253.908,333.209 C252.032,347.238 250.1,361.266 248.202,375.295 C247.523,380.313 246.279,381.469 241.195,381.681 C240.406,381.714 239.62,381.761 238.828,381.8 C234.429,382.028 233.011,380.504 233.626,376.146 C235.273,364.521 236.927,352.905 238.573,341.293 C240.194,329.87 241.86,318.451 243.404,307.034 C243.831,303.892 245.118,301.894 248.394,300.546 C256.073,297.392 263.59,293.738 270.42,288.654 C271.98,287.494 273.417,286.154 274.888,284.867 C280.751,279.75 279.948,272.048 277.012,268.161 C273.529,263.549 268.657,260.646 263.398,258.348 C257.71,255.856 251.811,253.751 245.978,251.525 C243.754,250.679 242.838,249.467 243.22,247.536 C243.591,245.641 244.853,244.476 247.236,243.982 C248.277,243.766 249.345,243.662 250.376,243.669 z M250.403,239.237 C249.055,239.227 247.675,239.364 246.336,239.642 C242.327,240.473 239.611,242.901 238.871,246.685 C238.033,250.921 240.279,254.1 244.403,255.668 C245.56,256.109 246.491,256.46 248.574,257.243 C248.587,257.248 248.587,257.248 248.601,257.253 C255.193,259.729 258.105,260.868 261.62,262.408 C267.14,264.821 270.875,267.39 273.475,270.833 C275.632,273.688 275.368,278.565 271.974,281.528 C271.693,281.773 271.46,281.98 270.998,282.39 C270.971,282.413 270.971,282.413 270.945,282.437 C269.357,283.846 268.644,284.451 267.775,285.098 C261.975,289.415 255.382,292.885 246.71,296.447 C242.073,298.354 239.669,301.605 239.012,306.438 C238.075,313.363 237.3,318.86 235.506,331.41 C234.852,335.983 234.551,338.09 234.185,340.671 C233.491,345.564 233.159,347.909 231.61,358.811 C230.538,366.356 229.912,370.768 229.238,375.524 C228.233,382.647 231.877,386.598 239.057,386.226 C239.301,386.214 239.511,386.203 239.954,386.18 C240.36,386.158 240.536,386.149 240.754,386.138 C240.982,386.127 241.185,386.117 241.379,386.109 C248.602,385.809 251.626,383.044 252.594,375.889 C253.174,371.602 253.67,367.954 254.676,360.571 C254.708,360.338 254.708,360.338 254.739,360.105 C255.89,351.653 257.043,343.202 258.174,334.747 C273.948,328.588 289.321,321.362 303.665,312.315 C314.796,305.39 322.163,299.602 328.316,292.155 C335.781,283.122 339.169,273.583 337.908,263.397 C336.988,255.959 333.588,249.773 327.772,243.62 C325.148,240.842 321.911,239.658 317.831,239.643 C305.232,239.598 295.151,239.537 272.48,239.382 C268.324,239.353 266.481,239.341 264.174,239.325 C258.911,239.29 254.569,239.262 250.403,239.237 z M246.979,152.913 C249.159,152.928 250.251,154.197 250.377,156.583 C250.417,157.343 250.32,158.134 250.208,158.914 C247.226,179.988 244.208,201.068 241.277,222.143 C240.854,225.171 239.628,227.078 236.69,228.323 C230.39,230.996 224.303,234.261 218.92,239.004 C218.307,239.542 217.726,240.119 217.14,240.687 C212.16,245.497 213.169,250.386 215.996,253.809 C218.545,256.895 221.866,259.027 225.531,260.416 C236.486,264.573 247.584,268.416 258.594,272.455 C266.418,275.325 274.184,278.327 281.983,281.247 C283.677,281.88 284.584,283.098 284.316,285.103 C284.072,286.932 282.715,288.187 280.501,288.715 C279.579,288.929 278.625,289.042 277.71,289.036 C262.733,288.951 247.753,288.846 232.772,288.743 C217.853,288.641 202.937,288.539 188.018,288.433 C187.282,288.428 186.49,288.476 185.834,288.251 C177.348,285.309 169.12,281.902 162.563,275.693 C157.825,271.204 155.365,265.407 155.945,258.168 C156.4,252.458 158.971,247.271 162.429,242.448 C168.283,234.288 175.786,228.073 183.743,222.438 C196.067,213.718 209.124,206.828 222.692,201.264 C223.984,200.739 224.341,200.096 224.414,198.8 C225.097,186.192 225.837,173.578 226.563,160.97 C226.596,160.451 226.649,159.926 226.696,159.404 C227.032,155.886 228.343,154.319 231.629,154.005 C236.626,153.531 241.616,153.205 246.599,152.925 C246.729,152.917 246.856,152.912 246.979,152.913 z M247.01,148.481 C246.784,148.479 246.565,148.486 246.329,148.501 L246.351,148.499 C240.447,148.831 235.76,149.161 231.211,149.592 C225.749,150.115 222.819,153.385 222.284,158.983 C222.267,159.172 222.267,159.172 222.251,159.346 C222.243,159.434 222.243,159.434 222.234,159.524 C222.189,160.013 222.162,160.339 222.14,160.69 C222.016,162.838 221.922,164.474 221.696,168.387 C221.361,174.181 221.207,176.849 221.02,180.116 C220.688,185.935 220.357,191.755 220.042,197.575 C206.428,203.362 193.229,210.179 181.183,218.82 C171.342,225.788 164.382,232.122 158.828,239.865 C154.528,245.863 152.018,251.658 151.527,257.816 C150.857,266.181 153.648,273.352 159.514,278.911 C165.769,284.833 172.966,288.481 184.382,292.439 C185.38,292.781 186.209,292.863 187.35,292.867 C187.525,292.867 187.525,292.867 187.678,292.866 C187.851,292.865 187.911,292.865 187.988,292.866 C194.691,292.913 201.702,292.962 209.579,293.016 C215.953,293.06 221.199,293.096 232.45,293.173 C232.596,293.174 232.596,293.174 232.742,293.175 C235.543,293.194 235.543,293.194 238.345,293.214 C258.022,293.349 266.759,293.406 277.684,293.468 C278.937,293.477 280.235,293.326 281.501,293.033 C285.423,292.098 288.203,289.481 288.709,285.689 C289.247,281.667 287.203,278.467 283.535,277.095 C281.168,276.209 279.078,275.42 275.124,273.921 C274.855,273.819 274.855,273.819 274.587,273.717 C267.421,271.002 264.164,269.777 260.12,268.294 C256.604,267.004 253.727,265.965 247.484,263.725 C247.415,263.7 247.415,263.7 247.346,263.675 C237.198,260.033 232.685,258.39 227.103,256.272 C223.917,255.065 221.329,253.305 219.414,250.986 C217.486,248.652 217.502,246.499 220.219,243.875 C220.351,243.747 220.351,243.747 220.475,243.627 C220.517,243.585 220.517,243.585 220.559,243.545 C221.199,242.922 221.502,242.635 221.846,242.333 C226.339,238.375 231.61,235.294 238.422,232.403 C242.739,230.574 245.018,227.404 245.667,222.756 C246.938,213.615 248.268,204.164 249.967,192.174 C250.515,188.304 250.967,185.121 251.937,178.29 C253.285,168.792 253.861,164.732 254.596,159.535 C254.781,158.254 254.857,157.368 254.803,156.349 C254.558,151.71 251.651,148.512 247.01,148.481 z M227.256,307.029 C229.72,307.043 230.974,308.864 230.52,312.086 C227.456,333.817 224.372,355.545 221.271,377.275 C220.777,380.746 219.135,382.225 215.613,382.529 C214.492,382.624 213.377,382.625 212.258,382.726 C208.156,383.118 206.623,381.552 207.132,377.422 C208.197,368.809 209.252,360.2 210.337,351.584 C210.696,348.729 211.14,345.878 211.591,342.697 C206.746,344.225 202.423,345.607 198.097,346.95 C191.293,349.06 184.489,351.173 177.677,353.235 C173.59,354.475 172.137,353.705 171.141,349.949 C169.41,343.421 167.676,336.887 165.942,330.359 C164.833,326.176 166.024,324.292 170.507,323.202 C188.715,318.776 206.83,313.807 224.722,307.51 C225.668,307.182 226.518,307.024 227.256,307.029 z M227.281,302.597 C225.999,302.588 224.659,302.841 223.271,303.322 L223.251,303.329 C207.065,309.026 189.948,313.915 169.46,318.895 C162.626,320.557 159.895,324.846 161.658,331.494 C163.267,337.552 164.95,343.893 166.857,351.085 C168.522,357.363 172.566,359.417 178.963,357.477 C184.341,355.848 188.675,354.512 198.278,351.534 C198.844,351.359 198.844,351.359 199.41,351.183 C199.454,351.17 199.454,351.17 199.496,351.157 C201.412,350.561 203.357,349.95 206.029,349.105 L206.201,349.051 L205.951,350.938 C205.945,350.984 205.945,350.984 205.939,351.031 C205.317,355.975 204.725,360.745 203.803,368.214 C203.638,369.553 203.638,369.553 203.472,370.893 C203.096,373.94 202.938,375.222 202.734,376.878 C201.879,383.811 205.745,387.8 212.679,387.138 C212.942,387.115 213.252,387.095 213.663,387.075 C213.804,387.068 213.916,387.063 214.182,387.051 C215.055,387.012 215.456,386.991 215.988,386.946 C221.57,386.463 224.874,383.415 225.659,377.899 C228.834,355.651 231.911,333.966 234.909,312.705 C235.699,307.094 232.766,302.628 227.281,302.597 z" fill-opacity="0" stroke="#FFFFFF" stroke-width="3"/>
    </g>
  </g>
  <defs/>
</svg>
