<?xml version="1.0" encoding="UTF-8"?>
<!DOCTYPE svg PUBLIC "-//W3C//DTD SVG 1.1//EN" "http://www.w3.org/Graphics/SVG/1.1/DTD/svg11.dtd">
<svg version="1.1" xmlns="http://www.w3.org/2000/svg" xmlns:xlink="http://www.w3.org/1999/xlink" x="0px" y="0px" width="500" height="525" viewBox="0, 0, 500, 525">
  <g id="outline">
    <path d="M51.264,22.146 L51.264,31.109 L42.272,31.109 C39.846,31.148 37.534,31.76 35.415,32.825 C30.758,35.369 27.905,40.365 27.803,45.877 L27.803,470.283 C28.292,476.109 30.011,480.36 35.373,483.437 C36.35,483.997 37.658,484.505 38.763,484.751 C42.87,485.589 47.1,485.238 51.264,485.186 L51.264,494.146 L42.111,494.146 L41.949,494.144 C32.824,493.852 25.192,489.276 21.077,481.609 C19.173,478.202 18.532,474.416 18.269,470.626 C18.262,470.486 18.264,470.556 18.264,470.416 L18.265,45.799 C18.799,36.506 22.374,30.265 30.62,25.077 C34.092,23.181 37.426,22.379 41.853,22.153 L41.982,22.146 z" fill="#000000"/>
    <path d="M454.889,22.146 L455.067,22.149 C464.603,22.457 472.51,26.999 476.806,34.679 C478.685,38.039 479.509,41.403 479.731,45.657 L479.737,45.762 L479.737,470.34 L479.731,470.445 C479.723,470.612 479.715,470.778 479.705,470.982 C479.693,471.239 479.686,471.387 479.681,471.489 C479.645,472.244 479.615,472.702 479.558,473.215 C479.423,474.44 479.159,475.596 478.65,477.194 C476.321,484.498 470.198,490.523 462.363,492.863 C459.601,493.688 456.178,494.051 451.935,494.129 L450.331,494.146 L446.854,494.104 L446.737,494.101 L446.737,485.133 C449.792,485.197 448.127,485.178 451.731,485.172 C455.062,485.111 457.631,484.838 459.237,484.359 C463.87,482.975 467.652,479.253 469.097,474.719 C469.451,473.609 469.597,472.97 469.668,472.328 C469.701,472.025 469.723,471.704 469.751,471.105 C469.756,471.009 469.762,470.867 469.775,470.603 C469.792,470.244 469.784,470.401 469.798,470.132 L469.798,45.999 C469.73,44.058 469.364,42.171 468.699,40.319 C467.465,36.884 464.431,33.829 460.795,32.34 C459.553,31.832 458.179,31.64 456.871,31.289 L454.744,31.105 L446.737,31.105 L446.737,22.146 z" fill="#000000"/>
    <g>
      <path d="M76.989,18.259 Q74.837,16.558 72.61,16.558 Q68.139,16.558 68.139,20.199 Q68.139,21.739 70.514,23.88 L73.315,26.44 Q74.614,27.641 75.115,28.191 Q75.616,28.741 76.173,29.721 Q76.729,30.701 77.008,31.702 Q77.286,32.702 77.286,33.742 Q77.286,37.763 74.493,40.023 Q71.701,42.284 67.248,42.284 Q63.593,42.284 60.346,40.584 L61.904,35.442 Q64.39,37.463 67.675,37.463 Q69.66,37.463 70.968,36.553 Q72.276,35.643 72.276,33.962 Q72.276,32.302 69.901,30.301 L66.988,27.801 Q65.652,26.641 65.179,26.12 Q64.706,25.6 64.186,24.67 Q63.667,23.74 63.407,22.76 Q63.147,21.779 63.147,20.739 Q63.147,16.698 65.634,14.338 Q68.12,11.977 72.146,11.977 Q73.482,11.977 75.56,12.307 Q77.639,12.637 78.473,13.058 z" fill="#87B287"/>
      <path d="M76.989,18.259 Q74.837,16.558 72.61,16.558 Q68.139,16.558 68.139,20.199 Q68.139,21.739 70.514,23.88 L73.315,26.44 Q74.614,27.641 75.115,28.191 Q75.616,28.741 76.173,29.721 Q76.729,30.701 77.008,31.702 Q77.286,32.702 77.286,33.742 Q77.286,37.763 74.493,40.023 Q71.701,42.284 67.248,42.284 Q63.593,42.284 60.346,40.584 L61.904,35.442 Q64.39,37.463 67.675,37.463 Q69.66,37.463 70.968,36.553 Q72.276,35.643 72.276,33.962 Q72.276,32.302 69.901,30.301 L66.988,27.801 Q65.652,26.641 65.179,26.12 Q64.706,25.6 64.186,24.67 Q63.667,23.74 63.407,22.76 Q63.147,21.779 63.147,20.739 Q63.147,16.698 65.634,14.338 Q68.12,11.977 72.146,11.977 Q73.482,11.977 75.56,12.307 Q77.639,12.637 78.473,13.058 z" fill-opacity="0" stroke="#404040" stroke-width="0.95" stroke-linecap="round" stroke-linejoin="round"/>
    </g>
    <g>
      <path d="M100.72,18.119 Q98.604,16.498 96.025,16.498 Q91.85,16.498 89.021,20.789 Q86.191,25.08 86.191,30.301 Q86.191,33.682 87.731,35.703 Q89.271,37.723 92.017,37.723 Q96.285,37.723 98.716,35.222 L98.623,39.803 Q95.988,42.284 91.034,42.284 Q86.618,42.284 83.909,39.153 Q81.2,36.023 81.2,31.021 Q81.2,22.94 85.366,17.458 Q89.531,11.977 96.248,11.977 Q99.532,11.977 102.074,13.138 z" fill="#87B287"/>
      <path d="M100.72,18.119 Q98.604,16.498 96.025,16.498 Q91.85,16.498 89.021,20.789 Q86.191,25.08 86.191,30.301 Q86.191,33.682 87.731,35.703 Q89.271,37.723 92.017,37.723 Q96.285,37.723 98.716,35.222 L98.623,39.803 Q95.988,42.284 91.034,42.284 Q86.618,42.284 83.909,39.153 Q81.2,36.023 81.2,31.021 Q81.2,22.94 85.366,17.458 Q89.531,11.977 96.248,11.977 Q99.532,11.977 102.074,13.138 z" fill-opacity="0" stroke="#404040" stroke-width="0.95" stroke-linecap="round" stroke-linejoin="round"/>
    </g>
    <g>
      <path d="M119.923,41.784 L119.069,35.823 L109.347,35.823 L106.155,41.784 L101.127,41.784 L117.64,12.077 L119.366,12.077 L124.951,41.784 z M116.991,20.979 L111.406,31.922 L118.531,31.922 z" fill="#87B287"/>
      <path d="M119.923,41.784 L119.069,35.823 L109.347,35.823 L106.155,41.784 L101.127,41.784 L117.64,12.077 L119.366,12.077 L124.951,41.784 z M116.991,20.979 L111.406,31.922 L118.531,31.922 z" fill-opacity="0" stroke="#404040" stroke-width="0.95" stroke-linecap="round" stroke-linejoin="round"/>
    </g>
    <g>
      <path d="M147.364,42.184 L145.49,42.184 L135.471,23.24 L132.465,41.784 L127.678,41.784 L132.669,12.477 L134.895,12.477 L144.711,30.641 L147.661,12.477 L152.43,12.477 z" fill="#87B287"/>
      <path d="M147.364,42.184 L145.49,42.184 L135.471,23.24 L132.465,41.784 L127.678,41.784 L132.669,12.477 L134.895,12.477 L144.711,30.641 L147.661,12.477 L152.43,12.477 z" fill-opacity="0" stroke="#404040" stroke-width="0.95" stroke-linecap="round" stroke-linejoin="round"/>
    </g>
    <g>
      <path d="M184.898,42.184 L183.024,42.184 L173.005,23.24 L169.999,41.784 L165.212,41.784 L170.203,12.477 L172.43,12.477 L182.245,30.641 L185.195,12.477 L189.964,12.477 z" fill="#87B287"/>
      <path d="M184.898,42.184 L183.024,42.184 L173.005,23.24 L169.999,41.784 L165.212,41.784 L170.203,12.477 L172.43,12.477 L182.245,30.641 L185.195,12.477 L189.964,12.477 z" fill-opacity="0" stroke="#404040" stroke-width="0.95" stroke-linecap="round" stroke-linejoin="round"/>
    </g>
    <g>
      <path d="M191.67,30.881 Q191.67,23.06 195.631,17.508 Q199.593,11.957 205.938,11.957 Q210.818,11.957 213.453,14.748 Q216.088,17.539 216.088,22.82 Q216.088,31.482 212.043,36.883 Q207.998,42.284 200.966,42.284 Q196.661,42.284 194.165,39.153 Q191.67,36.023 191.67,30.881 z M196.68,30.341 Q196.68,33.722 197.923,35.723 Q199.166,37.723 201.559,37.723 Q205.975,37.723 208.536,33.442 Q211.097,29.161 211.097,23.22 Q211.097,16.498 205.604,16.498 Q201.745,16.498 199.212,20.899 Q196.68,25.3 196.68,30.341 z" fill="#87B287"/>
      <path d="M191.67,30.881 Q191.67,23.06 195.631,17.508 Q199.593,11.957 205.938,11.957 Q210.818,11.957 213.453,14.748 Q216.088,17.539 216.088,22.82 Q216.088,31.482 212.043,36.883 Q207.998,42.284 200.966,42.284 Q196.661,42.284 194.165,39.153 Q191.67,36.023 191.67,30.881 z M196.68,30.341 Q196.68,33.722 197.923,35.723 Q199.166,37.723 201.559,37.723 Q205.975,37.723 208.536,33.442 Q211.097,29.161 211.097,23.22 Q211.097,16.498 205.604,16.498 Q201.745,16.498 199.212,20.899 Q196.68,25.3 196.68,30.341 z" fill-opacity="0" stroke="#404040" stroke-width="0.95" stroke-linecap="round" stroke-linejoin="round"/>
    </g>
    <g>
      <path d="M240.616,42.184 L238.668,42.184 L235.718,24.3 L226.904,42.184 L224.956,42.184 L221.115,12.477 L226.032,12.477 L228.092,30.241 L236.664,12.477 L238.761,12.477 L241.284,30.121 L249.225,12.477 L254.458,12.477 z" fill="#87B287"/>
      <path d="M240.616,42.184 L238.668,42.184 L235.718,24.3 L226.904,42.184 L224.956,42.184 L221.115,12.477 L226.032,12.477 L228.092,30.241 L236.664,12.477 L238.761,12.477 L241.284,30.121 L249.225,12.477 L254.458,12.477 z" fill-opacity="0" stroke="#404040" stroke-width="0.95" stroke-linecap="round" stroke-linejoin="round"/>
    </g>
    <g>
      <path d="M280.284,41.784 L279.431,35.823 L269.708,35.823 L266.516,41.784 L261.488,41.784 L278.002,12.077 L279.727,12.077 L285.312,41.784 z M277.352,20.979 L271.767,31.922 L278.892,31.922 z" fill="#87B287"/>
      <path d="M280.284,41.784 L279.431,35.823 L269.708,35.823 L266.516,41.784 L261.488,41.784 L278.002,12.077 L279.727,12.077 L285.312,41.784 z M277.352,20.979 L271.767,31.922 L278.892,31.922 z" fill-opacity="0" stroke="#404040" stroke-width="0.95" stroke-linecap="round" stroke-linejoin="round"/>
    </g>
    <g>
      <path d="M307.725,42.184 L305.851,42.184 L295.832,23.24 L292.826,41.784 L288.039,41.784 L293.03,12.477 L295.257,12.477 L305.072,30.641 L308.022,12.477 L312.791,12.477 z" fill="#87B287"/>
      <path d="M307.725,42.184 L305.851,42.184 L295.832,23.24 L292.826,41.784 L288.039,41.784 L293.03,12.477 L295.257,12.477 L305.072,30.641 L308.022,12.477 L312.791,12.477 z" fill-opacity="0" stroke="#404040" stroke-width="0.95" stroke-linecap="round" stroke-linejoin="round"/>
    </g>
    <g>
      <path d="M320.026,41.784 L313.458,41.784 L318.412,12.537 Q321.121,12.017 323.496,12.017 Q329.712,12.017 333.107,15.078 Q336.503,18.139 336.503,23.94 Q336.503,32.082 332.013,36.933 Q327.522,41.784 320.026,41.784 z M322.438,16.758 L319.136,37.123 Q319.952,37.203 320.62,37.203 Q325.593,37.203 328.524,33.422 Q331.456,29.641 331.456,23.72 Q331.456,20.479 329.433,18.519 Q327.411,16.558 324.238,16.558 Q323.348,16.558 322.438,16.758 z" fill="#87B287"/>
      <path d="M320.026,41.784 L313.458,41.784 L318.412,12.537 Q321.121,12.017 323.496,12.017 Q329.712,12.017 333.107,15.078 Q336.503,18.139 336.503,23.94 Q336.503,32.082 332.013,36.933 Q327.522,41.784 320.026,41.784 z M322.438,16.758 L319.136,37.123 Q319.952,37.203 320.62,37.203 Q325.593,37.203 328.524,33.422 Q331.456,29.641 331.456,23.72 Q331.456,20.479 329.433,18.519 Q327.411,16.558 324.238,16.558 Q323.348,16.558 322.438,16.758 z" fill-opacity="0" stroke="#404040" stroke-width="0.95" stroke-linecap="round" stroke-linejoin="round"/>
    </g>
    <g>
      <path d="M371.476,39.123 Q367.283,42.284 361.216,42.284 Q356.54,42.284 353.618,39.053 Q350.695,35.823 350.695,30.861 Q350.695,22.16 355.139,17.068 Q359.583,11.977 367.246,11.977 Q371.402,11.977 373.425,13.978 L371.977,18.319 Q369.25,16.538 366.541,16.538 Q361.642,16.538 358.674,20.409 Q355.705,24.28 355.705,30.101 Q355.705,33.702 357.542,35.713 Q359.379,37.723 362.57,37.723 Q365.223,37.723 367.209,36.143 L368.192,30.341 L364.426,30.341 L365.168,25.98 L373.722,25.98 z" fill="#87B287"/>
      <path d="M371.476,39.123 Q367.283,42.284 361.216,42.284 Q356.54,42.284 353.618,39.053 Q350.695,35.823 350.695,30.861 Q350.695,22.16 355.139,17.068 Q359.583,11.977 367.246,11.977 Q371.402,11.977 373.425,13.978 L371.977,18.319 Q369.25,16.538 366.541,16.538 Q361.642,16.538 358.674,20.409 Q355.705,24.28 355.705,30.101 Q355.705,33.702 357.542,35.713 Q359.379,37.723 362.57,37.723 Q365.223,37.723 367.209,36.143 L368.192,30.341 L364.426,30.341 L365.168,25.98 L373.722,25.98 z" fill-opacity="0" stroke="#404040" stroke-width="0.95" stroke-linecap="round" stroke-linejoin="round"/>
    </g>
    <g>
      <path d="M381.439,41.784 L376.597,41.784 L381.588,12.477 L386.449,12.477 z" fill="#87B287"/>
      <path d="M381.439,41.784 L376.597,41.784 L381.588,12.477 L386.449,12.477 z" fill-opacity="0" stroke="#404040" stroke-width="0.95" stroke-linecap="round" stroke-linejoin="round"/>
    </g>
    <g>
      <path d="M398.917,42.184 L396.282,42.184 L390.827,12.477 L395.985,12.477 L399.232,31.922 L408.769,12.477 L414.169,12.477 z" fill="#87B287"/>
      <path d="M398.917,42.184 L396.282,42.184 L390.827,12.477 L395.985,12.477 L399.232,31.922 L408.769,12.477 L414.169,12.477 z" fill-opacity="0" stroke="#404040" stroke-width="0.95" stroke-linecap="round" stroke-linejoin="round"/>
    </g>
    <g>
      <path d="M435.357,17.038 L422.833,17.038 L421.701,23.78 L430.681,23.78 L429.921,28.141 L420.94,28.141 L419.419,37.223 L431.739,37.223 L430.941,41.784 L413.648,41.784 L418.658,12.477 L436.155,12.477 z" fill="#87B287"/>
      <path d="M435.357,17.038 L422.833,17.038 L421.701,23.78 L430.681,23.78 L429.921,28.141 L420.94,28.141 L419.419,37.223 L431.739,37.223 L430.941,41.784 L413.648,41.784 L418.658,12.477 L436.155,12.477 z" fill-opacity="0" stroke="#404040" stroke-width="0.95" stroke-linecap="round" stroke-linejoin="round"/>
    </g>
    <path d="M51.264,485.146 L189.964,485.146 L189.964,494.146 L51.264,494.146 z" fill="#000000"/>
    <path d="M425.71,485.146 L446.737,485.146 L446.737,494.146 L425.71,494.146 z" fill="#000000"/>
  </g>
  <g id="swiftgive">
    <g>
      <path d="M239.727,507.353 L238.38,472.58 L243.813,472.58 L244.138,490.482 C244.184,494.816 244.091,498.015 243.998,500.749 L244.091,500.749 C245.066,497.86 245.996,494.867 247.574,490.637 L254.587,472.58 L260.484,472.58 L260.717,490.121 C260.763,494.455 260.717,497.705 260.578,500.594 L260.671,500.594 C261.692,497.292 262.714,493.991 263.968,490.482 L270.702,472.58 L276.414,472.58 L262.296,507.353 L256.445,507.353 L255.981,490.586 C255.888,486.562 255.935,483.724 256.166,479.751 L256.027,479.751 C254.959,483.311 253.984,486.562 252.545,490.327 L245.672,507.352 L239.727,507.352 z" fill="#000000"/>
      <path d="M239.727,507.353 L238.38,472.58 L243.813,472.58 L244.138,490.482 C244.184,494.816 244.091,498.015 243.998,500.749 L244.091,500.749 C245.066,497.86 245.996,494.867 247.574,490.637 L254.587,472.58 L260.484,472.58 L260.717,490.121 C260.763,494.455 260.717,497.705 260.578,500.594 L260.671,500.594 C261.692,497.292 262.714,493.991 263.968,490.482 L270.702,472.58 L276.414,472.58 L262.296,507.353 L256.445,507.353 L255.981,490.586 C255.888,486.562 255.935,483.724 256.166,479.751 L256.027,479.751 C254.959,483.311 253.984,486.562 252.545,490.327 L245.672,507.352 L239.727,507.352 z" fill-opacity="0" stroke="#404040" stroke-width="0.6" stroke-linecap="round" stroke-linejoin="round"/>
    </g>
    <g>
      <path d="M285.048,472.58 L279.103,507.353 L273.67,507.353 L279.615,472.58 z" fill="#000000"/>
      <path d="M285.048,472.58 L279.103,507.353 L273.67,507.353 L279.615,472.58 z" fill-opacity="0" stroke="#404040" stroke-width="0.6" stroke-linecap="round" stroke-linejoin="round"/>
    </g>
    <g>
      <path d="M290.898,472.58 L308.173,472.58 L307.245,477.688 L295.449,477.688 L293.777,487.49 L304.737,487.49 L303.854,492.546 L292.894,492.546 L290.387,507.352 L284.953,507.352 z" fill="#000000"/>
      <path d="M290.898,472.58 L308.173,472.58 L307.245,477.688 L295.449,477.688 L293.777,487.49 L304.737,487.49 L303.854,492.546 L292.894,492.546 L290.387,507.352 L284.953,507.352 z" fill-opacity="0" stroke="#404040" stroke-width="0.6" stroke-linecap="round" stroke-linejoin="round"/>
    </g>
    <g>
      <path d="M317.644,477.842 L308.96,477.842 L309.889,472.579 L332.691,472.579 L331.762,477.842 L323.031,477.842 L318.016,507.352 L312.583,507.352 z" fill="#000000"/>
      <path d="M317.644,477.842 L308.96,477.842 L309.889,472.579 L332.691,472.579 L331.762,477.842 L323.031,477.842 L318.016,507.352 L312.583,507.352 z" fill-opacity="0" stroke="#404040" stroke-width="0.6" stroke-linecap="round" stroke-linejoin="round"/>
    </g>
    <g>
      <path d="M335.67,477.3 C331.63,481.169 329.401,487 329.401,493.19 L329.401,493.19 C329.401,497.163 330.516,500.981 332.977,503.612 L332.977,503.612 C335.438,506.347 338.966,507.688 343.285,507.688 L343.285,507.688 C347.139,507.688 350.715,506.605 352.851,505.78 L352.851,505.78 L355.822,488.238 L345.05,488.238 L344.168,493.088 L349.694,493.088 L348.208,501.807 C347.28,502.221 345.886,502.581 344.215,502.581 L344.215,502.581 C338.364,502.581 335.299,498.97 335.299,492.727 L335.299,492.727 C335.299,487.98 337.064,483.491 339.896,480.809 L339.896,480.809 C342.218,478.59 345.282,477.404 348.626,477.404 L348.626,477.404 C351.458,477.404 353.78,478.022 355.266,478.848 L355.266,478.848 L356.938,473.791 C355.823,473.12 352.991,472.192 349.044,472.192 L349.044,472.192 C343.796,472.192 339.106,474.048 335.67,477.3" fill="#87B287"/>
      <path d="M335.67,477.3 C331.63,481.169 329.401,487 329.401,493.19 L329.401,493.19 C329.401,497.163 330.516,500.981 332.977,503.612 L332.977,503.612 C335.438,506.347 338.966,507.688 343.285,507.688 L343.285,507.688 C347.139,507.688 350.715,506.605 352.851,505.78 L352.851,505.78 L355.822,488.238 L345.05,488.238 L344.168,493.088 L349.694,493.088 L348.208,501.807 C347.28,502.221 345.886,502.581 344.215,502.581 L344.215,502.581 C338.364,502.581 335.299,498.97 335.299,492.727 L335.299,492.727 C335.299,487.98 337.064,483.491 339.896,480.809 L339.896,480.809 C342.218,478.59 345.282,477.404 348.626,477.404 L348.626,477.404 C351.458,477.404 353.78,478.022 355.266,478.848 L355.266,478.848 L356.938,473.791 C355.823,473.12 352.991,472.192 349.044,472.192 L349.044,472.192 C343.796,472.192 339.106,474.048 335.67,477.3" fill-opacity="0" stroke="#404040" stroke-width="0.75" stroke-linecap="round" stroke-linejoin="round"/>
    </g>
    <g>
      <path d="M362.973,472.553 L357.029,507.328 L362.462,507.328 L368.406,472.553 z" fill="#87B287"/>
      <path d="M362.973,472.553 L357.029,507.328 L362.462,507.328 L368.406,472.553 z" fill-opacity="0" stroke="#404040" stroke-width="0.72" stroke-linecap="round" stroke-linejoin="round"/>
    </g>
    <g>
      <path d="M390.695,472.553 L382.336,491.437 C380.711,495.049 379.504,498.247 378.482,501.084 L378.482,501.084 L378.389,501.084 C378.25,498.093 378.065,495.306 377.693,491.694 L377.693,491.694 L375.882,472.553 L370.356,472.553 L374.211,507.328 L380.387,507.328 L396.685,472.553 z" fill="#87B287"/>
      <path d="M390.695,472.553 L382.336,491.437 C380.711,495.049 379.504,498.247 378.482,501.084 L378.482,501.084 L378.389,501.084 C378.25,498.093 378.065,495.306 377.693,491.694 L377.693,491.694 L375.882,472.553 L370.356,472.553 L374.211,507.328 L380.387,507.328 L396.685,472.553 z" fill-opacity="0" stroke="#404040" stroke-width="0.72" stroke-linecap="round" stroke-linejoin="round"/>
    </g>
    <g>
      <path d="M399.146,472.552 L393.203,507.328 L411.266,507.328 L412.148,502.219 L399.518,502.219 L401.282,491.849 L412.52,491.849 L413.402,486.793 L402.118,486.793 L403.697,477.66 L415.631,477.66 L416.513,472.552 z" fill="#87B287"/>
      <path d="M399.146,472.552 L393.203,507.328 L411.266,507.328 L412.148,502.219 L399.518,502.219 L401.282,491.849 L412.52,491.849 L413.402,486.793 L402.118,486.793 L403.697,477.66 L415.631,477.66 L416.513,472.552 z" fill-opacity="0" stroke="#404040" stroke-width="0.72" stroke-linecap="round" stroke-linejoin="round"/>
    </g>
    <g>
      <g>
        <path d="M213.982,497.887 L213.981,497.887 C214.911,497.892 215.401,498.638 215.261,499.632 C214.644,504.009 214.01,508.473 213.357,513.054 C213.215,514.052 212.646,514.576 211.633,514.664 C211.528,514.673 211.449,514.677 211.273,514.685 C211.218,514.687 211.194,514.688 211.164,514.69 C211.076,514.694 211.009,514.699 210.948,514.704 C209.709,514.822 209.068,514.162 209.221,512.921 C209.264,512.58 209.296,512.316 209.374,511.689 C209.408,511.413 209.408,511.413 209.442,511.137 C209.631,509.6 209.753,508.618 209.881,507.6 C209.883,507.591 209.883,507.591 209.884,507.581 C209.957,507.026 209.919,507.309 210,506.734 C209.932,506.755 209.978,506.741 209.863,506.777 C209.723,506.821 209.619,506.854 209.518,506.886 C208.969,507.06 208.569,507.186 208.175,507.308 C208.166,507.311 208.166,507.311 208.157,507.313 C208.041,507.35 208.041,507.35 207.924,507.386 C205.948,507.999 205.056,508.274 203.949,508.609 C202.787,508.961 202.126,508.625 201.827,507.499 C201.435,506.019 201.088,504.713 200.757,503.466 C200.438,502.261 200.898,501.538 202.148,501.234 C206.375,500.207 209.908,499.197 213.254,498.02 C213.509,497.931 213.753,497.885 213.981,497.887 L213.981,497.887 z" fill="#404040"/>
        <path d="M213.978,498.504 C213.826,498.503 213.651,498.535 213.456,498.603 C209.773,499.899 206.043,500.922 202.294,501.834 C201.372,502.058 201.126,502.446 201.355,503.307 C201.712,504.651 202.069,505.996 202.425,507.34 C202.63,508.114 202.929,508.272 203.771,508.017 C205.173,507.592 206.574,507.157 207.975,506.723 C208.865,506.446 209.755,506.162 210.753,505.847 C210.66,506.502 210.569,507.089 210.495,507.677 C210.271,509.451 210.054,511.223 209.835,512.996 C209.73,513.847 210.046,514.169 210.89,514.089 C211.121,514.068 211.35,514.068 211.581,514.048 C212.306,513.985 212.644,513.681 212.746,512.966 C213.384,508.492 214.019,504.019 214.65,499.545 C214.743,498.882 214.485,498.507 213.978,498.504 z" fill="#000000"/>
      </g>
      <g>
        <path d="M218.742,484.842 C219.599,484.847 220.493,484.853 221.576,484.86 C222.051,484.864 222.431,484.866 223.286,484.872 C227.954,484.904 230.03,484.916 232.624,484.926 C233.389,484.929 233.977,485.144 234.458,485.652 C235.615,486.877 236.285,488.096 236.466,489.558 C236.715,491.567 236.045,493.453 234.557,495.254 C233.314,496.758 231.82,497.932 229.553,499.342 C226.568,501.232 223.358,502.717 220.074,504 C219.834,505.798 219.588,507.595 219.344,509.392 C219.337,509.44 219.337,509.44 219.331,509.488 C219.124,511.008 219.021,511.759 218.902,512.642 C218.722,513.974 218.217,514.435 216.873,514.491 C216.832,514.493 216.79,514.495 216.742,514.497 C216.697,514.499 216.661,514.501 216.576,514.506 C216.485,514.511 216.442,514.513 216.392,514.515 C215.098,514.582 214.497,513.93 214.678,512.648 C214.816,511.669 214.945,510.76 215.166,509.207 C215.485,506.962 215.553,506.479 215.696,505.472 C215.771,504.941 215.833,504.507 215.968,503.566 C216.337,500.981 216.497,499.849 216.69,498.422 C216.811,497.529 217.24,496.95 218.095,496.599 C219.901,495.857 221.279,495.131 222.496,494.226 C222.684,494.086 222.835,493.958 223.168,493.662 C223.173,493.657 223.173,493.657 223.179,493.652 C223.273,493.568 223.321,493.526 223.378,493.477 C224.198,492.76 224.262,491.581 223.729,490.875 C223.158,490.119 222.349,489.563 221.171,489.048 C220.441,488.728 219.838,488.492 218.476,487.98 C218.473,487.979 218.473,487.979 218.47,487.978 C218.042,487.817 217.85,487.745 217.613,487.655 C216.887,487.379 216.516,486.854 216.658,486.137 C216.786,485.483 217.25,485.068 217.966,484.919 C218.221,484.866 218.484,484.84 218.742,484.842 z" fill="#404040"/>
        <path d="M218.738,485.46 C218.525,485.458 218.305,485.48 218.091,485.524 C217.6,485.626 217.341,485.866 217.264,486.256 C217.186,486.654 217.374,486.903 217.832,487.077 C219.033,487.535 220.247,487.969 221.419,488.482 C222.501,488.955 223.504,489.553 224.221,490.502 C224.826,491.303 224.991,492.888 223.784,493.942 C223.481,494.207 223.185,494.483 222.864,494.721 C221.458,495.768 219.91,496.52 218.329,497.17 C217.655,497.447 217.39,497.859 217.302,498.506 C216.984,500.856 216.641,503.207 216.308,505.559 C215.969,507.95 215.628,510.341 215.289,512.734 C215.162,513.632 215.454,513.945 216.36,513.898 C216.523,513.891 216.685,513.881 216.847,513.874 C217.894,513.83 218.15,513.592 218.29,512.559 C218.681,509.671 219.079,506.783 219.465,503.895 C219.498,503.648 219.577,503.527 219.841,503.428 C223.091,502.202 226.23,500.682 229.227,498.818 C231.004,497.712 232.721,496.507 234.081,494.861 C235.394,493.272 236.09,491.548 235.853,489.634 C235.674,488.188 234.95,487.072 234.009,486.077 C233.636,485.682 233.193,485.546 232.622,485.543 C227.992,485.527 223.365,485.488 218.738,485.46 z" fill="#000000"/>
      </g>
      <g>
        <path d="M224.739,465.645 C225.931,465.653 226.429,466.376 226.173,467.582 C225.99,468.45 225.802,469.342 225.559,470.503 C225.489,470.835 225.437,471.083 225.307,471.708 C225.244,472.007 225.182,472.305 225.119,472.604 C226.144,472.457 225.668,472.525 226.549,472.399 C226.672,472.381 226.672,472.381 226.796,472.364 C227.265,472.296 227.751,472.227 228.368,472.138 C228.742,472.085 229.116,472.031 229.49,471.978 C229.516,471.731 229.541,471.484 229.566,471.238 C229.583,471.068 229.59,470.995 229.6,470.901 C229.656,470.347 229.698,469.958 229.743,469.568 C229.867,468.503 230.462,467.792 231.432,467.674 C231.892,467.618 232.417,467.754 232.762,468.039 C234.847,469.769 236.928,471.522 239.852,474.006 C240.745,474.763 240.581,476.164 239.607,476.943 C238.685,477.681 237.911,478.294 236.297,479.567 C236.185,479.656 236.185,479.656 236.072,479.745 C235.483,480.209 235.13,480.488 234.754,480.786 C234.432,481.041 234.17,481.249 233.596,481.704 C233.584,481.714 233.584,481.714 233.571,481.724 C232.519,482.559 232.037,482.941 231.443,483.409 C230.424,484.211 229.097,484.099 228.654,482.989 C228.526,482.666 228.497,482.299 228.528,481.87 C228.579,481.158 228.652,480.447 228.721,479.737 C228.611,479.749 228.695,479.74 228.47,479.765 C227.601,479.863 227.145,479.918 226.632,479.99 C224.6,480.276 222.623,480.715 220.692,481.315 C219.454,481.701 218.645,480.959 218.828,479.665 C219.409,475.557 219.99,471.459 220.572,467.371 C220.731,466.26 221.293,465.731 222.375,465.703 C222.466,465.7 222.56,465.697 222.673,465.694 C222.772,465.69 222.772,465.69 222.871,465.687 C223.476,465.667 224.081,465.652 224.686,465.646 L224.703,465.645 z" fill="#404040"/>
        <path d="M224.735,466.263 C224.721,466.263 224.708,466.263 224.695,466.263 C223.929,466.268 223.161,466.297 222.393,466.32 C221.619,466.341 221.301,466.637 221.184,467.458 C220.6,471.556 220.019,475.654 219.44,479.752 C219.319,480.605 219.712,480.974 220.508,480.725 C222.509,480.104 224.522,479.664 226.545,479.378 C227.491,479.246 228.436,479.151 229.409,479.036 C229.315,480.04 229.213,480.979 229.144,481.915 C229.123,482.202 229.131,482.516 229.228,482.761 C229.496,483.431 230.335,483.494 231.061,482.923 C232.166,482.053 233.267,481.175 234.371,480.301 C235.988,479.022 237.61,477.75 239.221,476.461 C239.913,475.908 240.024,474.961 239.453,474.476 C237.1,472.479 234.743,470.485 232.368,468.514 C232.156,468.34 231.8,468.251 231.507,468.287 C230.832,468.369 230.448,468.854 230.356,469.64 C230.258,470.485 230.18,471.332 230.091,472.177 C230.077,472.305 230.055,472.433 230.042,472.523 C228.118,472.798 226.253,473.065 224.347,473.339 C224.358,473.261 224.363,473.209 224.372,473.158 C224.771,471.257 225.166,469.355 225.569,467.454 C225.746,466.618 225.519,466.268 224.735,466.263 z" fill="#87B287"/>
      </g>
      <g>
        <path d="M218.042,466.157 C218.832,466.163 219.312,466.69 219.354,467.498 C219.364,467.683 219.35,467.85 219.314,468.097 C219.163,469.167 219.044,470.003 218.767,471.958 C218.567,473.365 218.474,474.02 218.361,474.817 C218.011,477.285 217.738,479.232 217.476,481.114 C217.356,481.971 216.951,482.534 216.161,482.869 C214.732,483.476 213.62,484.125 212.669,484.963 C212.593,485.03 212.528,485.091 212.393,485.223 C212.385,485.231 212.385,485.231 212.376,485.24 C212.35,485.264 212.35,485.264 212.324,485.29 C211.649,485.942 211.644,486.559 212.136,487.154 C212.564,487.673 213.14,488.064 213.841,488.33 C214.993,488.767 215.923,489.106 218.014,489.856 C218.028,489.861 218.028,489.861 218.042,489.867 C219.327,490.328 219.919,490.541 220.642,490.806 C221.473,491.111 222.143,491.363 223.618,491.922 C223.673,491.943 223.673,491.943 223.728,491.964 C224.543,492.273 224.973,492.435 225.461,492.618 C226.091,492.853 226.429,493.384 226.337,494.072 C226.251,494.721 225.774,495.17 225.079,495.336 C224.84,495.391 224.596,495.419 224.361,495.418 C222.112,495.405 220.314,495.393 216.263,495.365 C215.686,495.361 215.429,495.36 215.109,495.357 C215.079,495.357 215.079,495.357 215.049,495.357 C212.733,495.341 211.653,495.334 210.34,495.325 C208.718,495.313 207.275,495.303 205.895,495.294 C205.878,495.294 205.863,495.294 205.828,495.294 C205.797,495.294 205.781,495.294 205.763,495.294 C205.558,495.293 205.413,495.279 205.247,495.222 C202.933,494.42 201.484,493.685 200.234,492.501 C199.09,491.418 198.549,490.029 198.68,488.396 C198.776,487.188 199.272,486.043 200.129,484.849 C201.25,483.285 202.661,482.002 204.662,480.585 C207.172,478.776 209.937,477.377 212.777,476.169 C212.845,474.91 212.916,473.651 212.988,472.392 C213.026,471.72 213.058,471.171 213.127,469.978 C213.174,469.172 213.193,468.835 213.218,468.395 C213.223,468.326 213.228,468.261 213.237,468.163 C213.239,468.145 213.239,468.145 213.241,468.127 C213.244,468.091 213.244,468.091 213.247,468.053 C213.345,467.035 213.843,466.478 214.819,466.385 C215.752,466.296 216.713,466.229 217.922,466.161 C217.965,466.158 218.003,466.157 218.042,466.157 z" fill="#404040"/>
        <path d="M218.038,466.775 C218.013,466.775 217.987,466.776 217.96,466.777 C216.934,466.835 215.907,466.902 214.878,467 C214.201,467.064 213.931,467.387 213.862,468.111 C213.853,468.219 213.842,468.327 213.835,468.434 C213.685,471.029 213.533,473.626 213.392,476.222 C213.377,476.489 213.304,476.621 213.038,476.73 C210.244,477.875 207.556,479.294 205.019,481.089 C203.381,482.249 201.836,483.529 200.631,485.209 C199.919,486.202 199.39,487.269 199.296,488.445 C199.176,489.935 199.683,491.129 200.658,492.053 C202.008,493.331 203.702,494.033 205.449,494.639 C205.584,494.685 205.748,494.675 205.899,494.676 C208.971,494.698 212.042,494.719 215.113,494.74 C218.197,494.761 221.282,494.783 224.365,494.8 C224.553,494.801 224.75,494.778 224.94,494.734 C225.395,494.625 225.675,494.367 225.725,493.99 C225.78,493.578 225.593,493.327 225.245,493.196 C223.639,492.595 222.04,491.977 220.429,491.386 C218.163,490.555 215.878,489.764 213.622,488.908 C212.868,488.622 212.184,488.183 211.659,487.547 C211.077,486.843 210.869,485.836 211.895,484.846 C212.015,484.729 212.135,484.61 212.261,484.499 C213.37,483.523 214.623,482.851 215.92,482.3 C216.525,482.044 216.777,481.651 216.864,481.028 C217.468,476.689 218.089,472.349 218.703,468.01 C218.726,467.85 218.746,467.687 218.738,467.53 C218.712,467.039 218.487,466.778 218.038,466.775 z" fill="#87B287"/>
      </g>
    </g>
  </g>
  <g id="S">
    <g>
      <path d="M248.396,234.669 C252.56,234.694 256.902,234.722 262.164,234.758 C264.471,234.773 266.314,234.786 270.47,234.814 C293.143,234.969 303.225,235.03 315.826,235.075 C319.539,235.089 322.399,236.135 324.732,238.604 C330.354,244.553 333.609,250.474 334.487,257.574 C335.696,267.335 332.442,276.494 325.212,285.243 C319.177,292.546 311.919,298.249 300.909,305.099 C286.41,314.277 270.82,321.491 254.866,327.72 C253.699,336.453 252.509,345.182 251.32,353.912 C251.289,354.145 251.289,354.145 251.257,354.378 C250.251,361.761 249.755,365.409 249.175,369.697 C248.3,376.165 245.847,378.407 239.319,378.678 C239.122,378.687 238.914,378.696 238.683,378.708 C238.462,378.719 238.292,378.728 237.878,378.75 C237.437,378.773 237.229,378.784 236.983,378.796 C230.699,379.122 227.777,375.952 228.656,369.725 C229.33,364.969 229.956,360.557 231.028,353.013 C232.576,342.11 232.909,339.765 233.603,334.871 C233.969,332.292 234.27,330.185 234.923,325.613 C236.718,313.059 237.494,307.56 238.431,300.631 C239.02,296.293 241.102,293.48 245.254,291.771 C254.027,288.168 260.721,284.646 266.63,280.247 C267.543,279.568 268.277,278.944 269.896,277.508 C269.922,277.484 269.922,277.484 269.948,277.461 C270.408,277.053 270.639,276.849 270.915,276.607 C274.901,273.128 275.211,267.402 272.618,263.969 C269.847,260.299 265.919,257.598 260.195,255.096 C256.649,253.543 253.72,252.398 247.104,249.912 C247.091,249.907 247.091,249.907 247.077,249.902 C244.997,249.12 244.067,248.77 242.912,248.329 C239.389,246.99 237.588,244.44 238.276,240.96 C238.899,237.779 241.152,235.765 244.627,235.044 C245.867,234.787 247.146,234.66 248.396,234.669 z M248.376,237.669 C247.345,237.662 246.277,237.766 245.236,237.982 C242.853,238.476 241.591,239.641 241.22,241.536 C240.838,243.467 241.754,244.679 243.978,245.525 C249.811,247.751 255.71,249.856 261.398,252.348 C266.657,254.646 271.529,257.549 275.012,262.161 C277.948,266.048 278.751,273.75 272.888,278.867 C271.417,280.154 269.98,281.494 268.42,282.654 C261.59,287.738 254.073,291.392 246.394,294.546 C243.118,295.894 241.831,297.892 241.404,301.034 C239.86,312.451 238.194,323.87 236.573,335.293 C234.927,346.905 233.273,358.521 231.626,370.146 C231.011,374.504 232.429,376.028 236.828,375.8 C237.62,375.761 238.406,375.714 239.195,375.681 C244.279,375.469 245.523,374.313 246.202,369.295 C248.1,355.266 250.032,341.238 251.908,327.209 C252.067,326.013 252.453,325.426 253.734,324.942 C269.521,318.989 284.768,311.606 299.324,302.552 C307.958,297.18 316.294,291.326 322.9,283.332 C329.279,275.613 332.661,267.242 331.509,257.942 C330.641,250.918 327.123,245.502 322.551,240.665 C320.741,238.748 318.588,238.085 315.815,238.075 C293.328,237.994 270.854,237.805 248.376,237.669 z" fill="#000000"/>
      <path d="M248.417,231.669 C252.473,231.693 256.771,231.721 262.184,231.758 C264.399,231.773 266.136,231.784 270.491,231.814 C294.24,231.976 303.744,232.032 315.837,232.075 C320.42,232.092 324.034,233.498 326.912,236.543 C333.127,243.119 336.527,249.624 337.464,257.205 C338.762,267.688 335.37,277.66 327.525,287.154 C321.473,294.478 314.222,300.35 302.513,307.634 C288.393,316.647 273.126,323.637 257.608,329.853 C256.599,337.384 255.573,344.913 254.548,352.442 C254.543,352.483 254.543,352.483 254.537,352.523 C254.415,353.42 254.415,353.42 254.293,354.317 C254.272,354.472 254.251,354.627 254.229,354.783 C253.176,362.518 252.704,365.985 252.148,370.099 C251.077,378.011 247.422,381.344 239.444,381.676 C239.258,381.684 239.059,381.693 238.832,381.704 C238.624,381.714 238.467,381.723 238.037,381.745 C237.571,381.77 237.37,381.781 237.138,381.792 C228.969,382.215 224.543,377.4 225.686,369.304 C226.333,364.733 226.936,360.484 228.058,352.591 C229.66,341.311 229.96,339.195 230.633,334.45 C230.984,331.973 231.268,329.98 231.954,325.188 C233.833,312.045 234.56,306.872 235.459,300.227 C236.198,294.784 239.011,291.096 244.114,288.996 C252.935,285.373 259.309,281.956 264.839,277.84 C265.633,277.249 266.277,276.708 267.905,275.264 C267.921,275.249 267.921,275.249 267.931,275.24 C267.941,275.232 267.941,275.232 267.957,275.217 C268.445,274.785 268.669,274.586 268.943,274.347 C271.572,272.052 272.002,268.131 270.224,265.777 C267.865,262.653 264.429,260.22 258.991,257.844 C255.645,256.378 252.927,255.305 246.049,252.721 C246.041,252.717 246.041,252.717 246.036,252.716 C246.031,252.714 246.031,252.714 246.022,252.711 C243.838,251.89 242.957,251.557 241.846,251.133 C236.932,249.265 234.36,245.301 235.332,240.383 C236.191,235.998 239.366,233.071 244.018,232.107 C245.463,231.807 246.953,231.659 248.417,231.669 z M248.396,234.669 C247.146,234.66 245.867,234.787 244.627,235.044 C241.152,235.765 238.899,237.779 238.276,240.96 C237.588,244.44 239.389,246.99 242.912,248.329 C244.067,248.77 244.997,249.12 247.078,249.902 C247.091,249.907 247.091,249.907 247.105,249.912 C253.72,252.398 256.649,253.543 260.195,255.096 C265.919,257.598 269.847,260.299 272.618,263.969 C275.211,267.402 274.901,273.128 270.915,276.607 C270.639,276.849 270.408,277.053 269.948,277.461 C269.922,277.484 269.922,277.484 269.896,277.508 C268.277,278.944 267.543,279.568 266.63,280.247 C260.721,284.646 254.027,288.168 245.254,291.771 C241.102,293.48 239.02,296.293 238.431,300.631 C237.494,307.56 236.718,313.059 234.923,325.613 C234.27,330.186 233.969,332.292 233.603,334.871 C232.909,339.765 232.576,342.11 231.028,353.013 C229.956,360.557 229.33,364.969 228.656,369.725 C227.777,375.952 230.699,379.122 236.983,378.796 C237.229,378.784 237.437,378.773 237.878,378.75 C238.292,378.728 238.462,378.719 238.683,378.708 C238.914,378.696 239.122,378.687 239.319,378.678 C245.847,378.407 248.3,376.165 249.175,369.697 C249.755,365.409 250.251,361.761 251.257,354.378 C251.289,354.145 251.289,354.145 251.32,353.912 C252.509,345.182 253.699,336.453 254.866,327.72 C270.82,321.491 286.41,314.277 300.909,305.099 C311.919,298.249 319.177,292.546 325.212,285.243 C332.442,276.494 335.696,267.335 334.487,257.574 C333.609,250.474 330.354,244.553 324.732,238.604 C322.399,236.135 319.539,235.089 315.826,235.075 C303.225,235.03 293.143,234.969 270.47,234.814 C266.314,234.786 264.471,234.773 262.164,234.758 C256.902,234.722 252.56,234.694 248.396,234.669 z M248.376,237.669 C270.854,237.805 293.328,237.994 315.815,238.075 C318.588,238.085 320.741,238.748 322.551,240.665 C327.123,245.502 330.641,250.918 331.509,257.942 C332.661,267.242 329.279,275.613 322.9,283.332 C316.294,291.326 307.958,297.18 299.324,302.552 C284.768,311.606 269.521,318.989 253.734,324.942 C252.453,325.426 252.067,326.013 251.908,327.209 C250.032,341.238 248.1,355.266 246.202,369.295 C245.523,374.313 244.279,375.469 239.195,375.681 C238.406,375.714 237.62,375.761 236.828,375.8 C232.429,376.028 231.011,374.504 231.626,370.146 C233.273,358.521 234.927,346.905 236.573,335.293 C238.194,323.87 239.86,312.451 241.404,301.034 C241.831,297.892 243.118,295.894 246.394,294.546 C254.073,291.392 261.59,287.738 268.42,282.654 C269.98,281.494 271.417,280.154 272.888,278.867 C278.751,273.75 277.948,266.048 275.012,262.161 C271.529,257.549 266.657,254.646 261.398,252.348 C255.71,249.856 249.811,247.751 243.978,245.525 C241.754,244.679 240.838,243.467 241.22,241.536 C241.591,239.641 242.853,238.476 245.236,237.982 C246.277,237.766 247.345,237.662 248.376,237.669 z M248.355,240.669 C247.528,240.663 246.671,240.748 245.845,240.919 C244.608,241.176 244.292,241.458 244.163,242.118 L244.122,242.252 L244.161,242.288 C244.769,242.624 244.472,242.483 245.048,242.722 C246.194,243.159 247.116,243.507 249.188,244.285 C249.201,244.291 249.201,244.291 249.215,244.296 C255.931,246.819 258.926,247.99 262.6,249.599 C269.183,252.476 273.916,255.732 277.406,260.354 C281.823,266.203 281.321,275.489 274.863,281.125 C274.604,281.353 274.38,281.551 273.93,281.949 C273.904,281.973 273.904,281.973 273.878,281.996 C272.13,283.546 271.308,284.245 270.212,285.06 C263.843,289.801 256.732,293.544 247.535,297.321 C245.409,298.196 244.684,299.176 244.377,301.436 C243.437,308.384 242.66,313.893 240.863,326.462 C240.209,331.033 239.909,333.138 239.544,335.714 C238.85,340.608 238.517,342.953 236.968,353.856 C235.896,361.401 235.27,365.812 234.597,370.565 C234.247,373.044 234.146,372.935 236.682,372.803 C236.925,372.792 237.127,372.781 237.56,372.758 C237.98,372.736 238.156,372.727 238.386,372.715 C238.632,372.703 238.855,372.693 239.07,372.684 C242.688,372.533 242.743,372.483 243.229,368.893 C243.809,364.602 244.306,360.953 245.312,353.568 C245.343,353.335 245.343,353.335 245.375,353.102 C247.166,339.956 247.958,334.113 248.934,326.813 C249.245,324.482 250.396,322.996 252.675,322.135 C268.632,316.118 283.649,308.769 297.74,300.005 C308.247,293.468 315.049,288.122 320.587,281.421 C326.833,273.863 329.521,266.295 328.532,258.31 C327.83,252.631 325.184,247.818 320.371,242.725 C319.263,241.552 317.98,241.083 315.804,241.075 C303.195,241.03 293.109,240.969 270.429,240.814 C266.273,240.785 264.43,240.773 262.124,240.757 C256.862,240.722 252.522,240.694 248.358,240.669 z" fill="#FFFFFF"/>
    </g>
    <g>
      <path d="M266.591,272.517 L280.501,272.517 L280.501,282.715 L266.591,282.715 z" fill="#FFFFFF"/>
      <path d="M266.591,272.517 L280.501,272.517 L280.501,282.715 L266.591,282.715 z" fill-opacity="0" stroke="#FFFFFF" stroke-width="3" stroke-linecap="round" stroke-linejoin="round"/>
    </g>
    <g>
      <path d="M225.273,298.029 C229.791,298.054 232.171,301.678 231.491,306.505 C228.493,327.765 225.416,349.449 222.241,371.698 C221.551,376.546 218.79,379.093 213.867,379.518 C213.361,379.561 212.973,379.583 212.119,379.62 C211.854,379.632 211.737,379.637 211.593,379.644 C211.164,379.665 210.836,379.686 210.543,379.713 C204.522,380.287 201.412,377.079 202.155,371.054 C202.36,369.397 202.518,368.116 202.894,365.068 C203.059,363.728 203.059,363.728 203.224,362.389 C204.146,354.921 204.738,350.152 205.36,345.21 C205.366,345.163 205.366,345.163 205.372,345.117 C205.729,342.42 205.541,343.793 205.937,340.999 C205.606,341.104 205.828,341.033 205.271,341.21 C204.59,341.426 204.087,341.585 203.597,341.74 C200.927,342.584 198.984,343.195 197.071,343.789 C197.029,343.802 197.029,343.802 196.985,343.815 C196.42,343.991 196.42,343.991 195.854,344.166 C186.254,347.143 181.922,348.479 176.548,350.106 C170.903,351.818 167.691,350.187 166.242,344.718 C164.334,337.526 162.651,331.184 161.042,325.127 C159.49,319.274 161.726,315.763 167.798,314.287 C188.329,309.296 205.49,304.395 221.74,298.676 C222.983,298.245 224.165,298.021 225.277,298.029 z M225.256,301.029 C224.518,301.024 223.668,301.182 222.722,301.51 C204.83,307.807 186.715,312.776 168.507,317.202 C164.024,318.292 162.833,320.176 163.942,324.359 C165.676,330.887 167.41,337.421 169.141,343.949 C170.137,347.705 171.59,348.475 175.677,347.235 C182.489,345.173 189.293,343.06 196.097,340.95 C200.423,339.607 204.746,338.225 209.591,336.697 C209.14,339.878 208.696,342.729 208.337,345.584 C207.252,354.2 206.197,362.809 205.132,371.422 C204.623,375.552 206.156,377.118 210.258,376.726 C211.377,376.625 212.492,376.624 213.613,376.529 C217.135,376.225 218.777,374.746 219.271,371.275 C222.372,349.545 225.456,327.817 228.52,306.086 C228.974,302.864 227.72,301.043 225.256,301.029 z" fill="#000000"/>
      <path d="M225.298,295.029 L225.298,295.029 L225.311,295.03 L225.311,295.029 L225.314,295.029 L225.337,295.031 C232.196,295.262 235.083,300.626 234.461,306.923 C231.48,328.066 228.404,349.744 225.211,372.12 C224.325,378.347 220.443,381.961 214.12,382.508 C213.588,382.553 213.188,382.576 212.251,382.617 C211.979,382.629 211.872,382.634 211.739,382.641 C211.341,382.66 211.054,382.679 210.828,382.699 C202.894,383.456 198.2,378.612 199.178,370.686 C199.374,369.095 199.523,367.892 199.916,364.701 C200.02,363.864 200.02,363.864 200.082,363.361 C200.144,362.859 200.144,362.859 200.247,362.022 C200.934,356.442 201.627,350.864 202.327,345.286 C198.906,346.361 200.362,345.906 197.961,346.654 C197.935,346.662 197.935,346.662 197.919,346.667 C197.903,346.672 197.903,346.672 197.874,346.681 C197.52,346.791 197.52,346.791 197.308,346.856 C197.096,346.922 197.096,346.922 196.742,347.032 C186.678,350.153 182.584,351.413 177.418,352.977 C170.164,355.177 165.232,352.616 163.342,345.487 C161.394,338.141 159.72,331.835 158.142,325.896 C156.157,318.407 159.392,313.243 167.09,311.372 C188.069,306.272 204.982,301.393 220.757,295.841 C222.324,295.298 223.837,295.019 225.298,295.029 z M225.275,298.029 C224.165,298.021 222.983,298.245 221.74,298.676 C205.49,304.395 188.329,309.296 167.798,314.287 C161.726,315.763 159.49,319.274 161.042,325.127 C162.651,331.184 164.334,337.526 166.242,344.718 C167.691,350.187 170.903,351.818 176.548,350.106 C181.922,348.479 186.254,347.143 195.854,344.166 C196.42,343.991 196.42,343.991 196.985,343.815 C197.029,343.802 197.029,343.802 197.071,343.789 C198.984,343.195 200.927,342.584 203.597,341.74 C204.087,341.585 204.59,341.426 205.271,341.21 C205.828,341.033 205.606,341.104 205.937,340.999 C205.541,343.793 205.729,342.42 205.372,345.117 C205.366,345.163 205.366,345.163 205.36,345.21 C204.738,350.152 204.146,354.921 203.224,362.389 C203.059,363.728 203.059,363.728 202.894,365.068 C202.518,368.116 202.36,369.397 202.155,371.054 C201.412,377.079 204.522,380.287 210.543,379.713 C210.836,379.686 211.164,379.665 211.593,379.644 C211.737,379.637 211.854,379.632 212.119,379.62 C212.973,379.583 213.361,379.561 213.867,379.518 C218.79,379.093 221.551,376.546 222.241,371.698 C225.416,349.449 228.493,327.765 231.491,306.505 C231.869,303.265 230.994,299.592 227.583,298.407 C227.103,298.24 226.591,298.186 226.095,298.075 z M225.256,301.029 C227.72,301.043 228.974,302.864 228.52,306.086 C225.456,327.817 222.372,349.545 219.271,371.275 C218.777,374.746 217.135,376.225 213.613,376.529 C212.492,376.624 211.377,376.625 210.258,376.726 C206.156,377.118 204.623,375.552 205.132,371.422 C206.197,362.809 207.252,354.2 208.337,345.584 C208.696,342.729 209.14,339.878 209.591,336.697 C204.746,338.225 200.423,339.607 196.097,340.95 C189.293,343.06 182.489,345.173 175.677,347.235 C171.59,348.475 170.137,347.705 169.141,343.949 C167.41,337.421 165.676,330.887 163.942,324.359 C162.833,320.176 164.024,318.292 168.507,317.202 C186.715,312.776 204.83,307.807 222.722,301.51 C223.668,301.182 224.518,301.024 225.256,301.029 z M225.475,304.001 C225.488,304.021 225.506,304.03 225.239,304.029 L225.236,304.029 C224.86,304.026 224.341,304.124 223.718,304.34 C207.27,310.129 189.926,315.083 169.216,320.117 C166.333,320.818 166.173,321.069 166.841,323.588 C168.45,329.645 170.133,335.987 172.041,343.18 C172.593,345.26 172.316,345.12 174.807,344.364 C180.166,342.742 184.49,341.409 194.076,338.436 C194.642,338.26 194.642,338.26 195.207,338.085 C195.249,338.072 195.249,338.072 195.291,338.059 C197.193,337.468 199.127,336.86 201.788,336.019 C202.278,335.864 202.779,335.705 203.46,335.49 C204.306,335.222 204.306,335.222 205.164,334.95 C206.564,334.507 207.625,334.172 208.689,333.836 C210.795,333.172 212.872,334.933 212.561,337.119 C212.407,338.207 211.852,342.013 211.905,341.646 C211.655,343.372 211.481,344.636 211.324,345.871 C211.319,345.915 211.319,345.915 211.313,345.959 C210.692,350.896 210.1,355.661 209.179,363.124 C209.014,364.463 209.014,364.463 208.849,365.803 C208.473,368.851 208.314,370.132 208.11,371.789 C207.836,374.011 207.776,373.95 209.989,373.738 C210.392,373.702 210.797,373.676 211.3,373.652 C211.456,373.644 211.58,373.638 211.853,373.626 C212.627,373.592 212.961,373.574 213.355,373.54 C215.522,373.353 216.009,372.904 216.301,370.851 C219.475,348.605 222.552,326.924 225.549,305.667 C225.624,305.14 225.629,304.706 225.58,304.377 C225.55,304.17 225.507,304.051 225.475,304.001 z" fill="#FFFFFF"/>
    </g>
    <g>
      <path d="M245,143.913 C248.836,143.939 251.166,146.502 251.373,150.424 C251.42,151.326 251.351,152.136 251.178,153.334 C250.443,158.531 249.867,162.59 248.519,172.088 C247.549,178.92 247.097,182.103 246.549,185.973 C244.85,197.964 243.52,207.417 242.248,216.558 C241.667,220.723 239.7,223.459 235.862,225.084 C228.92,228.031 223.521,231.186 218.901,235.257 C218.533,235.58 218.218,235.879 217.561,236.518 C217.519,236.559 217.519,236.559 217.476,236.6 C217.353,236.72 217.353,236.72 217.224,236.845 C213.946,240.011 213.923,243.01 216.309,245.898 C218.391,248.419 221.187,250.319 224.595,251.612 C230.188,253.733 234.706,255.378 244.862,259.023 C244.931,259.048 244.931,259.048 245,259.073 C251.24,261.312 254.115,262.35 257.627,263.638 C261.664,265.119 264.918,266.343 272.079,269.057 C272.348,269.158 272.348,269.158 272.616,269.26 C276.572,270.76 278.663,271.549 281.034,272.437 C284.091,273.58 285.736,276.157 285.289,279.499 C284.869,282.654 282.553,284.833 279.178,285.638 C278.019,285.906 276.832,286.044 275.693,286.036 C264.767,285.974 256.031,285.917 236.355,285.781 C233.553,285.762 232.309,285.754 230.751,285.743 C230.605,285.742 230.605,285.742 230.459,285.741 C219.209,285.664 213.963,285.628 207.589,285.584 C199.712,285.529 192.701,285.481 185.997,285.433 C185.914,285.433 185.842,285.433 185.671,285.434 C185.52,285.434 185.446,285.435 185.355,285.434 C184.359,285.432 183.656,285.361 182.851,285.086 C171.612,281.189 164.571,277.62 158.499,271.871 C152.945,266.609 150.319,259.861 150.955,251.929 C151.422,246.065 153.831,240.503 157.991,234.7 C163.438,227.107 170.288,220.873 180.011,213.989 C192.203,205.204 205.63,198.407 219.423,192.544 C219.754,186.428 220.101,180.313 220.45,174.198 C220.637,170.932 220.791,168.263 221.125,162.469 C221.352,158.556 221.446,156.92 221.569,154.78 C221.59,154.447 221.617,154.132 221.66,153.656 C221.669,153.566 221.669,153.566 221.677,153.478 C221.693,153.304 221.693,153.304 221.71,153.119 C222.182,148.175 224.604,145.472 229.346,145.018 C233.874,144.589 238.544,144.26 244.417,143.93 C244.622,143.918 244.81,143.911 245,143.913 z M244.979,146.913 C244.856,146.912 244.729,146.917 244.599,146.925 C239.616,147.205 234.626,147.531 229.629,148.005 C226.343,148.319 225.032,149.886 224.696,153.404 C224.649,153.926 224.596,154.451 224.563,154.97 C223.837,167.578 223.097,180.192 222.414,192.8 C222.341,194.096 221.984,194.739 220.692,195.264 C207.124,200.828 194.067,207.718 181.743,216.438 C173.786,222.073 166.283,228.288 160.429,236.448 C156.971,241.271 154.4,246.458 153.945,252.168 C153.365,259.408 155.825,265.204 160.563,269.693 C167.12,275.902 175.348,279.309 183.834,282.251 C184.49,282.476 185.282,282.428 186.018,282.433 C200.937,282.539 215.853,282.641 230.772,282.743 C245.753,282.846 260.733,282.951 275.71,283.036 C276.625,283.042 277.579,282.929 278.501,282.715 C280.715,282.187 282.072,280.932 282.316,279.103 C282.584,277.098 281.677,275.88 279.983,275.247 C272.184,272.327 264.418,269.325 256.594,266.455 C245.584,262.416 234.486,258.573 223.531,254.416 C219.866,253.027 216.545,250.895 213.996,247.809 C211.169,244.386 210.16,239.497 215.14,234.687 C215.726,234.119 216.307,233.542 216.92,233.004 C222.303,228.261 228.39,224.996 234.69,222.323 C237.628,221.078 238.854,219.171 239.277,216.143 C242.208,195.068 245.226,173.988 248.208,152.914 C248.32,152.134 248.417,151.343 248.377,150.583 C248.251,148.197 247.159,146.928 244.979,146.913 z" fill="#000000"/>
      <path d="M245.02,140.913 C250.44,140.95 254.077,144.743 254.368,150.266 C254.426,151.347 254.358,152.309 254.149,153.755 C253.443,158.745 252.901,162.562 251.489,172.51 C250.473,179.668 250.045,182.68 249.519,186.394 C247.765,198.772 246.454,208.095 245.219,216.973 C244.487,222.216 241.813,225.822 237.034,227.846 C230.188,230.751 225.133,233.764 220.881,237.511 C220.573,237.781 220.302,238.036 219.652,238.669 C219.626,238.694 219.626,238.694 219.61,238.709 C219.594,238.725 219.594,238.725 219.568,238.751 C219.492,238.825 219.492,238.825 219.444,238.871 C219.394,238.919 219.394,238.919 219.308,239.003 C217.251,240.99 217.156,242.213 218.622,243.988 C220.339,246.066 222.688,247.68 225.659,248.807 C231.009,250.836 235.254,252.387 245.875,256.199 C245.921,256.216 245.968,256.232 246.014,256.249 C252.559,258.598 255.281,259.582 258.66,260.822 C262.547,262.248 265.629,263.404 273.143,266.251 C273.321,266.319 273.5,266.387 273.679,266.455 C277.819,268.024 279.814,268.777 282.085,269.627 C286.486,271.273 288.891,275.201 288.263,279.896 C287.677,284.293 284.467,287.461 279.855,288.56 C278.464,288.883 277.044,289.045 275.675,289.036 C265.186,288.977 256.949,288.923 236.334,288.781 C233.4,288.761 232.226,288.753 230.731,288.743 C230.633,288.742 230.536,288.741 230.439,288.741 C218.651,288.66 213.687,288.626 207.569,288.584 C199.532,288.528 192.555,288.48 185.977,288.433 C185.91,288.433 185.851,288.433 185.685,288.434 C185.519,288.434 185.443,288.435 185.346,288.434 C183.965,288.43 182.985,288.302 181.869,287.92 C169.741,283.715 162.63,279.914 156.436,274.049 C150.179,268.12 147.261,260.464 147.964,251.691 C148.467,245.389 150.973,239.341 155.554,232.951 C161.043,225.299 167.949,218.854 178.257,211.556 C190.082,202.969 203.172,196.368 216.528,190.535 L216.531,190.464 C216.83,184.984 217.143,179.505 217.455,174.026 C217.635,170.879 217.781,168.338 218.13,162.296 C218.364,158.25 218.455,156.683 218.575,154.59 C218.598,154.238 218.625,153.907 218.673,153.38 C218.678,153.324 218.678,153.324 218.681,153.29 C218.685,153.256 218.685,153.256 218.69,153.201 C218.699,153.095 218.699,153.095 218.705,153.032 C218.712,152.964 218.712,152.964 218.723,152.834 C219.334,146.444 222.892,142.623 229.063,142.031 C233.502,141.611 238.146,141.278 244.234,140.936 C244.512,140.919 244.765,140.911 245.02,140.913 z M245,143.913 C244.81,143.911 244.622,143.918 244.417,143.93 C238.544,144.26 233.874,144.589 229.346,145.018 C224.604,145.472 222.182,148.175 221.71,153.119 C221.693,153.304 221.693,153.304 221.677,153.478 C221.669,153.566 221.669,153.566 221.66,153.656 C221.617,154.132 221.59,154.447 221.569,154.78 C221.446,156.92 221.352,158.556 221.125,162.469 C220.791,168.263 220.637,170.932 220.45,174.198 C220.101,180.313 219.754,186.428 219.423,192.544 C205.63,198.407 192.203,205.204 180.011,213.989 C170.288,220.873 163.438,227.107 157.991,234.7 C153.831,240.503 151.422,246.065 150.955,251.929 C150.319,259.861 152.945,266.609 158.499,271.871 C164.571,277.62 171.612,281.189 182.851,285.086 C183.656,285.361 184.359,285.432 185.355,285.434 C185.446,285.435 185.52,285.434 185.671,285.434 C185.842,285.433 185.914,285.433 185.997,285.433 C192.701,285.481 199.712,285.529 207.589,285.584 C213.963,285.628 219.209,285.664 230.459,285.741 C230.605,285.742 230.605,285.742 230.751,285.743 C232.309,285.754 233.553,285.762 236.355,285.781 C256.031,285.917 264.767,285.974 275.692,286.036 C276.832,286.044 278.019,285.906 279.178,285.638 C282.553,284.833 284.869,282.654 285.289,279.499 C285.736,276.157 284.091,273.58 281.034,272.437 C278.663,271.549 276.572,270.76 272.616,269.26 C272.348,269.158 272.348,269.158 272.079,269.057 C264.918,266.343 261.664,265.119 257.627,263.638 C254.115,262.35 251.24,261.312 245,259.073 C244.931,259.048 244.931,259.048 244.862,259.023 C234.706,255.378 230.188,253.733 224.595,251.612 C221.187,250.319 218.391,248.419 216.309,245.898 C213.923,243.01 213.946,240.011 217.224,236.845 C217.353,236.72 217.353,236.72 217.476,236.6 C217.519,236.559 217.519,236.559 217.561,236.518 C218.218,235.879 218.533,235.58 218.901,235.257 C223.521,231.186 228.92,228.031 235.862,225.084 C239.7,223.459 241.667,220.723 242.248,216.558 C243.52,207.417 244.85,197.964 246.549,185.973 C247.097,182.103 247.549,178.92 248.519,172.088 C249.867,162.59 250.443,158.531 251.178,153.334 C251.351,152.136 251.42,151.326 251.373,150.424 C251.166,146.502 248.836,143.939 245,143.913 z M244.979,146.913 C247.159,146.928 248.251,148.197 248.377,150.583 C248.417,151.343 248.32,152.134 248.208,152.914 C245.226,173.988 242.208,195.068 239.277,216.143 C238.854,219.171 237.628,221.078 234.69,222.323 C228.39,224.996 222.303,228.261 216.92,233.004 C216.307,233.542 215.726,234.119 215.14,234.687 C210.16,239.497 211.169,244.386 213.996,247.809 C216.545,250.895 219.866,253.027 223.531,254.416 C234.486,258.573 245.584,262.416 256.594,266.455 C264.418,269.325 272.184,272.327 279.983,275.247 C281.677,275.88 282.584,277.098 282.316,279.103 C282.072,280.932 280.715,282.187 278.501,282.715 C277.579,282.929 276.625,283.042 275.71,283.036 C260.733,282.951 245.753,282.846 230.772,282.743 C215.853,282.641 200.937,282.539 186.018,282.433 C185.282,282.428 184.49,282.476 183.834,282.251 C175.348,279.309 167.12,275.902 160.563,269.693 C155.825,265.204 153.365,259.408 153.945,252.168 C154.4,246.458 156.971,241.271 160.429,236.448 C166.283,228.288 173.786,222.073 181.743,216.438 C194.067,207.718 207.124,200.828 220.692,195.264 C221.984,194.739 222.341,194.096 222.414,192.8 C223.097,180.192 223.837,167.578 224.563,154.97 C224.596,154.451 224.649,153.926 224.696,153.404 C225.032,149.886 226.343,148.319 229.629,148.005 C234.626,147.531 239.616,147.205 244.599,146.925 C244.729,146.917 244.856,146.912 244.979,146.913 z M244.959,149.913 C244.92,149.912 244.862,149.914 244.767,149.92 C238.95,150.247 234.352,150.571 229.915,150.991 C228.184,151.157 227.894,151.481 227.684,153.674 C227.668,153.855 227.668,153.855 227.651,154.032 C227.643,154.119 227.643,154.119 227.635,154.205 C227.596,154.629 227.574,154.897 227.558,155.143 C227.436,157.266 227.342,158.902 227.115,162.815 C226.781,168.608 226.627,171.276 226.44,174.541 C226.039,181.543 225.712,187.375 225.409,192.967 C225.27,195.447 224.172,197.088 221.83,198.04 C207.864,203.767 195.143,210.631 183.477,218.887 C174.252,225.418 167.862,231.233 162.867,238.196 C159.292,243.184 157.305,247.77 156.936,252.407 C156.446,258.52 158.382,263.494 162.625,267.515 C167.934,272.541 174.316,275.776 184.806,279.413 C184.815,279.416 184.988,279.433 185.371,279.434 C185.444,279.435 185.5,279.434 185.644,279.434 C185.837,279.433 185.924,279.433 186.039,279.434 C192.743,279.481 199.754,279.53 207.631,279.584 C214.004,279.628 219.25,279.664 230.5,279.741 C230.646,279.742 230.646,279.742 230.792,279.743 C232.35,279.754 233.594,279.762 236.396,279.782 C256.07,279.917 264.805,279.974 275.73,280.036 C276.393,280.041 277.112,279.957 277.806,279.797 C278.908,279.534 279.278,279.186 279.342,278.706 C279.409,278.207 279.432,278.244 278.931,278.056 C276.55,277.165 274.453,276.373 270.49,274.871 C270.221,274.769 270.221,274.769 269.953,274.667 C262.812,271.961 259.571,270.743 255.56,269.271 C252.066,267.989 249.2,266.955 242.973,264.72 C242.904,264.695 242.904,264.695 242.835,264.67 C232.645,261.013 228.105,259.36 222.468,257.222 C218.128,255.576 214.463,253.085 211.683,249.719 C207.378,244.508 207.427,237.966 213.052,232.532 C213.172,232.416 213.172,232.416 213.293,232.298 C213.335,232.258 213.335,232.258 213.377,232.217 C214.105,231.509 214.472,231.161 214.937,230.753 C220.096,226.208 226.029,222.739 233.52,219.56 C235.348,218.786 236.007,217.869 236.306,215.73 C237.578,206.584 238.908,197.127 240.608,185.131 C241.157,181.261 241.608,178.077 242.578,171.245 C243.927,161.748 244.502,157.689 245.239,152.485 C245.361,151.641 245.402,151.148 245.381,150.741 C245.337,150.228 245.374,150.493 245.263,149.948 L245.259,149.94 L245.199,149.927 z" fill="#FFFFFF"/>
    </g>
    <g>
      <path d="M277.351,141.426 L277.526,141.426 C283.315,141.466 285.734,144.977 284.494,150.832 C283.6,155.047 282.689,159.383 281.509,165.021 C281.171,166.635 280.919,167.838 280.284,170.874 C279.981,172.325 279.677,173.776 279.374,175.226 C284.352,174.512 282.038,174.844 286.317,174.23 C286.916,174.144 286.916,174.144 287.516,174.058 C289.797,173.731 292.158,173.393 295.153,172.964 C296.97,172.704 298.788,172.444 300.605,172.184 C300.73,170.986 300.85,169.788 300.972,168.59 C301.055,167.767 301.091,167.408 301.137,166.954 C301.41,164.265 301.611,162.375 301.831,160.48 C302.436,155.308 305.322,151.853 310.034,151.282 C312.269,151.007 314.819,151.668 316.496,153.054 C326.624,161.458 336.73,169.972 350.934,182.034 C355.27,185.714 354.475,192.52 349.741,196.302 C345.264,199.887 341.506,202.862 333.668,209.047 C333.121,209.478 333.121,209.478 332.573,209.91 C329.713,212.167 327.996,213.522 326.172,214.966 C324.606,216.205 323.334,217.215 320.549,219.426 C320.486,219.475 320.486,219.475 320.424,219.524 C315.317,223.579 312.972,225.436 310.088,227.706 C305.137,231.601 298.696,231.057 296.544,225.667 C295.922,224.099 295.78,222.315 295.93,220.231 C296.177,216.772 296.532,213.322 296.868,209.872 C296.335,209.932 296.741,209.886 295.648,210.009 C291.426,210.484 289.211,210.75 286.719,211.099 C276.852,212.492 267.251,214.625 257.871,217.537 C251.856,219.413 247.928,215.806 248.816,209.523 C251.636,189.57 254.46,169.665 257.288,149.808 C258.058,144.411 260.789,141.845 266.045,141.704 C266.485,141.692 266.944,141.678 267.492,141.661 C267.973,141.646 267.973,141.646 268.453,141.631 C271.392,141.531 274.331,141.459 277.271,141.428 z M277.312,144.428 C273.593,144.452 269.862,144.594 266.133,144.703 C262.371,144.804 260.826,146.245 260.258,150.231 C257.423,170.136 254.599,190.041 251.787,209.943 C251.201,214.087 253.112,215.878 256.977,214.673 C266.697,211.656 276.472,209.516 286.299,208.128 C290.891,207.485 295.483,207.027 300.211,206.469 C299.751,211.345 299.259,215.904 298.922,220.452 C298.821,221.845 298.859,223.368 299.333,224.56 C300.633,227.816 304.706,228.123 308.233,225.348 C313.603,221.122 318.95,216.858 324.31,212.614 C332.166,206.398 340.043,200.223 347.866,193.96 C351.231,191.272 351.767,186.675 348.993,184.321 C337.564,174.617 326.117,164.936 314.58,155.362 C313.553,154.513 311.822,154.085 310.401,154.26 C307.119,154.657 305.257,157.012 304.811,160.829 C304.334,164.936 303.952,169.047 303.52,173.154 C303.453,173.773 303.347,174.394 303.285,174.831 C293.939,176.169 284.878,177.465 275.624,178.796 C275.677,178.417 275.698,178.162 275.746,177.916 C277.681,168.682 279.602,159.444 281.559,150.21 C282.418,146.153 281.314,144.452 277.506,144.426 C277.441,144.426 277.377,144.425 277.312,144.428 z" fill="#000000"/>
      <path d="M277.354,138.426 L277.547,138.426 C285.242,138.479 289.063,143.737 287.429,151.454 C286.563,155.54 285.665,159.807 284.445,165.635 C284.12,167.186 283.885,168.311 283.221,171.489 L283.187,171.648 C284.089,171.519 284.99,171.39 285.892,171.26 C286.266,171.207 286.266,171.207 286.491,171.175 C286.715,171.142 286.715,171.142 287.09,171.089 C289.307,170.771 291.637,170.437 294.727,169.995 C295.771,169.845 296.815,169.696 297.86,169.546 L297.928,168.871 C297.93,168.848 297.93,168.848 297.933,168.825 C297.96,168.557 297.96,168.557 297.987,168.289 C298.078,167.388 298.109,167.075 298.152,166.651 C298.438,163.84 298.637,161.979 298.852,160.132 C299.62,153.561 303.581,149.041 309.667,148.305 C312.735,147.927 316.102,148.835 318.411,150.745 C328.205,158.871 338.104,167.203 352.875,179.746 C358.674,184.667 357.823,193.685 351.616,198.644 C347.312,202.09 343.745,204.917 335.526,211.402 C335.184,211.672 335.184,211.672 334.979,211.833 C334.774,211.995 334.774,211.995 334.432,212.265 C331.442,214.624 329.786,215.931 328.034,217.318 C326.533,218.507 325.331,219.46 322.414,221.775 C322.372,221.808 322.331,221.841 322.289,221.874 C316.935,226.125 314.716,227.881 311.943,230.064 C305.397,235.214 296.675,234.086 293.756,226.774 C292.976,224.809 292.748,222.64 292.938,220.017 C293.093,217.765 293.308,215.518 293.522,213.271 C291.391,213.506 289.264,213.781 287.138,214.07 C277.383,215.447 267.942,217.552 258.764,220.401 C250.644,222.933 244.649,217.567 245.846,209.103 C248.667,189.137 251.491,169.231 254.318,149.384 C255.293,142.547 259.236,138.885 265.957,138.706 C266.384,138.693 266.838,138.679 267.399,138.662 C267.698,138.653 267.698,138.653 267.878,138.647 C268.059,138.642 268.059,138.642 268.351,138.633 C271.444,138.527 274.386,138.458 277.196,138.429 L277.276,138.427 z M277.351,141.426 L277.271,141.428 C274.331,141.459 271.392,141.531 268.453,141.631 C267.973,141.646 267.973,141.646 267.492,141.661 C266.944,141.678 266.485,141.692 266.045,141.704 C260.789,141.845 258.058,144.411 257.288,149.808 C254.46,169.665 251.636,189.57 248.816,209.523 C247.928,215.806 251.856,219.413 257.871,217.537 C267.251,214.625 276.852,212.492 286.719,211.099 C289.211,210.75 291.426,210.484 295.648,210.009 C296.741,209.886 296.335,209.932 296.868,209.872 C296.532,213.322 296.177,216.772 295.93,220.231 C295.78,222.315 295.922,224.099 296.544,225.667 C298.696,231.057 305.137,231.601 310.088,227.706 C312.972,225.436 315.317,223.579 320.424,219.524 C320.486,219.475 320.486,219.475 320.549,219.426 C323.334,217.215 324.606,216.205 326.172,214.966 C327.996,213.522 329.713,212.167 332.573,209.91 C333.121,209.478 333.121,209.478 333.668,209.047 C341.506,202.862 345.264,199.887 349.741,196.302 C354.475,192.52 355.27,185.714 350.934,182.034 C336.73,169.972 326.624,161.458 316.496,153.054 C314.819,151.668 312.269,151.007 310.034,151.282 C305.322,151.853 302.436,155.308 301.831,160.48 C301.611,162.375 301.41,164.265 301.137,166.954 C301.091,167.408 301.055,167.767 300.972,168.59 C300.85,169.788 300.73,170.986 300.605,172.184 C298.788,172.444 296.97,172.704 295.153,172.964 C292.158,173.393 289.797,173.731 287.516,174.058 C286.916,174.144 286.916,174.144 286.317,174.23 C282.038,174.844 284.352,174.512 279.374,175.226 C279.677,173.776 279.981,172.325 280.284,170.874 C280.919,167.838 281.171,166.635 281.509,165.021 C282.689,159.383 283.6,155.047 284.494,150.832 C285.734,144.977 283.315,141.466 277.526,141.426 z M277.506,144.426 C281.314,144.452 282.418,146.153 281.559,150.21 C279.602,159.444 277.681,168.682 275.746,177.916 C275.698,178.162 275.677,178.417 275.624,178.796 C284.878,177.465 293.939,176.169 303.285,174.831 C303.347,174.394 303.453,173.773 303.52,173.154 C303.952,169.047 304.334,164.936 304.811,160.829 C305.257,157.012 307.119,154.657 310.401,154.26 C311.822,154.085 313.553,154.513 314.58,155.362 C326.117,164.936 337.564,174.617 348.993,184.321 C351.767,186.675 351.231,191.272 347.866,193.96 C340.043,200.223 332.166,206.398 324.31,212.614 C318.95,216.858 313.603,221.122 308.233,225.348 C304.706,228.123 300.633,227.816 299.333,224.56 C298.859,223.368 298.821,221.845 298.922,220.452 C299.259,215.904 299.751,211.345 300.211,206.469 C295.483,207.027 290.891,207.485 286.299,208.128 C276.472,209.516 266.697,211.656 256.977,214.673 C253.112,215.878 251.201,214.087 251.787,209.943 C254.599,190.041 257.423,170.136 260.258,150.231 C260.826,146.245 262.371,144.804 266.133,144.703 C269.862,144.594 273.593,144.452 277.312,144.428 C277.377,144.425 277.441,144.426 277.506,144.426 z M277.427,147.425 L277.332,147.428 C274.934,147.443 273.005,147.492 268.641,147.628 C268.159,147.643 268.159,147.643 267.678,147.658 C267.126,147.675 266.664,147.689 266.213,147.702 C263.943,147.763 263.593,148.091 263.228,150.654 C260.4,170.509 257.577,190.412 254.757,210.363 C254.469,212.401 254.397,212.335 256.088,211.808 C265.783,208.798 275.699,206.596 285.883,205.158 C288.449,204.798 290.703,204.527 294.978,204.047 C298.007,203.706 298.54,203.645 299.859,203.49 C301.757,203.266 303.377,204.849 303.197,206.751 C303.125,207.519 303.049,208.314 302.958,209.247 C302.142,217.616 302.133,217.712 301.914,220.668 C301.823,221.924 301.901,222.899 302.119,223.447 C302.554,224.537 304.232,224.679 306.377,222.991 C309.253,220.728 311.593,218.874 316.694,214.825 C316.756,214.776 316.756,214.776 316.818,214.726 C319.605,212.514 320.879,211.503 322.448,210.261 C324.276,208.815 325.994,207.458 328.857,205.199 C329.404,204.768 329.404,204.768 329.951,204.336 C337.779,198.16 341.528,195.191 345.994,191.616 C347.986,190.025 348.265,187.638 347.051,186.608 C332.862,174.559 322.772,166.058 312.668,157.674 C312.322,157.388 311.427,157.156 310.762,157.238 C309.033,157.447 308.096,158.57 307.791,161.175 C307.575,163.033 307.377,164.898 307.106,167.56 C307.06,168.013 307.024,168.371 306.941,169.193 C306.726,171.323 306.629,172.278 306.503,173.476 C306.501,173.492 306.501,173.492 306.499,173.508 C306.467,173.802 306.427,174.1 306.376,174.447 C306.358,174.571 306.272,175.134 306.256,175.251 C306.068,176.572 305.031,177.611 303.71,177.8 C302.27,178.007 297.093,178.748 296.003,178.904 C293.008,179.333 290.648,179.671 288.367,179.998 C287.768,180.084 287.768,180.084 287.169,180.169 C283.141,180.747 279.532,181.265 276.051,181.765 C274.074,182.049 272.377,180.358 272.653,178.38 C272.67,178.26 272.734,177.744 272.715,177.895 C272.742,177.684 272.766,177.521 272.809,177.301 C273.257,175.164 273.63,173.383 274.411,169.646 C275.046,166.609 275.298,165.407 275.636,163.791 C276.817,158.15 277.73,153.809 278.624,149.589 C279.119,147.253 279.246,147.438 277.485,147.426 C277.434,147.426 277.421,147.426 277.427,147.425 z" fill="#FFFFFF"/>
    </g>
  </g>
  <defs/>
</svg>
