<?xml version="1.0" encoding="utf-8"?>
<!-- Generator: Adobe Illustrator 17.0.0, SVG Export Plug-In . SVG Version: 6.00 Build 0)  -->
<!DOCTYPE svg PUBLIC "-//W3C//DTD SVG 1.1//EN" "http://www.w3.org/Graphics/SVG/1.1/DTD/svg11.dtd">
<svg version="1.1" xmlns="http://www.w3.org/2000/svg" xmlns:xlink="http://www.w3.org/1999/xlink" x="0px" y="0px" width="500px"
	 height="600px" viewBox="-249.5 492.5 500 600" enable-background="new -249.5 492.5 500 600" xml:space="preserve">
<g id="Layer_1">
	<g id="Layer_2" display="none">
		
			<rect x="120.791" y="204.146" display="inline" stroke="#000000" stroke-width="5" stroke-miterlimit="10" width="382.621" height="388.598"/>
	</g>
	<g id="Layer_3" display="none">
		<path display="inline" d="M388.582,581.318c0-2.509,0-5.017,0-8.039c-5.98-0.304-11.341-0.577-16.988-0.865
			c0-2.586,0-4.736,0-7.274c5.718-0.305,11.056-0.59,16.858-0.899c0.275-5.958,0.522-11.316,0.788-17.077c2.538,0,4.686,0,7.296,0
			c0.333,2.635,0.644,5.094,1.015,8.028c2.843,0.126,5.314,0.236,8.209,0.365c0.626-2.823,1.166-5.257,1.811-8.164
			c2.243-0.413,4.696-0.864,7.2-1.324c0.356-0.868,0.949-1.646,0.956-2.429c0.107-12.376,0.027-24.754,0.249-37.127
			c0.079-4.407-1.508-6.298-5.999-6.167c-6.595,0.193-13.2,0.05-20.159,0.05c-0.595-2.904-1.094-5.343-1.787-8.73
			c-5.13,0-10.455,0-16.709,0c0-6.24,0-11.558,0-16.597c-8.744-2.508-8.744-2.508-8.387-9.326c2.342-0.36,4.789-0.735,7.603-1.167
			c0.385-2.764,0.727-5.218,1.081-7.755c2.63-0.389,4.847-0.717,7.585-1.122c0.447-2.526,0.878-4.967,1.419-8.028
			c4.905,0,9.928,0,15.719,0c0.422,2.401,0.886,5.047,1.403,7.988c2.722,0.405,5.203,0.774,7.883,1.172c0,2.316,0,4.258,0,6.775
			c-2.416,0.405-4.857,0.814-7.863,1.318c-0.368,2.349-0.753,4.807-1.225,7.82c-2.574,0.406-5.319,0.84-8.063,1.273
			c0-3.005,0-6.01,0-9.211c-3.382,0-5.848,0-8.75,0c0,3.178,0,5.866,0,9.029c3.334,0,6.134,0,8.933,0
			c-0.142,2.771-0.284,5.542-0.458,8.944c6.095,0.293,11.452,0.55,17.118,0.822c0.382,2.734,0.727,5.203,1.074,7.69
			c7.731,3.082,9.911,0.055,9.697-7.323c-0.119-4.103-2.962-11.599,6.999-9.109c0.449,2.53,0.888,4.997,0.937,5.274
			c4.302,3.356,7.167,5.591,10.031,7.825c-0.455,0.826-0.91,1.652-1.365,2.479c-2.659,0.57-5.318,1.139-7.863,1.684
			c-1.764,10.197,1.054,11.532,17.747,8.088c0-5.745,0-11.71-0.004-17.676c-0.004,0-0.298,0.306-0.298,0.306
			c2.526,0.282,5.051,0.565,8.319,0.93c0,5.628,0,10.994,0,17.048c9.493,0,18.21,0,27.793,0c0-11.843,0-23.252,0-35.085
			c2.996,0,5.133,0,7.586,0c0.426,2.662,0.821,5.137,1.312,8.204c3.074,0,5.876,0,8.679,0c0,5.773,0,11.546,0,17.319
			c-2.784,0.195-5.568,0.391-8.898,0.625c-0.311,6.024-0.598,11.584-0.898,17.409c-6.108,0.276-11.428,0.516-17.095,0.771
			c-0.428,3.083-0.766,5.521-1.111,8.003c-2.865,0.509-5.285,0.94-8.51,1.513c0,14.886,0,29.39,0,43.993
			c-3.456,0.186-6.015,0.323-8.574,0.46c0-5.865,0-11.729,0-17.764c-3.213,0-5.696,0-8.218,0c-0.656,3.075-1.225,5.74-1.781,8.345
			c-5.88,0.266-11.195,0.506-16.646,0.753c0,3.442,0,5.906,0,8.569c4.521,1.157,11.429-0.005,7.708,8.393
			c-2.327,0.365-4.783,0.75-7.538,1.182c-0.426,2.819-0.804,5.315-1.181,7.81c-5.773,0-11.546,0-17.319,0
			c0.21-2.632,0.421-5.264,0.681-8.524c-3.7,0.214-6.167,0.357-9.341,0.54c0,2.976,0,5.48,0,7.984
			C394.355,581.318,391.469,581.318,388.582,581.318z M451.079,509.654c-7.919,0-14.809,0.176-21.684-0.06
			c-4.796-0.165-6.435,2.394-5.569,6.376c1.567,7.199-5.097,17.35,4.227,21.18c6.556,2.693,15.11,0.52,23.026,0.52
			C451.079,527.864,451.079,519.342,451.079,509.654z"/>
		<path display="inline" d="M128.791,383.876c8.321,0,16.641,0,25.566,0c0.483,2.691,0.914,5.094,1.522,8.484
			c11.31,0,22.663,0,33.813,0c1.314,7.388,1.314,7.388-16.08,9.385c0,8.293,0,16.742,0,25.485c-3.394,0.653-5.842,1.124-8.959,1.723
			c-0.302,5.358-0.602,10.698-0.898,15.95c-9.638,2.573-10.097,3.716-7.695,19.947c11.149,0,22.503,0,34.838,0
			c0,3.736,0,6.477,0,9.219l0.349-0.253c-5.686,0-11.372,0-17.541,0c0,3.344,0,6.12,0,8.897l0.269-0.347c-5.436,0-10.872,0-16.884,0
			c-0.505-2.641-0.965-5.044-1.538-8.037c-2.261-0.456-4.685-0.944-7.551-1.522c-0.415-2.286-0.859-4.737-1.39-7.669
			c-2.609-0.525-5.286-1.063-8.685-1.746c0-5.555,0-10.896,0-17.164c-3.572,0-6.354,0-9.135,0c0-5.773,0-11.546,0-17.319
			c4.854,0.017,9.745,0.369,14.54-0.152c1.437-0.156,3.528-2.672,3.658-4.243c0.142-1.724-1.229-4.142-2.699-5.26
			c-1.351-1.027-3.711-0.729-5.807-1.041c-0.264-5.685-0.511-11.014-0.789-17.016c-3.368,0-6.135,0-8.902,0
			C128.791,395.423,128.791,389.65,128.791,383.876z M165.878,401.372c-6.23-0.23-11.833-2.017-10.567,5.645
			c0.748,4.522-4.564,14.219,5.368,12.468C170.176,417.811,162.873,408.267,165.878,401.372z"/>
		<path display="inline" d="M414.561,214.146c0.781,3.995-0.566,5.929-4.925,5.65c-3.935-0.252-7.899-0.053-12.207-0.053
			c0,3.708,0,6.222,0,9.102c3.794,1.545,11.224-0.066,7.639,8.678c-4.686,0-9.744,0-15.362,0c-0.422-2.21-0.888-4.648-1.525-7.985
			c-2.468-0.115-5.152-0.24-6.176-0.287c-3.087,4.12-5.286,7.054-7.484,9.989c-0.807-0.436-1.615-0.873-2.422-1.309
			c-0.584-2.667-1.168-5.335-1.769-8.082c-7.404-2.062-10.756-0.208-8.509,8.237c2.408,0.44,4.857,0.887,7.542,1.378
			c0.453,2.542,0.892,5.011,1.463,8.219c8.442,0,16.698,0,25.373,0c0.607,3.367,1.089,6.04,1.675,9.292c5.387,0,10.513,0,16.243,0
			c0.244,2.699,0.435,4.816,0.674,7.47c-2.805,0.467-5.242,0.872-8.265,1.376c0,2.737,0,5.415,0,8.567
			c2.539,0.401,4.989,0.789,7.786,1.23c0,2.453,0,4.634,0,7.244c-8.195,0-16.168,0-24.787,0c-0.333-2.719-0.667-5.454-1.002-8.188
			c2.772,0,5.544,0,8.737,0c0-3.238,0-5.919,0-8.842c-3.177,0-5.845,0-9.191,0c0.248,3.438,0.449,6.229,0.65,9.02
			c-2.531-0.317-5.063-0.633-8.125-1.016c-0.362-2.47-0.722-4.925-1.15-7.839c-2.384-0.428-4.864-0.874-7.857-1.412
			c0.105-5.352-0.903-10.297-8.89-8.595c-0.052-6.826-1.798-11.493-10.07-7.758c-0.128,2.255-0.268,4.736-0.433,7.656
			c3.019,0.748,5.681,1.408,8.565,2.123c0,2.017,0,3.968,0,6.485c-2.448,0.411-4.882,0.821-7.876,1.324
			c-0.359,2.393-0.728,4.848-1.172,7.805c-1.5,0.191-3.469,1.055-4.655,0.431c-1.355-0.712-2.782-2.717-2.843-4.215
			c-0.294-7.183-0.137-14.385-0.139-21.58c-0.001-3.087,0-6.174,0-9.895c-6.116,0-11.195,0-17.053,0
			c-0.256-2.929-0.46-5.253-0.734-8.39c8.981,0,17.246,0,25.983,0c0.607-5.734,1.14-10.781,1.674-15.829
			C374.149,214.146,394.355,214.146,414.561,214.146z"/>
		<path display="inline" d="M128.791,518.968c20.395,0,40.791,0,62.35,0c0,21.614,0,41.982,0,62.35c-20.783,0-41.567,0-62.35,0
			C128.791,560.534,128.791,539.751,128.791,518.968z M182.421,528.175c-15.142,0-29.615,0-44.531,0c0,15.29,0,30.021,0,45.23
			c15.06,0,29.552,0,44.531,0C182.421,558.295,182.421,543.744,182.421,528.175z"/>
		<path display="inline" d="M191.141,214.146c0,19.595,0,39.189,0,60.618c-21.128,0-41.739,0-62.35,0c0-20.206,0-40.412,0-60.618
			C149.574,214.146,170.357,214.146,191.141,214.146z M182.353,220.606c-15.154,0-29.831,0-44.503,0c0,15.383,0,29.914,0,44.97
			c14.999,0,29.472,0,44.503,0C182.353,250.36,182.353,235.613,182.353,220.606z"/>
		<path display="inline" d="M495.962,274.764c-20.396,0-40.792,0-62.35,0c0-21.036,0-40.827,0-60.618c20.638,0,41.276,0,62.35,0
			C495.962,234.35,495.962,254.557,495.962,274.764z M486.957,265.553c0-15.537,0-30.079,0-44.983c-15.155,0-29.83,0-44.622,0
			c0,15.355,0,29.893,0,44.983C457.295,265.553,471.769,265.553,486.957,265.553z"/>
		<path display="inline" d="M236.171,214.146c1.896,2.988,3.792,5.976,5.689,8.965c0.852-0.425,1.705-0.849,2.557-1.274
			c0,7.999,0,15.997,0,23.957c-6.692,1.208-6.692,1.208-8.434-16.213c-2.517-0.127-5.176-0.262-8.45-0.428
			c0,6.335,0,11.949,0,18.115c3.966,1.077,11.088-0.303,7.39,8.71c-5.538,0-11.587,0.433-17.547-0.113
			c-7.005-0.642-9.472,2.099-8.609,8.84c0.357,2.794,0.059,5.672,0.059,8.488c-4.914,1.866-7.877,1.765-7.802-4.056
			c0.108-8.365-0.274-16.751,0.233-25.087c0.129-2.128,2.816-4.1,4.328-6.143c0.833,0.408,1.666,0.816,2.499,1.223
			c0.485,2.66,0.969,5.32,1.488,8.164c3.141,0,5.85,0,8.919,0c0-5.981,0-11.358,0-17.721c-5.52-0.311-10.826-0.609-16.958-0.955
			c0-4.976,0-9.725,0-14.474C213.079,214.146,224.625,214.146,236.171,214.146z"/>
		<path display="inline" d="M289.861,214.146c-2.023,2.542-4.046,5.084-6.069,7.626c-0.806-0.436-1.612-0.872-2.417-1.308
			c0,5.606,0,11.212,0,17.479c2.353,0.508,5.001,1.08,8.362,1.806c0,5.567,0,10.926,0,16.885c6.127,0.327,11.503,0.614,17.21,0.918
			c0,2.507,0,4.697,0,7.026c-2.796,0.442-5.276,0.833-8.008,1.265c-0.329,2.841-0.615,5.319-0.873,7.553
			c-8.807,3.7-7.238-3.463-8.434-7.598c-2.432-0.407-4.68-0.783-7.406-1.24c-0.446-2.354-0.909-4.792-1.534-8.089
			c-2.51-0.122-5.196-0.253-7.996-0.389c-1.73,4.27,0.505,12.006-8.599,8.261c0.437-5.548-1.342-9.804-8.852-8.541
			c0-5.594,0-10.69,0-16.521c5.464-0.294,10.803-0.582,16.716-0.9c0-5.975,0-11.584,0-17.192c-0.509,0.375-1.018,0.751-1.527,1.126
			c-2.184-2.723-4.367-5.446-6.551-8.169C272.542,214.146,281.202,214.146,289.861,214.146z"/>
		<path display="inline" d="M495.962,409.856c-2.562,0-5.124,0-8.143,0c-0.729,3.052-1.363,5.701-2.048,8.568
			c-2.291,0.335-4.529,0.662-7.205,1.053c-0.628,2.668-1.262,5.358-1.93,8.192c-2.344,0.352-4.576,0.687-7.693,1.155
			c0,5.387,0,10.697,0,15.807c-9.255,1.99-9.255,1.99-8.05-23.625c2.486-0.553,5.13-1.14,8.161-1.814
			c0.365-2.566,0.717-5.035,1.092-7.667c2.641-0.439,5.095-0.847,7.878-1.309c0.353-2.762,0.669-5.239,1.013-7.938
			c2.439-0.341,4.681-0.655,7.451-1.043c0.531-2.538,1.089-5.201,1.708-8.158c2.703-0.188,5.235-0.364,7.766-0.54
			C495.962,398.309,495.962,404.082,495.962,409.856z"/>
		<path display="inline" d="M128.791,302.475c2.55,0,5.1,0,8.448,0c0,5.846,0,11.211,0,16.956c3.151,0.553,5.598,0.982,8.398,1.474
			c0.361,2.51,0.716,4.982,1.179,8.207c5.497,0,10.857,0,16.575,0c0.888,4.697,2.61,8.34-4.373,8.733
			c-1.92,0.108-3.604,4.42-5.084,7.453c-6.821,3.723-7.015-1.666-6.856-6.984c-3.1-0.56-5.562-1.004-8.332-1.505
			c-0.412-2.476-0.822-4.94-1.321-7.936c-3.015-0.147-5.825-0.284-8.634-0.42C128.791,319.795,128.791,311.135,128.791,302.475z"/>
		<path display="inline" d="M128.791,473.937c5.424,0,10.847,0,16.955,0c0.279,6.219,0.518,11.572,0.76,16.953
			c3.157,2.47,11.46,0.169,7.715,8.912c-2.212,0.418-4.668,0.883-7.408,1.401c-0.384,2.687-0.738,5.161-1.088,7.61
			c-8.094,3.092-7.77-2.781-7.903-7.695c-3.4-0.452-6.215-0.827-9.029-1.202c0-2.309,0-4.619,0-6.928
			c2.786-0.385,5.572-0.771,9.196-1.272c-0.142-3.207-0.269-6.09-0.403-9.12c-3.663,0-6.228,0-8.793,0
			C128.791,479.711,128.791,476.824,128.791,473.937z"/>
		<path display="inline" d="M487.254,356.246c0-2.795,0-5.59,0-8.715c-2.977-0.563-5.41-1.023-8.24-1.558c0-8.36,0-16.514,0-25.857
			c13.443,1.18,3.966,13.007,9.724,18.078c1.668,0.15,4.446,0.401,7.225,0.651c0,5.773,0,11.546,0,17.319
			C493.059,356.192,490.157,356.219,487.254,356.246z"/>
		<path display="inline" d="M326.232,214.146c-0.445,4.507-0.891,9.014-1.388,14.04c-2.575,0.568-5.232,1.154-8.419,1.857
			c0,5.344,0,10.451,0,15.701c-5.039,2.062-8.096,2.034-7.95-4.232c0.153-6.54,0.034-13.087,0.034-19.631
			c0.897,0.41,1.794,0.82,2.691,1.229c2.124-2.988,4.248-5.976,6.371-8.964C320.459,214.146,323.345,214.146,326.232,214.146z"/>
		<path display="inline" d="M487.456,445.976c-2.568,0-5.137,0-8.301,0c0-5.227,0-10.286,0-16.026
			c2.174-0.51,4.794-1.125,7.758-1.821c0.352-2.56,0.69-5.015,1.085-7.882c2.902,0,5.433,0,7.964,0c0,5.773,0,11.546,0,17.319
			c-2.767,0-5.535,0-9.176,0c0.153,3.303,0.279,6.03,0.406,8.757L487.456,445.976z"/>
		<path display="inline" d="M289.861,581.318c0.267-5.107,0.534-10.214,0.818-15.659c2.489-0.697,4.871-1.364,7.275-2.014
			c0.021,0.017-0.194-0.133-0.194-0.133c0.436,3.092,0.872,6.184,1.407,9.985c5.19,0.26,10.289,0.516,16.673,0.837
			c0,2.274,0,4.629,0,6.984C307.181,581.318,298.521,581.318,289.861,581.318z"/>
		<path display="inline" d="M495.962,300.743c-2.502,0.156-5.004,0.312-7.861,0.491c-0.455-3.003-0.825-5.445-1.239-8.179
			c-4.132-1.217-11.109-0.057-7.103-9.17c5.115,0.401,10.658,0.836,16.202,1.271C495.962,290.352,495.962,295.547,495.962,300.743z"
			/>
		<path display="inline" d="M495.962,382.144c-3.982,0.195-8.063,0.994-11.908,0.361c-2.337-0.385-4.311-2.98-6.448-4.582
			c0.495-0.849,0.989-1.699,1.484-2.548c2.428-0.386,4.857-0.772,8.183-1.302c0-3.237,0-6.267,0-9.297
			c2.897,0.593,5.793,1.186,8.689,1.779C495.962,371.753,495.962,376.949,495.962,382.144z"/>
		<path display="inline" d="M442.272,581.318c0-5.078,0-10.157,0-15.515c3.36-0.73,6.047-1.314,8.735-1.899c0,2.777,0,5.555,0,8.854
			c2.649,0.683,5.224,1.347,8.584,2.213c0,2.001,0,4.174,0,6.346C453.818,581.318,448.045,581.318,442.272,581.318z"/>
		<path display="inline" d="M495.962,463.546c-2.485,0.249-4.97,0.499-8.506,0.853c0-6.628,0-12.526,0-18.423l-0.265,0.348
			c2.924,0.545,5.847,1.09,8.771,1.635C495.962,453.154,495.962,458.35,495.962,463.546z"/>
		<path display="inline" d="M478.643,581.318c0-5.138,0-10.276,0-15.678c5.561-1.831,8.459-0.986,8.048,5.417
			c-0.218,3.393,0.381,6.839,0.612,10.26C484.416,581.318,481.53,581.318,478.643,581.318z"/>
		<path display="inline" d="M495.962,319.795c-2.507-0.192-5.014-0.384-8.071-0.619c-0.15-2.369-0.287-4.514-0.462-7.272
			c3.076-0.277,5.804-0.523,8.532-0.769C495.962,314.021,495.962,316.908,495.962,319.795z"/>
		<path display="inline" d="M495.962,563.998c-2.513-0.126-5.025-0.252-7.569-0.379c-3.499-8.727,2.638-7.933,7.569-8.28
			C495.962,558.225,495.962,561.112,495.962,563.998z"/>
		<path display="inline" d="M128.791,356.165c4.394,0.592,10.782-1.016,7.824,8.056c-2.369,0.183-5.097,0.393-7.824,0.604
			C128.791,361.939,128.791,359.052,128.791,356.165z"/>
		<path display="inline" d="M495.962,518.968c-2.508-0.198-5.017-0.396-8.069-0.637c-0.149-2.372-0.284-4.517-0.462-7.347
			c3.076-0.244,5.803-0.46,8.53-0.676C495.962,513.195,495.962,516.081,495.962,518.968z"/>
		<path display="inline" d="M334.845,311.366c-0.261,5.437-0.523,10.873-0.797,16.584c-2.718,0.358-5.199,0.685-8.021,1.056
			c-0.393,2.735-0.747,5.2-1.128,7.858c-2.667,0.449-5.135,0.864-7.981,1.343c-0.414,2.723-0.789,5.197-1.196,7.876
			c-2.455,0.401-4.68,0.765-7.433,1.216c-0.49,2.379-0.99,4.811-1.59,7.726c-2.2,0.432-4.647,0.913-7.533,1.48
			c-0.413,2.383-0.839,4.839-1.368,7.891c-5.443-0.326-9.982,0.828-8.092,8.375c-2.839,0.572-5.262,1.06-8.236,1.66
			c-1.171,3.789-0.015,10.828-8.528,7.392c-0.234-5.062-0.484-10.442-0.768-16.586c-3.021-0.149-5.716-0.282-9.468-0.468
			c0,9.258,0,17.765,0,26.181c-5.355,1.804-8.06,1.285-7.968-4.32c0.157-9.498,0.043-19,0.043-28.971
			c2.884-0.74,5.493-1.41,8.91-2.287c0-4.315,0.53-8.673-0.234-12.792c-0.358-1.929-3.215-3.395-4.939-5.07
			c-1.626,1.773-4.269,3.349-4.661,5.362c-0.75,3.846-0.218,7.941-0.218,11.619c-8.856,4.212-7.548-2.904-8.775-7.127
			c-2.624-0.475-5.095-0.923-10.946-1.983c4.171-3.993,6.687-6.401,9.202-8.81c0.651,0.43,1.302,0.86,1.953,1.29
			c0.147-2.707,0.293-5.414,0.483-8.919c-6.047-0.281-11.392-0.529-17.276-0.803c0-8.488,0-16.664,0-25.308
			c5.352,0,10.39,0,16.047,0c0.274,5.568,0.537,10.907,0.837,16.998c5.722,0.27,11.07,0.523,16.698,0.789
			c0.441,2.693,0.846,5.167,1.343,8.202c2.895,0,5.601,0,8.749,0c0.384-2.713,0.735-5.19,1.147-8.098c8.054,0,16.029,0,23.995,0
			c1.629,7.067,1.629,7.067-6.181,8.408c-4.885,4.679,4.388,15.956-8.394,18.058c-0.698-3.461-1.235-6.119-1.754-8.692
			c-9.996-1.606-11.287,1.234-7.986,17.58c5.297,0,10.685,0,16.705,0c0.45-2.414,0.901-4.835,1.467-7.876
			c2.223-0.367,4.652-0.768,7.97-1.316c0.254-5.408,0.517-11.014,0.797-17.003c5.827-0.276,11.19-0.531,17.091-0.81
			c0-3.199,0-5.861,0-9.146c-5.517,0-10.622,0-16.065,0c-0.911-3.113-1.682-5.746-2.442-8.393c0.011-0.013-0.197,0.232-0.197,0.232
			c3.088-0.341,6.175-0.683,9.581-1.06c0.508-2.701,0.968-5.147,1.538-8.172c5.974,0.746,9.638-1.325,8.24-8.184
			c4.862-1.566,8.245-1.773,7.959,4.589c-0.166,3.69-0.03,7.393-0.03,11.648c3.641,0.4,6.676,0.733,9.711,1.067L334.845,311.366z"/>
		<path display="inline" d="M396.636,319.48c0,8.888,0,17.776,0,26.828c4.684,1.712,11.99,0.268,8.459,8.835
			c-4.873,0.434-10.649,0.853-7.137,9.52c2.078,0.484,4.738,1.104,7.844,1.828c0,5.309,0,10.447,0,16.023
			c3.019,0.777,5.664,1.458,11.169,2.875c-3.585,3.633-6.046,6.127-8.508,8.621c-0.647-0.449-1.295-0.898-1.942-1.347
			c0,5.595,0,11.19,0,17.294c3.226,1.708,11.17-0.445,7.446,8.415c-2.073,0.331-4.55,0.725-7.392,1.178
			c-0.418,2.7-0.799,5.165-1.253,8.1c-1.348,0.16-3.409,0.962-3.958,0.368c-2.011-2.178-3.52-4.82-6.164-8.662
			c0.548,0.112-0.802-0.182-2.159-0.434c-1.102-0.204-2.212-0.359-3.688-0.594c-0.488-4.969-0.347-10.784-8.579-7.954
			c-0.474-5.967-1.101-11.411-9.385-9.293c0.896-7.003-1.941-10.318-9.158-9.396c0-10.749-0.241-20.79,0.216-30.8
			c0.085-1.857,2.981-3.585,4.579-5.373c0.886,0.457,1.771,0.913,2.657,1.37c0,8.478,0,16.957,0,26.175c9.771,0,18.46,0,27.537,0
			c0-2.994,0-5.707,0-9.103c-5.615,0-10.717,0-15.406,0c-5.584-9.272,2.673-7.74,6.634-9.37c0-8.834,0-17.376,0-26.937
			c-11.759,0-23.143,0-34.911,0c0-6.101,0-11.183,0-16.797c5.267-0.499,11.48-0.418,8.265-9.109c6.082,0,11.158,0,16.88,0
			c0.282,5.502,0.558,10.884,0.882,17.187c2.857,0.134,5.533,0.259,8.569,0.401c0.477-3.113,0.854-5.58,1.288-8.411
			c2.503-0.41,4.984-0.817,7.476-1.215C396.909,319.711,396.636,319.48,396.636,319.48z M388.679,392.497c0,3.092,0,5.722,0,8.588
			c3.155,0,5.779,0,9.052,0c-0.178-3.286-0.32-5.92-0.465-8.588C393.984,392.497,391.557,392.497,388.679,392.497z"/>
		<path display="inline" d="M182.446,356.487c2.578,0,5.156,0,8.231,0c0.708-2.863,1.364-5.518,2.09-8.45c2.163,0,4.294,0,7.036,0
			c0,5.531,0,10.646,0,16.283c3.082,0.748,5.714,1.387,8.737,2.121c-0.27,6.275,1.611,10.333,9.621,7.412
			c0-11.366,0-23.014,0-35.806c-8.188,0-16.642,0-24.561,0c-4.646-8.947,1.441-8.553,6.973-9.047c0-5.561,0-10.886,0-16.511
			c3.396-0.853,6.017-1.511,9.163-2.301c0-11.316,0-22.481,0-31.348c4.669-4.224,7.861-7.113,11.054-10.002
			c6.87-3.084,6.87-3.084,5.727,13.627c-2.449,0.483-5.084,1.003-8.173,1.612c-0.13,2.679-0.251,5.177-0.392,8.083
			c3.06,0.713,5.728,1.335,11.64,2.714c-4.241,3.759-6.876,6.093-11.114,9.849c0,6.173,0,14.936,0,24.03
			c2.711,0.447,5.196,0.857,8.485,1.399c0,11.459,0,22.856,0,35.197c3.598-0.185,6.323-0.325,9.049-0.465l-0.287-0.283
			c0,2.564,0,5.128,0,8.212c-2.546,0.514-4.968,1.002-4.868,0.982c-4.403,4.714-7.373,7.893-10.342,11.071
			c-0.737-0.425-1.474-0.85-2.211-1.275c0,5.348,0,10.696,0,16.426c-3.153,0.612-5.577,1.082-8.549,1.659
			c-0.529,2.453-1.1,5.099-1.716,7.951c-5.132,0-9.971,0-15.129,0c-3.002-7.006,0.837-8.487,7.085-8.038
			c0.58-2.784,1.088-5.222,1.697-8.145c2.225-0.413,4.668-0.866,7.731-1.434c0.133-2.216,1.208-5.531,0.203-6.376
			c-2.156-1.815-5.384-2.356-8.904-3.697c-0.597,4.297-0.939,6.765-1.28,9.218c-7.983,3.15-7.774-2.679-7.901-8.414
			c-7.21,0-13.761,0.12-20.305-0.036c-5.813-0.138-5.81-0.273-5.01-7.949c8.111,0,16.355,0,25.089,0
			c0.212-3.39,0.368-5.879,0.555-8.873c-3.012-0.697-5.654-1.309-8.653-2.004c-0.164-2.619-0.323-5.151-0.482-7.683L182.446,356.487
			z"/>
		<path display="inline" d="M244.921,464.891c0,11.727,0,22.89,0,33.888c-7.153,1.689-7.153,1.689-8.942-15.813
			c-2.52-0.141-5.191-0.291-8.27-0.463c-0.5,3.11-0.897,5.581-1.343,8.357c-2.545,0.356-5.022,0.702-7.799,1.09
			c-0.422,2.766-0.798,5.229-1.192,7.818c-2.681,0.477-5.149,0.917-7.547,1.344c-2.805,7.213-0.157,10.093,6.696,9.52
			c3.168,13.328,2.086,16.453-6.034,16.362c-0.321-2.351-0.655-4.797-1.034-7.571c-2.777-0.465-5.229-0.876-7.671-1.285
			c-0.586-2.802-1.102-5.267-1.591-7.6c-16.966-2.664-16.966-2.664-16.353-8.873c5.041,0,10.172,0,15.763,0
			c0.846-3.107,1.565-5.747,2.422-8.894c5.715,0.498,9.517-1.495,7.903-8.66c2.878-0.572,5.312-1.056,8.162-1.623
			c0.43-2.333,0.885-4.803,1.443-7.832c5.836,0.151,10.468-1.3,7.209-9.804c-2.066-0.169-4.744-0.387-7.442-0.607
			c-2.528,3.65,0.653,12.323-8.785,8.474c0-4.929,0-10.223,0-16.036c5.427-0.247,10.525-0.48,15.951-0.727
			c2.361-3.072-0.712-11.682,8.592-8.131c0.438,2.174,0.974,4.837,1.582,7.857c4.277,0.442,8.735,2.593,9.245-4.858
			c0.116-1.689,3.533-3.152,6.771-5.825c0.744,5.056,1.107,7.526,1.516,10.307c2.543,0.543,5.003,1.068,7.849,1.676
			c0.381,2.382,0.776,4.847,1.215,7.582c2.75,0.429,5.209,0.813,7.907,1.233c0,2.486,0,4.657,0,7.241c-5.23,0-10.029,0-15.511,0
			c-0.521-2.49-1.076-5.138-1.706-8.147C250.965,464.891,248.266,464.891,244.921,464.891z"/>
		<path display="inline" d="M433.909,319.786c2.539,0.136,5.078,0.271,8.485,0.453c0-5.974,0-11.332,0-17.404
			c6.111-0.298,11.438-0.559,17.601-0.86c0.192-2.891,0.372-5.592,0.616-9.259c-6.027,0-11.344,0-16.439,0
			c-2.31-9.588,1.06-10.597,23.699-7.924c0.386,2.369,0.788,4.841,1.232,7.569c2.598,0.604,5.046,1.173,7.442,1.73
			c3.099,18.887,1.641,24.983-6.341,24.685c-0.365-2.355-0.745-4.807-1.197-7.72c-5.986,0-11.576,0-17.714,0
			c0,8.905,0,17.428,0,26.534c2.272,0.508,4.699,1.052,7.704,1.724c0.158,1.048,1.013,3.037,0.446,3.606
			c-2.087,2.091-4.646,3.712-8.495,6.616c0,3.33,0,8.701,0,13.911c-7.717,1.324-7.717,1.324-9.135-7.427c-8.069,0-16.307,0-25.204,0
			c0-5.855,0-10.882,0-15.984c6.284-1.621,6.284-1.621,8.303,7.054c2.552,0.15,5.327,0.428,8.104,0.445
			c2.82,0.017,5.642-0.225,8.995-0.378c0-6.089,0-11.696,0-17.83c-2.421-0.478-4.85-0.957-7.827-1.544c0-2.711,0-5.475,0-8.24
			C434.185,319.544,433.909,319.786,433.909,319.786z"/>
		<path display="inline" d="M326.456,527.83c2.236,0.393,4.472,0.787,7.354,1.294c0.344,2.222,0.722,4.658,1.196,7.715
			c2.482,0.512,5.158,1.064,7.834,1.615c0.516,0.748,1.033,1.496,1.549,2.244c-2.121,1.688-4.028,4.285-6.415,4.85
			c-3.513,0.832-7.369,0.215-11.945,0.215c-0.209,3.317-0.378,5.978-0.562,8.902c4.384,1.583,11.874-0.089,7.996,8.868
			c-11.632,0-23.653,0-35.688-0.01c-0.015-0.01,0.2,0.14,0.179,0.123c0.742-2.376,1.504-4.735,2.407-7.527
			c2.255-0.338,4.715-0.706,8.004-1.198c0-11.585,0-22.996,0-34.738c3.22-0.551,5.653-0.967,8.014-1.371
			c3.079-7.388-0.22-9.796-4.413-9.559c-5.392-5.742-9.364-9.972-14.484-15.424c4.782-1.042,7.436-1.62,10.361-2.257
			c0.431-2.696,0.826-5.164,1.495-9.352c2.789,1.555,5.205,2.313,6.766,3.909c2.386,2.44,4.182,5.457,6.229,8.23
			c0.812-0.477,1.623-0.955,2.435-1.432c0.385,2.469,0.77,4.939,1.227,7.867c2.468,0.406,4.939,0.813,7.408,1.225
			c3.17,4.128,0.936,6.872-7.328,8.581c0,5.557,0,11.208,0.001,16.86c-3.031,0.198-6.062,0.395-8.911,0.58
			c-1.201,10.246-0.592,10.763,8.827,8.216C326.142,533.509,326.299,530.669,326.456,527.83z"/>
		<path display="inline" d="M326.275,392.781c-0.518,2.484-1.037,4.969-1.606,7.695c-2.586,0.387-5.043,0.755-7.903,1.184
			c0,2.835,0,5.321,0,7.928c3.065,2.388,11.549-0.254,7.749,8.749c-2.202,0.388-4.656,0.821-7.51,1.325
			c-0.467,2.646-0.902,5.114-1.433,8.12c-5.397,0.273-10.729,0.543-16.902,0.856c0,5.847,0,11.199,0,17.005
			c-3.025,0-5.181,0-7.831,0c0-8.284,0-16.499,0-24.626c5.935-0.903,12.08-0.596,16.672-3.117c1.974-1.084,1.637-8.271,0.607-12.231
			c-0.631-2.422-4.574-3.982-8.544-7.13c-0.865,5.652-1.24,8.103-1.655,10.82c-2.632,0.422-5.087,0.816-7.71,1.237
			c-0.462,2.829-0.864,5.289-1.231,7.537c-7.495,2.584-8.197-1.854-7.457-7.945c-6.095,0-11.449,0-16.428,0
			c-4.015-8.532,1.948-8.363,6.852-9.053c0.39-2.705,0.744-5.166,1.184-8.218c5.372,0,10.488,0,16.06,0
			c0.718-3.15,1.32-5.789,1.99-8.729c5.029,0,9.854,0,15.314,0c0.544,2.5,1.118,5.137,1.929,8.866c6.136,0,12.123,0,18.11,0
			L326.275,392.781z"/>
		<path display="inline" d="M326.533,393.052c0-6.003,0-12.007,0-18.247c-3.313-0.712-5.751-1.237-8.651-1.86c0-5,0-10.084,0-15.168
			c6.742-1.376,6.742-1.376,8.317,6.832c6.45,2.458,9.832,0.648,9.055-7.181c2.644-0.51,5.089-0.981,8.161-1.573
			c0-2.579,0-5.287,0-8.348c-3.857-1.338-11.066,0.001-7.309-8.482c4.933,0,9.999,0,15.573,0c0,8.294,0,16.254,0,24.855
			c-2.389,0.52-5.032,1.095-7.97,1.734c0,2.785,0,5.288,0,8.207c2.593,0.542,5.059,1.057,8.362,1.747c0,5.132,0,10.49,0,16.243
			c4.767,1.184,11.459,0.347,8.148,8.631c-2.166,0.335-4.62,0.715-7.482,1.159c-0.35,2.715-0.666,5.171-1.01,7.842
			c-2.592,0-4.746,0-7.575,0c0-8.706,0-16.993,0-25.94c-3.375,0-6.074,0-9.103,0c-0.395,2.604-0.77,5.082-1.183,7.805
			c-2.651,0.508-5.128,0.983-7.598,1.467C326.275,392.781,326.533,393.052,326.533,393.052z"/>
		<path display="inline" d="M362.298,455.66c0.871-7.537-1.471-10.884-8.463-9.451c-0.478-2.882-0.887-5.352-1.428-8.621
			c-5.21,0-10.553,0-16.573,0c0-6.044,0-11.303,0-17.031c2.211,0,4.359,0,6.96,0c0.351,2.599,0.681,5.05,1.078,7.992
			c2.798,0.136,5.264,0.257,8.85,0.431c0-6.037,0-11.594,0-17.549c3.243,0,5.392,0,7.738,0c0.446,2.741,0.846,5.194,1.359,8.348
			c8.5,0,16.746,0,25.321,0c0.624,3.1,1.113,5.533,1.693,8.416c3.61,1.342,10.936-0.235,7.173,8.96c-7.917,0-16.39,0-23.065,0
			C366.073,442.476,375.859,453.642,362.298,455.66z"/>
		<path display="inline" d="M157.182,321.321c-0.779-4.973-1.165-7.436-1.578-10.074c-2.762-0.52-5.218-0.982-8.476-1.595
			c0.465-2.46,0.741-6.364,1.279-6.401c12.142-0.821,6.644-10.081,7.889-16.034c0.117-0.559,0.202-1.125,0.425-2.384
			c1.862-0.263,3.937-0.555,6.577-0.927c0.572,3.124,1.065,5.813,1.619,8.834c2.661,0.404,5.14,0.781,7.65,1.162
			c0.51,2.767,0.964,5.235,1.483,8.049c5.673,0,11.049,0,16.329,0c2.511-8.198,2.511-8.198,9.113-7.863c0,5.076,0,10.178,0,15.962
			c-5.432,0.29-10.775,0.576-16.698,0.893c0,2.993,0,5.677,0,8.736c2.641,0.402,5.1,0.776,7.814,1.189c0,2.517,0,4.672,0,7.218
			c-8.357,0-16.329,0-24.272,0c-1.23-7.139-1.23-7.139,7.098-8.589c0-2.608,0-5.311,0-8.334c-4.549-0.624-8.87-2.56-9.595,4.682
			C163.67,317.535,160.255,318.9,157.182,321.321z"/>
		<path display="inline" d="M415.696,462.8c0-5.117,0-10.233,0-15.716c-2.894-0.539-5.332-0.993-8.278-1.541
			c0-5.21,0-10.481,0-16.424c5.636,0,10.741,0,16.883,0c0.324-6.164,0.616-11.734,1.038-19.76c3.36,2.281,5.663,3.427,7.415,5.137
			c2.298,2.243,4.161,4.93,6.211,7.426c0.783-0.435,1.566-0.871,2.348-1.307c0,5.062,0,10.124,0,15.739
			c-2.217,0.453-4.644,0.95-7.732,1.581c0,2.546,0,5.231,0,8.264c3.945,1.308,11.003,0.156,7.142,8.924
			c-3.412,0-7.231-0.588-10.736,0.208c-2.316,0.526-4.229,2.981-6.234,4.678c-1.981,1.677-3.851,3.487-5.769,5.239
			C417.222,464.432,416.459,463.616,415.696,462.8z"/>
		<path display="inline" d="M289.556,555.354c0,2.54,0,5.08,0,8.419c-5.975,0-11.327,0-17.033,0
			c-0.573,3.206-1.015,5.684-1.537,8.604c-4.972,0-10.024,0-15.717,0c-0.325-5.518-0.639-10.851-1.02-17.311
			c-6.256,0-12.182,0-18.108,0l0.301,0.303c0-2.822,0-5.644,0-8.747c-3.017-0.55-5.49-1.001-8.27-1.508c0-2.317,0-4.446,0-6.967
			c5.248,0,10.087,0,15.554,0c0.58,2.405,1.21,5.019,1.944,8.067c5.521,0,10.908,0,16.935,0c0.605-2.493,1.252-5.158,1.926-7.929
			c2.15,0,4.293,0,7.308,0c0,5.839,0,11.206,0,17.354c6.579,0,12.29,0,18.001,0L289.556,555.354z"/>
		<path display="inline" d="M182.685,437.494c0.177-2.524,0.354-5.049,0.561-8.004c2.776-0.341,5.231-0.642,7.938-0.974
			c0.489-2.836,0.912-5.292,1.464-8.493c8.467,0,16.687,0,25.025,0c1.953-4.098-0.128-12.131,8.286-8.205
			c3.283,17.29,1.624,24.71-6.146,25.177c-0.553-2.574-1.123-5.226-1.717-7.993c-7.331-2.051-10.731-0.262-8.482,8.198
			c4.095,0.986,10.721,0.129,7.46,8.481c-4.732,0-9.77,0-15.425,0c-0.387-2.405-0.778-4.833-1.366-8.485c-6.041,0-11.964,0-17.886,0
			L182.685,437.494z"/>
		<path display="inline" d="M434.185,319.544c-2.563,0-5.126,0-8.237,0c-0.651-2.715-1.279-5.333-2.027-8.45
			c-2.716,0-5.411,0-8.862,0c0,8.557,0,16.758,0,25.622c-3.019,0-5.298,0-8.387,0c0-5.638,0-10.967,0-17.226
			c-3.868,0-6.942,0-10.026-0.005c-0.01-0.005,0.263,0.226,0.251,0.218c0.119-2.783,0.249-5.557,0.379-8.331l-0.261,0.277
			c2.839-0.246,5.678-0.492,8.98-0.778c0.453-2.526,0.895-4.995,0.926-5.166c4.524-4.003,7.76-6.865,10.995-9.727
			c-0.467-0.706-0.933-1.412-1.4-2.118c7.964,0,15.927,0,25.247,0c-0.378,2.348-0.415,6.401-1.143,6.529
			c-14.175,2.5-6.065,12.465-6.722,19.403C433.909,319.786,434.185,319.544,434.185,319.544z"/>
		<path display="inline" d="M449.86,391.536c-2.537,0.338-4.77,0.636-7.503,1c-0.178,2.634-0.346,5.122-0.548,8.112
			c3.008,0.676,5.658,1.271,8.546,1.919c0,5.324,0,10.397,0,15.321c-7.323,3.094-8.171-1.227-7.98-6.874
			c-2.829-0.649-5.479-1.258-8.625-1.98c0-5.321,0-10.438,0-16.041c-2.89-0.589-5.303-1.081-8.315-1.696
			c-0.16-1.157-0.987-3.105-0.41-3.705c2.009-2.093,4.504-3.721,8.091-6.522c0-0.796,0-3.494,0-6.598
			c-2.582-0.486-5.033-0.947-7.835-1.474c0-2.288,0-4.449,0-7.002c5.438,0,10.501,0,16.386,0c0,5.743,0,11.09,0,16.507
			C445.953,384.444,453.581,382.671,449.86,391.536z"/>
		<path display="inline" d="M308.086,473.566c-0.502,3.183-0.889,5.633-1.33,8.426c-2.357,0-4.484,0-7.01,0
			c0-5.499,0-10.592,0-16.082c2.646-0.433,5.095-0.834,7.855-1.285c0.518-2.562,1.014-5.014,1.571-7.769
			c2.412-0.426,4.864-0.86,7.589-1.341c0.425-2.787,0.803-5.262,1.226-8.033c5.264,0,10.332,0,15.908,0c0,5.44,0,10.473,0,16.061
			c-2.278,0.393-4.721,0.815-7.699,1.33c-0.466,2.52-0.966,5.224-1.608,8.694C319.131,473.566,313.79,473.566,308.086,473.566z"/>
		<path display="inline" d="M280.873,445.825c-9.314,0-17.268,0-25.426,0c-0.501-2.761-0.949-5.232-1.439-7.937
			c-2.651-0.409-5.113-0.789-7.801-1.204c-0.418-2.721-0.799-5.196-1.208-7.861c-2.794-0.485-5.247-0.911-7.914-1.374
			c0-5.406,0-10.424,0-15.951c5.459,0,10.475,0,16.119,0c0.272,5.548,0.533,10.87,0.817,16.672c2.71,0.501,5.132,0.949,7.999,1.479
			c0.382,2.442,0.763,4.883,0.933,5.966C267.979,441.972,279.978,431.531,280.873,445.825z"/>
		<path display="inline" d="M335.108,311.65c0-8.854,0-17.709,0-27.048c5.93,0,10.988,0,16.474,0
			c0.38,2.561,0.747,5.031,0.879,5.921c3.887,2.969,6.77,5.171,9.653,7.372c-0.448,0.8-0.897,1.6-1.345,2.4
			c-2.655,0.667-5.309,1.334-8.639,2.171c0,5.537,0,10.908,0,16.632c-2.898,0-5.039,0-7.545,0c-0.369-2.812-0.693-5.278-1.123-8.558
			c-3.154,0.297-5.89,0.554-8.622,0.819C334.845,311.366,335.108,311.65,335.108,311.65z"/>
		<path display="inline" d="M334.751,474.065c0,2.558,0,5.116,0,8.418c5.65,0,11.204,0,17.41,0c0.498-2.202,1.1-4.863,1.781-7.873
			c2.191,0,4.317,0,6.772,0c0,5.465,0,10.548,0,16.192c-2.584,0.388-5.001,0.75-7.854,1.178c-0.424,2.663-0.81,5.093-1.261,7.926
			c-5.229,0-10.266,0-15.79,0c-0.408-2.584-0.792-5.012-1.23-7.785c-2.633-0.467-5.076-0.9-7.881-1.397c0-5.213,0-10.271,0-16.362
			c2.88,0,5.609,0,8.337,0L334.751,474.065z"/>
		<path display="inline" d="M297.878,283.067c0.082,9.558,0.164,19.116,0.238,28.685c-0.007,0.011,0.201-0.234,0.189-0.221
			c-2.436-0.607-4.862-1.226-8.035-2.037c0-5.433,0-10.782,0-16.69c-3.23-0.188-5.674-0.331-9.593-0.56
			c0,4.504-0.223,8.415,0.052,12.291c0.425,6.004-2.423,6.901-7.732,5.145c0-8.199,0-16.41,0-25.025
			c8.622-0.475,16.874-0.93,25.126-1.385L297.878,283.067z"/>
		<path display="inline" d="M405.681,510.278c0,6.301,0,11.134,0,15.943c-8.317,4.502-8.052-1.903-8.228-7.363
			c-5.837,0-10.925,0-16.463,0c-0.65-3.128-1.198-5.764-1.879-9.04c-5.285,0-10.351,0-16.198,0c-0.18-2.96-0.32-5.253-0.484-7.947
			c8.693,0,16.625,0,24.966,0c0.462,2.672,0.885,5.116,1.453,8.406C394.219,510.278,399.539,510.278,405.681,510.278z"/>
		<path display="inline" d="M261.712,509.897c0.684,3.766,1.13,6.218,1.662,9.148c5.631,0.256,10.972,0.5,16.196,0.738
			c2.71,14.464,1.987,16.377-6.363,16.253c-0.387-2.362-0.787-4.81-1.276-7.795c-2.869,0-5.559,0-8.577,0
			c-0.51,2.702-0.973,5.151-1.501,7.948c-5.026,0-9.852,0-15.578,0c-0.192-2.089-0.404-4.401-0.644-7.017
			c3.187-0.47,5.669-0.836,7.271-1.072C258.534,523.033,248.912,512.244,261.712,509.897z"/>
		<path display="inline" d="M190.898,474.068c5.674,0,11.348,0,17.43,0c0,3.073,0,5.227,0,7.83
			c-2.591,0.401-5.022,0.777-7.803,1.206c-0.395,2.713-0.749,5.144-1.189,8.165c-5.399,0-10.473,0-15.711,0
			c-2.246,3.881-0.324,12.373-9.651,7.752c0-5.302,0-10.98,0-16.658l-0.269,0.347c5.803,0,11.606,0,18.114,0
			c-0.222-3.442-0.397-6.17-0.573-8.897L190.898,474.068z"/>
		<path display="inline" d="M296.579,504.516c2.506,1.988,5.229,3.762,7.447,6.031c1.734,1.773,2.84,4.159,5.14,7.667
			c-7.474,0-12.518,0-18.059,0c-0.437-2.427-0.875-4.864-1.413-7.853c-2.256-0.418-4.683-0.867-7.67-1.42c0-4.996,0-9.995,0-15.668
			c3.828-0.927,7.191-2.409,7.934,4.326c0.224,2.03,4.356,3.63,6.697,5.426C296.63,503.523,296.604,504.019,296.579,504.516z"/>
		<path display="inline" d="M245.909,297.652c0-2.56,0-7.381,0-12.878c5.254,0,10.231,0,15.94,0c0,8.04,0,16.197,0,27.665
			c-3.275-3.036-5.191-4.812-7.106-6.588C252.42,303.696,250.098,301.54,245.909,297.652z"/>
		<path display="inline" d="M289.84,555.638c0.154-2.815,0.309-5.631,0.475-8.657c-3.953-1.886-11.688-0.019-8.013-8.696
			c2.209-0.348,4.68-0.737,7.416-1.167c0.386-2.69,0.743-5.183,1.102-7.68c5.667-2.167,8.128-0.728,7.736,5.552
			c-0.391,6.259-0.086,12.562-0.086,19.348c-3.379,0.383-6.143,0.697-8.91,1.013C289.556,555.354,289.84,555.638,289.84,555.638z"/>
		<path display="inline" d="M380.5,300.45c-0.352-2.333-0.72-4.767-1.219-8.071c-5.514,0-10.81,0-16.536,0c0-3.067,0-5.211,0-7.751
			c8.371,0,16.493,0,24.538,0C389.44,300.158,389.076,301.027,380.5,300.45z"/>
		<path display="inline" d="M298.124,283.27c0.672-2.416,1.345-4.833,2.15-7.728c2.255-0.33,4.713-0.689,7.395-1.081
			c0.516-2.647,0.997-5.116,1.481-7.603c4.508-1.543,6.887-1.051,7.206,4.587c1.015,17.96,0.576,19.987-7.013,20.389
			c-0.569-2.549-1.161-5.198-1.816-8.133c-3.391-0.218-6.508-0.419-9.637-0.627C297.878,283.067,298.124,283.27,298.124,283.27z"/>
		<path display="inline" d="M182.396,437.198c0,2.81,0,5.621,0,8.895c3.885,1.503,11.274-0.137,7.891,8.493
			c-4.912,0-10.162,0-15.851,0c0-5.393,0-10.407,0-16.009c2.797-0.364,5.523-0.719,8.249-1.079
			C182.685,437.494,182.396,437.198,182.396,437.198z"/>
		<path display="inline" d="M236.142,555.065c-0.178,2.533-0.356,5.066-0.567,8.056c-2.481,0.451-4.9,0.891-7.766,1.413
			c-1.789,3.167,0.816,11.503-8.421,7.345c0-4.736,0-9.983,0-16.507c5.833,0,11.442,0,17.053-0.002
			C236.443,555.369,236.142,555.065,236.142,555.065z"/>
		<path display="inline" d="M361.326,555.038c5.564,0.57,11.152,0.749,7.509,8.518c-4.802,0-9.622,0-15.084,0
			c0-5.384,0-10.663,0-16.001C360.901,544.478,361.297,549.231,361.326,555.038z"/>
		<path display="inline" d="M388.877,528.95c-3.137,6.188,4.245,15.179-7.858,17.339c-0.668-3.425-1.183-6.069-1.758-9.016
			c-2.605-0.423-5.065-0.823-7.686-1.248c0-2.442,0-4.585,0-7.074C377.035,528.95,382.076,528.95,388.877,528.95z"/>
		<path display="inline" d="M459.273,464.728c-13.108-1.751-5.112-11.164-8.52-16.922c3.481,0,5.829,0,8.52,0
			C459.273,453.187,459.273,458.284,459.273,464.728z"/>
		<path display="inline" d="M335.036,474.361c0-2.57,0-5.141,0-8.412c5.658,0,10.9,0,16.637,0c0,2.157,0,4.31,0,6.996
			c-5.637,0.369-11.281,0.739-16.923,1.114C334.751,474.065,335.036,474.361,335.036,474.361z"/>
		<path display="inline" d="M235.967,392.673c0,5.17,0,10.34,0,16.405c-2.516,0.314-4.837,0.604-7.748,0.967
			c0-5.777,0-10.846,0-17.093c2.616,0,5.314,0,8.013,0L235.967,392.673z"/>
		<path display="inline" d="M245.557,518.365c-6.738,0-11.558,0-17.204,0c-0.182-2.342-0.364-4.669-0.6-7.7
			c5.528,0,10.399-0.388,15.113,0.299C243.918,511.117,244.418,515.052,245.557,518.365z"/>
		<path display="inline" d="M263.004,420.342c6.666,0,11.446,0,17.509,0c-0.262,2.42-0.206,6.518-0.794,6.612
			c-4.657,0.749-9.471,1.095-14.15,0.654C264.636,427.52,264.071,423.528,263.004,420.342z"/>
		<path display="inline" d="M163.646,366.148c0.136,2.079,0.278,4.247,0.457,6.981c-5.494,0-10.519,0-15.552-0.005
			C147.007,364.593,147.008,364.593,163.646,366.148z"/>
		<path display="inline" d="M468.065,336.912c-2.54,0-4.703,0-8.157,0c3.452-5.68-5.119-15.293,8.157-16.983
			C468.065,326.161,468.065,331.485,468.065,336.912z"/>
		<path display="inline" d="M335.191,255.608c-6.605,0-11.66,0-17.283,0c-0.128-2.3-0.246-4.418-0.417-7.505
			c5.177,0,9.991-0.462,14.601,0.306C333.333,248.615,333.952,252.557,335.191,255.608z"/>
		<path display="inline" d="M416.371,410.352c0-6.397,0-11.429,0-17.805c2.645,0.692,6.499,1,6.621,1.848
			c0.645,4.467,0.704,9.118,0.095,13.586C422.957,408.938,419.219,409.403,416.371,410.352z"/>
		<path display="inline" d="M397.277,311.372c-2.444-0.497-4.888-0.993-7.314-1.486c-1.3-7.615-1.3-7.615,7.061-6.464
			c0,2.668,0,5.439-0.004,8.219C397.016,311.648,397.277,311.372,397.277,311.372z"/>
		<path display="inline" d="M442.642,474.038c0-2.534,0-5.068,0-7.509c8.17-1.592,8.17-1.592,7.152,6.522
			c-2.429,0.227-4.939,0.461-7.449,0.695L442.642,474.038z"/>
		<path display="inline" d="M182.738,356.194c-2.503-0.254-5.005-0.508-7.454-0.757c-1.754-7.799-1.754-7.799,6.429-7.125
			c0.238,2.665,0.484,5.416,0.732,8.171C182.446,356.487,182.738,356.194,182.738,356.194z"/>
		<path display="inline" d="M236.012,364.882c0.374-2.511,0.747-5.022,1.134-7.617c6.647-2.089,8.72,0.198,6.853,7.339
			c-2.667,0-5.464,0-8.267-0.003C235.726,364.599,236.012,364.882,236.012,364.882z"/>
		<path display="inline" d="M487.412,356.07c-0.02,2.931-0.04,5.863-0.06,8.795c-2.503-0.117-5.006-0.235-8.24-0.388
			c-0.148-2.396-0.292-4.711-0.458-7.407C481.98,356.69,484.696,356.38,487.412,356.07z"/>
		<path display="inline" d="M245.685,268.117c-1.598,2.054-3.196,4.109-4.794,6.163c-1.413-1.236-2.826-2.472-4.239-3.707
			c1.8-1.867,3.6-3.735,5.4-5.602C243.263,266.019,244.474,267.068,245.685,268.117z"/>
		<path display="inline" d="M236.232,392.952c0.228-2.543,0.455-5.085,0.758-8.47c2.22-0.189,4.54-0.387,7.764-0.663
			c-0.229,3.555-0.406,6.311-0.584,9.066l0.251-0.201c-2.818-0.007-5.637-0.014-8.455-0.016
			C235.967,392.673,236.232,392.952,236.232,392.952z"/>
		<path display="inline" d="M274.588,265.176c2.022,1.612,4.044,3.224,6.067,4.835c-1.226,1.42-2.452,2.841-3.678,4.261
			c-1.846-1.821-3.692-3.642-5.539-5.463C272.488,267.598,273.538,266.387,274.588,265.176z"/>
		<path display="inline" d="M244.17,392.885c2.792,0,5.584,0,8.674,0c1.483,5.84,1.081,9.427-6.286,7.586
			c-0.681-2.522-1.395-5.166-2.122-7.799C244.422,392.684,244.17,392.885,244.17,392.885z"/>
		<path display="inline" d="M340.499,528.787c-2.153-2.209-4.305-4.418-7.294-7.486
			C342.017,517.903,344.213,520.108,340.499,528.787z"/>
		<path display="inline" d="M281.79,477.007c-2.189,2.168-4.379,4.336-7.789,7.713C271.65,476.174,272.538,472.877,281.79,477.007z"
			/>
		<path display="inline" d="M329.31,264.899c2.022,2.326,4.045,4.653,6.067,6.979c-1.192,1.143-2.383,2.286-3.575,3.43
			c-2.234-2.117-4.468-4.235-6.702-6.352C326.503,267.603,327.906,266.251,329.31,264.899z"/>
		<path display="inline" d="M442.345,473.746c-0.026,3.031-0.052,6.063-0.074,9.095c0.003,0,0.298-0.307,0.301-0.306
			c-2.51,0.001-5.023,0.001-8.261,0.001c-0.182-2.741-0.335-5.058-0.522-7.877c3.364-0.236,6.104-0.428,8.849-0.62
			C442.642,474.038,442.345,473.746,442.345,473.746z"/>
		<path display="inline" d="M234.274,444.909c3.4-3.616,5.51-5.86,8.638-9.186C245.915,444.152,245.043,447.417,234.274,444.909z"/>
		<path display="inline" d="M470.131,518.97c5.979,2.857,14.993-4.775,16.859,7.734c-3.12,0.589-5.541,1.046-8.55,1.614
			c-0.476,2.219-0.375,5.116-1.731,6.913c-0.951,1.26-3.889,1.02-6.579,1.585C470.131,530.794,470.131,525.725,470.131,518.97z"/>
		<path display="inline" d="M432.778,525.612c1.605-2.054,3.21-4.107,4.815-6.161c1.412,1.24,2.823,2.479,4.235,3.719
			c-1.799,1.859-3.598,3.717-5.397,5.576C435.213,527.701,433.995,526.657,432.778,525.612z"/>
		<path display="inline" d="M147.958,538.048c8.564,0,16.3,0,24.653,0c0,8.453,0,16.626,0,25.322c-8.128,0-16.049,0-24.653,0
			C147.958,555.104,147.958,546.955,147.958,538.048z"/>
		<path display="inline" d="M147.557,255.264c0-8.539,0-16.299,0-24.736c8.395,0,16.541,0,25.184,0c0,8.108,0,16.062,0,24.736
			C164.561,255.264,156.444,255.264,147.557,255.264z"/>
		<path display="inline" d="M476.795,255.684c-8.564,0-16.3,0-24.653,0c0-8.453,0-16.628,0-25.322c8.128,0,16.049,0,24.653,0
			C476.795,238.628,476.795,246.777,476.795,255.684z"/>
	</g>
	<g id="Layer_4" display="none">
		<g id="swiftgive_s_raw_xA0_Image_1_" display="inline">
			<g>
				<path fill="#FFFFFF" stroke="#FFFFFF" stroke-width="8" stroke-miterlimit="10" d="M402.273,507.026
					c0-6.128,0.026-12.256-0.017-18.384c-0.012-1.686,0.551-2.762,2.277-3.496c4.046-1.72,7.962-3.706,11.379-6.457
					c0.781-0.629,1.48-1.352,2.201-2.046c2.873-2.766,1.812-6.891-0.139-8.964c-2.315-2.459-5.271-3.998-8.394-5.212
					c-3.38-1.314-6.848-2.423-10.288-3.594c-1.311-0.446-1.92-1.091-1.861-2.13c0.058-1.018,0.671-1.647,1.966-1.92
					c0.564-0.119,1.154-0.179,1.732-0.179c12.588-0.01,25.176,0.01,37.764-0.03c1.553-0.005,2.811,0.344,3.975,1.364
					c2.941,2.576,5.339,5.467,6.383,9.23c1.382,4.982,0.155,9.48-2.801,13.643c-3.061,4.309-7.259,7.478-11.664,10.39
					c-7.425,4.909-15.37,8.921-23.73,12.171c-0.679,0.264-0.847,0.581-0.842,1.222c0.063,7.528,0.096,15.056,0.148,22.584
					c0.019,2.693-0.586,3.317-3.414,3.448c-0.438,0.02-0.876,0.048-1.314,0.073c-2.445,0.138-3.358-0.674-3.359-3.013
					C402.27,519.493,402.273,513.26,402.273,507.026z"/>
				<path fill="#FFFFFF" stroke="#FFFFFF" stroke-width="8" stroke-miterlimit="10" d="M390.594,507.859
					c-2.589,0.837-4.898,1.593-7.212,2.329c-3.639,1.157-7.278,2.313-10.926,3.445c-2.188,0.679-3.063,0.271-3.918-1.738
					c-1.487-3.496-2.977-6.991-4.465-10.486c-0.953-2.237-0.435-3.252,1.987-3.852c9.836-2.439,19.576-5.17,29.088-8.611
					c2.171-0.785,3.605,0.183,3.607,2.431c0.01,11.661,0.009,23.322,0,34.982c-0.001,1.86-0.802,2.661-2.75,2.837
					c-0.619,0.056-1.243,0.059-1.861,0.12c-2.264,0.223-3.245-0.611-3.288-2.826c-0.09-4.621-0.182-9.242-0.258-13.864
					C390.572,511.096,390.594,509.565,390.594,507.859z"/>
			</g>
		</g>
		<g id="Layer_2_2_" display="inline">
			<g>
				<path fill="#FFFFFF" stroke="#FFFFFF" stroke-width="8" stroke-miterlimit="10" d="M398.046,478.062
					c-8.355,0-16.709,0.001-25.064-0.003c-0.414,0-0.852,0.03-1.237-0.089c-4.982-1.546-9.856-3.34-14.018-6.645
					c-3.008-2.388-4.842-5.489-5.093-9.373c-0.198-3.062,0.829-5.852,2.381-8.449c2.629-4.399,6.332-7.757,10.339-10.807
					c6.202-4.72,12.961-8.463,20.109-11.494c0.681-0.289,0.831-0.634,0.767-1.329c-0.618-6.761-1.205-13.525-1.799-20.288
					c-0.025-0.279-0.036-0.559-0.05-0.839c-0.092-1.887,0.517-2.733,2.331-2.914c2.757-0.274,5.524-0.468,8.29-0.634
					c1.35-0.082,2.129,0.596,2.404,1.947c0.083,0.406,0.09,0.833,0.09,1.25c0.004,11.31-0.012,22.621,0.021,33.931
					c0.005,1.625-0.531,2.651-2.074,3.329c-3.313,1.456-6.459,3.23-9.095,5.792c-0.299,0.291-0.578,0.604-0.863,0.91
					c-2.405,2.595-1.452,5.212,0.402,7.038c1.671,1.645,3.699,2.775,5.86,3.508c6.459,2.189,12.974,4.207,19.455,6.333
					c4.605,1.51,9.188,3.09,13.784,4.628c0.998,0.334,1.602,0.982,1.611,2.057c0.009,0.982-0.65,1.66-1.848,1.948
					c-0.499,0.12-1.023,0.184-1.536,0.185C414.824,478.065,406.435,478.062,398.046,478.062z"/>
				<path fill="#FFFFFF" stroke="#FFFFFF" stroke-width="8" stroke-miterlimit="10" d="M411.693,422.982
					c5.073-0.745,10.038-1.473,15.161-2.225c0-0.234,0.011-0.568-0.002-0.9c-0.084-2.204-0.196-4.408-0.255-6.613
					c-0.055-2.048,0.8-3.318,2.605-3.542c0.783-0.097,1.784,0.124,2.426,0.576c7.216,5.088,14.388,10.238,21.553,15.397
					c1.739,1.252,1.804,3.717,0.136,5.172c-3.881,3.385-7.798,6.727-11.699,10.088c-2.662,2.294-5.315,4.6-7.985,6.884
					c-1.752,1.5-4.056,1.352-5.041-0.39c-0.36-0.636-0.503-1.452-0.556-2.2c-0.174-2.439-0.26-4.885-0.389-7.501
					c-2.6,0.316-5.133,0.577-7.651,0.941c-5.388,0.777-10.689,1.962-15.886,3.616c-2.067,0.658-3.279-0.293-3.28-2.518
					c-0.006-10.681-0.005-21.362-0.001-32.043c0.001-2.139,0.751-2.916,2.849-2.987c2.077-0.07,4.155-0.161,6.233-0.188
					c2.215-0.03,2.998,0.87,2.836,3.086c-0.362,4.958-0.705,9.917-1.054,14.875C411.685,422.644,411.693,422.779,411.693,422.982z"
					/>
			</g>
		</g>
		<g id="swiftgive_s_raw_xA0_Image_3_" display="inline">
			<g>
				<path fill="#FFFFFF" stroke="#414042" stroke-width="2" stroke-miterlimit="10" d="M402.194,507.743
					c0-6.128,0.026-12.256-0.017-18.384c-0.012-1.686,0.551-2.762,2.277-3.496c4.046-1.72,7.962-3.706,11.379-6.457
					c0.781-0.629,1.48-1.352,2.201-2.046c2.873-2.766,1.812-6.891-0.139-8.964c-2.315-2.459-5.271-3.998-8.394-5.212
					c-3.38-1.314-6.848-2.423-10.288-3.594c-1.311-0.446-1.92-1.091-1.861-2.13c0.058-1.018,0.671-1.647,1.966-1.92
					c0.564-0.119,1.154-0.179,1.732-0.179c12.588-0.01,25.176,0.01,37.764-0.03c1.553-0.005,2.811,0.344,3.975,1.364
					c2.941,2.576,5.339,5.467,6.383,9.23c1.382,4.982,0.155,9.48-2.801,13.643c-3.061,4.309-7.259,7.478-11.664,10.39
					c-7.425,4.909-15.37,8.921-23.73,12.171c-0.679,0.264-0.847,0.581-0.842,1.222c0.063,7.528,0.096,15.056,0.148,22.584
					c0.019,2.693-0.586,3.317-3.414,3.448c-0.438,0.02-0.876,0.048-1.314,0.073c-2.445,0.138-3.358-0.674-3.359-3.013
					C402.191,520.21,402.194,513.977,402.194,507.743z"/>
				<path fill="#FFFFFF" stroke="#414042" stroke-width="2" stroke-miterlimit="10" d="M390.514,508.576
					c-2.589,0.837-4.898,1.593-7.212,2.329c-3.639,1.157-7.278,2.313-10.926,3.445c-2.188,0.679-3.063,0.271-3.918-1.738
					c-1.487-3.496-2.977-6.991-4.465-10.486c-0.953-2.237-0.435-3.252,1.987-3.852c9.836-2.439,19.576-5.17,29.088-8.611
					c2.171-0.785,3.605,0.183,3.607,2.431c0.01,11.661,0.009,23.322,0,34.982c-0.001,1.86-0.802,2.661-2.75,2.837
					c-0.619,0.056-1.243,0.059-1.861,0.12c-2.264,0.223-3.245-0.611-3.288-2.826c-0.09-4.621-0.182-9.242-0.258-13.864
					C390.493,511.813,390.514,510.282,390.514,508.576z"/>
			</g>
		</g>
		<g id="Layer_2_3_" display="inline">
			<g>
				<path fill="#FFFFFF" stroke="#414042" stroke-width="2" stroke-miterlimit="10" d="M397.967,478.779
					c-8.355,0-16.709,0.001-25.064-0.003c-0.414,0-0.852,0.03-1.237-0.089c-4.982-1.546-9.856-3.34-14.018-6.645
					c-3.008-2.388-4.842-5.489-5.093-9.373c-0.198-3.062,0.829-5.852,2.381-8.449c2.629-4.399,6.332-7.757,10.339-10.807
					c6.202-4.72,12.961-8.463,20.109-11.494c0.681-0.289,0.831-0.634,0.767-1.329c-0.618-6.761-1.205-13.525-1.799-20.288
					c-0.025-0.279-0.036-0.559-0.05-0.839c-0.092-1.887,0.517-2.733,2.331-2.914c2.757-0.274,5.524-0.468,8.29-0.634
					c1.35-0.082,2.129,0.596,2.404,1.947c0.083,0.406,0.09,0.833,0.09,1.25c0.004,11.31-0.012,22.621,0.021,33.931
					c0.005,1.625-0.531,2.651-2.074,3.329c-3.313,1.456-6.459,3.23-9.095,5.792c-0.299,0.291-0.578,0.604-0.863,0.91
					c-2.405,2.595-1.452,5.212,0.402,7.038c1.671,1.645,3.699,2.775,5.86,3.508c6.459,2.189,12.974,4.207,19.455,6.333
					c4.605,1.51,9.188,3.09,13.784,4.628c0.998,0.334,1.602,0.982,1.611,2.057c0.009,0.982-0.65,1.66-1.848,1.948
					c-0.499,0.12-1.023,0.184-1.536,0.185C414.745,478.783,406.356,478.779,397.967,478.779z"/>
				<path fill="#FFFFFF" stroke="#414042" stroke-width="2" stroke-miterlimit="10" d="M411.614,423.699
					c5.073-0.745,10.038-1.473,15.161-2.225c0-0.234,0.011-0.568-0.002-0.9c-0.084-2.204-0.196-4.408-0.255-6.613
					c-0.055-2.048,0.8-3.318,2.605-3.542c0.783-0.097,1.784,0.124,2.426,0.576c7.216,5.088,14.388,10.238,21.553,15.397
					c1.739,1.252,1.804,3.717,0.136,5.172c-3.881,3.385-7.798,6.727-11.699,10.088c-2.662,2.294-5.315,4.6-7.985,6.884
					c-1.752,1.5-4.056,1.352-5.041-0.39c-0.36-0.636-0.503-1.452-0.556-2.2c-0.174-2.439-0.26-4.885-0.389-7.501
					c-2.6,0.316-5.133,0.577-7.651,0.941c-5.388,0.777-10.689,1.962-15.886,3.616c-2.067,0.658-3.279-0.293-3.28-2.518
					c-0.006-10.681-0.005-21.362-0.001-32.043c0.001-2.139,0.751-2.916,2.849-2.987c2.077-0.07,4.155-0.161,6.233-0.188
					c2.215-0.03,2.998,0.87,2.836,3.086c-0.362,4.958-0.705,9.917-1.054,14.875C411.605,423.361,411.614,423.497,411.614,423.699z"
					/>
			</g>
		</g>
	</g>
	<g>
		<defs>
			<rect id="SVGID_2_" x="-232.661" y="501.285" width="41.851" height="574.051"/>
		</defs>
		<clipPath id="SVGID_3_">
			<use xlink:href="#SVGID_2_"  overflow="visible"/>
		</clipPath>
		<g id="Layer_5" clip-path="url(#SVGID_3_)">
			<path fill="none" stroke="#000000" stroke-width="10" stroke-miterlimit="10" d="M226.128,1038.49
				c0,11.862-8.954,21.477-20,21.477h-411.766c-11.046,0-20-9.615-20-21.477V564.814c0-11.862,8.954-21.477,20-21.477h411.766
				c11.046,0,20,9.615,20,21.477V1038.49z"/>
		</g>
	</g>
	<g id="Layer_1_1_">
		<g id="swiftgive_s_raw_xA0_Image_2_">
			<g>
				
					<linearGradient id="SVGID_4_" gradientUnits="userSpaceOnUse" x1="-134.1112" y1="596.0564" x2="-134.1112" y2="543.818" gradientTransform="matrix(1 0 0 1 0 2)">
					<stop  offset="0" style="stop-color:#616161"/>
					<stop  offset="0.6999" style="stop-color:#010101"/>
				</linearGradient>
				
					<linearGradient id="SVGID_5_" gradientUnits="userSpaceOnUse" x1="-134.1112" y1="543.318" x2="-134.1112" y2="596.5564" gradientTransform="matrix(1 0 0 1 0 2)">
					<stop  offset="0" style="stop-color:#616161"/>
					<stop  offset="0.7979" style="stop-color:#010101"/>
				</linearGradient>
				<path fill="url(#SVGID_4_)" stroke="url(#SVGID_5_)" stroke-miterlimit="10" d="M-149.152,582.745
					c0-4.318,0.018-8.636-0.012-12.953c-0.008-1.188,0.388-1.946,1.604-2.463c2.851-1.212,5.61-2.611,8.018-4.549
					c0.55-0.443,1.042-0.952,1.55-1.442c2.024-1.949,1.277-4.855-0.098-6.316c-1.631-1.733-3.714-2.817-5.915-3.672
					c-2.382-0.926-4.825-1.707-7.249-2.532c-0.924-0.314-1.353-0.769-1.311-1.5c0.041-0.717,0.473-1.16,1.385-1.353
					c0.398-0.084,0.813-0.126,1.22-0.126c8.869-0.007,17.739,0.007,26.608-0.021c1.094-0.003,1.98,0.242,2.801,0.961
					c2.072,1.815,3.762,3.852,4.497,6.503c0.974,3.51,0.109,6.68-1.974,9.613c-2.157,3.036-5.115,5.269-8.218,7.321
					c-5.232,3.458-10.83,6.286-16.72,8.575c-0.478,0.186-0.597,0.409-0.593,0.861c0.045,5.304,0.068,10.608,0.104,15.913
					c0.013,1.897-0.413,2.337-2.405,2.43c-0.309,0.014-0.617,0.034-0.926,0.051c-1.722,0.097-2.366-0.475-2.367-2.123
					C-149.154,591.528-149.152,587.136-149.152,582.745z"/>
				
					<linearGradient id="SVGID_6_" gradientUnits="userSpaceOnUse" x1="-164.0045" y1="596.4745" x2="-164.0045" y2="567.8163" gradientTransform="matrix(1 0 0 1 0 2)">
					<stop  offset="0" style="stop-color:#616161"/>
					<stop  offset="1" style="stop-color:#010101"/>
				</linearGradient>
				
					<linearGradient id="SVGID_7_" gradientUnits="userSpaceOnUse" x1="-164.0045" y1="567.3163" x2="-164.0045" y2="596.9745" gradientTransform="matrix(1 0 0 1 0 2)">
					<stop  offset="0" style="stop-color:#616161"/>
					<stop  offset="0.7979" style="stop-color:#010101"/>
				</linearGradient>
				<path fill="url(#SVGID_6_)" stroke="url(#SVGID_7_)" stroke-miterlimit="10" d="M-157.381,583.331
					c-1.825,0.59-3.451,1.123-5.082,1.641c-2.564,0.815-5.128,1.63-7.698,2.427c-1.542,0.478-2.158,0.191-2.76-1.224
					c-1.048-2.463-2.097-4.925-3.146-7.388c-0.671-1.576-0.306-2.291,1.4-2.714c6.93-1.719,13.793-3.643,20.495-6.067
					c1.53-0.553,2.54,0.129,2.541,1.713c0.007,8.216,0.007,16.432,0,24.648c-0.001,1.311-0.565,1.875-1.937,1.999
					c-0.436,0.039-0.876,0.041-1.311,0.084c-1.595,0.157-2.287-0.43-2.317-1.991c-0.063-3.256-0.128-6.512-0.182-9.768
					C-157.396,585.612-157.381,584.533-157.381,583.331z"/>
			</g>
		</g>
		<g id="Layer_2_1_">
			<g>
				
					<linearGradient id="SVGID_8_" gradientUnits="userSpaceOnUse" x1="-158.0805" y1="509.1021" x2="-158.0805" y2="564.3456" gradientTransform="matrix(1 0 0 1 0 2)">
					<stop  offset="0" style="stop-color:#99CC99"/>
					<stop  offset="1" style="stop-color:#333333"/>
				</linearGradient>
				
					<linearGradient id="SVGID_9_" gradientUnits="userSpaceOnUse" x1="-158.0805" y1="508.4934" x2="-158.0805" y2="560.8373" gradientTransform="matrix(1 0 0 1 0 2)">
					<stop  offset="0" style="stop-color:#99CC99"/>
					<stop  offset="0.757" style="stop-color:#333333"/>
				</linearGradient>
				<path fill="url(#SVGID_8_)" stroke="url(#SVGID_9_)" stroke-miterlimit="10" d="M-152.131,562.337
					c-5.887,0-11.773,0.001-17.66-0.002c-0.291,0-0.6,0.021-0.871-0.063c-3.51-1.089-6.945-2.354-9.877-4.682
					c-2.119-1.683-3.412-3.868-3.589-6.604c-0.139-2.158,0.584-4.123,1.677-5.953c1.852-3.099,4.461-5.466,7.284-7.614
					c4.37-3.326,9.132-5.963,14.169-8.099c0.48-0.203,0.585-0.447,0.541-0.936c-0.436-4.764-0.849-9.53-1.268-14.295
					c-0.017-0.196-0.025-0.394-0.035-0.591c-0.065-1.33,0.364-1.926,1.642-2.053c1.943-0.193,3.892-0.329,5.841-0.447
					c0.951-0.057,1.5,0.42,1.694,1.372c0.058,0.286,0.064,0.587,0.064,0.881c0.003,7.969-0.008,15.938,0.015,23.907
					c0.003,1.145-0.374,1.868-1.462,2.346c-2.334,1.026-4.551,2.275-6.408,4.081c-0.211,0.205-0.408,0.425-0.608,0.641
					c-1.694,1.828-1.023,3.673,0.283,4.959c1.178,1.159,2.606,1.955,4.129,2.471c4.551,1.542,9.141,2.965,13.707,4.462
					c3.245,1.064,6.474,2.177,9.712,3.261c0.703,0.235,1.129,0.692,1.135,1.45c0.006,0.692-0.458,1.17-1.302,1.373
					c-0.351,0.085-0.721,0.13-1.082,0.13C-140.309,562.339-146.22,562.337-152.131,562.337z"/>
				
					<linearGradient id="SVGID_10_" gradientUnits="userSpaceOnUse" x1="-131.2537" y1="509.1021" x2="-131.2537" y2="564.3456" gradientTransform="matrix(1 0 0 1 0 2)">
					<stop  offset="0" style="stop-color:#99CC99"/>
					<stop  offset="1" style="stop-color:#333333"/>
				</linearGradient>
				
					<linearGradient id="SVGID_11_" gradientUnits="userSpaceOnUse" x1="-131.2537" y1="508.0415" x2="-131.2537" y2="540.2543" gradientTransform="matrix(1 0 0 1 0 2)">
					<stop  offset="0" style="stop-color:#99CC99"/>
					<stop  offset="0.757" style="stop-color:#333333"/>
				</linearGradient>
				<path fill="url(#SVGID_10_)" stroke="url(#SVGID_11_)" stroke-miterlimit="10" d="M-142.515,523.528
					c3.574-0.525,7.073-1.038,10.682-1.568c0-0.165,0.008-0.4-0.001-0.634c-0.059-1.553-0.138-3.106-0.18-4.659
					c-0.038-1.443,0.564-2.338,1.836-2.496c0.551-0.069,1.257,0.087,1.709,0.406c5.084,3.585,10.138,7.213,15.186,10.849
					c1.225,0.882,1.271,2.619,0.095,3.644c-2.734,2.385-5.494,4.739-8.243,7.108c-1.876,1.616-3.745,3.241-5.626,4.851
					c-1.235,1.057-2.858,0.953-3.552-0.275c-0.253-0.448-0.354-1.023-0.392-1.55c-0.122-1.719-0.183-3.442-0.274-5.285
					c-1.832,0.223-3.617,0.407-5.391,0.663c-3.797,0.548-7.531,1.382-11.193,2.548c-1.457,0.464-2.31-0.207-2.311-1.774
					c-0.004-7.526-0.004-15.051,0-22.577c0.001-1.507,0.529-2.055,2.007-2.104c1.464-0.05,2.927-0.113,4.391-0.133
					c1.561-0.021,2.112,0.613,1.998,2.174c-0.255,3.493-0.496,6.987-0.742,10.481C-142.521,523.29-142.515,523.386-142.515,523.528z
					"/>
			</g>
		</g>
		<g enable-background="new    ">
			<path stroke="#010101" stroke-miterlimit="10" d="M-98.968,568.402c2.451,1.792,5.999,3.081,9.804,3.081
				c4.193,0,8.062-2.508,8.062-7.165c0-3.153-1.871-5.303-6.127-7.811c-5.031-3.01-8.836-6.879-8.836-12.611
				c0-9.243,7.224-15.048,15.996-15.048c4.837,0,7.998,1.361,9.675,2.437l-2.451,6.95c-1.419-0.859-4.321-2.221-7.869-2.149
				c-4.773,0-7.482,3.081-7.482,6.306c0,3.296,2.451,5.23,6.514,7.811c5.289,3.081,8.45,6.95,8.45,12.826
				c0,9.674-7.031,15.621-16.77,15.621c-5.289,0-9.61-1.648-11.545-3.368L-98.968,568.402z"/>
			<path stroke="#010101" stroke-miterlimit="10" d="M-63.238,577.933l-1.871-48.296h7.546l0.452,24.864
				c0.064,6.02-0.065,10.462-0.194,14.26h0.129c1.354-4.013,2.645-8.169,4.837-14.045l9.74-25.079h8.191L-34.085,554
				c0.064,6.019,0,10.533-0.193,14.546h0.129c1.419-4.586,2.838-9.172,4.58-14.045l9.352-24.864h7.934l-19.608,48.296h-8.127
				l-0.645-23.288c-0.129-5.589-0.064-9.53,0.258-15.048h-0.193c-1.484,4.944-2.838,9.459-4.837,14.689l-9.546,23.646H-63.238z"/>
			<path stroke="#010101" stroke-miterlimit="10" d="M-0.292,529.637l-8.256,48.296h-7.546l8.256-48.296H-0.292z"/>
			<path stroke="#010101" stroke-miterlimit="10" d="M7.833,529.637h23.994l-1.29,7.095H14.154l-2.322,13.613h15.222l-1.226,7.023
				H10.606l-3.482,20.564h-7.547L7.833,529.637z"/>
			<path stroke="#010101" stroke-miterlimit="10" d="M44.981,536.946H32.92l1.29-7.31h31.669l-1.29,7.31H52.463l-6.966,40.986
				h-7.546L44.981,536.946z"/>
		</g>
		<g>
			
				<linearGradient id="SVGID_12_" gradientUnits="userSpaceOnUse" x1="84.3215" y1="270.0051" x2="84.3215" y2="217.1971" gradientTransform="matrix(1 0 0 -1 0 793)">
				<stop  offset="0" style="stop-color:#99CC99"/>
				<stop  offset="1" style="stop-color:#1A1A1A"/>
			</linearGradient>
			
				<linearGradient id="SVGID_13_" gradientUnits="userSpaceOnUse" x1="84.3716" y1="264.402" x2="84.3716" y2="214.101" gradientTransform="matrix(1 0 0 -1 0 793)">
				<stop  offset="0" style="stop-color:#80B080"/>
				<stop  offset="0.6171" style="stop-color:#000000"/>
			</linearGradient>
			<path fill="url(#SVGID_12_)" stroke="url(#SVGID_13_)" stroke-miterlimit="10" d="M97.768,575.748
				c-2.967,1.147-7.933,2.651-13.286,2.651c-5.998,0-10.899-1.863-14.317-5.661c-3.418-3.655-4.966-8.957-4.966-14.475
				c0-8.599,3.096-16.696,8.707-22.071c4.772-4.515,11.286-7.094,18.574-7.094c5.482,0,9.416,1.29,10.964,2.221l-2.322,7.023
				c-2.064-1.146-5.288-2.006-9.222-2.006c-4.644,0-8.9,1.648-12.125,4.73c-3.934,3.726-6.385,9.961-6.385,16.553
				c0,8.671,4.257,13.687,12.383,13.687c2.322,0,4.257-0.502,5.546-1.075l2.064-12.11h-7.675l1.225-6.736h14.962L97.768,575.748z"/>
			
				<linearGradient id="SVGID_14_" gradientUnits="userSpaceOnUse" x1="111.4715" y1="270.0051" x2="111.4715" y2="217.1971" gradientTransform="matrix(1 0 0 -1 0 793)">
				<stop  offset="0" style="stop-color:#99CC99"/>
				<stop  offset="1" style="stop-color:#1A1A1A"/>
			</linearGradient>
			
				<linearGradient id="SVGID_15_" gradientUnits="userSpaceOnUse" x1="111.4715" y1="263.9" x2="111.4715" y2="214.602" gradientTransform="matrix(1 0 0 -1 0 793)">
				<stop  offset="0" style="stop-color:#80B080"/>
				<stop  offset="0.6171" style="stop-color:#000000"/>
			</linearGradient>
			<path fill="url(#SVGID_14_)" stroke="url(#SVGID_15_)" stroke-miterlimit="10" d="M119.372,529.6l-8.255,48.298h-7.546
				l8.255-48.298C111.826,529.6,119.372,529.6,119.372,529.6z"/>
			
				<linearGradient id="SVGID_16_" gradientUnits="userSpaceOnUse" x1="140.365" y1="270.0051" x2="140.365" y2="217.1971" gradientTransform="matrix(1 0 0 -1 0 793)">
				<stop  offset="0" style="stop-color:#99CC99"/>
				<stop  offset="1" style="stop-color:#1A1A1A"/>
			</linearGradient>
			
				<linearGradient id="SVGID_17_" gradientUnits="userSpaceOnUse" x1="140.479" y1="263.9" x2="140.479" y2="214.602" gradientTransform="matrix(1 0 0 -1 0 793)">
				<stop  offset="0" style="stop-color:#80B080"/>
				<stop  offset="0.6171" style="stop-color:#000000"/>
			</linearGradient>
			<path fill="url(#SVGID_16_)" stroke="url(#SVGID_17_)" stroke-miterlimit="10" d="M127.434,577.898l-5.353-48.298h7.675
				l2.515,26.585c0.516,5.016,0.774,8.886,0.967,13.042h0.129c1.419-3.941,3.096-8.384,5.353-13.4l11.609-26.227h8.32
				l-22.637,48.298H127.434z"/>
			
				<linearGradient id="SVGID_18_" gradientUnits="userSpaceOnUse" x1="169.9995" y1="270.0051" x2="169.9995" y2="217.1971" gradientTransform="matrix(1 0 0 -1 0 793)">
				<stop  offset="0" style="stop-color:#99CC99"/>
				<stop  offset="1" style="stop-color:#1A1A1A"/>
			</linearGradient>
			
				<linearGradient id="SVGID_19_" gradientUnits="userSpaceOnUse" x1="170" y1="263.901" x2="170" y2="214.603" gradientTransform="matrix(1 0 0 -1 0 793)">
				<stop  offset="0" style="stop-color:#80B080"/>
				<stop  offset="0.6171" style="stop-color:#000000"/>
			</linearGradient>
			<path fill="url(#SVGID_18_)" stroke="url(#SVGID_19_)" stroke-miterlimit="10" d="M180.641,556.4h-15.607l-2.451,14.403h17.542
				l-1.225,7.094h-25.088l8.255-48.298h24.12l-1.225,7.094h-16.575l-2.193,12.684h15.672L180.641,556.4z"/>
		</g>
	</g>
</g>
<g id="Layer_2_4_">
	<g>
		<defs>
			<rect id="SVGID_1_" x="191.81" y="528.226" width="49.129" height="546.852"/>
		</defs>
		<clipPath id="SVGID_20_">
			<use xlink:href="#SVGID_1_"  overflow="visible"/>
		</clipPath>
		<g id="Layer_5_1_" clip-path="url(#SVGID_20_)">
			<path fill="none" stroke="#000000" stroke-width="10" stroke-miterlimit="10" d="M225.839,1038.49
				c0,11.862-8.954,21.477-20,21.477h-411.766c-11.046,0-20-9.615-20-21.477V564.814c0-11.862,8.954-21.477,20-21.477h411.766
				c11.046,0,20,9.615,20,21.477V1038.49z"/>
		</g>
	</g>
	<g>
		<linearGradient id="SVGID_21_" gradientUnits="userSpaceOnUse" x1="-173.5159" y1="1041.3965" x2="-173.5159" y2="1065.7832">
			<stop  offset="0" style="stop-color:#99CC99"/>
			<stop  offset="0.0144" style="stop-color:#97C997"/>
			<stop  offset="0.369" style="stop-color:#627F62"/>
			<stop  offset="0.6627" style="stop-color:#3B483B"/>
			<stop  offset="0.8812" style="stop-color:#232723"/>
			<stop  offset="1" style="stop-color:#1A1A1A"/>
		</linearGradient>
		<linearGradient id="SVGID_22_" gradientUnits="userSpaceOnUse" x1="-173.5093" y1="1040.8965" x2="-173.5093" y2="1066.2832">
			<stop  offset="0" style="stop-color:#77AA77"/>
			<stop  offset="0.1175" style="stop-color:#6C996C"/>
			<stop  offset="1" style="stop-color:#1A1A1A"/>
		</linearGradient>
		<path fill="url(#SVGID_21_)" stroke="url(#SVGID_22_)" stroke-miterlimit="10" d="M-181.053,1060.07
			c1.2,0.672,3.504,1.584,5.617,1.584c2.256-0.048,3.6-1.344,3.6-2.88c0-1.488-0.768-2.4-3.072-3.601
			c-2.688-1.393-4.608-3.408-4.608-6.097c0-4.513,3.937-7.681,9.457-7.681c2.448,0,4.464,0.576,5.521,1.2l-1.44,4.032
			c-0.864-0.479-2.448-1.056-4.368-1.056c-2.112,0-3.552,1.152-3.552,2.736c0,1.296,1.056,2.208,3.024,3.216
			c2.544,1.393,4.849,3.312,4.849,6.289c0,5.136-4.32,7.969-9.937,7.969c-2.736,0-5.28-0.769-6.528-1.681L-181.053,1060.07z"/>
		<linearGradient id="SVGID_23_" gradientUnits="userSpaceOnUse" x1="-152.2281" y1="1041.3965" x2="-152.2281" y2="1065.7832">
			<stop  offset="0" style="stop-color:#99CC99"/>
			<stop  offset="0.0144" style="stop-color:#97C997"/>
			<stop  offset="0.369" style="stop-color:#627F62"/>
			<stop  offset="0.6627" style="stop-color:#3B483B"/>
			<stop  offset="0.8812" style="stop-color:#232723"/>
			<stop  offset="1" style="stop-color:#1A1A1A"/>
		</linearGradient>
		<linearGradient id="SVGID_24_" gradientUnits="userSpaceOnUse" x1="-152.1698" y1="1040.8965" x2="-152.1698" y2="1066.2832">
			<stop  offset="0" style="stop-color:#77AA77"/>
			<stop  offset="0.1175" style="stop-color:#6C996C"/>
			<stop  offset="1" style="stop-color:#1A1A1A"/>
		</linearGradient>
		<path fill="url(#SVGID_23_)" stroke="url(#SVGID_24_)" stroke-miterlimit="10" d="M-145.868,1064.486
			c-1.344,0.673-3.744,1.297-6.721,1.297c-5.856,0-9.457-3.745-9.457-9.313c0-8.16,6.192-15.073,14.881-15.073
			c2.064,0,3.888,0.528,4.752,0.912l-1.44,4.368c-0.864-0.384-1.968-0.72-3.504-0.72c-5.424,0-8.833,4.992-8.833,9.841
			c0,3.504,2.016,5.473,5.136,5.473c2.16,0,3.792-0.576,4.993-1.104L-145.868,1064.486z"/>
		<linearGradient id="SVGID_25_" gradientUnits="userSpaceOnUse" x1="-130.4122" y1="1041.3965" x2="-130.4122" y2="1065.8311">
			<stop  offset="0" style="stop-color:#99CC99"/>
			<stop  offset="0.0144" style="stop-color:#97C997"/>
			<stop  offset="0.369" style="stop-color:#627F62"/>
			<stop  offset="0.6627" style="stop-color:#3B483B"/>
			<stop  offset="0.8812" style="stop-color:#232723"/>
			<stop  offset="1" style="stop-color:#1A1A1A"/>
		</linearGradient>
		<linearGradient id="SVGID_26_" gradientUnits="userSpaceOnUse" x1="-130.3741" y1="1040.8965" x2="-130.3741" y2="1066.3311">
			<stop  offset="0" style="stop-color:#77AA77"/>
			<stop  offset="0.1175" style="stop-color:#6C996C"/>
			<stop  offset="1" style="stop-color:#1A1A1A"/>
		</linearGradient>
		<path fill="url(#SVGID_25_)" stroke="url(#SVGID_26_)" stroke-miterlimit="10" d="M-127.195,1065.303
			c0.048-1.393,0.239-3.265,0.432-5.28h-0.144c-2.305,4.32-5.377,5.809-8.353,5.809c-4.176,0-6.913-3.265-6.913-7.969
			c0-7.969,5.568-16.466,16.465-16.466c2.545,0,5.281,0.48,7.057,1.057l-2.399,12.192c-0.673,3.505-1.057,7.873-0.96,10.657
			H-127.195z M-124.892,1045.957c-0.576-0.144-1.296-0.24-2.304-0.24c-5.185,0-9.169,5.809-9.169,11.137
			c0,2.448,0.912,4.465,3.36,4.465c2.592,0,5.76-3.265,6.865-9.217L-124.892,1045.957z"/>
		<linearGradient id="SVGID_27_" gradientUnits="userSpaceOnUse" x1="-104.9254" y1="1041.3965" x2="-104.9254" y2="1065.3027">
			<stop  offset="0" style="stop-color:#99CC99"/>
			<stop  offset="0.0144" style="stop-color:#97C997"/>
			<stop  offset="0.369" style="stop-color:#627F62"/>
			<stop  offset="0.6627" style="stop-color:#3B483B"/>
			<stop  offset="0.8812" style="stop-color:#232723"/>
			<stop  offset="1" style="stop-color:#1A1A1A"/>
		</linearGradient>
		<linearGradient id="SVGID_28_" gradientUnits="userSpaceOnUse" x1="-104.9766" y1="1040.8965" x2="-104.9766" y2="1065.8027">
			<stop  offset="0" style="stop-color:#77AA77"/>
			<stop  offset="0.1175" style="stop-color:#6C996C"/>
			<stop  offset="1" style="stop-color:#1A1A1A"/>
		</linearGradient>
		<path fill="url(#SVGID_27_)" stroke="url(#SVGID_28_)" stroke-miterlimit="10" d="M-116.494,1065.303l3.024-16.129
			c0.576-2.785,0.912-5.233,1.2-7.249h4.944l-0.48,4.225h0.097c2.16-3.169,5.136-4.753,8.4-4.753c3.312,0,5.952,2.017,5.952,6.433
			c0,1.057-0.191,2.688-0.432,3.889l-2.592,13.585h-5.569l2.497-13.201c0.144-0.864,0.288-1.872,0.288-2.784
			c0-1.92-0.721-3.36-2.929-3.36c-2.544,0-5.809,3.072-6.816,8.545l-2.017,10.801H-116.494z"/>
		<linearGradient id="SVGID_29_" gradientUnits="userSpaceOnUse" x1="-69.7418" y1="1041.3965" x2="-69.7418" y2="1065.3027">
			<stop  offset="0" style="stop-color:#99CC99"/>
			<stop  offset="0.0144" style="stop-color:#97C997"/>
			<stop  offset="0.369" style="stop-color:#627F62"/>
			<stop  offset="0.6627" style="stop-color:#3B483B"/>
			<stop  offset="0.8812" style="stop-color:#232723"/>
			<stop  offset="1" style="stop-color:#1A1A1A"/>
		</linearGradient>
		<linearGradient id="SVGID_30_" gradientUnits="userSpaceOnUse" x1="-69.793" y1="1040.8965" x2="-69.793" y2="1065.8027">
			<stop  offset="0" style="stop-color:#77AA77"/>
			<stop  offset="0.1175" style="stop-color:#6C996C"/>
			<stop  offset="1" style="stop-color:#1A1A1A"/>
		</linearGradient>
		<path fill="url(#SVGID_29_)" stroke="url(#SVGID_30_)" stroke-miterlimit="10" d="M-81.311,1065.303l3.024-16.129
			c0.576-2.785,0.912-5.233,1.2-7.249h4.944l-0.48,4.225h0.097c2.16-3.169,5.136-4.753,8.4-4.753c3.312,0,5.952,2.017,5.952,6.433
			c0,1.057-0.191,2.688-0.432,3.889l-2.592,13.585h-5.569l2.497-13.201c0.144-0.864,0.288-1.872,0.288-2.784
			c0-1.92-0.721-3.36-2.929-3.36c-2.544,0-5.809,3.072-6.816,8.545l-2.017,10.801H-81.311z"/>
		<linearGradient id="SVGID_31_" gradientUnits="userSpaceOnUse" x1="-42.7901" y1="1041.3965" x2="-42.7901" y2="1065.8311">
			<stop  offset="0" style="stop-color:#99CC99"/>
			<stop  offset="0.0144" style="stop-color:#97C997"/>
			<stop  offset="0.369" style="stop-color:#627F62"/>
			<stop  offset="0.6627" style="stop-color:#3B483B"/>
			<stop  offset="0.8812" style="stop-color:#232723"/>
			<stop  offset="1" style="stop-color:#1A1A1A"/>
		</linearGradient>
		<linearGradient id="SVGID_32_" gradientUnits="userSpaceOnUse" x1="-42.7901" y1="1040.8965" x2="-42.7901" y2="1066.3311">
			<stop  offset="0" style="stop-color:#77AA77"/>
			<stop  offset="0.1175" style="stop-color:#6C996C"/>
			<stop  offset="1" style="stop-color:#1A1A1A"/>
		</linearGradient>
		<path fill="url(#SVGID_31_)" stroke="url(#SVGID_32_)" stroke-miterlimit="10" d="M-31.245,1051.094
			c0,7.921-5.568,14.737-13.537,14.737c-5.904,0-9.553-4.081-9.553-9.649c0-7.92,5.521-14.785,13.489-14.785
			C-34.558,1041.396-31.245,1045.909-31.245,1051.094z M-48.574,1056.038c0,3.216,1.728,5.473,4.561,5.473
			c4.176,0,6.96-5.761,6.96-10.417c0-2.4-1.056-5.377-4.464-5.377C-45.982,1045.717-48.574,1051.67-48.574,1056.038z"/>
		<linearGradient id="SVGID_33_" gradientUnits="userSpaceOnUse" x1="-10.7728" y1="1041.9248" x2="-10.7728" y2="1065.3027">
			<stop  offset="0" style="stop-color:#99CC99"/>
			<stop  offset="0.0144" style="stop-color:#97C997"/>
			<stop  offset="0.369" style="stop-color:#627F62"/>
			<stop  offset="0.6627" style="stop-color:#3B483B"/>
			<stop  offset="0.8812" style="stop-color:#232723"/>
			<stop  offset="1" style="stop-color:#1A1A1A"/>
		</linearGradient>
		<linearGradient id="SVGID_34_" gradientUnits="userSpaceOnUse" x1="-10.6458" y1="1041.4248" x2="-10.6458" y2="1065.8027">
			<stop  offset="0" style="stop-color:#77AA77"/>
			<stop  offset="0.1175" style="stop-color:#6C996C"/>
			<stop  offset="1" style="stop-color:#1A1A1A"/>
		</linearGradient>
		<path fill="url(#SVGID_33_)" stroke="url(#SVGID_34_)" stroke-miterlimit="10" d="M-21.934,1041.925l0.432,11.377
			c0.097,2.736,0.048,4.608-0.096,6.912h0.096c0.721-2.063,1.681-4.224,2.736-6.576l5.665-11.713h4.656l0.96,11.425
			c0.192,2.641,0.288,4.801,0.24,6.864h0.096c0.72-2.256,1.44-4.368,2.4-6.864l5.04-11.425h5.665l-11.473,23.378h-5.232
			l-1.056-10.177c-0.192-2.305-0.24-4.417-0.24-6.913h-0.096c-1.152,2.833-1.729,4.608-2.784,6.673l-5.185,10.417h-5.232
			l-2.16-23.378H-21.934z"/>
		<linearGradient id="SVGID_35_" gradientUnits="userSpaceOnUse" x1="26.3046" y1="1041.3965" x2="26.3046" y2="1065.8311">
			<stop  offset="0" style="stop-color:#99CC99"/>
			<stop  offset="0.0144" style="stop-color:#97C997"/>
			<stop  offset="0.369" style="stop-color:#627F62"/>
			<stop  offset="0.6627" style="stop-color:#3B483B"/>
			<stop  offset="0.8812" style="stop-color:#232723"/>
			<stop  offset="1" style="stop-color:#1A1A1A"/>
		</linearGradient>
		<linearGradient id="SVGID_36_" gradientUnits="userSpaceOnUse" x1="26.3428" y1="1040.8965" x2="26.3428" y2="1066.3311">
			<stop  offset="0" style="stop-color:#77AA77"/>
			<stop  offset="0.1175" style="stop-color:#6C996C"/>
			<stop  offset="1" style="stop-color:#1A1A1A"/>
		</linearGradient>
		<path fill="url(#SVGID_35_)" stroke="url(#SVGID_36_)" stroke-miterlimit="10" d="M29.521,1065.303
			c0.048-1.393,0.24-3.265,0.433-5.28h-0.145c-2.304,4.32-5.376,5.809-8.353,5.809c-4.177,0-6.913-3.265-6.913-7.969
			c0-7.969,5.568-16.466,16.466-16.466c2.544,0,5.28,0.48,7.057,1.057l-2.4,12.192c-0.672,3.505-1.056,7.873-0.96,10.657H29.521z
			 M31.826,1045.957c-0.576-0.144-1.297-0.24-2.305-0.24c-5.185,0-9.169,5.809-9.169,11.137c0,2.448,0.912,4.465,3.36,4.465
			c2.593,0,5.761-3.265,6.865-9.217L31.826,1045.957z"/>
		<linearGradient id="SVGID_37_" gradientUnits="userSpaceOnUse" x1="51.7919" y1="1041.3965" x2="51.7919" y2="1065.3027">
			<stop  offset="0" style="stop-color:#99CC99"/>
			<stop  offset="0.0144" style="stop-color:#97C997"/>
			<stop  offset="0.369" style="stop-color:#627F62"/>
			<stop  offset="0.6627" style="stop-color:#3B483B"/>
			<stop  offset="0.8812" style="stop-color:#232723"/>
			<stop  offset="1" style="stop-color:#1A1A1A"/>
		</linearGradient>
		<linearGradient id="SVGID_38_" gradientUnits="userSpaceOnUse" x1="51.7407" y1="1040.8965" x2="51.7407" y2="1065.8027">
			<stop  offset="0" style="stop-color:#77AA77"/>
			<stop  offset="0.1175" style="stop-color:#6C996C"/>
			<stop  offset="1" style="stop-color:#1A1A1A"/>
		</linearGradient>
		<path fill="url(#SVGID_37_)" stroke="url(#SVGID_38_)" stroke-miterlimit="10" d="M40.223,1065.303l3.024-16.129
			c0.576-2.785,0.912-5.233,1.2-7.249h4.944l-0.48,4.225h0.097c2.16-3.169,5.136-4.753,8.4-4.753c3.312,0,5.952,2.017,5.952,6.433
			c0,1.057-0.191,2.688-0.432,3.889l-2.592,13.585h-5.569l2.497-13.201c0.144-0.864,0.288-1.872,0.288-2.784
			c0-1.92-0.721-3.36-2.929-3.36c-2.544,0-5.809,3.072-6.816,8.545l-2.017,10.801H40.223z"/>
		<linearGradient id="SVGID_39_" gradientUnits="userSpaceOnUse" x1="79.9682" y1="1031.2197" x2="79.9682" y2="1065.8311">
			<stop  offset="0" style="stop-color:#99CC99"/>
			<stop  offset="0.1104" style="stop-color:#93C493"/>
			<stop  offset="0.2829" style="stop-color:#83AE83"/>
			<stop  offset="0.496" style="stop-color:#698969"/>
			<stop  offset="0.7413" style="stop-color:#465746"/>
			<stop  offset="1" style="stop-color:#1A1A1A"/>
		</linearGradient>
		<linearGradient id="SVGID_40_" gradientUnits="userSpaceOnUse" x1="80.0201" y1="1030.7197" x2="80.0201" y2="1066.3311">
			<stop  offset="0" style="stop-color:#77AA77"/>
			<stop  offset="0.1422" style="stop-color:#74A574"/>
			<stop  offset="0.3149" style="stop-color:#6A966A"/>
			<stop  offset="0.5033" style="stop-color:#5A7D5A"/>
			<stop  offset="0.7029" style="stop-color:#445B44"/>
			<stop  offset="0.9094" style="stop-color:#283028"/>
			<stop  offset="1" style="stop-color:#1A1A1A"/>
		</linearGradient>
		<path fill="url(#SVGID_39_)" stroke="url(#SVGID_40_)" stroke-miterlimit="10" d="M92.881,1031.22l-4.896,25.778
			c-0.528,2.688-0.912,5.761-1.057,8.305h-5.137l0.48-4.177h-0.096c-2.112,3.217-4.992,4.705-8.017,4.705
			c-4.177,0-7.104-3.408-7.104-8.689c0-8.208,6-15.745,14.593-15.745c1.2,0,2.592,0.24,3.601,0.672l2.063-10.849H92.881z
			 M84.432,1046.629c-0.672-0.479-1.824-0.912-3.216-0.912c-4.801,0-8.354,5.329-8.354,10.562c0,2.832,1.104,5.04,3.745,5.04
			c2.496,0,5.472-2.736,6.433-7.585L84.432,1046.629z"/>
		<linearGradient id="SVGID_41_" gradientUnits="userSpaceOnUse" x1="113.2553" y1="1041.3965" x2="113.2553" y2="1075.3359">
			<stop  offset="0" style="stop-color:#99CC99"/>
			<stop  offset="0.123" style="stop-color:#82AB82"/>
			<stop  offset="0.3391" style="stop-color:#5D785D"/>
			<stop  offset="0.5422" style="stop-color:#404F40"/>
			<stop  offset="0.7262" style="stop-color:#2B322B"/>
			<stop  offset="0.8848" style="stop-color:#1E201E"/>
			<stop  offset="1" style="stop-color:#1A1A1A"/>
		</linearGradient>
		<linearGradient id="SVGID_42_" gradientUnits="userSpaceOnUse" x1="113.2403" y1="1040.8965" x2="113.2403" y2="1075.8359">
			<stop  offset="0" style="stop-color:#77AA77"/>
			<stop  offset="0.062" style="stop-color:#6F9E6F"/>
			<stop  offset="0.3809" style="stop-color:#4B664B"/>
			<stop  offset="0.6549" style="stop-color:#303D30"/>
			<stop  offset="0.8701" style="stop-color:#202320"/>
			<stop  offset="1" style="stop-color:#1A1A1A"/>
		</linearGradient>
		<path fill="url(#SVGID_41_)" stroke="url(#SVGID_42_)" stroke-miterlimit="10" d="M102.43,1069.479
			c1.393,0.815,3.984,1.392,6.192,1.392c3.648,0,6.433-1.729,7.585-7.152l0.576-2.641h-0.096c-1.921,2.784-4.369,4.129-7.345,4.129
			c-4.657,0-7.297-3.841-7.345-8.257c0-7.776,5.616-15.554,15.313-15.554c3.023,0,5.952,0.672,8.112,1.633l-3.553,19.297
			c-0.863,4.561-2.208,8.209-4.8,10.417c-2.448,2.017-5.761,2.593-8.689,2.593c-2.976,0-5.76-0.624-7.296-1.584L102.43,1069.479z
			 M119.328,1046.341c-0.576-0.288-1.776-0.576-3.072-0.576c-4.896,0-8.353,5.281-8.353,10.321c-0.048,2.448,0.96,4.752,3.744,4.752
			s5.568-3.312,6.385-7.536L119.328,1046.341z"/>
		<linearGradient id="SVGID_43_" gradientUnits="userSpaceOnUse" x1="133.415" y1="1032.1797" x2="133.415" y2="1065.3027">
			<stop  offset="0" style="stop-color:#99CC99"/>
			<stop  offset="0.1104" style="stop-color:#93C493"/>
			<stop  offset="0.2829" style="stop-color:#83AE83"/>
			<stop  offset="0.496" style="stop-color:#698969"/>
			<stop  offset="0.7413" style="stop-color:#465746"/>
			<stop  offset="1" style="stop-color:#1A1A1A"/>
		</linearGradient>
		<linearGradient id="SVGID_44_" gradientUnits="userSpaceOnUse" x1="133.3633" y1="1031.6797" x2="133.3633" y2="1065.8027">
			<stop  offset="0" style="stop-color:#77AA77"/>
			<stop  offset="0.1422" style="stop-color:#74A574"/>
			<stop  offset="0.3149" style="stop-color:#6A966A"/>
			<stop  offset="0.5033" style="stop-color:#5A7D5A"/>
			<stop  offset="0.7029" style="stop-color:#445B44"/>
			<stop  offset="0.9094" style="stop-color:#283028"/>
			<stop  offset="1" style="stop-color:#1A1A1A"/>
		</linearGradient>
		<path fill="url(#SVGID_43_)" stroke="url(#SVGID_44_)" stroke-miterlimit="10" d="M127.582,1065.303l4.416-23.378h5.617
			l-4.465,23.378H127.582z M132.911,1035.588c0-2.016,1.536-3.408,3.36-3.408c1.729,0,2.977,1.248,2.977,3.024
			c-0.048,2.064-1.584,3.36-3.456,3.36C134.063,1038.564,132.863,1037.316,132.911,1035.588z"/>
		<linearGradient id="SVGID_45_" gradientUnits="userSpaceOnUse" x1="152.1826" y1="1041.9248" x2="152.1826" y2="1065.3027">
			<stop  offset="0" style="stop-color:#99CC99"/>
			<stop  offset="0.0144" style="stop-color:#97C997"/>
			<stop  offset="0.369" style="stop-color:#627F62"/>
			<stop  offset="0.6627" style="stop-color:#3B483B"/>
			<stop  offset="0.8812" style="stop-color:#232723"/>
			<stop  offset="1" style="stop-color:#1A1A1A"/>
		</linearGradient>
		<linearGradient id="SVGID_46_" gradientUnits="userSpaceOnUse" x1="152.3116" y1="1041.4248" x2="152.3116" y2="1065.8027">
			<stop  offset="0" style="stop-color:#77AA77"/>
			<stop  offset="0.1175" style="stop-color:#6C996C"/>
			<stop  offset="1" style="stop-color:#1A1A1A"/>
		</linearGradient>
		<path fill="url(#SVGID_45_)" stroke="url(#SVGID_46_)" stroke-miterlimit="10" d="M146.638,1041.925l1.488,11.617
			c0.288,2.784,0.576,4.561,0.672,6.097h0.145c0.576-1.488,1.248-3.169,2.544-5.953l5.809-11.761h6.192l-13.009,23.378h-5.617
			l-3.984-23.378H146.638z"/>
		<linearGradient id="SVGID_47_" gradientUnits="userSpaceOnUse" x1="173.3031" y1="1041.3965" x2="173.3032" y2="1065.7832">
			<stop  offset="0" style="stop-color:#99CC99"/>
			<stop  offset="0.0144" style="stop-color:#97C997"/>
			<stop  offset="0.369" style="stop-color:#627F62"/>
			<stop  offset="0.6627" style="stop-color:#3B483B"/>
			<stop  offset="0.8812" style="stop-color:#232723"/>
			<stop  offset="1" style="stop-color:#1A1A1A"/>
		</linearGradient>
		<linearGradient id="SVGID_48_" gradientUnits="userSpaceOnUse" x1="173.3031" y1="1040.8965" x2="173.3032" y2="1066.2832">
			<stop  offset="0" style="stop-color:#77AA77"/>
			<stop  offset="0.1175" style="stop-color:#6C996C"/>
			<stop  offset="1" style="stop-color:#1A1A1A"/>
		</linearGradient>
		<path fill="url(#SVGID_47_)" stroke="url(#SVGID_48_)" stroke-miterlimit="10" d="M180.768,1063.959
			c-2.305,1.2-5.425,1.824-8.257,1.824c-6.48,0-9.601-3.937-9.601-9.649c0-7.057,5.185-14.737,13.249-14.737
			c4.608,0,7.536,2.688,7.536,6.577c0,6-6.288,7.92-15.312,7.729c-0.097,0.815,0.096,2.4,0.624,3.312
			c0.911,1.584,2.592,2.399,4.8,2.399c2.641,0,4.753-0.672,6.433-1.536L180.768,1063.959z M175.439,1045.573
			c-3.504,0-5.808,3.12-6.48,5.952c5.761,0.096,9.457-0.72,9.457-3.504C178.415,1046.485,177.215,1045.573,175.439,1045.573z"/>
	</g>
</g>
<g id="Layer_3_1_">
	<g id="swiftgive_s_raw_xA0_Image_4_">
		<g>
			<g>
				<path fill="#231F20" d="M5.378,933.062c-4.51,0-6.612-2.196-6.615-6.912c-0.005-7.826-0.004-15.653-0.003-23.48
					c0,0,0.004-15.928,0.008-18.918c0.009-7.828,0.019-15.922-0.038-23.88c-0.026-3.808,1.51-6.164,4.983-7.641
					c8.667-3.686,14.832-7.18,19.988-11.33c1.027-0.827,1.968-1.748,2.965-2.724l0.869-0.846c4.579-4.41,2.528-10.911-0.3-13.915
					c-3.414-3.628-7.873-6.388-14.457-8.947c-4.583-1.783-9.354-3.384-13.967-4.931c-1.456-0.489-2.911-0.978-4.363-1.472
					c-1.126-0.384-4.554-1.55-4.34-5.312c0.101-1.766,0.999-4.034,4.702-4.815c1.104-0.232,2.249-0.352,3.404-0.353
					c7.455-0.006,14.91-0.006,22.365-0.006c14.794,0,30.093,0,45.137-0.048c3.399,0,5.88,0.866,8.098,2.811
					c6.388,5.596,10.159,11.069,11.866,17.226c2.457,8.852,0.746,17.244-5.229,25.657c-5.779,8.136-13.626,13.918-21.245,18.955
					c-12.921,8.542-27.288,15.911-42.703,21.903c-0.414,0.16-0.501,0.265-0.502,0.267l0,0c0.001,0-0.049,0.104-0.046,0.507
					c0.069,8.207,0.117,16.414,0.166,24.621c0.031,5.25,0.062,10.501,0.099,15.751c0.039,5.611-1.721,7.403-7.533,7.673
					c-0.592,0.027-1.184,0.062-1.775,0.097l-0.556,0.032C6.013,933.052,5.688,933.062,5.378,933.062z"/>
				<path fill="#FFFFFF" d="M65.777,799.034c2.75,0,4.981,0.627,7.049,2.438c5.257,4.606,9.543,9.773,11.409,16.499
					c2.471,8.906,0.278,16.947-5.007,24.387c-5.471,7.703-12.976,13.368-20.849,18.572c-13.273,8.774-27.475,15.948-42.419,21.755
					c-1.214,0.472-1.515,1.038-1.505,2.185c0.113,13.457,0.172,26.914,0.265,40.371c0.033,4.813-1.048,5.93-6.102,6.164
					c-0.783,0.036-1.566,0.085-2.348,0.13c-0.311,0.018-0.608,0.026-0.892,0.026c-3.703,0-5.11-1.528-5.113-5.413
					c-0.008-11.141-0.002-22.284-0.002-33.426c0-10.954,0.047-21.909-0.03-32.863c-0.021-3.014,0.985-4.938,4.07-6.25
					c7.233-3.075,14.232-6.624,20.341-11.542c1.395-1.123,2.645-2.416,3.934-3.657c5.135-4.945,3.239-12.318-0.248-16.024
					c-4.138-4.396-9.423-7.146-15.005-9.317c-6.042-2.35-12.242-4.331-18.39-6.424c-2.344-0.798-3.432-1.951-3.326-3.807
					c0.104-1.819,1.199-2.944,3.514-3.432c1.009-0.213,2.062-0.32,3.096-0.321c22.502-0.018,45.004,0.018,67.505-0.053
					C65.739,799.034,65.758,799.034,65.777,799.034 M65.777,796.034l-0.065,0c-14.997,0.047-30.246,0.047-44.993,0.047
					c-7.503,0-15.005,0-22.508,0.006c-1.259,0.001-2.508,0.131-3.713,0.385c-4.875,1.029-5.782,4.324-5.889,6.197
					c-0.127,2.235,0.699,5.232,5.355,6.817c1.449,0.493,2.901,0.981,4.353,1.468c4.602,1.544,9.361,3.141,13.917,4.912
					c6.366,2.475,10.655,5.121,13.908,8.577c2.418,2.569,4.202,8.099,0.352,11.807c-0.295,0.284-0.588,0.571-0.881,0.858
					c-0.969,0.948-1.883,1.843-2.853,2.624c-5.044,4.061-11.1,7.49-19.633,11.118c-4.054,1.724-5.927,4.594-5.896,9.031
					c0.056,7.943,0.046,16.025,0.037,23.841c-0.003,3-0.007,6.001-0.007,9.001l-0.001,9.745c-0.001,7.894-0.002,15.789,0.003,23.682
					c0.004,5.581,2.734,8.411,8.113,8.411c0.337,0,0.691-0.01,1.061-0.031l0.633-0.036c0.562-0.033,1.123-0.065,1.686-0.092
					c6.662-0.309,9.008-2.712,8.963-9.182c-0.036-5.221-0.067-10.443-0.098-15.664c-0.048-8.078-0.096-16.157-0.163-24.235
					c15.356-6,29.678-13.363,42.575-21.889c7.74-5.117,15.718-11,21.64-19.338c6.167-8.682,8.001-17.741,5.453-26.927
					c-1.79-6.451-5.706-12.156-12.323-17.953C72.325,797.045,69.457,796.034,65.777,796.034L65.777,796.034z"/>
			</g>
			<g>
				<path fill="#231F20" d="M-15.456,934.129c-4.024,0-6.108-2.216-6.192-6.585l-0.059-3.021c-0.142-7.255-0.283-14.51-0.403-21.766
					c-0.03-1.866-0.022-3.732-0.015-5.697c0.001-0.26,0.002-0.521,0.003-0.784l-2.179,0.707c-3.026,0.981-5.887,1.911-8.754,2.822
					c-6.959,2.213-13.232,4.204-19.54,6.161c-1.342,0.417-2.4,0.61-3.329,0.61c-3.135,0-4.54-2.306-5.5-4.562l-7.981-18.743
					c-0.661-1.551-1.427-3.835-0.464-5.767c0.965-1.937,3.198-2.708,5.035-3.163c20.449-5.071,36.924-9.948,51.848-15.347
					c1.047-0.379,2.048-0.571,2.975-0.571c3.327,0,5.479,2.483,5.482,6.326c0.018,20.845,0.016,41.688,0,62.533
					c-0.003,4.092-2,6.178-6.281,6.564c-0.546,0.049-1.095,0.076-1.644,0.104c-0.558,0.027-1.116,0.054-1.67,0.109
					C-14.595,934.105-15.039,934.129-15.456,934.129z"/>
				<path fill="#FFFFFF" d="M-10.011,859.923c2.465,0,3.98,1.737,3.983,4.827c0.018,20.844,0.017,41.688,0,62.532
					c-0.003,3.325-1.433,4.756-4.915,5.071c-1.106,0.1-2.222,0.105-3.327,0.214c-0.42,0.041-0.815,0.062-1.186,0.062
					c-3.207,0-4.623-1.565-4.692-5.114c-0.161-8.26-0.325-16.521-0.461-24.782c-0.045-2.735-0.007-5.473-0.007-8.521
					c-4.629,1.497-8.755,2.848-12.893,4.164c-6.505,2.068-13.01,4.135-19.53,6.158c-1.142,0.354-2.085,0.543-2.884,0.543
					c-1.938,0-3.037-1.108-4.118-3.65c-2.658-6.249-5.321-12.496-7.982-18.744c-1.703-3.999-0.777-5.812,3.552-6.886
					c17.581-4.36,34.994-9.241,51.997-15.392C-11.578,860.08-10.752,859.923-10.011,859.923 M-10.011,856.923
					c-1.101,0-2.274,0.222-3.485,0.66c-14.874,5.381-31.302,10.243-51.699,15.302c-1.982,0.492-4.762,1.436-6.016,3.95
					c-1.24,2.487-0.351,5.199,0.426,7.023l2.458,5.77c1.842,4.324,3.684,8.648,5.524,12.973c1.084,2.549,2.846,5.475,6.879,5.475
					c1.084,0,2.283-0.215,3.773-0.678c6.739-2.091,13.545-4.255,19.55-6.164c2.838-0.902,5.67-1.821,8.662-2.792
					c0.103-0.033,0.206-0.067,0.309-0.1c-0.005,1.509-0.004,2.968,0.02,4.44c0.12,7.304,0.265,14.727,0.405,21.906l0.056,2.886
					c0.136,7.009,4.877,8.055,7.691,8.055c0.465,0,0.962-0.026,1.48-0.077c0.504-0.049,1.031-0.075,1.59-0.103
					c0.552-0.027,1.124-0.055,1.714-0.109c5.069-0.458,7.641-3.168,7.645-8.056c0.017-21.953,0.017-42.409,0-62.537
					C-3.032,860.067-5.838,856.923-10.011,856.923L-10.011,856.923z"/>
			</g>
		</g>
	</g>
	<g id="Layer_2_5_">
		<g>
			<g>
				<path fill="#231F20" d="M-52.1,842.441l-0.759,0.006c-0.566,0-1.235-0.027-1.896-0.232
					c-10.112-3.139-18.326-6.403-25.546-12.136c-5.957-4.729-9.209-10.729-9.669-17.832c-0.333-5.161,1.127-10.385,4.465-15.97
					c5.236-8.761,12.83-15.151,18.86-19.74c10.688-8.136,22.552-14.918,36.269-20.734c0.375-0.159,0.458-0.261,0.458-0.262l0,0
					c-0.002,0,0.047-0.129,0.005-0.598c-0.892-9.756-1.748-19.518-2.604-29.278l-0.613-6.992c-0.04-0.448-0.062-0.898-0.083-1.349
					l-0.01-0.209c-0.207-4.227,1.546-6.38,5.516-6.773c5.446-0.543,10.812-0.894,14.877-1.139c0.161-0.01,0.319-0.015,0.473-0.015
					c2.856,0,4.769,1.666,5.385,4.692c0.177,0.865,0.191,1.726,0.191,2.533l0,17.94c-0.002,14.237-0.004,28.473,0.037,42.709
					c0.01,3.663-1.41,5.924-4.604,7.329c-6.815,2.996-11.841,6.191-15.816,10.055c-0.404,0.393-0.786,0.81-1.167,1.225l-0.32,0.347
					c-3.938,4.25-1.809,8.051,0.671,10.491c2.634,2.593,5.967,4.585,9.904,5.919c7.075,2.397,14.313,4.721,21.313,6.968
					c4.486,1.439,8.972,2.88,13.448,4.349c5.148,1.688,10.364,3.452,15.407,5.159c3.08,1.042,6.159,2.084,9.241,3.115
					c2.497,0.837,3.883,2.644,3.904,5.088c0.021,2.463-1.602,4.269-4.453,4.953c-1.022,0.246-2.063,0.372-3.094,0.373
					c-8.997,0.013-17.996,0.015-26.994,0.015C10.7,842.448-42.125,842.446-52.1,842.441z"/>
				<path fill="#FFFFFF" d="M-12.356,710.688c2.18,0,3.452,1.207,3.917,3.492c0.148,0.726,0.161,1.489,0.161,2.235
					c0.008,20.218-0.021,40.436,0.038,60.653c0.008,2.905-0.949,4.738-3.708,5.951c-5.921,2.603-11.545,5.773-16.257,10.353
					c-0.535,0.52-1.034,1.079-1.542,1.627c-4.299,4.638-2.596,9.317,0.719,12.58c2.988,2.94,6.612,4.961,10.475,6.27
					c11.546,3.912,23.192,7.521,34.776,11.32c8.232,2.7,16.424,5.524,24.64,8.273c1.785,0.597,2.863,1.755,2.88,3.678
					c0.015,1.755-1.161,2.967-3.304,3.482c-0.892,0.214-1.829,0.33-2.745,0.331c-9.349,0.012-18.701,0.015-28.051,0.015
					c-5.646,0-11.291-0.001-16.938-0.001c-4.825,0-9.652,0-14.476,0c-10.11,0-20.217-0.001-30.327-0.006c-0.003,0-0.005,0-0.008,0
					c-0.247,0-0.499,0.006-0.751,0.006c-0.499,0-0.996-0.024-1.453-0.165c-8.906-2.764-17.619-5.971-25.058-11.878
					c-5.376-4.269-8.656-9.812-9.104-16.754c-0.353-5.474,1.482-10.461,4.256-15.103c4.699-7.863,11.318-13.866,18.481-19.317
					c11.087-8.438,23.168-15.128,35.947-20.547c1.217-0.516,1.485-1.134,1.371-2.375c-1.105-12.086-2.154-24.177-3.216-36.266
					c-0.044-0.498-0.065-0.999-0.089-1.5c-0.165-3.374,0.923-4.886,4.166-5.208c4.929-0.491,9.874-0.836,14.819-1.134
					C-12.608,710.692-12.48,710.688-12.356,710.688 M-12.356,707.688c-0.183,0-0.371,0.006-0.562,0.017
					c-4.075,0.246-9.455,0.598-14.935,1.143c-4.802,0.478-7.112,3.284-6.866,8.34l0.01,0.205c0.022,0.471,0.046,0.943,0.087,1.412
					l0.606,6.904c0.831,9.479,1.69,19.275,2.57,28.919c-13.629,5.82-25.443,12.599-36.106,20.714
					c-6.139,4.672-13.873,11.186-19.239,20.166c-3.499,5.854-5.028,11.361-4.674,16.835c0.487,7.544,3.93,13.907,10.233,18.911
					c7.403,5.878,15.761,9.206,26.035,12.394c0.852,0.264,1.662,0.3,2.342,0.3l0.415-0.003l0.336-0.003
					c10.116,0.005,20.224,0.006,30.335,0.006l7.238,0l7.238,0l8.469,0l8.469,0c9.351,0,18.704-0.002,28.055-0.015
					c1.148-0.001,2.306-0.141,3.443-0.414c3.536-0.85,5.63-3.252,5.602-6.426c-0.027-3.089-1.823-5.457-4.928-6.496
					c-3.074-1.029-6.144-2.068-9.214-3.107c-5.054-1.71-10.28-3.479-15.443-5.172c-4.469-1.466-9.018-2.926-13.417-4.338
					c-7.008-2.249-14.254-4.575-21.331-6.973c-3.722-1.261-6.862-3.134-9.334-5.567c-4.399-4.329-1.557-7.395-0.623-8.403
					l0.322-0.35c0.384-0.417,0.746-0.811,1.11-1.165c3.843-3.736,8.728-6.837,15.374-9.758c3.713-1.633,5.513-4.481,5.501-8.706
					c-0.041-14.222-0.039-28.685-0.037-42.672c0.001-5.991,0.002-11.983,0-17.974c0-0.844-0.017-1.83-0.222-2.833
					C-6.263,709.836-8.762,707.688-12.356,707.688L-12.356,707.688z"/>
			</g>
			<g>
				<path fill="#231F20" d="M51.71,790.227c-2.442,0-4.522-1.202-5.708-3.298c-0.663-1.171-1.05-2.664-1.185-4.564
					c-0.226-3.159-0.367-6.281-0.518-9.587c-0.034-0.742-0.068-1.491-0.103-2.247c-0.907,0.107-1.81,0.212-2.708,0.315
					c-3.215,0.373-6.252,0.725-9.333,1.169c-9.737,1.405-19.21,3.562-28.156,6.409c-0.91,0.289-1.773,0.437-2.565,0.437
					c-3.287,0-5.25-2.38-5.253-6.366c-0.011-19.094-0.009-38.187-0.001-57.28c0.002-4.639,1.958-6.683,6.542-6.837l2.67-0.095
					c2.783-0.101,5.661-0.205,8.5-0.243l0.206-0.001c2.308,0,3.949,0.558,5.017,1.707c1.112,1.195,1.545,2.918,1.363,5.419
					c-0.487,6.667-0.954,13.336-1.421,20.004l-0.392,5.575l24.038-3.529c-0.002-0.084-0.004-0.17-0.007-0.255
					c-0.051-1.342-0.108-2.685-0.166-4.027c-0.111-2.604-0.221-5.206-0.291-7.811c-0.12-4.509,2.056-7.374,5.972-7.86
					c0.277-0.035,0.567-0.052,0.864-0.052c1.636,0,3.327,0.502,4.521,1.344c12.28,8.66,24.288,17.27,38.54,27.533
					c1.819,1.31,2.921,3.321,3.023,5.519c0.106,2.287-0.868,4.502-2.672,6.075c-4.804,4.189-9.718,8.411-14.47,12.492
					c-2.15,1.848-4.301,3.695-6.449,5.546c-1.707,1.471-3.412,2.944-5.117,4.418c-3.049,2.636-6.098,5.271-9.16,7.892
					C55.636,789.445,53.653,790.227,51.71,790.227z"/>
				<path fill="#FFFFFF" d="M14.101,709.538c3.817,0,5.167,1.62,4.883,5.517c-0.647,8.862-1.259,17.726-1.883,26.59
					c-0.016,0.24-0.001,0.482-0.001,0.844c9.068-1.331,17.943-2.634,27.101-3.978c0-0.418,0.02-1.015-0.003-1.609
					c-0.151-3.94-0.35-7.879-0.456-11.82c-0.098-3.66,1.43-5.931,4.657-6.332c0.218-0.027,0.446-0.04,0.68-0.04
					c1.262,0,2.688,0.388,3.657,1.071c12.898,9.094,25.72,18.3,38.528,27.523c3.109,2.239,3.225,6.644,0.242,9.246
					c-6.937,6.051-13.939,12.024-20.913,18.032c-4.759,4.101-9.5,8.222-14.273,12.306c-1.436,1.229-3.08,1.839-4.609,1.839
					c-1.805,0-3.449-0.85-4.402-2.536c-0.643-1.137-0.899-2.596-0.994-3.932c-0.311-4.361-0.465-8.732-0.695-13.409
					c-4.648,0.565-9.175,1.032-13.677,1.681c-9.632,1.39-19.107,3.507-28.396,6.463c-0.772,0.246-1.478,0.366-2.111,0.366
					c-2.396,0-3.751-1.721-3.753-4.867c-0.011-19.093-0.009-38.185-0.001-57.278c0.002-3.824,1.342-5.213,5.093-5.339
					c3.713-0.126,7.426-0.287,11.141-0.337C13.977,709.538,14.039,709.538,14.101,709.538 M14.101,706.538l-0.227,0.002
					c-2.856,0.038-5.741,0.143-8.532,0.243c-0.89,0.032-1.78,0.064-2.671,0.095c-5.374,0.181-7.988,2.908-7.991,8.336
					c-0.008,19.094-0.01,38.187,0.001,57.281c0.003,5.805,3.64,7.865,6.753,7.865c0.947,0,1.963-0.171,3.02-0.507
					c8.868-2.822,18.26-4.96,27.915-6.353c3.05-0.44,6.065-0.789,9.258-1.16c0.381-0.044,0.763-0.088,1.145-0.133
					c0.01,0.221,0.02,0.441,0.03,0.661c0.15,3.307,0.292,6.431,0.518,9.603c0.151,2.127,0.601,3.827,1.375,5.196
					c1.437,2.542,4.059,4.059,7.013,4.059c2.301,0,4.63-0.909,6.559-2.56c3.073-2.63,6.133-5.275,9.193-7.92
					c1.695-1.465,3.39-2.931,5.088-4.393c2.159-1.86,4.321-3.717,6.483-5.574c4.743-4.074,9.647-8.286,14.443-12.47
					c2.152-1.877,3.312-4.529,3.184-7.276c-0.124-2.657-1.453-5.086-3.645-6.665c-14.299-10.297-26.328-18.922-38.552-27.541
					c-1.438-1.014-3.451-1.619-5.386-1.619c-0.359,0-0.712,0.021-1.05,0.063c-4.703,0.585-7.427,4.095-7.286,9.389
					c0.07,2.613,0.182,5.257,0.291,7.814c0.042,0.983,0.084,1.967,0.123,2.95l-20.862,3.062l0.262-3.731
					c0.467-6.661,0.934-13.323,1.42-19.983c0.212-2.905-0.364-5.048-1.76-6.55C18.848,707.253,16.848,706.538,14.101,706.538
					L14.101,706.538z"/>
			</g>
		</g>
	</g>
</g>
</svg>
