<?xml version="1.0" encoding="UTF-8"?>
<!DOCTYPE svg PUBLIC "-//W3C//DTD SVG 1.1//EN" "http://www.w3.org/Graphics/SVG/1.1/DTD/svg11.dtd">
<svg version="1.1" xmlns="http://www.w3.org/2000/svg" xmlns:xlink="http://www.w3.org/1999/xlink" x="0px" y="0px" width="500" height="525" viewBox="0, 0, 500, 525">
  <g id="outline">
    <g>
      <path d="M73.3,483.335 L72.813,485.603 Q71.811,484.81 70.127,484.81 Q67.566,484.81 65.987,486.835 Q64.408,488.859 64.408,491.81 Q64.408,493.619 65.43,494.697 Q66.453,495.776 67.761,495.776 Q69.779,495.776 71.63,494.537 L71.338,497.237 Q69.515,498.044 67.344,498.044 Q64.588,498.044 63.113,496.464 Q61.638,494.885 61.638,492.269 Q61.638,488.01 63.976,485.297 Q66.314,482.583 69.932,482.583 Q72.075,482.583 73.3,483.335 z" fill="#000000"/>
      <path d="M74.511,492.283 Q74.511,488.289 76.848,485.436 Q79.186,482.583 82.791,482.583 Q85.504,482.583 86.938,484.051 Q88.371,485.52 88.371,488.219 Q88.371,490.362 87.515,492.672 Q86.659,494.982 84.718,496.513 Q82.777,498.044 80.063,498.044 Q77.377,498.044 75.944,496.534 Q74.511,495.024 74.511,492.283 z M77.294,492.116 Q77.294,495.887 80.453,495.887 Q82.805,495.887 84.189,493.605 Q85.574,491.322 85.574,488.331 Q85.574,484.74 82.415,484.74 Q80.815,484.74 79.597,485.881 Q78.379,487.022 77.837,488.804 Q77.294,490.585 77.294,492.116 z" fill="#000000"/>
      <path d="M94.786,482.862 L93.047,492.366 Q92.935,492.978 92.935,493.493 Q92.935,495.817 95.357,495.817 Q96.846,495.817 98.217,494.704 Q99.587,493.591 99.866,492.046 L101.563,482.862 L104.347,482.862 L101.619,497.766 L98.836,497.766 L99.225,495.664 Q97.667,498.044 93.826,498.044 Q92.087,498.044 91.112,497.014 Q90.138,495.984 90.138,494.092 Q90.138,493.424 90.277,492.645 L92.003,482.862 z" fill="#000000"/>
      <path d="M116.273,485.478 Q115.438,484.81 114.324,484.81 Q112.919,484.81 111.639,486.111 Q110.358,487.412 110.038,489.221 L108.521,497.766 L105.877,497.766 L108.507,482.862 L111.151,482.862 L110.734,485.241 Q112.654,482.583 115.507,482.583 Q115.994,482.583 117.024,482.778 z" fill="#000000"/>
      <path d="M120.99,484.949 L119.264,484.949 L119.71,482.862 L121.435,482.862 L122.048,479.744 L125.067,478.603 L124.079,482.862 L128.171,482.862 L127.725,484.949 L123.634,484.949 L122.076,492.352 Q121.895,493.215 121.895,493.688 Q121.895,495.817 124.01,495.817 Q125.04,495.817 126.222,495.302 L126.125,497.626 Q124.984,498.044 122.437,498.044 Q120.851,498.044 119.967,497.063 Q119.084,496.082 119.084,494.37 Q119.084,493.98 119.209,493.41 z" fill="#000000"/>
      <path d="M132.819,490.724 Q132.693,491.392 132.693,492.004 Q132.693,493.841 133.723,494.829 Q134.753,495.817 136.604,495.817 Q138.246,495.817 139.916,494.607 L139.638,497.306 Q137.411,498.044 135.699,498.044 Q129.938,498.044 129.938,491.587 Q129.938,487.788 132.359,485.186 Q134.781,482.583 138.455,482.583 Q140.667,482.583 141.989,483.53 Q143.311,484.476 143.311,486.229 Q143.311,488.665 141.252,490.07 Q139.192,491.476 136.2,491.476 Q134.196,491.476 132.819,490.724 z M133.278,488.804 Q134.336,489.277 135.769,489.277 Q137.94,489.277 139.317,488.574 Q140.695,487.871 140.695,486.521 Q140.695,484.81 138.329,484.81 Q134.725,484.81 133.278,488.804 z" fill="#000000"/>
      <path d="M143.924,496.875 L145.301,494.37 Q145.844,494.913 146.86,495.365 Q147.876,495.817 148.599,495.817 Q149.838,495.817 150.645,495.149 Q151.452,494.481 151.452,493.34 Q151.452,492.756 151.028,492.297 Q150.603,491.837 149.56,491.239 L147.597,490.154 Q146.693,489.639 146.241,488.852 Q145.788,488.066 145.788,487.176 Q145.788,485.102 147.403,483.843 Q149.017,482.583 151.369,482.583 Q152.997,482.583 155.293,483.613 L154.11,486.062 Q152.746,484.81 151.174,484.81 Q150.13,484.81 149.372,485.346 Q148.613,485.881 148.613,486.758 Q148.613,487.398 149.045,487.857 Q149.476,488.317 150.534,488.887 L152.482,489.945 Q153.387,490.432 153.832,491.197 Q154.277,491.963 154.277,492.867 Q154.277,495.261 152.545,496.652 Q150.812,498.044 148.14,498.044 Q145.788,498.044 143.924,496.875 z" fill="#000000"/>
      <path d="M155.766,503.61 L155.766,500.952 Q158.355,500.952 159.44,500.173 Q160.525,499.394 160.999,497.835 Q159.036,497.835 158.396,493.967 L156.532,482.862 L159.412,482.862 L161.054,493.674 Q161.291,495.275 162.195,495.275 L167.567,482.862 L170.573,482.862 L163.1,499.547 Q162.154,501.662 160.581,502.636 Q159.009,503.61 155.766,503.61 z" fill="#000000"/>
      <path d="M178.992,492.283 Q178.992,488.289 181.33,485.436 Q183.668,482.583 187.272,482.583 Q189.986,482.583 191.419,484.051 Q192.852,485.52 192.852,488.219 Q192.852,490.362 191.997,492.672 Q191.141,494.982 189.199,496.513 Q187.258,498.044 184.545,498.044 Q181.859,498.044 180.425,496.534 Q178.992,495.024 178.992,492.283 z M181.775,492.116 Q181.775,495.887 184.934,495.887 Q187.286,495.887 188.671,493.605 Q190.055,491.322 190.055,488.331 Q190.055,484.74 186.896,484.74 Q185.296,484.74 184.078,485.881 Q182.861,487.022 182.318,488.804 Q181.775,490.585 181.775,492.116 z" fill="#000000"/>
      <path d="M205.78,479.229 Q204.723,478.84 204.138,478.84 Q201.619,478.84 200.924,482.862 L204.375,482.862 L204.152,484.685 L200.659,484.685 L198.307,498.74 Q197.973,500.716 196.498,501.947 Q195.023,503.179 192.922,503.443 L192.685,501.815 Q193.52,501.648 194.397,500.688 Q195.274,499.728 195.455,498.74 L197.918,484.685 L195.816,484.685 L196.123,482.862 L198.168,482.862 Q199.393,476.752 204.305,476.752 Q205.474,476.752 206.281,477.17 z" fill="#000000"/>
    </g>
    <path d="M51.264,22.146 L51.264,31.109 L42.272,31.109 C39.846,31.148 37.534,31.76 35.415,32.825 C30.758,35.369 27.905,40.365 27.803,45.877 L27.803,470.283 C28.292,476.109 30.011,480.36 35.373,483.437 C36.35,483.997 37.658,484.505 38.763,484.751 C42.87,485.589 47.1,485.238 51.264,485.186 L51.264,494.146 L42.111,494.146 L41.949,494.144 C32.824,493.852 25.192,489.276 21.077,481.609 C19.173,478.202 18.532,474.416 18.269,470.626 C18.262,470.486 18.264,470.556 18.264,470.416 L18.265,45.799 C18.799,36.506 22.374,30.265 30.62,25.077 C34.092,23.181 37.426,22.379 41.853,22.153 L41.982,22.146 z" fill="#000000"/>
    <path d="M454.889,22.146 L455.067,22.149 C464.603,22.457 472.51,26.999 476.806,34.679 C478.685,38.039 479.509,41.403 479.731,45.657 L479.737,45.762 L479.737,470.34 L479.731,470.445 C479.723,470.612 479.715,470.778 479.705,470.982 C479.693,471.239 479.686,471.387 479.681,471.489 C479.645,472.244 479.615,472.702 479.558,473.215 C479.423,474.44 479.159,475.596 478.65,477.194 C476.321,484.498 470.198,490.523 462.363,492.863 C459.601,493.688 456.178,494.051 451.935,494.129 L450.331,494.146 L446.854,494.104 L446.737,494.101 L446.737,485.133 C449.792,485.197 448.127,485.178 451.731,485.172 C455.062,485.111 457.631,484.838 459.237,484.359 C463.87,482.975 467.652,479.253 469.097,474.719 C469.451,473.609 469.597,472.97 469.668,472.328 C469.701,472.025 469.723,471.704 469.751,471.105 C469.756,471.009 469.762,470.867 469.775,470.603 C469.792,470.244 469.784,470.401 469.798,470.132 L469.798,45.999 C469.73,44.058 469.364,42.171 468.699,40.319 C467.465,36.884 464.431,33.829 460.795,32.34 C459.553,31.832 458.179,31.64 456.871,31.289 L454.744,31.105 L446.737,31.105 L446.737,22.146 z" fill="#000000"/>
    <g>
      <path d="M76.989,17.372 Q74.837,15.502 72.61,15.502 Q68.139,15.502 68.139,19.507 Q68.139,21.201 70.514,23.556 L73.315,26.372 Q74.614,27.693 75.115,28.298 Q75.616,28.903 76.173,29.981 Q76.729,31.059 77.008,32.16 Q77.286,33.26 77.286,34.404 Q77.286,38.827 74.493,41.314 Q71.701,43.8 67.248,43.8 Q63.593,43.8 60.346,41.93 L61.904,36.275 Q64.39,38.497 67.675,38.497 Q69.66,38.497 70.968,37.496 Q72.276,36.495 72.276,34.646 Q72.276,32.82 69.901,30.619 L66.988,27.869 Q65.652,26.593 65.179,26.02 Q64.706,25.448 64.186,24.425 Q63.667,23.402 63.407,22.324 Q63.147,21.245 63.147,20.101 Q63.147,15.656 65.634,13.06 Q68.12,10.463 72.146,10.463 Q73.482,10.463 75.56,10.826 Q77.639,11.189 78.473,11.651 z" fill="#87B287"/>
      <path d="M76.989,17.372 Q74.837,15.502 72.61,15.502 Q68.139,15.502 68.139,19.507 Q68.139,21.201 70.514,23.556 L73.315,26.372 Q74.614,27.693 75.115,28.298 Q75.616,28.903 76.173,29.981 Q76.729,31.059 77.008,32.16 Q77.286,33.26 77.286,34.404 Q77.286,38.827 74.493,41.314 Q71.701,43.8 67.248,43.8 Q63.593,43.8 60.346,41.93 L61.904,36.275 Q64.39,38.497 67.675,38.497 Q69.66,38.497 70.968,37.496 Q72.276,36.495 72.276,34.646 Q72.276,32.82 69.901,30.619 L66.988,27.869 Q65.652,26.593 65.179,26.02 Q64.706,25.448 64.186,24.425 Q63.667,23.402 63.407,22.324 Q63.147,21.245 63.147,20.101 Q63.147,15.656 65.634,13.06 Q68.12,10.463 72.146,10.463 Q73.482,10.463 75.56,10.826 Q77.639,11.189 78.473,11.651 z" fill-opacity="0" stroke="#404040" stroke-width="0.997" stroke-linecap="round" stroke-linejoin="round"/>
    </g>
    <g>
      <path d="M100.72,17.218 Q98.604,15.436 96.025,15.436 Q91.85,15.436 89.021,20.156 Q86.191,24.876 86.191,30.619 Q86.191,34.338 87.731,36.561 Q89.271,38.783 92.017,38.783 Q96.285,38.783 98.716,36.033 L98.623,41.072 Q95.988,43.8 91.034,43.8 Q86.618,43.8 83.909,40.357 Q81.2,36.913 81.2,31.412 Q81.2,22.522 85.366,16.492 Q89.531,10.463 96.248,10.463 Q99.532,10.463 102.074,11.739 z" fill="#87B287"/>
      <path d="M100.72,17.218 Q98.604,15.436 96.025,15.436 Q91.85,15.436 89.021,20.156 Q86.191,24.876 86.191,30.619 Q86.191,34.338 87.731,36.561 Q89.271,38.783 92.017,38.783 Q96.285,38.783 98.716,36.033 L98.623,41.072 Q95.988,43.8 91.034,43.8 Q86.618,43.8 83.909,40.357 Q81.2,36.913 81.2,31.412 Q81.2,22.522 85.366,16.492 Q89.531,10.463 96.248,10.463 Q99.532,10.463 102.074,11.739 z" fill-opacity="0" stroke="#404040" stroke-width="0.997" stroke-linecap="round" stroke-linejoin="round"/>
    </g>
    <g>
      <path d="M119.923,43.25 L119.069,36.693 L109.347,36.693 L106.155,43.25 L101.127,43.25 L117.64,10.573 L119.366,10.573 L124.951,43.25 z M116.991,20.365 L111.406,32.402 L118.531,32.402 z" fill="#87B287"/>
      <path d="M119.923,43.25 L119.069,36.693 L109.347,36.693 L106.155,43.25 L101.127,43.25 L117.64,10.573 L119.366,10.573 L124.951,43.25 z M116.991,20.365 L111.406,32.402 L118.531,32.402 z" fill-opacity="0" stroke="#404040" stroke-width="0.997" stroke-linecap="round" stroke-linejoin="round"/>
    </g>
    <g>
      <path d="M147.364,43.69 L145.49,43.69 L135.471,22.852 L132.465,43.25 L127.678,43.25 L132.669,11.013 L134.895,11.013 L144.711,30.993 L147.661,11.013 L152.43,11.013 z" fill="#87B287"/>
      <path d="M147.364,43.69 L145.49,43.69 L135.471,22.852 L132.465,43.25 L127.678,43.25 L132.669,11.013 L134.895,11.013 L144.711,30.993 L147.661,11.013 L152.43,11.013 z" fill-opacity="0" stroke="#404040" stroke-width="0.997" stroke-linecap="round" stroke-linejoin="round"/>
    </g>
    <g>
      <path d="M184.898,43.69 L183.024,43.69 L173.005,22.852 L169.999,43.25 L165.212,43.25 L170.203,11.013 L172.43,11.013 L182.245,30.993 L185.195,11.013 L189.964,11.013 z" fill="#87B287"/>
      <path d="M184.898,43.69 L183.024,43.69 L173.005,22.852 L169.999,43.25 L165.212,43.25 L170.203,11.013 L172.43,11.013 L182.245,30.993 L185.195,11.013 L189.964,11.013 z" fill-opacity="0" stroke="#404040" stroke-width="0.997" stroke-linecap="round" stroke-linejoin="round"/>
    </g>
    <g>
      <path d="M191.67,31.258 Q191.67,22.654 195.631,16.547 Q199.593,10.441 205.938,10.441 Q210.818,10.441 213.453,13.511 Q216.088,16.58 216.088,22.39 Q216.088,31.918 212.043,37.859 Q207.998,43.8 200.966,43.8 Q196.661,43.8 194.165,40.357 Q191.67,36.913 191.67,31.258 z M196.68,30.663 Q196.68,34.382 197.923,36.583 Q199.166,38.783 201.559,38.783 Q205.975,38.783 208.536,34.074 Q211.097,29.365 211.097,22.83 Q211.097,15.436 205.604,15.436 Q201.745,15.436 199.212,20.277 Q196.68,25.118 196.68,30.663 z" fill="#87B287"/>
      <path d="M191.67,31.258 Q191.67,22.654 195.631,16.547 Q199.593,10.441 205.938,10.441 Q210.818,10.441 213.453,13.511 Q216.088,16.58 216.088,22.39 Q216.088,31.918 212.043,37.859 Q207.998,43.8 200.966,43.8 Q196.661,43.8 194.165,40.357 Q191.67,36.913 191.67,31.258 z M196.68,30.663 Q196.68,34.382 197.923,36.583 Q199.166,38.783 201.559,38.783 Q205.975,38.783 208.536,34.074 Q211.097,29.365 211.097,22.83 Q211.097,15.436 205.604,15.436 Q201.745,15.436 199.212,20.277 Q196.68,25.118 196.68,30.663 z" fill-opacity="0" stroke="#404040" stroke-width="0.997" stroke-linecap="round" stroke-linejoin="round"/>
    </g>
    <g>
      <path d="M240.616,43.69 L238.668,43.69 L235.718,24.018 L226.904,43.69 L224.956,43.69 L221.115,11.013 L226.032,11.013 L228.092,30.553 L236.664,11.013 L238.761,11.013 L241.284,30.421 L249.225,11.013 L254.458,11.013 z" fill="#87B287"/>
      <path d="M240.616,43.69 L238.668,43.69 L235.718,24.018 L226.904,43.69 L224.956,43.69 L221.115,11.013 L226.032,11.013 L228.092,30.553 L236.664,11.013 L238.761,11.013 L241.284,30.421 L249.225,11.013 L254.458,11.013 z" fill-opacity="0" stroke="#404040" stroke-width="0.997" stroke-linecap="round" stroke-linejoin="round"/>
    </g>
    <g>
      <path d="M280.284,43.25 L279.431,36.693 L269.708,36.693 L266.516,43.25 L261.488,43.25 L278.002,10.573 L279.727,10.573 L285.312,43.25 z M277.352,20.365 L271.767,32.402 L278.892,32.402 z" fill="#87B287"/>
      <path d="M280.284,43.25 L279.431,36.693 L269.708,36.693 L266.516,43.25 L261.488,43.25 L278.002,10.573 L279.727,10.573 L285.312,43.25 z M277.352,20.365 L271.767,32.402 L278.892,32.402 z" fill-opacity="0" stroke="#404040" stroke-width="0.997" stroke-linecap="round" stroke-linejoin="round"/>
    </g>
    <g>
      <path d="M307.725,43.69 L305.851,43.69 L295.832,22.852 L292.826,43.25 L288.039,43.25 L293.03,11.013 L295.257,11.013 L305.072,30.993 L308.022,11.013 L312.791,11.013 z" fill="#87B287"/>
      <path d="M307.725,43.69 L305.851,43.69 L295.832,22.852 L292.826,43.25 L288.039,43.25 L293.03,11.013 L295.257,11.013 L305.072,30.993 L308.022,11.013 L312.791,11.013 z" fill-opacity="0" stroke="#404040" stroke-width="0.997" stroke-linecap="round" stroke-linejoin="round"/>
    </g>
    <g>
      <path d="M320.026,43.25 L313.458,43.25 L318.412,11.079 Q321.121,10.507 323.496,10.507 Q329.712,10.507 333.107,13.874 Q336.503,17.24 336.503,23.622 Q336.503,32.578 332.013,37.914 Q327.522,43.25 320.026,43.25 z M322.438,15.722 L319.136,38.123 Q319.952,38.211 320.62,38.211 Q325.593,38.211 328.524,34.052 Q331.456,29.893 331.456,23.38 Q331.456,19.815 329.433,17.659 Q327.411,15.502 324.238,15.502 Q323.348,15.502 322.438,15.722 z" fill="#87B287"/>
      <path d="M320.026,43.25 L313.458,43.25 L318.412,11.079 Q321.121,10.507 323.496,10.507 Q329.712,10.507 333.107,13.874 Q336.503,17.24 336.503,23.622 Q336.503,32.578 332.013,37.914 Q327.522,43.25 320.026,43.25 z M322.438,15.722 L319.136,38.123 Q319.952,38.211 320.62,38.211 Q325.593,38.211 328.524,34.052 Q331.456,29.893 331.456,23.38 Q331.456,19.815 329.433,17.659 Q327.411,15.502 324.238,15.502 Q323.348,15.502 322.438,15.722 z" fill-opacity="0" stroke="#404040" stroke-width="0.997" stroke-linecap="round" stroke-linejoin="round"/>
    </g>
    <g>
      <path d="M371.476,40.324 Q367.283,43.8 361.216,43.8 Q356.54,43.8 353.618,40.247 Q350.695,36.693 350.695,31.236 Q350.695,21.663 355.139,16.063 Q359.583,10.463 367.246,10.463 Q371.402,10.463 373.425,12.663 L371.977,17.438 Q369.25,15.48 366.541,15.48 Q361.642,15.48 358.674,19.738 Q355.705,23.996 355.705,30.399 Q355.705,34.36 357.542,36.572 Q359.379,38.783 362.57,38.783 Q365.223,38.783 367.209,37.045 L368.192,30.663 L364.426,30.663 L365.168,25.866 L373.722,25.866 z" fill="#87B287"/>
      <path d="M371.476,40.324 Q367.283,43.8 361.216,43.8 Q356.54,43.8 353.618,40.247 Q350.695,36.693 350.695,31.236 Q350.695,21.663 355.139,16.063 Q359.583,10.463 367.246,10.463 Q371.402,10.463 373.425,12.663 L371.977,17.438 Q369.25,15.48 366.541,15.48 Q361.642,15.48 358.674,19.738 Q355.705,23.996 355.705,30.399 Q355.705,34.36 357.542,36.572 Q359.379,38.783 362.57,38.783 Q365.223,38.783 367.209,37.045 L368.192,30.663 L364.426,30.663 L365.168,25.866 L373.722,25.866 z" fill-opacity="0" stroke="#404040" stroke-width="0.997" stroke-linecap="round" stroke-linejoin="round"/>
    </g>
    <g>
      <path d="M381.439,43.25 L376.597,43.25 L381.588,11.013 L386.449,11.013 z" fill="#87B287"/>
      <path d="M381.439,43.25 L376.597,43.25 L381.588,11.013 L386.449,11.013 z" fill-opacity="0" stroke="#404040" stroke-width="0.997" stroke-linecap="round" stroke-linejoin="round"/>
    </g>
    <g>
      <path d="M398.917,43.69 L396.282,43.69 L390.827,11.013 L395.985,11.013 L399.232,32.402 L408.769,11.013 L414.169,11.013 z" fill="#87B287"/>
      <path d="M398.917,43.69 L396.282,43.69 L390.827,11.013 L395.985,11.013 L399.232,32.402 L408.769,11.013 L414.169,11.013 z" fill-opacity="0" stroke="#404040" stroke-width="0.997" stroke-linecap="round" stroke-linejoin="round"/>
    </g>
    <g>
      <path d="M435.357,16.03 L422.833,16.03 L421.701,23.446 L430.681,23.446 L429.921,28.243 L420.94,28.243 L419.419,38.233 L431.739,38.233 L430.941,43.25 L413.648,43.25 L418.658,11.013 L436.155,11.013 z" fill="#87B287"/>
      <path d="M435.357,16.03 L422.833,16.03 L421.701,23.446 L430.681,23.446 L429.921,28.243 L420.94,28.243 L419.419,38.233 L431.739,38.233 L430.941,43.25 L413.648,43.25 L418.658,11.013 L436.155,11.013 z" fill-opacity="0" stroke="#404040" stroke-width="0.997" stroke-linecap="round" stroke-linejoin="round"/>
    </g>
  </g>
  <g id="swiftgive">
    <g>
      <g>
        <path d="M258.727,507.353 L257.379,472.58 L262.812,472.58 L263.138,490.482 C263.184,494.816 263.091,498.015 262.998,500.749 L263.091,500.749 C264.066,497.86 264.996,494.867 266.574,490.637 L273.587,472.58 L279.484,472.58 L279.717,490.121 C279.763,494.455 279.717,497.705 279.578,500.594 L279.671,500.594 C280.692,497.292 281.714,493.991 282.968,490.482 L289.702,472.58 L295.414,472.58 L281.296,507.353 L275.445,507.353 L274.98,490.586 C274.888,486.562 274.934,483.724 275.166,479.751 L275.027,479.751 C273.959,483.311 272.984,486.562 271.545,490.327 L264.672,507.352 L258.727,507.352 z" fill="#000000"/>
        <path d="M258.727,507.353 L257.379,472.58 L262.812,472.58 L263.138,490.482 C263.184,494.816 263.091,498.015 262.998,500.749 L263.091,500.749 C264.066,497.86 264.996,494.867 266.574,490.637 L273.587,472.58 L279.484,472.58 L279.717,490.121 C279.763,494.455 279.717,497.705 279.578,500.594 L279.671,500.594 C280.692,497.292 281.714,493.991 282.968,490.482 L289.702,472.58 L295.414,472.58 L281.296,507.353 L275.445,507.353 L274.98,490.586 C274.888,486.562 274.934,483.724 275.166,479.751 L275.027,479.751 C273.959,483.311 272.984,486.562 271.545,490.327 L264.672,507.352 L258.727,507.352 z" fill-opacity="0" stroke="#404040" stroke-width="0.6" stroke-linecap="round" stroke-linejoin="round"/>
      </g>
      <g>
        <path d="M304.048,472.58 L298.103,507.353 L292.67,507.353 L298.615,472.58 z" fill="#000000"/>
        <path d="M304.048,472.58 L298.103,507.353 L292.67,507.353 L298.615,472.58 z" fill-opacity="0" stroke="#404040" stroke-width="0.6" stroke-linecap="round" stroke-linejoin="round"/>
      </g>
      <g>
        <path d="M309.898,472.58 L327.173,472.58 L326.245,477.688 L314.449,477.688 L312.777,487.49 L323.737,487.49 L322.854,492.546 L311.894,492.546 L309.387,507.352 L303.953,507.352 z" fill="#000000"/>
        <path d="M309.898,472.58 L327.173,472.58 L326.245,477.688 L314.449,477.688 L312.777,487.49 L323.737,487.49 L322.854,492.546 L311.894,492.546 L309.387,507.352 L303.953,507.352 z" fill-opacity="0" stroke="#404040" stroke-width="0.6" stroke-linecap="round" stroke-linejoin="round"/>
      </g>
      <g>
        <path d="M336.644,477.842 L327.96,477.842 L328.889,472.579 L351.691,472.579 L350.762,477.842 L342.031,477.842 L337.016,507.352 L331.583,507.352 z" fill="#000000"/>
        <path d="M336.644,477.842 L327.96,477.842 L328.889,472.579 L351.691,472.579 L350.762,477.842 L342.031,477.842 L337.016,507.352 L331.583,507.352 z" fill-opacity="0" stroke="#404040" stroke-width="0.6" stroke-linecap="round" stroke-linejoin="round"/>
      </g>
      <g>
        <path d="M354.67,477.3 C350.63,481.169 348.401,487 348.401,493.19 L348.401,493.19 C348.401,497.163 349.516,500.981 351.977,503.612 L351.977,503.612 C354.438,506.347 357.966,507.688 362.285,507.688 L362.285,507.688 C366.139,507.688 369.715,506.605 371.851,505.78 L371.851,505.78 L374.822,488.238 L364.05,488.238 L363.168,493.088 L368.694,493.088 L367.208,501.807 C366.279,502.221 364.886,502.581 363.214,502.581 L363.214,502.581 C357.364,502.581 354.299,498.97 354.299,492.727 L354.299,492.727 C354.299,487.98 356.063,483.491 358.896,480.809 L358.896,480.809 C361.218,478.59 364.282,477.404 367.626,477.404 L367.626,477.404 C370.458,477.404 372.78,478.022 374.266,478.848 L374.266,478.848 L375.938,473.791 C374.823,473.12 371.99,472.192 368.043,472.192 L368.043,472.192 C362.796,472.192 358.106,474.048 354.67,477.3" fill="#87B287"/>
        <path d="M354.67,477.3 C350.63,481.169 348.401,487 348.401,493.19 L348.401,493.19 C348.401,497.163 349.516,500.981 351.977,503.612 L351.977,503.612 C354.438,506.347 357.966,507.688 362.285,507.688 L362.285,507.688 C366.139,507.688 369.715,506.605 371.851,505.78 L371.851,505.78 L374.822,488.238 L364.05,488.238 L363.168,493.088 L368.694,493.088 L367.208,501.807 C366.279,502.221 364.886,502.581 363.214,502.581 L363.214,502.581 C357.364,502.581 354.299,498.97 354.299,492.727 L354.299,492.727 C354.299,487.98 356.063,483.491 358.896,480.809 L358.896,480.809 C361.218,478.59 364.282,477.404 367.626,477.404 L367.626,477.404 C370.458,477.404 372.78,478.022 374.266,478.848 L374.266,478.848 L375.938,473.791 C374.823,473.12 371.99,472.192 368.043,472.192 L368.043,472.192 C362.796,472.192 358.106,474.048 354.67,477.3" fill-opacity="0" stroke="#404040" stroke-width="0.75" stroke-linecap="round" stroke-linejoin="round"/>
      </g>
      <g>
        <path d="M381.973,472.553 L376.029,507.328 L381.462,507.328 L387.406,472.553 z" fill="#87B287"/>
        <path d="M381.973,472.553 L376.029,507.328 L381.462,507.328 L387.406,472.553 z" fill-opacity="0" stroke="#404040" stroke-width="0.72" stroke-linecap="round" stroke-linejoin="round"/>
      </g>
      <g>
        <path d="M409.695,472.553 L401.336,491.437 C399.711,495.049 398.504,498.247 397.482,501.084 L397.482,501.084 L397.389,501.084 C397.25,498.093 397.065,495.306 396.693,491.694 L396.693,491.694 L394.882,472.553 L389.356,472.553 L393.21,507.328 L399.387,507.328 L415.685,472.553 z" fill="#87B287"/>
        <path d="M409.695,472.553 L401.336,491.437 C399.711,495.049 398.504,498.247 397.482,501.084 L397.482,501.084 L397.389,501.084 C397.25,498.093 397.065,495.306 396.693,491.694 L396.693,491.694 L394.882,472.553 L389.356,472.553 L393.21,507.328 L399.387,507.328 L415.685,472.553 z" fill-opacity="0" stroke="#404040" stroke-width="0.72" stroke-linecap="round" stroke-linejoin="round"/>
      </g>
      <g>
        <path d="M418.146,472.552 L412.202,507.328 L430.266,507.328 L431.148,502.219 L418.518,502.219 L420.282,491.849 L431.519,491.849 L432.401,486.793 L421.118,486.793 L422.697,477.66 L434.63,477.66 L435.512,472.552 z" fill="#87B287"/>
        <path d="M418.146,472.552 L412.202,507.328 L430.266,507.328 L431.148,502.219 L418.518,502.219 L420.282,491.849 L431.519,491.849 L432.401,486.793 L421.118,486.793 L422.697,477.66 L434.63,477.66 L435.512,472.552 z" fill-opacity="0" stroke="#404040" stroke-width="0.72" stroke-linecap="round" stroke-linejoin="round"/>
      </g>
      <g>
        <g>
          <path d="M232.981,497.887 L232.981,497.887 C233.911,497.892 234.401,498.638 234.261,499.632 C233.643,504.009 233.01,508.473 232.356,513.054 C232.214,514.052 231.646,514.576 230.632,514.664 C230.528,514.673 230.448,514.677 230.272,514.685 C230.218,514.687 230.194,514.688 230.164,514.69 C230.076,514.694 230.008,514.699 229.948,514.704 C228.708,514.822 228.068,514.162 228.221,512.921 C228.263,512.58 228.296,512.316 228.373,511.689 C228.407,511.413 228.407,511.413 228.441,511.137 C228.631,509.6 228.753,508.618 228.881,507.6 C228.882,507.591 228.882,507.591 228.883,507.581 C228.957,507.026 228.918,507.309 229,506.734 C228.932,506.755 228.977,506.741 228.863,506.777 C228.722,506.821 228.619,506.854 228.518,506.886 C227.968,507.06 227.568,507.186 227.174,507.308 C227.166,507.311 227.166,507.311 227.157,507.313 C227.04,507.35 227.04,507.35 226.924,507.386 C224.947,507.999 224.055,508.274 222.949,508.609 C221.787,508.961 221.126,508.625 220.827,507.499 C220.434,506.019 220.088,504.713 219.757,503.466 C219.437,502.261 219.897,501.538 221.148,501.234 C225.375,500.207 228.908,499.197 232.253,498.02 C232.509,497.931 232.752,497.885 232.981,497.887 L232.981,497.887 z" fill="#404040"/>
          <path d="M232.978,498.504 C232.826,498.503 232.651,498.535 232.456,498.603 C228.772,499.899 225.043,500.922 221.294,501.834 C220.371,502.058 220.126,502.446 220.354,503.307 C220.711,504.651 221.068,505.996 221.425,507.34 C221.63,508.114 221.929,508.272 222.77,508.017 C224.173,507.592 225.574,507.157 226.974,506.723 C227.865,506.446 228.755,506.162 229.753,505.847 C229.66,506.502 229.568,507.089 229.494,507.677 C229.271,509.451 229.054,511.223 228.835,512.996 C228.73,513.847 229.045,514.169 229.89,514.089 C230.12,514.068 230.35,514.068 230.581,514.048 C231.306,513.985 231.644,513.681 231.745,512.966 C232.384,508.492 233.019,504.019 233.65,499.545 C233.743,498.882 233.485,498.507 232.978,498.504 z" fill="#000000"/>
        </g>
        <g>
          <path d="M237.741,484.842 C238.599,484.847 239.492,484.853 240.576,484.86 C241.051,484.864 241.43,484.866 242.286,484.872 C246.954,484.904 249.03,484.916 251.624,484.926 C252.388,484.929 252.977,485.144 253.457,485.652 C254.615,486.877 255.285,488.096 255.466,489.558 C255.715,491.567 255.045,493.453 253.556,495.254 C252.314,496.758 250.82,497.932 248.553,499.342 C245.568,501.232 242.358,502.717 239.073,504 C238.833,505.798 238.588,507.595 238.343,509.392 C238.337,509.44 238.337,509.44 238.33,509.488 C238.123,511.008 238.021,511.759 237.902,512.642 C237.721,513.974 237.217,514.435 235.873,514.491 C235.832,514.493 235.789,514.495 235.742,514.497 C235.696,514.499 235.661,514.501 235.576,514.506 C235.485,514.511 235.442,514.513 235.392,514.515 C234.098,514.582 233.496,513.93 233.677,512.648 C233.816,511.669 233.945,510.76 234.165,509.207 C234.484,506.962 234.553,506.479 234.696,505.472 C234.771,504.941 234.833,504.507 234.967,503.566 C235.337,500.981 235.497,499.849 235.69,498.422 C235.811,497.529 236.239,496.95 237.094,496.599 C238.901,495.857 240.279,495.131 241.495,494.226 C241.683,494.086 241.834,493.958 242.168,493.662 C242.173,493.657 242.173,493.657 242.179,493.652 C242.273,493.568 242.321,493.526 242.378,493.477 C243.198,492.76 243.262,491.581 242.728,490.875 C242.158,490.119 241.349,489.563 240.17,489.048 C239.44,488.728 238.837,488.492 237.475,487.98 C237.473,487.979 237.473,487.979 237.47,487.978 C237.041,487.817 236.85,487.745 236.612,487.655 C235.887,487.379 235.516,486.854 235.658,486.137 C235.786,485.483 236.25,485.068 236.965,484.919 C237.221,484.866 237.484,484.84 237.741,484.842 z" fill="#404040"/>
          <path d="M237.737,485.46 C237.525,485.458 237.305,485.48 237.091,485.524 C236.6,485.626 236.34,485.866 236.264,486.256 C236.185,486.654 236.374,486.903 236.832,487.077 C238.033,487.535 239.247,487.969 240.418,488.482 C241.501,488.955 242.504,489.553 243.221,490.502 C243.825,491.303 243.991,492.888 242.784,493.942 C242.481,494.207 242.185,494.483 241.864,494.721 C240.458,495.768 238.91,496.52 237.329,497.17 C236.655,497.447 236.39,497.859 236.302,498.506 C235.984,500.856 235.641,503.207 235.307,505.559 C234.968,507.95 234.628,510.341 234.289,512.734 C234.162,513.632 234.454,513.945 235.36,513.898 C235.523,513.891 235.685,513.881 235.847,513.874 C236.894,513.83 237.15,513.592 237.29,512.559 C237.68,509.671 238.078,506.783 238.464,503.895 C238.497,503.648 238.576,503.527 238.84,503.428 C242.091,502.202 245.23,500.682 248.226,498.818 C250.004,497.712 251.72,496.507 253.08,494.861 C254.394,493.272 255.09,491.548 254.853,489.634 C254.674,488.188 253.95,487.072 253.008,486.077 C252.636,485.682 252.192,485.546 251.622,485.543 C246.992,485.527 242.365,485.488 237.737,485.46 z" fill="#000000"/>
        </g>
        <g>
          <path d="M243.739,465.645 C244.93,465.653 245.428,466.376 245.173,467.582 C244.989,468.45 244.801,469.342 244.558,470.503 C244.489,470.835 244.437,471.083 244.306,471.708 C244.244,472.007 244.181,472.305 244.119,472.604 C245.144,472.457 244.667,472.525 245.548,472.399 C245.672,472.381 245.672,472.381 245.795,472.364 C246.265,472.296 246.751,472.227 247.368,472.138 C247.742,472.085 248.116,472.031 248.49,471.978 C248.516,471.731 248.541,471.484 248.566,471.238 C248.583,471.068 248.59,470.995 248.6,470.901 C248.656,470.347 248.697,469.958 248.743,469.568 C248.867,468.503 249.461,467.792 250.431,467.674 C250.892,467.618 251.417,467.754 251.762,468.039 C253.847,469.769 255.927,471.522 258.852,474.006 C259.745,474.763 259.581,476.164 258.606,476.943 C257.684,477.681 256.911,478.294 255.297,479.567 C255.184,479.656 255.184,479.656 255.072,479.745 C254.483,480.209 254.129,480.488 253.754,480.786 C253.432,481.041 253.169,481.249 252.596,481.704 C252.583,481.714 252.583,481.714 252.57,481.724 C251.519,482.559 251.036,482.941 250.442,483.409 C249.423,484.211 248.097,484.099 247.654,482.989 C247.526,482.666 247.497,482.299 247.528,481.87 C247.578,481.158 247.651,480.447 247.721,479.737 C247.611,479.749 247.695,479.74 247.47,479.765 C246.6,479.863 246.144,479.918 245.631,479.99 C243.6,480.276 241.623,480.715 239.692,481.315 C238.454,481.701 237.645,480.959 237.828,479.665 C238.408,475.557 238.99,471.459 239.572,467.371 C239.73,466.26 240.293,465.731 241.375,465.703 C241.465,465.7 241.56,465.697 241.673,465.694 C241.772,465.69 241.772,465.69 241.871,465.687 C242.476,465.667 243.081,465.652 243.686,465.646 L243.703,465.645 z" fill="#404040"/>
          <path d="M243.734,466.263 C243.721,466.263 243.708,466.263 243.694,466.263 C242.929,466.268 242.161,466.297 241.393,466.32 C240.618,466.341 240.3,466.637 240.183,467.458 C239.6,471.556 239.018,475.654 238.439,479.752 C238.319,480.605 238.712,480.974 239.508,480.725 C241.509,480.104 243.522,479.664 245.545,479.378 C246.49,479.246 247.436,479.151 248.409,479.036 C248.314,480.04 248.213,480.979 248.144,481.915 C248.123,482.202 248.131,482.516 248.228,482.761 C248.496,483.431 249.334,483.494 250.061,482.923 C251.166,482.053 252.267,481.175 253.37,480.301 C254.988,479.022 256.61,477.75 258.22,476.461 C258.913,475.908 259.023,474.961 258.452,474.476 C256.099,472.479 253.743,470.485 251.367,468.514 C251.156,468.34 250.799,468.251 250.507,468.287 C249.831,468.369 249.448,468.854 249.356,469.64 C249.258,470.485 249.179,471.332 249.09,472.177 C249.077,472.305 249.055,472.433 249.042,472.523 C247.118,472.798 245.252,473.065 243.347,473.339 C243.358,473.261 243.362,473.209 243.372,473.158 C243.77,471.257 244.166,469.355 244.569,467.454 C244.746,466.618 244.519,466.268 243.734,466.263 z" fill="#87B287"/>
        </g>
        <g>
          <path d="M237.042,466.157 C237.832,466.163 238.312,466.69 238.354,467.498 C238.364,467.683 238.35,467.85 238.314,468.097 C238.163,469.167 238.044,470.003 237.766,471.958 C237.567,473.365 237.474,474.02 237.361,474.817 C237.011,477.285 236.737,479.232 236.476,481.114 C236.356,481.971 235.951,482.534 235.161,482.869 C233.731,483.476 232.62,484.125 231.669,484.963 C231.593,485.03 231.528,485.091 231.393,485.223 C231.384,485.231 231.384,485.231 231.375,485.24 C231.35,485.264 231.35,485.264 231.323,485.29 C230.649,485.942 230.644,486.559 231.135,487.154 C231.564,487.673 232.139,488.064 232.841,488.33 C233.993,488.767 234.923,489.106 237.014,489.856 C237.028,489.861 237.028,489.861 237.042,489.867 C238.327,490.328 238.919,490.541 239.642,490.806 C240.473,491.111 241.143,491.363 242.617,491.922 C242.672,491.943 242.672,491.943 242.728,491.964 C243.542,492.273 243.973,492.435 244.461,492.618 C245.09,492.853 245.429,493.384 245.337,494.072 C245.25,494.721 244.774,495.17 244.079,495.336 C243.84,495.391 243.596,495.419 243.361,495.418 C241.112,495.405 239.313,495.393 235.262,495.365 C234.685,495.361 234.429,495.36 234.109,495.357 C234.078,495.357 234.078,495.357 234.048,495.357 C231.732,495.341 230.652,495.334 229.34,495.325 C227.718,495.313 226.275,495.303 224.895,495.294 C224.877,495.294 224.862,495.294 224.827,495.294 C224.796,495.294 224.781,495.294 224.762,495.294 C224.557,495.293 224.413,495.279 224.247,495.222 C221.933,494.42 220.483,493.685 219.233,492.501 C218.09,491.418 217.549,490.029 217.68,488.396 C217.776,487.188 218.272,486.043 219.129,484.849 C220.25,483.285 221.66,482.002 223.662,480.585 C226.172,478.776 228.936,477.377 231.776,476.169 C231.844,474.91 231.916,473.651 231.988,472.392 C232.026,471.72 232.058,471.171 232.127,469.978 C232.173,469.172 232.193,468.835 232.218,468.395 C232.222,468.326 232.228,468.261 232.237,468.163 C232.239,468.145 232.239,468.145 232.24,468.127 C232.244,468.091 232.244,468.091 232.247,468.053 C232.344,467.035 232.843,466.478 233.819,466.385 C234.751,466.296 235.713,466.229 236.922,466.161 C236.964,466.158 237.003,466.157 237.042,466.157 z" fill="#404040"/>
          <path d="M237.038,466.775 C237.012,466.775 236.986,466.776 236.96,466.777 C235.933,466.835 234.906,466.902 233.877,467 C233.201,467.064 232.931,467.387 232.862,468.111 C232.852,468.219 232.841,468.327 232.834,468.434 C232.685,471.029 232.533,473.626 232.392,476.222 C232.377,476.489 232.303,476.621 232.037,476.73 C229.244,477.875 226.556,479.294 224.019,481.089 C222.38,482.249 220.836,483.529 219.63,485.209 C218.919,486.202 218.389,487.269 218.296,488.445 C218.176,489.935 218.682,491.129 219.658,492.053 C221.008,493.331 222.702,494.033 224.449,494.639 C224.584,494.685 224.747,494.675 224.899,494.676 C227.97,494.698 231.041,494.719 234.113,494.74 C237.197,494.761 240.281,494.783 243.365,494.8 C243.553,494.801 243.749,494.778 243.939,494.734 C244.395,494.625 244.674,494.367 244.725,493.99 C244.78,493.578 244.593,493.327 244.244,493.196 C242.639,492.595 241.04,491.977 239.429,491.386 C237.162,490.555 234.877,489.764 232.622,488.908 C231.867,488.622 231.184,488.183 230.659,487.547 C230.077,486.843 229.869,485.836 230.894,484.846 C231.015,484.729 231.135,484.61 231.261,484.499 C232.369,483.523 233.622,482.851 234.919,482.3 C235.524,482.044 235.777,481.651 235.864,481.028 C236.467,476.689 237.089,472.349 237.702,468.01 C237.726,467.85 237.746,467.687 237.737,467.53 C237.711,467.039 237.486,466.778 237.038,466.775 z" fill="#87B287"/>
        </g>
      </g>
    </g>
  </g>
  <g id="S">
    <g>
      <path d="M248.396,232.669 C252.56,232.694 256.902,232.722 262.164,232.758 C264.471,232.773 266.314,232.786 270.47,232.814 C293.143,232.969 303.225,233.03 315.826,233.075 C319.539,233.089 322.399,234.135 324.732,236.604 C330.354,242.553 333.609,248.474 334.487,255.574 C335.696,265.335 332.442,274.494 325.212,283.243 C319.177,290.546 311.919,296.249 300.909,303.099 C286.41,312.277 270.82,319.491 254.866,325.72 C253.699,334.453 252.509,343.182 251.32,351.912 C251.289,352.145 251.289,352.145 251.257,352.378 C250.251,359.761 249.755,363.409 249.175,367.697 C248.3,374.165 245.847,376.407 239.319,376.678 C239.122,376.687 238.914,376.696 238.683,376.708 C238.462,376.719 238.292,376.728 237.878,376.75 C237.437,376.773 237.229,376.784 236.983,376.796 C230.699,377.122 227.777,373.952 228.656,367.725 C229.33,362.969 229.956,358.557 231.028,351.013 C232.576,340.11 232.909,337.765 233.603,332.871 C233.969,330.292 234.27,328.185 234.923,323.613 C236.718,311.059 237.494,305.56 238.431,298.631 C239.02,294.293 241.102,291.48 245.254,289.771 C254.027,286.168 260.721,282.646 266.63,278.247 C267.543,277.568 268.277,276.944 269.896,275.508 C269.922,275.484 269.922,275.484 269.948,275.461 C270.408,275.053 270.639,274.849 270.915,274.607 C274.901,271.128 275.211,265.402 272.618,261.969 C269.847,258.299 265.919,255.598 260.195,253.096 C256.649,251.543 253.72,250.398 247.104,247.912 C247.091,247.907 247.091,247.907 247.077,247.902 C244.997,247.12 244.067,246.77 242.912,246.329 C239.389,244.99 237.588,242.44 238.276,238.96 C238.899,235.779 241.152,233.765 244.627,233.044 C245.867,232.787 247.146,232.66 248.396,232.669 z M248.376,235.669 C247.345,235.662 246.277,235.766 245.236,235.982 C242.853,236.476 241.591,237.641 241.22,239.536 C240.838,241.467 241.754,242.679 243.978,243.525 C249.811,245.751 255.71,247.856 261.398,250.348 C266.657,252.646 271.529,255.549 275.012,260.161 C277.948,264.048 278.751,271.75 272.888,276.867 C271.417,278.154 269.98,279.494 268.42,280.654 C261.59,285.738 254.073,289.392 246.394,292.546 C243.118,293.894 241.831,295.892 241.404,299.034 C239.86,310.451 238.194,321.87 236.573,333.293 C234.927,344.905 233.273,356.521 231.626,368.146 C231.011,372.504 232.429,374.028 236.828,373.8 C237.62,373.761 238.406,373.714 239.195,373.681 C244.279,373.469 245.523,372.313 246.202,367.295 C248.1,353.266 250.032,339.238 251.908,325.209 C252.067,324.013 252.453,323.426 253.734,322.942 C269.521,316.989 284.768,309.606 299.324,300.552 C307.958,295.18 316.294,289.326 322.9,281.332 C329.279,273.613 332.661,265.242 331.509,255.942 C330.641,248.918 327.123,243.502 322.551,238.665 C320.741,236.748 318.588,236.085 315.815,236.075 C293.328,235.994 270.854,235.805 248.376,235.669 z" fill="#000000"/>
      <path d="M248.417,229.669 C252.473,229.693 256.771,229.721 262.184,229.758 C264.399,229.773 266.136,229.784 270.491,229.814 C294.24,229.976 303.744,230.032 315.837,230.075 C320.42,230.092 324.034,231.498 326.912,234.543 C333.127,241.119 336.527,247.624 337.464,255.205 C338.762,265.688 335.37,275.66 327.525,285.154 C321.473,292.478 314.222,298.35 302.513,305.634 C288.393,314.647 273.126,321.637 257.608,327.853 C256.599,335.384 255.573,342.913 254.548,350.442 C254.543,350.483 254.543,350.483 254.537,350.523 C254.415,351.42 254.415,351.42 254.293,352.317 C254.272,352.472 254.251,352.627 254.229,352.783 C253.176,360.518 252.704,363.985 252.148,368.099 C251.077,376.011 247.422,379.344 239.444,379.676 C239.258,379.684 239.059,379.693 238.832,379.704 C238.624,379.714 238.467,379.723 238.037,379.745 C237.571,379.77 237.37,379.781 237.138,379.792 C228.969,380.215 224.543,375.4 225.686,367.304 C226.333,362.733 226.936,358.484 228.058,350.591 C229.66,339.311 229.96,337.195 230.633,332.45 C230.984,329.973 231.268,327.98 231.954,323.188 C233.833,310.045 234.56,304.872 235.459,298.227 C236.198,292.784 239.011,289.096 244.114,286.996 C252.935,283.373 259.309,279.956 264.839,275.84 C265.633,275.249 266.277,274.708 267.905,273.264 C267.921,273.249 267.921,273.249 267.931,273.24 C267.941,273.232 267.941,273.232 267.957,273.217 C268.445,272.785 268.669,272.586 268.943,272.347 C271.572,270.052 272.002,266.131 270.224,263.777 C267.865,260.653 264.429,258.22 258.991,255.844 C255.645,254.378 252.927,253.305 246.049,250.721 C246.041,250.717 246.041,250.717 246.036,250.716 C246.031,250.714 246.031,250.714 246.022,250.711 C243.838,249.89 242.957,249.557 241.846,249.133 C236.932,247.265 234.36,243.301 235.332,238.383 C236.191,233.998 239.366,231.071 244.018,230.107 C245.463,229.807 246.953,229.659 248.417,229.669 z M248.396,232.669 C247.146,232.66 245.867,232.787 244.627,233.044 C241.152,233.765 238.899,235.779 238.276,238.96 C237.588,242.44 239.389,244.99 242.912,246.329 C244.067,246.77 244.997,247.12 247.078,247.902 C247.091,247.907 247.091,247.907 247.105,247.912 C253.72,250.398 256.649,251.543 260.195,253.096 C265.919,255.598 269.847,258.299 272.618,261.969 C275.211,265.402 274.901,271.128 270.915,274.607 C270.639,274.849 270.408,275.053 269.948,275.461 C269.922,275.484 269.922,275.484 269.896,275.508 C268.277,276.944 267.543,277.568 266.63,278.247 C260.721,282.646 254.027,286.168 245.254,289.771 C241.102,291.48 239.02,294.293 238.431,298.631 C237.494,305.56 236.718,311.059 234.923,323.613 C234.27,328.186 233.969,330.292 233.603,332.871 C232.909,337.765 232.576,340.11 231.028,351.013 C229.956,358.557 229.33,362.969 228.656,367.725 C227.777,373.952 230.699,377.122 236.983,376.796 C237.229,376.784 237.437,376.773 237.878,376.75 C238.292,376.728 238.462,376.719 238.683,376.708 C238.914,376.696 239.122,376.687 239.319,376.678 C245.847,376.407 248.3,374.165 249.175,367.697 C249.755,363.409 250.251,359.761 251.257,352.378 C251.289,352.145 251.289,352.145 251.32,351.912 C252.509,343.182 253.699,334.453 254.866,325.72 C270.82,319.491 286.41,312.277 300.909,303.099 C311.919,296.249 319.177,290.546 325.212,283.243 C332.442,274.494 335.696,265.335 334.487,255.574 C333.609,248.474 330.354,242.553 324.732,236.604 C322.399,234.135 319.539,233.089 315.826,233.075 C303.225,233.03 293.143,232.969 270.47,232.814 C266.314,232.786 264.471,232.773 262.164,232.758 C256.902,232.722 252.56,232.694 248.396,232.669 z M248.376,235.669 C270.854,235.805 293.328,235.994 315.815,236.075 C318.588,236.085 320.741,236.748 322.551,238.665 C327.123,243.502 330.641,248.918 331.509,255.942 C332.661,265.242 329.279,273.613 322.9,281.332 C316.294,289.326 307.958,295.18 299.324,300.552 C284.768,309.606 269.521,316.989 253.734,322.942 C252.453,323.426 252.067,324.013 251.908,325.209 C250.032,339.238 248.1,353.266 246.202,367.295 C245.523,372.313 244.279,373.469 239.195,373.681 C238.406,373.714 237.62,373.761 236.828,373.8 C232.429,374.028 231.011,372.504 231.626,368.146 C233.273,356.521 234.927,344.905 236.573,333.293 C238.194,321.87 239.86,310.451 241.404,299.034 C241.831,295.892 243.118,293.894 246.394,292.546 C254.073,289.392 261.59,285.738 268.42,280.654 C269.98,279.494 271.417,278.154 272.888,276.867 C278.751,271.75 277.948,264.048 275.012,260.161 C271.529,255.549 266.657,252.646 261.398,250.348 C255.71,247.856 249.811,245.751 243.978,243.525 C241.754,242.679 240.838,241.467 241.22,239.536 C241.591,237.641 242.853,236.476 245.236,235.982 C246.277,235.766 247.345,235.662 248.376,235.669 z M248.355,238.669 C247.528,238.663 246.671,238.748 245.845,238.919 C244.608,239.176 244.292,239.458 244.163,240.118 L244.122,240.252 L244.161,240.288 C244.769,240.624 244.472,240.483 245.048,240.722 C246.194,241.159 247.116,241.507 249.188,242.285 C249.201,242.291 249.201,242.291 249.215,242.296 C255.931,244.819 258.926,245.99 262.6,247.599 C269.183,250.476 273.916,253.732 277.406,258.354 C281.823,264.203 281.321,273.489 274.863,279.125 C274.604,279.353 274.38,279.551 273.93,279.949 C273.904,279.973 273.904,279.973 273.878,279.996 C272.13,281.546 271.308,282.245 270.212,283.06 C263.843,287.801 256.732,291.544 247.535,295.321 C245.409,296.196 244.684,297.176 244.377,299.436 C243.437,306.384 242.66,311.893 240.863,324.462 C240.209,329.033 239.909,331.138 239.544,333.714 C238.85,338.608 238.517,340.953 236.968,351.856 C235.896,359.401 235.27,363.812 234.597,368.565 C234.247,371.044 234.146,370.935 236.682,370.803 C236.925,370.792 237.127,370.781 237.56,370.758 C237.98,370.736 238.156,370.727 238.386,370.715 C238.632,370.703 238.855,370.693 239.07,370.684 C242.688,370.533 242.743,370.483 243.229,366.893 C243.809,362.602 244.306,358.953 245.312,351.568 C245.343,351.335 245.343,351.335 245.375,351.102 C247.166,337.956 247.958,332.113 248.934,324.813 C249.245,322.482 250.396,320.996 252.675,320.135 C268.632,314.118 283.649,306.769 297.74,298.005 C308.247,291.468 315.049,286.122 320.587,279.421 C326.833,271.863 329.521,264.295 328.532,256.31 C327.83,250.631 325.184,245.818 320.371,240.725 C319.263,239.552 317.98,239.083 315.804,239.075 C303.195,239.03 293.109,238.969 270.429,238.814 C266.273,238.785 264.43,238.773 262.124,238.757 C256.862,238.722 252.522,238.694 248.358,238.669 z" fill="#FFFFFF"/>
    </g>
    <g>
      <path d="M266.591,270.517 L280.501,270.517 L280.501,280.715 L266.591,280.715 z" fill="#FFFFFF"/>
      <path d="M266.591,270.517 L280.501,270.517 L280.501,280.715 L266.591,280.715 z" fill-opacity="0" stroke="#FFFFFF" stroke-width="3" stroke-linecap="round" stroke-linejoin="round"/>
    </g>
    <g>
      <path d="M225.273,296.029 C229.791,296.054 232.171,299.678 231.491,304.505 C228.493,325.765 225.416,347.449 222.241,369.698 C221.551,374.546 218.79,377.093 213.867,377.518 C213.361,377.561 212.973,377.583 212.119,377.62 C211.854,377.632 211.737,377.637 211.593,377.644 C211.164,377.665 210.836,377.686 210.543,377.713 C204.522,378.287 201.412,375.079 202.155,369.054 C202.36,367.397 202.518,366.116 202.894,363.068 C203.059,361.728 203.059,361.728 203.224,360.389 C204.146,352.921 204.738,348.152 205.36,343.21 C205.366,343.163 205.366,343.163 205.372,343.117 C205.729,340.42 205.541,341.793 205.937,338.999 C205.606,339.104 205.828,339.033 205.271,339.21 C204.59,339.426 204.087,339.585 203.597,339.74 C200.927,340.584 198.984,341.195 197.071,341.789 C197.029,341.802 197.029,341.802 196.985,341.815 C196.42,341.991 196.42,341.991 195.854,342.166 C186.254,345.143 181.922,346.479 176.548,348.106 C170.903,349.818 167.691,348.187 166.242,342.718 C164.334,335.526 162.651,329.184 161.042,323.127 C159.49,317.274 161.726,313.763 167.798,312.287 C188.329,307.296 205.49,302.395 221.74,296.676 C222.983,296.245 224.165,296.021 225.277,296.029 z M225.256,299.029 C224.518,299.024 223.668,299.182 222.722,299.51 C204.83,305.807 186.715,310.776 168.507,315.202 C164.024,316.292 162.833,318.176 163.942,322.359 C165.676,328.887 167.41,335.421 169.141,341.949 C170.137,345.705 171.59,346.475 175.677,345.235 C182.489,343.173 189.293,341.06 196.097,338.95 C200.423,337.607 204.746,336.225 209.591,334.697 C209.14,337.878 208.696,340.729 208.337,343.584 C207.252,352.2 206.197,360.809 205.132,369.422 C204.623,373.552 206.156,375.118 210.258,374.726 C211.377,374.625 212.492,374.624 213.613,374.529 C217.135,374.225 218.777,372.746 219.271,369.275 C222.372,347.545 225.456,325.817 228.52,304.086 C228.974,300.864 227.72,299.043 225.256,299.029 z" fill="#000000"/>
      <path d="M225.298,293.029 L225.298,293.029 L225.311,293.03 L225.311,293.029 L225.314,293.029 L225.337,293.031 C232.196,293.262 235.083,298.626 234.461,304.923 C231.48,326.066 228.404,347.744 225.211,370.12 C224.325,376.347 220.443,379.961 214.12,380.508 C213.588,380.553 213.188,380.576 212.251,380.617 C211.979,380.629 211.872,380.634 211.739,380.641 C211.341,380.66 211.054,380.679 210.828,380.699 C202.894,381.456 198.2,376.612 199.178,368.686 C199.374,367.095 199.523,365.892 199.916,362.701 C200.02,361.864 200.02,361.864 200.082,361.361 C200.144,360.859 200.144,360.859 200.247,360.022 C200.934,354.442 201.627,348.864 202.327,343.286 C198.906,344.361 200.362,343.906 197.961,344.654 C197.935,344.662 197.935,344.662 197.919,344.667 C197.903,344.672 197.903,344.672 197.874,344.681 C197.52,344.791 197.52,344.791 197.308,344.856 C197.096,344.922 197.096,344.922 196.742,345.032 C186.678,348.153 182.584,349.413 177.418,350.977 C170.164,353.177 165.232,350.616 163.342,343.487 C161.394,336.141 159.72,329.835 158.142,323.896 C156.157,316.407 159.392,311.243 167.09,309.372 C188.069,304.272 204.982,299.393 220.757,293.841 C222.324,293.298 223.837,293.019 225.298,293.029 z M225.275,296.029 C224.165,296.021 222.983,296.245 221.74,296.676 C205.49,302.395 188.329,307.296 167.798,312.287 C161.726,313.763 159.49,317.274 161.042,323.127 C162.651,329.184 164.334,335.526 166.242,342.718 C167.691,348.187 170.903,349.818 176.548,348.106 C181.922,346.479 186.254,345.143 195.854,342.166 C196.42,341.991 196.42,341.991 196.985,341.815 C197.029,341.802 197.029,341.802 197.071,341.789 C198.984,341.195 200.927,340.584 203.597,339.74 C204.087,339.585 204.59,339.426 205.271,339.21 C205.828,339.033 205.606,339.104 205.937,338.999 C205.541,341.793 205.729,340.42 205.372,343.117 C205.366,343.163 205.366,343.163 205.36,343.21 C204.738,348.152 204.146,352.921 203.224,360.389 C203.059,361.728 203.059,361.728 202.894,363.068 C202.518,366.116 202.36,367.397 202.155,369.054 C201.412,375.079 204.522,378.287 210.543,377.713 C210.836,377.686 211.164,377.665 211.593,377.644 C211.737,377.637 211.854,377.632 212.119,377.62 C212.973,377.583 213.361,377.561 213.867,377.518 C218.79,377.093 221.551,374.546 222.241,369.698 C225.416,347.449 228.493,325.765 231.491,304.505 C231.869,301.265 230.994,297.592 227.583,296.407 C227.103,296.24 226.591,296.186 226.095,296.075 z M225.256,299.029 C227.72,299.043 228.974,300.864 228.52,304.086 C225.456,325.817 222.372,347.545 219.271,369.275 C218.777,372.746 217.135,374.225 213.613,374.529 C212.492,374.624 211.377,374.625 210.258,374.726 C206.156,375.118 204.623,373.552 205.132,369.422 C206.197,360.809 207.252,352.2 208.337,343.584 C208.696,340.729 209.14,337.878 209.591,334.697 C204.746,336.225 200.423,337.607 196.097,338.95 C189.293,341.06 182.489,343.173 175.677,345.235 C171.59,346.475 170.137,345.705 169.141,341.949 C167.41,335.421 165.676,328.887 163.942,322.359 C162.833,318.176 164.024,316.292 168.507,315.202 C186.715,310.776 204.83,305.807 222.722,299.51 C223.668,299.182 224.518,299.024 225.256,299.029 z M225.475,302.001 C225.488,302.021 225.506,302.03 225.239,302.029 L225.236,302.029 C224.86,302.026 224.341,302.124 223.718,302.34 C207.27,308.129 189.926,313.083 169.216,318.117 C166.333,318.818 166.173,319.069 166.841,321.588 C168.45,327.645 170.133,333.987 172.041,341.18 C172.593,343.26 172.316,343.12 174.807,342.364 C180.166,340.742 184.49,339.409 194.076,336.436 C194.642,336.26 194.642,336.26 195.207,336.085 C195.249,336.072 195.249,336.072 195.291,336.059 C197.193,335.468 199.127,334.86 201.788,334.019 C202.278,333.864 202.779,333.705 203.46,333.49 C204.306,333.222 204.306,333.222 205.164,332.95 C206.564,332.507 207.625,332.172 208.689,331.836 C210.795,331.172 212.872,332.933 212.561,335.119 C212.407,336.207 211.852,340.013 211.905,339.646 C211.655,341.372 211.481,342.636 211.324,343.871 C211.319,343.915 211.319,343.915 211.313,343.959 C210.692,348.896 210.1,353.661 209.179,361.124 C209.014,362.463 209.014,362.463 208.849,363.803 C208.473,366.851 208.314,368.132 208.11,369.789 C207.836,372.011 207.776,371.95 209.989,371.738 C210.392,371.702 210.797,371.676 211.3,371.652 C211.456,371.644 211.58,371.638 211.853,371.626 C212.627,371.592 212.961,371.574 213.355,371.54 C215.522,371.353 216.009,370.904 216.301,368.851 C219.475,346.605 222.552,324.924 225.549,303.667 C225.624,303.14 225.629,302.706 225.58,302.377 C225.55,302.17 225.507,302.051 225.475,302.001 z" fill="#FFFFFF"/>
    </g>
    <g>
      <path d="M245,141.913 C248.836,141.939 251.166,144.502 251.373,148.424 C251.42,149.326 251.351,150.136 251.178,151.334 C250.443,156.531 249.867,160.59 248.519,170.088 C247.549,176.92 247.097,180.103 246.549,183.973 C244.85,195.964 243.52,205.417 242.248,214.558 C241.667,218.723 239.7,221.459 235.862,223.084 C228.92,226.031 223.521,229.186 218.901,233.257 C218.533,233.58 218.218,233.879 217.561,234.518 C217.519,234.559 217.519,234.559 217.476,234.6 C217.353,234.72 217.353,234.72 217.224,234.845 C213.946,238.011 213.923,241.01 216.309,243.898 C218.391,246.419 221.187,248.319 224.595,249.612 C230.188,251.733 234.706,253.378 244.862,257.023 C244.931,257.048 244.931,257.048 245,257.073 C251.24,259.312 254.115,260.35 257.627,261.638 C261.664,263.119 264.918,264.343 272.079,267.057 C272.348,267.158 272.348,267.158 272.616,267.26 C276.572,268.76 278.663,269.549 281.034,270.437 C284.091,271.58 285.736,274.157 285.289,277.499 C284.869,280.654 282.553,282.833 279.178,283.638 C278.019,283.906 276.832,284.044 275.693,284.036 C264.767,283.974 256.031,283.917 236.355,283.781 C233.553,283.762 232.309,283.754 230.751,283.743 C230.605,283.742 230.605,283.742 230.459,283.741 C219.209,283.664 213.963,283.628 207.589,283.584 C199.712,283.529 192.701,283.481 185.997,283.433 C185.914,283.433 185.842,283.433 185.671,283.434 C185.52,283.434 185.446,283.435 185.355,283.434 C184.359,283.432 183.656,283.361 182.851,283.086 C171.612,279.189 164.571,275.62 158.499,269.871 C152.945,264.609 150.319,257.861 150.955,249.929 C151.422,244.065 153.831,238.503 157.991,232.7 C163.438,225.107 170.288,218.873 180.011,211.989 C192.203,203.204 205.63,196.407 219.423,190.544 C219.754,184.428 220.101,178.313 220.45,172.198 C220.637,168.932 220.791,166.263 221.125,160.469 C221.352,156.556 221.446,154.92 221.569,152.78 C221.59,152.447 221.617,152.132 221.66,151.656 C221.669,151.566 221.669,151.566 221.677,151.478 C221.693,151.304 221.693,151.304 221.71,151.119 C222.182,146.175 224.604,143.472 229.346,143.018 C233.874,142.589 238.544,142.26 244.417,141.93 C244.622,141.918 244.81,141.911 245,141.913 z M244.979,144.913 C244.856,144.912 244.729,144.917 244.599,144.925 C239.616,145.205 234.626,145.531 229.629,146.005 C226.343,146.319 225.032,147.886 224.696,151.404 C224.649,151.926 224.596,152.451 224.563,152.97 C223.837,165.578 223.097,178.192 222.414,190.8 C222.341,192.096 221.984,192.739 220.692,193.264 C207.124,198.828 194.067,205.718 181.743,214.438 C173.786,220.073 166.283,226.288 160.429,234.448 C156.971,239.271 154.4,244.458 153.945,250.168 C153.365,257.408 155.825,263.204 160.563,267.693 C167.12,273.902 175.348,277.309 183.834,280.251 C184.49,280.476 185.282,280.428 186.018,280.433 C200.937,280.539 215.853,280.641 230.772,280.743 C245.753,280.846 260.733,280.951 275.71,281.036 C276.625,281.042 277.579,280.929 278.501,280.715 C280.715,280.187 282.072,278.932 282.316,277.103 C282.584,275.098 281.677,273.88 279.983,273.247 C272.184,270.327 264.418,267.325 256.594,264.455 C245.584,260.416 234.486,256.573 223.531,252.416 C219.866,251.027 216.545,248.895 213.996,245.809 C211.169,242.386 210.16,237.497 215.14,232.687 C215.726,232.119 216.307,231.542 216.92,231.004 C222.303,226.261 228.39,222.996 234.69,220.323 C237.628,219.078 238.854,217.171 239.277,214.143 C242.208,193.068 245.226,171.988 248.208,150.914 C248.32,150.134 248.417,149.343 248.377,148.583 C248.251,146.197 247.159,144.928 244.979,144.913 z" fill="#000000"/>
      <path d="M245.02,138.913 C250.44,138.95 254.077,142.743 254.368,148.266 C254.426,149.347 254.358,150.309 254.149,151.755 C253.443,156.745 252.901,160.562 251.489,170.51 C250.473,177.668 250.045,180.68 249.519,184.394 C247.765,196.772 246.454,206.095 245.219,214.973 C244.487,220.216 241.813,223.822 237.034,225.846 C230.188,228.751 225.133,231.764 220.881,235.511 C220.573,235.781 220.302,236.036 219.652,236.669 C219.626,236.694 219.626,236.694 219.61,236.709 C219.594,236.725 219.594,236.725 219.568,236.751 C219.492,236.825 219.492,236.825 219.444,236.871 C219.394,236.919 219.394,236.919 219.308,237.003 C217.251,238.99 217.156,240.213 218.622,241.988 C220.339,244.066 222.688,245.68 225.659,246.807 C231.009,248.836 235.254,250.387 245.875,254.199 C245.921,254.216 245.968,254.232 246.014,254.249 C252.559,256.598 255.281,257.582 258.66,258.822 C262.547,260.248 265.629,261.404 273.143,264.251 C273.321,264.319 273.5,264.387 273.679,264.455 C277.819,266.024 279.814,266.777 282.085,267.627 C286.486,269.273 288.891,273.201 288.263,277.896 C287.677,282.293 284.467,285.461 279.855,286.56 C278.464,286.883 277.044,287.045 275.675,287.036 C265.186,286.977 256.949,286.923 236.334,286.781 C233.4,286.761 232.226,286.753 230.731,286.743 C230.633,286.742 230.536,286.741 230.439,286.741 C218.651,286.66 213.687,286.626 207.569,286.584 C199.532,286.528 192.555,286.48 185.977,286.433 C185.91,286.433 185.851,286.433 185.685,286.434 C185.519,286.434 185.443,286.435 185.346,286.434 C183.965,286.43 182.985,286.302 181.869,285.92 C169.741,281.715 162.63,277.914 156.436,272.049 C150.179,266.12 147.261,258.464 147.964,249.691 C148.467,243.389 150.973,237.341 155.554,230.951 C161.043,223.299 167.949,216.854 178.257,209.556 C190.082,200.969 203.172,194.368 216.528,188.535 L216.531,188.464 C216.83,182.984 217.143,177.505 217.455,172.026 C217.635,168.879 217.781,166.338 218.13,160.296 C218.364,156.25 218.455,154.683 218.575,152.59 C218.598,152.238 218.625,151.907 218.673,151.38 C218.678,151.324 218.678,151.324 218.681,151.29 C218.685,151.256 218.685,151.256 218.69,151.201 C218.699,151.095 218.699,151.095 218.705,151.032 C218.712,150.964 218.712,150.964 218.723,150.834 C219.334,144.444 222.892,140.623 229.063,140.031 C233.502,139.611 238.146,139.278 244.234,138.936 C244.512,138.919 244.765,138.911 245.02,138.913 z M245,141.913 C244.81,141.911 244.622,141.918 244.417,141.93 C238.544,142.26 233.874,142.589 229.346,143.018 C224.604,143.472 222.182,146.175 221.71,151.119 C221.693,151.304 221.693,151.304 221.677,151.478 C221.669,151.566 221.669,151.566 221.66,151.656 C221.617,152.132 221.59,152.447 221.569,152.78 C221.446,154.92 221.352,156.556 221.125,160.469 C220.791,166.263 220.637,168.932 220.45,172.198 C220.101,178.313 219.754,184.428 219.423,190.544 C205.63,196.407 192.203,203.204 180.011,211.989 C170.288,218.873 163.438,225.107 157.991,232.7 C153.831,238.503 151.422,244.065 150.955,249.929 C150.319,257.861 152.945,264.609 158.499,269.871 C164.571,275.62 171.612,279.189 182.851,283.086 C183.656,283.361 184.359,283.432 185.355,283.434 C185.446,283.435 185.52,283.434 185.671,283.434 C185.842,283.433 185.914,283.433 185.997,283.433 C192.701,283.481 199.712,283.529 207.589,283.584 C213.963,283.628 219.209,283.664 230.459,283.741 C230.605,283.742 230.605,283.742 230.751,283.743 C232.309,283.754 233.553,283.762 236.355,283.781 C256.031,283.917 264.767,283.974 275.692,284.036 C276.832,284.044 278.019,283.906 279.178,283.638 C282.553,282.833 284.869,280.654 285.289,277.499 C285.736,274.157 284.091,271.58 281.034,270.437 C278.663,269.549 276.572,268.76 272.616,267.26 C272.348,267.158 272.348,267.158 272.079,267.057 C264.918,264.343 261.664,263.119 257.627,261.638 C254.115,260.35 251.24,259.312 245,257.073 C244.931,257.048 244.931,257.048 244.862,257.023 C234.706,253.378 230.188,251.733 224.595,249.612 C221.187,248.319 218.391,246.419 216.309,243.898 C213.923,241.01 213.946,238.011 217.224,234.845 C217.353,234.72 217.353,234.72 217.476,234.6 C217.519,234.559 217.519,234.559 217.561,234.518 C218.218,233.879 218.533,233.58 218.901,233.257 C223.521,229.186 228.92,226.031 235.862,223.084 C239.7,221.459 241.667,218.723 242.248,214.558 C243.52,205.417 244.85,195.964 246.549,183.973 C247.097,180.103 247.549,176.92 248.519,170.088 C249.867,160.59 250.443,156.531 251.178,151.334 C251.351,150.136 251.42,149.326 251.373,148.424 C251.166,144.502 248.836,141.939 245,141.913 z M244.979,144.913 C247.159,144.928 248.251,146.197 248.377,148.583 C248.417,149.343 248.32,150.134 248.208,150.914 C245.226,171.988 242.208,193.068 239.277,214.143 C238.854,217.171 237.628,219.078 234.69,220.323 C228.39,222.996 222.303,226.261 216.92,231.004 C216.307,231.542 215.726,232.119 215.14,232.687 C210.16,237.497 211.169,242.386 213.996,245.809 C216.545,248.895 219.866,251.027 223.531,252.416 C234.486,256.573 245.584,260.416 256.594,264.455 C264.418,267.325 272.184,270.327 279.983,273.247 C281.677,273.88 282.584,275.098 282.316,277.103 C282.072,278.932 280.715,280.187 278.501,280.715 C277.579,280.929 276.625,281.042 275.71,281.036 C260.733,280.951 245.753,280.846 230.772,280.743 C215.853,280.641 200.937,280.539 186.018,280.433 C185.282,280.428 184.49,280.476 183.834,280.251 C175.348,277.309 167.12,273.902 160.563,267.693 C155.825,263.204 153.365,257.408 153.945,250.168 C154.4,244.458 156.971,239.271 160.429,234.448 C166.283,226.288 173.786,220.073 181.743,214.438 C194.067,205.718 207.124,198.828 220.692,193.264 C221.984,192.739 222.341,192.096 222.414,190.8 C223.097,178.192 223.837,165.578 224.563,152.97 C224.596,152.451 224.649,151.926 224.696,151.404 C225.032,147.886 226.343,146.319 229.629,146.005 C234.626,145.531 239.616,145.205 244.599,144.925 C244.729,144.917 244.856,144.912 244.979,144.913 z M244.959,147.913 C244.92,147.912 244.862,147.914 244.767,147.92 C238.95,148.247 234.352,148.571 229.915,148.991 C228.184,149.157 227.894,149.481 227.684,151.674 C227.668,151.855 227.668,151.855 227.651,152.032 C227.643,152.119 227.643,152.119 227.635,152.205 C227.596,152.629 227.574,152.897 227.558,153.143 C227.436,155.266 227.342,156.902 227.115,160.815 C226.781,166.608 226.627,169.276 226.44,172.541 C226.039,179.543 225.712,185.375 225.409,190.967 C225.27,193.447 224.172,195.088 221.83,196.04 C207.864,201.767 195.143,208.631 183.477,216.887 C174.252,223.418 167.862,229.233 162.867,236.196 C159.292,241.184 157.305,245.77 156.936,250.407 C156.446,256.52 158.382,261.494 162.625,265.515 C167.934,270.541 174.316,273.776 184.806,277.413 C184.815,277.416 184.988,277.433 185.371,277.434 C185.444,277.435 185.5,277.434 185.644,277.434 C185.837,277.433 185.924,277.433 186.039,277.434 C192.743,277.481 199.754,277.53 207.631,277.584 C214.004,277.628 219.25,277.664 230.5,277.741 C230.646,277.742 230.646,277.742 230.792,277.743 C232.35,277.754 233.594,277.762 236.396,277.782 C256.07,277.917 264.805,277.974 275.73,278.036 C276.393,278.041 277.112,277.957 277.806,277.797 C278.908,277.534 279.278,277.186 279.342,276.706 C279.409,276.207 279.432,276.244 278.931,276.056 C276.55,275.165 274.453,274.373 270.49,272.871 C270.221,272.769 270.221,272.769 269.953,272.667 C262.812,269.961 259.571,268.743 255.56,267.271 C252.066,265.989 249.2,264.955 242.973,262.72 C242.904,262.695 242.904,262.695 242.835,262.67 C232.645,259.013 228.105,257.36 222.468,255.222 C218.128,253.576 214.463,251.085 211.683,247.719 C207.378,242.508 207.427,235.966 213.052,230.532 C213.172,230.416 213.172,230.416 213.293,230.298 C213.335,230.258 213.335,230.258 213.377,230.217 C214.105,229.509 214.472,229.161 214.937,228.753 C220.096,224.208 226.029,220.739 233.52,217.56 C235.348,216.786 236.007,215.869 236.306,213.73 C237.578,204.584 238.908,195.127 240.608,183.131 C241.157,179.261 241.608,176.077 242.578,169.245 C243.927,159.748 244.502,155.689 245.239,150.485 C245.361,149.641 245.402,149.148 245.381,148.741 C245.337,148.228 245.374,148.493 245.263,147.948 L245.259,147.94 L245.199,147.927 z" fill="#FFFFFF"/>
    </g>
    <g>
      <path d="M277.351,139.426 L277.526,139.426 C283.315,139.466 285.734,142.977 284.494,148.832 C283.6,153.047 282.689,157.383 281.509,163.021 C281.171,164.635 280.919,165.838 280.284,168.874 C279.981,170.325 279.677,171.776 279.374,173.226 C284.352,172.512 282.038,172.844 286.317,172.23 C286.916,172.144 286.916,172.144 287.516,172.058 C289.797,171.731 292.158,171.393 295.153,170.964 C296.97,170.704 298.788,170.444 300.605,170.184 C300.73,168.986 300.85,167.788 300.972,166.59 C301.055,165.767 301.091,165.408 301.137,164.954 C301.41,162.265 301.611,160.375 301.831,158.48 C302.436,153.308 305.322,149.853 310.034,149.282 C312.269,149.007 314.819,149.668 316.496,151.054 C326.624,159.458 336.73,167.972 350.934,180.034 C355.27,183.714 354.475,190.52 349.741,194.302 C345.264,197.887 341.506,200.862 333.668,207.047 C333.121,207.478 333.121,207.478 332.573,207.91 C329.713,210.167 327.996,211.522 326.172,212.966 C324.606,214.205 323.334,215.215 320.549,217.426 C320.486,217.475 320.486,217.475 320.424,217.524 C315.317,221.579 312.972,223.436 310.088,225.706 C305.137,229.601 298.696,229.057 296.544,223.667 C295.922,222.099 295.78,220.315 295.93,218.231 C296.177,214.772 296.532,211.322 296.868,207.872 C296.335,207.932 296.741,207.886 295.648,208.009 C291.426,208.484 289.211,208.75 286.719,209.099 C276.852,210.492 267.251,212.625 257.871,215.537 C251.856,217.413 247.928,213.806 248.816,207.523 C251.636,187.57 254.46,167.665 257.288,147.808 C258.058,142.411 260.789,139.845 266.045,139.704 C266.485,139.692 266.944,139.678 267.492,139.661 C267.973,139.646 267.973,139.646 268.453,139.631 C271.392,139.531 274.331,139.459 277.271,139.428 z M277.312,142.428 C273.593,142.452 269.862,142.594 266.133,142.703 C262.371,142.804 260.826,144.245 260.258,148.231 C257.423,168.136 254.599,188.041 251.787,207.943 C251.201,212.087 253.112,213.878 256.977,212.673 C266.697,209.656 276.472,207.516 286.299,206.128 C290.891,205.485 295.483,205.027 300.211,204.469 C299.751,209.345 299.259,213.904 298.922,218.452 C298.821,219.845 298.859,221.368 299.333,222.56 C300.633,225.816 304.706,226.123 308.233,223.348 C313.603,219.122 318.95,214.858 324.31,210.614 C332.166,204.398 340.043,198.223 347.866,191.96 C351.231,189.272 351.767,184.675 348.993,182.321 C337.564,172.617 326.117,162.936 314.58,153.362 C313.553,152.513 311.822,152.085 310.401,152.26 C307.119,152.657 305.257,155.012 304.811,158.829 C304.334,162.936 303.952,167.047 303.52,171.154 C303.453,171.773 303.347,172.394 303.285,172.831 C293.939,174.169 284.878,175.465 275.624,176.796 C275.677,176.417 275.698,176.162 275.746,175.916 C277.681,166.682 279.602,157.444 281.559,148.21 C282.418,144.153 281.314,142.452 277.506,142.426 C277.441,142.426 277.377,142.425 277.312,142.428 z" fill="#000000"/>
      <path d="M277.354,136.426 L277.547,136.426 C285.242,136.479 289.063,141.737 287.429,149.454 C286.563,153.54 285.665,157.807 284.445,163.635 C284.12,165.186 283.885,166.311 283.221,169.489 L283.187,169.648 C284.089,169.519 284.99,169.39 285.892,169.26 C286.266,169.207 286.266,169.207 286.491,169.175 C286.715,169.142 286.715,169.142 287.09,169.089 C289.307,168.771 291.637,168.437 294.727,167.995 C295.771,167.845 296.815,167.696 297.86,167.546 L297.928,166.871 C297.93,166.848 297.93,166.848 297.933,166.825 C297.96,166.557 297.96,166.557 297.987,166.289 C298.078,165.388 298.109,165.075 298.152,164.651 C298.438,161.84 298.637,159.979 298.852,158.132 C299.62,151.561 303.581,147.041 309.667,146.305 C312.735,145.927 316.102,146.835 318.411,148.745 C328.205,156.871 338.104,165.203 352.875,177.746 C358.674,182.667 357.823,191.685 351.616,196.644 C347.312,200.09 343.745,202.917 335.526,209.402 C335.184,209.672 335.184,209.672 334.979,209.833 C334.774,209.995 334.774,209.995 334.432,210.265 C331.442,212.624 329.786,213.931 328.034,215.318 C326.533,216.507 325.331,217.46 322.414,219.775 C322.372,219.808 322.331,219.841 322.289,219.874 C316.935,224.125 314.716,225.881 311.943,228.064 C305.397,233.214 296.675,232.086 293.756,224.774 C292.976,222.809 292.748,220.64 292.938,218.017 C293.093,215.765 293.308,213.518 293.522,211.271 C291.391,211.506 289.264,211.781 287.138,212.07 C277.383,213.447 267.942,215.552 258.764,218.401 C250.644,220.933 244.649,215.567 245.846,207.103 C248.667,187.137 251.491,167.231 254.318,147.384 C255.293,140.547 259.236,136.885 265.957,136.706 C266.384,136.693 266.838,136.679 267.399,136.662 C267.698,136.653 267.698,136.653 267.878,136.647 C268.059,136.642 268.059,136.642 268.351,136.633 C271.444,136.527 274.386,136.458 277.196,136.429 L277.276,136.427 z M277.351,139.426 L277.271,139.428 C274.331,139.459 271.392,139.531 268.453,139.631 C267.973,139.646 267.973,139.646 267.492,139.661 C266.944,139.678 266.485,139.692 266.045,139.704 C260.789,139.845 258.058,142.411 257.288,147.808 C254.46,167.665 251.636,187.57 248.816,207.523 C247.928,213.806 251.856,217.413 257.871,215.537 C267.251,212.625 276.852,210.492 286.719,209.099 C289.211,208.75 291.426,208.484 295.648,208.009 C296.741,207.886 296.335,207.932 296.868,207.872 C296.532,211.322 296.177,214.772 295.93,218.231 C295.78,220.315 295.922,222.099 296.544,223.667 C298.696,229.057 305.137,229.601 310.088,225.706 C312.972,223.436 315.317,221.579 320.424,217.524 C320.486,217.475 320.486,217.475 320.549,217.426 C323.334,215.215 324.606,214.205 326.172,212.966 C327.996,211.522 329.713,210.167 332.573,207.91 C333.121,207.478 333.121,207.478 333.668,207.047 C341.506,200.862 345.264,197.887 349.741,194.302 C354.475,190.52 355.27,183.714 350.934,180.034 C336.73,167.972 326.624,159.458 316.496,151.054 C314.819,149.668 312.269,149.007 310.034,149.282 C305.322,149.853 302.436,153.308 301.831,158.48 C301.611,160.375 301.41,162.265 301.137,164.954 C301.091,165.408 301.055,165.767 300.972,166.59 C300.85,167.788 300.73,168.986 300.605,170.184 C298.788,170.444 296.97,170.704 295.153,170.964 C292.158,171.393 289.797,171.731 287.516,172.058 C286.916,172.144 286.916,172.144 286.317,172.23 C282.038,172.844 284.352,172.512 279.374,173.226 C279.677,171.776 279.981,170.325 280.284,168.874 C280.919,165.838 281.171,164.635 281.509,163.021 C282.689,157.383 283.6,153.047 284.494,148.832 C285.734,142.977 283.315,139.466 277.526,139.426 z M277.506,142.426 C281.314,142.452 282.418,144.153 281.559,148.21 C279.602,157.444 277.681,166.682 275.746,175.916 C275.698,176.162 275.677,176.417 275.624,176.796 C284.878,175.465 293.939,174.169 303.285,172.831 C303.347,172.394 303.453,171.773 303.52,171.154 C303.952,167.047 304.334,162.936 304.811,158.829 C305.257,155.012 307.119,152.657 310.401,152.26 C311.822,152.085 313.553,152.513 314.58,153.362 C326.117,162.936 337.564,172.617 348.993,182.321 C351.767,184.675 351.231,189.272 347.866,191.96 C340.043,198.223 332.166,204.398 324.31,210.614 C318.95,214.858 313.603,219.122 308.233,223.348 C304.706,226.123 300.633,225.816 299.333,222.56 C298.859,221.368 298.821,219.845 298.922,218.452 C299.259,213.904 299.751,209.345 300.211,204.469 C295.483,205.027 290.891,205.485 286.299,206.128 C276.472,207.516 266.697,209.656 256.977,212.673 C253.112,213.878 251.201,212.087 251.787,207.943 C254.599,188.041 257.423,168.136 260.258,148.231 C260.826,144.245 262.371,142.804 266.133,142.703 C269.862,142.594 273.593,142.452 277.312,142.428 C277.377,142.425 277.441,142.426 277.506,142.426 z M277.427,145.425 L277.332,145.428 C274.934,145.443 273.005,145.492 268.641,145.628 C268.159,145.643 268.159,145.643 267.678,145.658 C267.126,145.675 266.664,145.689 266.213,145.702 C263.943,145.763 263.593,146.091 263.228,148.654 C260.4,168.509 257.577,188.412 254.757,208.363 C254.469,210.401 254.397,210.335 256.088,209.808 C265.783,206.798 275.699,204.596 285.883,203.158 C288.449,202.798 290.703,202.527 294.978,202.047 C298.007,201.706 298.54,201.645 299.859,201.49 C301.757,201.266 303.377,202.849 303.197,204.751 C303.125,205.519 303.049,206.314 302.958,207.247 C302.142,215.616 302.133,215.712 301.914,218.668 C301.823,219.924 301.901,220.899 302.119,221.447 C302.554,222.537 304.232,222.679 306.377,220.991 C309.253,218.728 311.593,216.874 316.694,212.825 C316.756,212.776 316.756,212.776 316.818,212.726 C319.605,210.514 320.879,209.503 322.448,208.261 C324.276,206.815 325.994,205.458 328.857,203.199 C329.404,202.768 329.404,202.768 329.951,202.336 C337.779,196.16 341.528,193.191 345.994,189.616 C347.986,188.025 348.265,185.638 347.051,184.608 C332.862,172.559 322.772,164.058 312.668,155.674 C312.322,155.388 311.427,155.156 310.762,155.238 C309.033,155.447 308.096,156.57 307.791,159.175 C307.575,161.033 307.377,162.898 307.106,165.56 C307.06,166.013 307.024,166.371 306.941,167.193 C306.726,169.323 306.629,170.278 306.503,171.476 C306.501,171.492 306.501,171.492 306.499,171.508 C306.467,171.802 306.427,172.1 306.376,172.447 C306.358,172.571 306.272,173.134 306.256,173.251 C306.068,174.572 305.031,175.611 303.71,175.8 C302.27,176.007 297.093,176.748 296.003,176.904 C293.008,177.333 290.648,177.671 288.367,177.998 C287.768,178.084 287.768,178.084 287.169,178.169 C283.141,178.747 279.532,179.265 276.051,179.765 C274.074,180.049 272.377,178.358 272.653,176.38 C272.67,176.26 272.734,175.744 272.715,175.895 C272.742,175.684 272.766,175.521 272.809,175.301 C273.257,173.164 273.63,171.383 274.411,167.646 C275.046,164.609 275.298,163.407 275.636,161.791 C276.817,156.15 277.73,151.809 278.624,147.589 C279.119,145.253 279.246,145.438 277.485,145.426 C277.434,145.426 277.421,145.426 277.427,145.425 z" fill="#FFFFFF"/>
    </g>
  </g>
  <defs/>
</svg>
