<?xml version="1.0" encoding="UTF-8"?>
<!DOCTYPE svg PUBLIC "-//W3C//DTD SVG 1.1//EN" "http://www.w3.org/Graphics/SVG/1.1/DTD/svg11.dtd">
<svg version="1.1" xmlns="http://www.w3.org/2000/svg" xmlns:xlink="http://www.w3.org/1999/xlink" x="0px" y="0px" width="500" height="600" viewBox="0, 0, 500, 600">
  <g id="Layer 1">
    <path d="M125.011,54.627 C116.142,54.655 107.272,54.641 98.403,54.649 L98.403,54.649 C97.996,54.649 97.581,54.69 97.183,54.775 L97.183,54.775 C96.271,54.967 95.839,55.41 95.798,56.127 L95.798,56.127 C95.756,56.858 96.185,57.314 97.109,57.628 L97.109,57.628 C99.533,58.452 101.976,59.233 104.358,60.159 L104.358,60.159 C106.559,61.014 108.642,62.098 110.273,63.831 L110.273,63.831 C111.648,65.292 112.395,68.198 110.371,70.148 L110.371,70.148 C109.863,70.637 109.371,71.147 108.821,71.589 L108.821,71.589 C106.413,73.527 103.654,74.927 100.803,76.138 L100.803,76.138 C99.587,76.655 99.191,77.413 99.199,78.601 L99.199,78.601 C99.229,82.919 99.211,87.237 99.211,91.554 L99.211,91.554 C99.211,95.945 99.209,100.337 99.21,104.733 L99.21,104.733 C99.211,106.381 99.855,106.952 101.577,106.855 L101.577,106.855 C101.886,106.839 102.194,106.818 102.503,106.805 L102.503,106.805 C104.495,106.711 104.921,106.272 104.908,104.375 L104.908,104.375 C104.872,99.069 104.849,93.765 104.804,88.462 L104.804,88.462 C104.8,88.009 104.919,87.787 105.397,87.6 L105.397,87.6 C111.287,85.312 116.885,82.483 122.117,79.025 L122.117,79.025 C125.22,76.973 128.178,74.74 130.335,71.705 L130.335,71.705 C132.418,68.771 133.283,65.602 132.309,62.092 L132.309,62.092 C131.574,59.44 129.884,57.404 127.812,55.588 L127.812,55.588 C126.995,54.873 126.115,54.627 125.029,54.627 L125.029,54.627 C125.023,54.627 125.017,54.627 125.011,54.627" fill="url(#Gradient_1)"/>
    <path d="M94.191,78.815 C87.489,81.239 80.626,83.163 73.696,84.882 L73.696,84.882 C71.99,85.305 71.625,86.02 72.296,87.597 L72.296,87.597 C73.345,90.059 74.394,92.522 75.442,94.984 L75.442,94.984 C76.044,96.4 76.66,96.687 78.202,96.208 L78.202,96.208 C80.772,95.411 83.336,94.596 85.9,93.781 L85.9,93.781 C87.531,93.263 89.157,92.73 90.982,92.14 L90.982,92.14 C90.982,93.342 90.967,94.421 90.985,95.5 L90.985,95.5 C91.039,98.757 91.104,102.012 91.167,105.268 L91.167,105.268 C91.197,106.83 91.889,107.417 93.484,107.259 L93.484,107.259 C93.919,107.217 94.359,107.214 94.795,107.175 L94.795,107.175 C96.167,107.051 96.731,106.488 96.732,105.176 L96.732,105.176 C96.739,96.96 96.739,88.744 96.732,80.528 L96.732,80.528 C96.731,79.31 96.134,78.625 95.163,78.626 L95.163,78.626 C94.871,78.626 94.545,78.688 94.191,78.815" fill="url(#Gradient_2)"/>
    <path d="M94.086,19.807 C92.137,19.926 90.188,20.062 88.245,20.254 L88.245,20.254 C86.967,20.381 86.538,20.977 86.603,22.307 L86.603,22.307 C86.613,22.504 86.621,22.702 86.638,22.898 L86.638,22.898 C87.057,27.663 87.47,32.429 87.906,37.193 L87.906,37.193 C87.95,37.683 87.845,37.927 87.365,38.129 L87.365,38.129 C82.328,40.266 77.566,42.902 73.196,46.228 L73.196,46.228 C70.373,48.377 67.764,50.744 65.912,53.842 L65.912,53.842 C64.819,55.672 64.096,57.638 64.235,59.796 L64.235,59.796 C64.412,62.532 65.705,64.716 67.824,66.399 L67.824,66.399 C70.756,68.727 74.191,69.993 77.701,71.082 L77.701,71.082 C77.972,71.165 78.281,71.145 78.572,71.145 L78.572,71.145 C84.459,71.147 90.345,71.147 96.232,71.147 L96.232,71.147 C102.143,71.147 108.054,71.148 113.963,71.141 L113.963,71.141 C114.324,71.141 114.694,71.096 115.045,71.012 L115.045,71.012 C115.889,70.808 116.353,70.33 116.347,69.638 L116.347,69.638 C116.341,68.88 115.915,68.423 115.212,68.188 L115.212,68.188 C111.974,67.105 108.745,65.991 105.5,64.927 L105.5,64.927 C100.934,63.43 96.344,62.007 91.793,60.465 L91.793,60.465 C90.27,59.95 88.842,59.153 87.664,57.994 L87.664,57.994 C86.358,56.709 85.687,54.864 87.381,53.035 L87.381,53.035 C87.581,52.819 87.778,52.599 87.989,52.394 L87.989,52.394 C89.846,50.589 92.063,49.34 94.397,48.314 L94.397,48.314 C95.485,47.836 95.862,47.112 95.859,45.967 L95.859,45.967 C95.836,37.999 95.847,30.029 95.844,22.061 L95.844,22.061 C95.844,21.766 95.838,21.466 95.78,21.179 L95.78,21.179 C95.597,20.278 95.095,19.802 94.235,19.802 L94.235,19.802 C94.186,19.802 94.137,19.804 94.086,19.807" fill="url(#Gradient_3)"/>
    <path d="M104.591,19.352 C103.127,19.371 101.664,19.434 100.2,19.485 L100.2,19.485 C98.722,19.533 98.194,20.081 98.193,21.588 L98.193,21.588 C98.189,29.115 98.189,36.64 98.193,44.165 L98.193,44.165 C98.194,45.732 99.047,46.404 100.504,45.939 L100.504,45.939 C104.166,44.774 107.9,43.94 111.697,43.391 L111.697,43.391 C113.471,43.136 115.256,42.951 117.088,42.728 L117.088,42.728 C117.179,44.571 117.24,46.294 117.362,48.013 L117.362,48.013 C117.4,48.54 117.501,49.115 117.754,49.564 L117.754,49.564 C118.448,50.791 120.071,50.896 121.306,49.838 L121.306,49.838 C123.187,48.228 125.056,46.604 126.932,44.987 L126.932,44.987 C129.681,42.618 132.441,40.265 135.175,37.88 L135.175,37.88 C136.351,36.855 136.305,35.118 135.08,34.236 L135.08,34.236 C130.032,30.6 124.978,26.972 119.894,23.386 L119.894,23.386 C119.442,23.068 118.736,22.911 118.185,22.98 L118.185,22.98 C116.913,23.139 116.311,24.033 116.349,25.476 L116.349,25.476 C116.391,27.029 116.47,28.583 116.529,30.135 L116.529,30.135 C116.538,30.369 116.53,30.604 116.53,30.769 L116.53,30.769 C112.921,31.299 109.422,31.812 105.848,32.338 L105.848,32.338 C105.848,32.195 105.842,32.099 105.847,32.006 L105.847,32.006 C106.093,28.513 106.334,25.018 106.589,21.525 L106.589,21.525 C106.701,19.99 106.17,19.351 104.667,19.351 L104.667,19.351 C104.642,19.351 104.616,19.351 104.591,19.352" fill="url(#Gradient_4)"/>
    <path d="M149.395,77.211 C151.846,79.003 155.394,80.292 159.199,80.292 C163.392,80.292 167.261,77.784 167.261,73.127 C167.261,69.974 165.39,67.824 161.134,65.316 C156.103,62.306 152.298,58.437 152.298,52.705 C152.298,43.462 159.522,37.657 168.294,37.657 C173.131,37.657 176.292,39.018 177.969,40.094 L175.518,47.044 C174.099,46.185 171.197,44.823 167.649,44.895 C162.876,44.895 160.167,47.976 160.167,51.201 C160.167,54.497 162.618,56.431 166.681,59.012 C171.97,62.093 175.131,65.962 175.131,71.838 C175.131,81.512 168.1,87.459 158.361,87.459 C153.072,87.459 148.751,85.811 146.816,84.091 z" fill="#000000"/>
    <path d="M149.395,77.211 C151.846,79.003 155.394,80.292 159.199,80.292 C163.392,80.292 167.261,77.784 167.261,73.127 C167.261,69.974 165.39,67.824 161.134,65.316 C156.103,62.306 152.298,58.437 152.298,52.705 C152.298,43.462 159.522,37.657 168.294,37.657 C173.131,37.657 176.292,39.018 177.969,40.094 L175.518,47.044 C174.099,46.185 171.197,44.823 167.649,44.895 C162.876,44.895 160.167,47.976 160.167,51.201 C160.167,54.497 162.618,56.431 166.681,59.012 C171.97,62.093 175.131,65.962 175.131,71.838 C175.131,81.512 168.1,87.459 158.361,87.459 C153.072,87.459 148.751,85.811 146.816,84.091 L149.395,77.211 z" fill-opacity="0" stroke="#010101" stroke-width="1"/>
    <path d="M185.125,86.742 L183.254,38.446 L190.8,38.446 L191.252,63.31 C191.316,69.33 191.187,73.772 191.058,77.57 L191.187,77.57 C192.541,73.557 193.832,69.401 196.024,63.525 L205.764,38.446 L213.955,38.446 L214.278,62.809 C214.342,68.828 214.278,73.342 214.085,77.355 L214.214,77.355 C215.633,72.769 217.052,68.183 218.794,63.31 L228.146,38.446 L236.08,38.446 L216.472,86.742 L208.345,86.742 L207.7,63.454 C207.571,57.865 207.636,53.924 207.958,48.406 L207.765,48.406 C206.281,53.35 204.927,57.865 202.928,63.095 L193.382,86.741 L185.125,86.741 z" fill="#000000"/>
    <path d="M185.125,86.742 L183.254,38.446 L190.8,38.446 L191.252,63.31 C191.316,69.33 191.187,73.772 191.058,77.57 L191.187,77.57 C192.541,73.557 193.832,69.401 196.024,63.525 L205.764,38.446 L213.955,38.446 L214.278,62.809 C214.342,68.828 214.278,73.342 214.085,77.355 L214.214,77.355 C215.633,72.769 217.052,68.183 218.794,63.31 L228.146,38.446 L236.08,38.446 L216.472,86.742 L208.345,86.742 L207.7,63.454 C207.571,57.865 207.636,53.924 207.958,48.406 L207.765,48.406 C206.281,53.35 204.927,57.865 202.928,63.095 L193.382,86.741 L185.125,86.741 L185.125,86.742 z" fill-opacity="0" stroke="#010101" stroke-width="1"/>
    <path d="M248.071,38.446 L239.815,86.742 L232.269,86.742 L240.525,38.446 z" fill="#000000"/>
    <path d="M248.071,38.446 L239.815,86.742 L232.269,86.742 L240.525,38.446 L248.071,38.446 z" fill-opacity="0" stroke="#010101" stroke-width="1"/>
    <path d="M256.196,38.446 L280.19,38.446 L278.9,45.541 L262.517,45.541 L260.195,59.154 L275.417,59.154 L274.191,66.177 L258.969,66.177 L255.487,86.741 L247.94,86.741 z" fill="#000000"/>
    <path d="M256.196,38.446 L280.19,38.446 L278.9,45.541 L262.517,45.541 L260.195,59.154 L275.417,59.154 L274.191,66.177 L258.969,66.177 L255.487,86.741 L247.94,86.741 L256.196,38.446 z" fill-opacity="0" stroke="#010101" stroke-width="1"/>
    <path d="M293.344,45.755 L281.283,45.755 L282.573,38.445 L314.242,38.445 L312.952,45.755 L300.826,45.755 L293.86,86.741 L286.314,86.741 z" fill="#000000"/>
    <path d="M293.344,45.755 L281.283,45.755 L282.573,38.445 L314.242,38.445 L312.952,45.755 L300.826,45.755 L293.86,86.741 L286.314,86.741 L293.344,45.755 z" fill-opacity="0" stroke="#010101" stroke-width="1"/>
    <path d="M322.269,45.002 C316.658,50.376 313.562,58.474 313.562,67.072 L313.562,67.072 C313.562,72.59 315.11,77.892 318.528,81.547 L318.528,81.547 C321.946,85.345 326.847,87.208 332.845,87.208 L332.845,87.208 C338.198,87.208 343.164,85.704 346.131,84.557 L346.131,84.557 L350.258,60.194 L335.296,60.194 L334.071,66.93 L341.746,66.93 L339.682,79.04 C338.393,79.614 336.458,80.115 334.136,80.115 L334.136,80.115 C326.01,80.115 321.753,75.099 321.753,66.429 L321.753,66.429 C321.753,59.836 324.204,53.601 328.138,49.875 L328.138,49.875 C331.363,46.793 335.619,45.146 340.263,45.146 L340.263,45.146 C344.197,45.146 347.421,46.005 349.485,47.152 L349.485,47.152 L351.807,40.128 C350.259,39.197 346.325,37.908 340.843,37.908 L340.843,37.908 C333.555,37.908 327.041,40.486 322.269,45.002" fill="url(#Gradient_5)"/>
    <path d="M360.189,38.409 L351.934,86.708 L359.48,86.708 L367.735,38.409 z" fill="url(#Gradient_6)"/>
    <path d="M398.692,38.409 L387.083,64.637 C384.826,69.653 383.149,74.095 381.73,78.036 L381.73,78.036 L381.601,78.036 C381.408,73.881 381.15,70.011 380.634,64.994 L380.634,64.994 L378.119,38.409 L370.444,38.409 L375.797,86.708 L384.375,86.708 L407.012,38.409 z" fill="url(#Gradient_7)"/>
    <path d="M410.43,38.408 L402.175,86.707 L427.263,86.707 L428.488,79.612 L410.946,79.612 L413.397,65.209 L429.004,65.209 L430.229,58.187 L414.557,58.187 L416.75,45.502 L433.325,45.502 L434.55,38.408 z" fill="url(#Gradient_8)"/>
    <path d="M68.847,557.885 C68.847,560.575 70.767,562.59 73.455,563.982 L73.455,563.982 C75.759,565.184 76.527,566.095 76.527,567.583 L76.527,567.583 C76.527,569.119 75.183,570.415 72.927,570.463 L72.927,570.463 C70.814,570.463 68.51,569.551 67.31,568.879 L67.31,568.879 L65.873,572.909 C67.121,573.821 69.665,574.59 72.401,574.59 L72.401,574.59 C78.018,574.59 82.338,571.757 82.338,566.621 L82.338,566.621 C82.338,563.644 80.033,561.725 77.489,560.332 L77.489,560.332 C75.521,559.324 74.465,558.412 74.465,557.116 L74.465,557.116 C74.465,555.532 75.905,554.38 78.017,554.38 L78.017,554.38 C79.937,554.38 81.521,554.957 82.385,555.436 L82.385,555.436 L83.825,551.404 C82.768,550.78 80.752,550.204 78.304,550.204 L78.304,550.204 C72.784,550.204 68.847,553.372 68.847,557.885" fill="url(#Gradient_9)"/>
    <path d="M86.317,565.279 C86.317,570.847 89.918,574.592 95.774,574.592 L95.774,574.592 C98.751,574.592 101.151,573.968 102.495,573.295 L102.495,573.295 L102.302,568.976 C101.101,569.504 99.469,570.08 97.309,570.08 L97.309,570.08 C94.189,570.08 92.173,568.111 92.173,564.607 L92.173,564.607 C92.173,559.758 95.582,554.766 101.006,554.766 L101.006,554.766 C102.542,554.766 103.646,555.103 104.51,555.486 L104.51,555.486 L105.95,551.118 C105.086,550.734 103.262,550.207 101.198,550.207 L101.198,550.207 C92.509,550.207 86.317,557.119 86.317,565.279" fill="url(#Gradient_10)"/>
    <path d="M106.19,566.672 C106.19,571.376 108.927,574.642 113.103,574.642 L113.103,574.642 C116.079,574.642 119.151,573.152 121.456,568.832 L121.456,568.832 L121.6,568.832 C121.407,570.847 121.216,572.719 121.168,574.112 L121.168,574.112 L126.353,574.112 C126.256,571.329 126.64,566.96 127.313,563.456 L127.313,563.456 L129.712,551.263 C127.936,550.686 125.2,550.207 122.655,550.207 L122.655,550.207 C111.758,550.207 106.19,558.704 106.19,566.672 M111.998,565.663 C111.998,560.335 115.982,554.527 121.167,554.527 L121.167,554.527 C122.175,554.527 122.895,554.622 123.471,554.766 L123.471,554.766 L122.223,560.911 C121.118,566.863 117.95,570.128 115.358,570.128 L115.358,570.128 C112.91,570.128 111.998,568.111 111.998,565.663" fill="url(#Gradient_11)"/>
    <path d="M140.654,554.96 L140.557,554.96 L141.037,550.734 L136.093,550.734 C135.805,552.75 135.469,555.198 134.893,557.984 L134.893,557.984 L131.869,574.112 L131.869,574.114 L137.436,574.114 L139.453,563.313 C140.46,557.84 143.725,554.768 146.269,554.768 L146.269,554.768 C148.477,554.768 149.198,556.208 149.198,558.128 L149.198,558.128 C149.198,559.04 149.054,560.048 148.91,560.912 L148.91,560.912 L146.413,574.113 L151.982,574.113 L154.574,560.528 C154.815,559.327 155.006,557.696 155.006,556.639 L155.006,556.639 C155.006,552.223 152.366,550.206 149.054,550.206 L149.054,550.206 C145.79,550.206 142.814,551.791 140.654,554.96" fill="url(#Gradient_12)"/>
    <path d="M175.837,554.96 L175.74,554.96 L176.22,550.734 L171.276,550.734 C170.988,552.75 170.652,555.198 170.076,557.984 L170.076,557.984 L167.052,574.112 L167.052,574.114 L172.619,574.114 L174.636,563.313 C175.643,557.84 178.908,554.768 181.452,554.768 L181.452,554.768 C183.66,554.768 184.381,556.208 184.381,558.128 L184.381,558.128 C184.381,559.04 184.237,560.048 184.093,560.912 L184.093,560.912 L181.596,574.113 L187.165,574.113 L189.757,560.528 C189.998,559.327 190.189,557.696 190.189,556.639 L190.189,556.639 C190.189,552.223 187.549,550.206 184.237,550.206 L184.237,550.206 C180.973,550.206 177.997,551.791 175.837,554.96" fill="url(#Gradient_13)"/>
    <path d="M207.517,550.207 C199.549,550.207 194.028,557.071 194.028,564.991 L194.028,564.991 C194.028,570.559 197.677,574.641 203.581,574.641 L203.581,574.641 C211.55,574.641 217.118,567.824 217.118,559.903 L217.118,559.903 C217.118,554.719 213.806,550.206 207.518,550.207 L207.518,550.207 C207.518,550.207 207.517,550.207 207.517,550.207 M199.789,564.847 C199.789,560.479 202.381,554.527 206.846,554.527 L206.846,554.527 C210.254,554.527 211.31,557.503 211.31,559.903 L211.31,559.903 C211.31,564.559 208.526,570.321 204.35,570.321 L204.35,570.321 C201.517,570.321 199.789,568.063 199.789,564.847" fill="url(#Gradient_14)"/>
    <path d="M248.654,550.734 L243.614,562.16 C242.654,564.655 241.934,566.768 241.214,569.023 L241.214,569.023 L241.118,569.023 C241.166,566.96 241.07,564.8 240.878,562.16 L240.878,562.16 L239.918,550.734 L235.262,550.734 L229.597,562.447 C228.542,564.799 227.582,566.96 226.861,569.023 L226.861,569.023 L226.765,569.023 C226.909,566.719 226.958,564.847 226.861,562.111 L226.861,562.111 L226.429,550.734 L220.861,550.734 L223.021,574.112 L228.253,574.112 L233.438,563.695 C234.493,561.63 235.07,559.855 236.222,557.022 L236.222,557.022 L236.318,557.022 C236.318,559.518 236.366,561.63 236.558,563.935 L236.558,563.935 L237.614,574.112 L242.846,574.112 L254.319,550.734 z" fill="url(#Gradient_15)"/>
    <path d="M262.906,566.672 C262.906,571.376 265.642,574.642 269.819,574.642 L269.819,574.642 C272.796,574.642 275.868,573.152 278.172,568.832 L278.172,568.832 L278.317,568.832 C278.124,570.847 277.932,572.719 277.884,574.112 L277.884,574.112 L283.069,574.112 C282.973,571.329 283.357,566.96 284.029,563.456 L284.029,563.456 L286.429,551.263 C284.652,550.686 281.916,550.207 279.372,550.207 L279.372,550.207 C268.474,550.207 262.906,558.704 262.906,566.672 M268.715,565.663 C268.715,560.335 272.699,554.527 277.884,554.527 L277.884,554.527 C278.892,554.527 279.613,554.622 280.189,554.766 L280.189,554.766 L278.94,560.911 C277.836,566.863 274.668,570.128 272.075,570.128 L272.075,570.128 C269.627,570.128 268.715,568.111 268.715,565.663" fill="url(#Gradient_16)"/>
    <path d="M297.371,554.96 L297.274,554.96 L297.754,550.734 L292.81,550.734 C292.522,552.75 292.186,555.198 291.61,557.984 L291.61,557.984 L288.586,574.112 L288.586,574.114 L294.153,574.114 L296.17,563.313 C297.177,557.84 300.442,554.768 302.986,554.768 L302.986,554.768 C305.194,554.768 305.915,556.208 305.915,558.128 L305.915,558.128 C305.915,559.04 305.771,560.048 305.627,560.912 L305.627,560.912 L303.13,574.113 L308.699,574.113 L311.291,560.528 C311.532,559.327 311.723,557.696 311.723,556.639 L311.723,556.639 C311.723,552.223 309.083,550.206 305.771,550.206 L305.771,550.206 C302.507,550.206 299.531,551.791 297.371,554.96" fill="url(#Gradient_17)"/>
    <path d="M335.674,540.029 L333.611,550.878 C332.602,550.446 331.21,550.207 330.01,550.207 L330.01,550.207 C321.417,550.207 315.417,557.743 315.417,565.951 L315.417,565.951 C315.417,571.232 318.344,574.64 322.521,574.64 L322.521,574.64 C325.546,574.64 328.426,573.152 330.538,569.936 L330.538,569.936 L330.634,569.936 L330.154,574.112 L335.291,574.112 C335.436,571.568 335.82,568.495 336.348,565.807 L336.348,565.807 L341.244,540.029 z M321.225,565.088 C321.225,559.855 324.778,554.527 329.579,554.527 L329.579,554.527 C330.971,554.527 332.123,554.96 332.795,555.438 L332.795,555.438 L331.403,562.544 C330.442,567.392 327.466,570.128 324.97,570.128 L324.97,570.128 C322.329,570.128 321.225,567.92 321.225,565.088" fill="url(#Gradient_18)"/>
    <path d="M350.36,565.76 C350.408,570.176 353.048,574.016 357.705,574.016 L357.705,574.016 C360.681,574.016 363.129,572.671 365.05,569.887 L365.05,569.887 L365.146,569.887 L364.57,572.528 C363.418,577.951 360.633,579.681 356.985,579.681 L356.985,579.681 C354.777,579.681 352.186,579.103 350.793,578.288 L350.793,578.288 L349.447,582.562 C350.983,583.522 353.767,584.146 356.743,584.146 L356.743,584.146 C359.671,584.146 362.984,583.57 365.432,581.553 L365.432,581.553 C368.024,579.344 369.369,575.696 370.232,571.135 L370.232,571.135 L373.785,551.838 C371.625,550.877 368.696,550.206 365.673,550.206 L365.673,550.206 C355.976,550.206 350.36,557.984 350.36,565.76 M356.266,564.895 C356.266,559.855 359.723,554.574 364.619,554.574 L364.619,554.574 C365.915,554.574 367.115,554.862 367.691,555.15 L367.691,555.15 L366.395,562.111 C365.578,566.335 362.794,569.648 360.01,569.648 L360.01,569.648 C357.226,569.648 356.218,567.344 356.266,564.895" fill="url(#Gradient_19)"/>
    <path d="M381.274,544.397 C381.226,546.125 382.426,547.373 384.155,547.373 L384.155,547.373 C386.027,547.373 387.563,546.077 387.611,544.014 L387.611,544.014 C387.611,542.237 386.363,540.99 384.634,540.99 L384.634,540.99 C382.81,540.99 381.274,542.381 381.274,544.397 M380.361,550.734 L375.945,574.112 L381.513,574.112 L385.978,550.734 z" fill="url(#Gradient_20)"/>
    <path d="M405.659,550.734 L399.85,562.495 C398.554,565.28 397.882,566.96 397.306,568.449 L397.306,568.449 L397.161,568.449 C397.065,566.912 396.777,565.135 396.489,562.351 L396.489,562.351 L395.001,550.734 L389.241,550.734 L393.225,574.112 L398.842,574.112 L411.851,550.734 z" fill="url(#Gradient_21)"/>
    <path d="M411.273,564.943 C411.273,570.656 414.394,574.592 420.874,574.592 L420.874,574.592 C423.706,574.592 426.826,573.968 429.131,572.769 L429.131,572.769 L428.603,568.687 C426.923,569.551 424.811,570.223 422.17,570.223 L422.17,570.223 C419.962,570.223 418.281,569.408 417.37,567.824 L417.37,567.824 C416.842,566.912 416.649,565.327 416.746,564.512 L416.746,564.512 C425.77,564.703 432.058,562.783 432.058,556.783 L432.058,556.783 C432.058,552.894 429.13,550.206 424.522,550.206 L424.522,550.206 C416.458,550.206 411.273,557.886 411.273,564.943 M417.322,560.334 C417.994,557.502 420.298,554.383 423.802,554.383 L423.802,554.383 C425.578,554.383 426.778,555.294 426.779,556.831 L426.779,556.831 C426.779,559.472 423.452,560.342 418.191,560.342 L418.191,560.342 C417.907,560.342 417.617,560.339 417.322,560.334" fill="url(#Gradient_22)"/>
    <path d="M253.741,441.871 C249.231,441.871 247.129,439.675 247.126,434.959 C247.121,427.133 247.122,419.306 247.123,411.479 C247.123,411.479 247.127,395.551 247.131,392.561 C247.14,384.733 247.15,376.639 247.093,368.681 C247.067,364.873 248.603,362.517 252.076,361.04 C260.743,357.354 266.908,353.86 272.064,349.71 C273.091,348.883 274.032,347.962 275.029,346.986 L275.898,346.14 C280.477,341.73 278.426,335.229 275.598,332.225 C272.184,328.597 267.725,325.837 261.141,323.278 C256.558,321.495 251.787,319.894 247.174,318.347 C245.718,317.858 244.263,317.369 242.811,316.875 C241.685,316.491 238.257,315.325 238.471,311.563 C238.572,309.797 239.47,307.529 243.173,306.748 C244.277,306.516 245.422,306.396 246.577,306.395 C254.032,306.389 261.487,306.389 268.942,306.389 C283.736,306.389 299.035,306.389 314.079,306.341 C317.478,306.341 319.959,307.207 322.177,309.152 C328.565,314.748 332.336,320.221 334.043,326.378 C336.5,335.23 334.789,343.622 328.814,352.035 C323.035,360.171 315.188,365.953 307.569,370.99 C294.648,379.532 280.281,386.901 264.866,392.893 C264.452,393.053 264.365,393.158 264.364,393.16 C264.365,393.16 264.315,393.264 264.318,393.667 C264.387,401.874 264.435,410.081 264.484,418.288 C264.515,423.538 264.546,428.789 264.583,434.039 C264.622,439.65 262.862,441.442 257.05,441.712 C256.458,441.739 255.866,441.774 255.275,441.809 L254.719,441.841 C254.376,441.861 254.051,441.871 253.741,441.871" fill="#2F2A2B"/>
    <path d="M314.14,304.843 L314.075,304.843 C299.078,304.89 283.829,304.89 269.082,304.89 C261.579,304.89 254.077,304.89 246.574,304.896 C245.315,304.897 244.066,305.027 242.861,305.281 C237.986,306.31 237.079,309.605 236.972,311.478 C236.845,313.713 237.671,316.71 242.327,318.295 C243.776,318.788 245.228,319.276 246.68,319.763 C251.282,321.307 256.041,322.904 260.597,324.675 C266.963,327.15 271.252,329.796 274.505,333.252 C276.923,335.821 278.707,341.351 274.857,345.059 C274.562,345.343 274.269,345.63 273.976,345.917 C273.007,346.865 272.093,347.76 271.123,348.541 C266.079,352.602 260.023,356.031 251.49,359.659 C247.436,361.383 245.563,364.253 245.594,368.69 C245.65,376.633 245.64,384.715 245.631,392.531 C245.628,395.531 245.624,398.532 245.624,401.532 L245.623,411.277 C245.622,419.171 245.621,427.066 245.626,434.959 C245.63,440.54 248.36,443.37 253.739,443.37 C254.076,443.37 254.43,443.36 254.8,443.339 L255.433,443.303 C255.995,443.27 256.556,443.238 257.119,443.211 C263.781,442.902 266.127,440.499 266.082,434.029 C266.046,428.808 266.015,423.586 265.984,418.365 C265.936,410.287 265.888,402.208 265.821,394.13 C281.177,388.13 295.499,380.767 308.396,372.241 C316.136,367.124 324.114,361.241 330.036,352.903 C336.203,344.221 338.037,335.162 335.489,325.976 C333.699,319.525 329.783,313.82 323.166,308.023 C320.688,305.854 317.82,304.843 314.14,304.843 M314.14,307.843 C316.89,307.843 319.121,308.47 321.189,310.281 C326.446,314.887 330.732,320.054 332.598,326.78 C335.069,335.686 332.876,343.727 327.591,351.167 C322.12,358.87 314.615,364.535 306.742,369.739 C293.469,378.513 279.267,385.687 264.323,391.494 C263.109,391.966 262.808,392.532 262.818,393.679 C262.931,407.136 262.99,420.593 263.083,434.05 C263.116,438.863 262.035,439.98 256.981,440.214 C256.198,440.25 255.415,440.299 254.633,440.344 C254.322,440.362 254.025,440.37 253.741,440.37 C250.038,440.37 248.631,438.842 248.628,434.957 C248.62,423.816 248.626,412.673 248.626,401.531 C248.626,390.577 248.673,379.622 248.596,368.668 C248.575,365.654 249.581,363.73 252.666,362.418 C259.899,359.343 266.898,355.794 273.007,350.876 C274.402,349.753 275.652,348.46 276.941,347.219 C282.076,342.274 280.18,334.901 276.693,331.195 C272.555,326.799 267.27,324.049 261.688,321.878 C255.646,319.528 249.446,317.547 243.298,315.454 C240.954,314.656 239.866,313.503 239.972,311.647 C240.076,309.828 241.171,308.703 243.486,308.215 C244.495,308.002 245.548,307.895 246.582,307.894 C269.084,307.876 291.586,307.912 314.087,307.841 C314.102,307.843 314.121,307.843 314.14,307.843" fill="#FFFFFF"/>
    <path d="M232.907,442.938 C228.883,442.938 226.799,440.722 226.715,436.353 L226.656,433.332 C226.514,426.077 226.373,418.822 226.253,411.566 C226.223,409.7 226.231,407.834 226.238,405.869 C226.239,405.609 226.24,405.348 226.241,405.085 L224.062,405.792 C221.036,406.773 218.175,407.703 215.308,408.614 C208.349,410.827 202.076,412.818 195.768,414.775 C194.426,415.192 193.368,415.385 192.439,415.385 C189.304,415.385 187.899,413.079 186.939,410.823 L178.958,392.08 C178.297,390.529 177.531,388.245 178.494,386.313 C179.459,384.376 181.692,383.605 183.529,383.15 C203.978,378.079 220.453,373.202 235.377,367.803 C236.424,367.424 237.425,367.232 238.352,367.232 C241.679,367.232 243.831,369.715 243.834,373.558 C243.852,394.403 243.85,415.246 243.834,436.091 C243.831,440.183 241.834,442.269 237.553,442.655 C237.007,442.704 236.458,442.731 235.909,442.759 C235.351,442.786 234.793,442.813 234.239,442.868 C233.768,442.914 233.324,442.938 232.907,442.938" fill="#2F2A2B"/>
    <path d="M238.352,365.732 C237.251,365.732 236.078,365.954 234.867,366.392 C219.993,371.773 203.565,376.635 183.168,381.694 C181.186,382.186 178.406,383.13 177.152,385.644 C175.912,388.131 176.801,390.843 177.578,392.667 L180.036,398.437 C181.878,402.761 183.72,407.085 185.56,411.41 C186.644,413.959 188.406,416.885 192.439,416.885 C193.523,416.885 194.722,416.67 196.212,416.207 C202.951,414.116 209.757,411.952 215.762,410.043 C218.6,409.141 221.432,408.222 224.424,407.251 C224.527,407.218 224.63,407.184 224.733,407.151 C224.728,408.66 224.729,410.119 224.753,411.591 C224.873,418.895 225.018,426.318 225.158,433.497 L225.214,436.383 C225.35,443.392 230.091,444.438 232.905,444.438 C233.37,444.438 233.867,444.412 234.385,444.361 C234.889,444.312 235.416,444.286 235.975,444.258 C236.527,444.231 237.099,444.203 237.689,444.149 C242.758,443.691 245.33,440.981 245.334,436.093 C245.351,414.14 245.351,393.684 245.334,373.556 C245.331,368.876 242.525,365.732 238.352,365.732 M238.352,368.732 C240.817,368.732 242.332,370.469 242.335,373.559 C242.353,394.403 242.352,415.247 242.335,436.091 C242.332,439.416 240.902,440.847 237.42,441.162 C236.314,441.262 235.198,441.267 234.093,441.376 C233.673,441.417 233.278,441.438 232.907,441.438 C229.7,441.438 228.284,439.873 228.215,436.324 C228.054,428.064 227.89,419.803 227.754,411.542 C227.709,408.807 227.747,406.069 227.747,403.021 C223.118,404.518 218.992,405.869 214.854,407.185 C208.349,409.253 201.844,411.32 195.324,413.343 C194.182,413.697 193.239,413.886 192.44,413.886 C190.502,413.886 189.403,412.778 188.322,410.236 C185.664,403.987 183.001,397.74 180.34,391.492 C178.637,387.493 179.563,385.68 183.892,384.606 C201.473,380.246 218.886,375.365 235.889,369.214 C236.785,368.889 237.611,368.732 238.352,368.732" fill="#FFFFFF"/>
    <path d="M196.263,351.25 L195.504,351.256 C194.938,351.256 194.269,351.229 193.608,351.024 C183.496,347.885 175.282,344.621 168.062,338.888 C162.105,334.159 158.853,328.159 158.393,321.056 C158.06,315.895 159.52,310.671 162.858,305.086 C168.094,296.325 175.688,289.935 181.718,285.346 C192.406,277.21 204.27,270.428 217.987,264.612 C218.362,264.453 218.445,264.351 218.445,264.35 C218.443,264.35 218.492,264.221 218.45,263.752 C217.558,253.996 216.702,244.234 215.846,234.474 L215.233,227.482 C215.193,227.034 215.171,226.584 215.15,226.133 L215.14,225.924 C214.933,221.697 216.686,219.544 220.656,219.151 C226.102,218.608 231.468,218.257 235.533,218.012 C235.694,218.002 235.852,217.997 236.006,217.997 C238.862,217.997 240.775,219.663 241.391,222.689 C241.568,223.554 241.582,224.415 241.582,225.222 L241.582,243.162 C241.58,257.399 241.578,271.635 241.619,285.871 C241.629,289.534 240.209,291.795 237.015,293.2 C230.2,296.196 225.174,299.391 221.199,303.255 C220.795,303.648 220.413,304.065 220.032,304.48 L219.712,304.827 C215.774,309.077 217.903,312.878 220.383,315.318 C223.017,317.911 226.35,319.903 230.287,321.237 C237.362,323.634 244.6,325.958 251.6,328.205 C256.086,329.644 260.572,331.085 265.048,332.554 C270.196,334.242 275.412,336.006 280.455,337.713 C283.535,338.755 286.614,339.797 289.696,340.828 C292.193,341.665 293.579,343.472 293.6,345.916 C293.621,348.379 291.998,350.185 289.147,350.869 C288.125,351.115 287.084,351.241 286.053,351.242 C277.056,351.255 268.057,351.257 259.059,351.257 C259.063,351.257 206.238,351.255 196.263,351.25" fill="#2F2A2B"/>
    <path d="M236.007,216.497 C235.824,216.497 235.636,216.503 235.445,216.514 C231.37,216.76 225.99,217.112 220.51,217.657 C215.708,218.135 213.398,220.941 213.644,225.997 L213.654,226.202 C213.676,226.673 213.7,227.145 213.741,227.614 L214.347,234.518 C215.178,243.997 216.037,253.793 216.917,263.437 C203.288,269.257 191.474,276.036 180.811,284.151 C174.672,288.823 166.938,295.337 161.572,304.317 C158.073,310.171 156.544,315.678 156.898,321.152 C157.385,328.696 160.828,335.059 167.131,340.063 C174.534,345.941 182.892,349.269 193.166,352.457 C194.018,352.721 194.828,352.757 195.508,352.757 L195.923,352.754 L196.259,352.751 C206.375,352.756 216.483,352.757 226.594,352.757 L233.832,352.757 L241.07,352.757 L249.539,352.757 L258.008,352.757 C267.359,352.757 276.712,352.755 286.063,352.742 C287.211,352.741 288.369,352.601 289.506,352.328 C293.042,351.478 295.136,349.076 295.108,345.902 C295.081,342.813 293.285,340.445 290.18,339.406 C287.106,338.377 284.036,337.338 280.966,336.299 C275.912,334.589 270.686,332.82 265.523,331.127 C261.054,329.661 256.505,328.201 252.106,326.789 C245.098,324.54 237.852,322.214 230.775,319.816 C227.053,318.555 223.913,316.682 221.441,314.249 C217.042,309.92 219.884,306.854 220.818,305.846 L221.14,305.496 C221.524,305.079 221.886,304.685 222.25,304.331 C226.093,300.595 230.978,297.494 237.624,294.573 C241.337,292.94 243.137,290.092 243.125,285.867 C243.084,271.645 243.086,257.182 243.088,243.195 C243.089,237.204 243.09,231.212 243.088,225.221 C243.088,224.377 243.071,223.391 242.866,222.388 C242.1,218.645 239.601,216.497 236.007,216.497 M236.007,219.497 C238.187,219.497 239.459,220.704 239.924,222.989 C240.072,223.715 240.085,224.478 240.085,225.224 C240.093,245.442 240.064,265.66 240.123,285.877 C240.131,288.782 239.174,290.615 236.415,291.828 C230.494,294.431 224.87,297.601 220.158,302.181 C219.623,302.701 219.124,303.26 218.616,303.808 C214.317,308.446 216.02,313.125 219.335,316.388 C222.323,319.328 225.947,321.349 229.81,322.658 C241.356,326.57 253.002,330.179 264.586,333.978 C272.818,336.678 281.01,339.502 289.226,342.251 C291.011,342.848 292.089,344.006 292.106,345.929 C292.121,347.684 290.945,348.896 288.802,349.411 C287.91,349.625 286.973,349.741 286.057,349.742 C276.708,349.754 267.356,349.757 258.006,349.757 C252.36,349.757 246.715,349.756 241.068,349.756 L226.592,349.756 C216.482,349.756 206.375,349.755 196.265,349.75 L196.257,349.75 C196.01,349.75 195.758,349.756 195.506,349.756 C195.007,349.756 194.51,349.732 194.053,349.591 C185.147,346.827 176.434,343.62 168.995,337.713 C163.619,333.444 160.339,327.901 159.891,320.959 C159.538,315.485 161.373,310.498 164.147,305.856 C168.846,297.993 175.465,291.99 182.628,286.539 C193.715,278.101 205.796,271.411 218.575,265.992 C219.792,265.476 220.06,264.858 219.946,263.617 C218.841,251.531 217.792,239.44 216.73,227.351 C216.686,226.853 216.665,226.352 216.641,225.851 C216.476,222.477 217.564,220.965 220.807,220.643 C225.736,220.152 230.681,219.807 235.626,219.509 C235.755,219.501 235.883,219.497 236.007,219.497" fill="#FFFFFF"/>
    <path d="M300.073,299.036 C297.631,299.036 295.551,297.834 294.365,295.738 C293.702,294.567 293.315,293.074 293.18,291.174 C292.954,288.015 292.813,284.893 292.662,281.587 C292.628,280.845 292.594,280.096 292.559,279.34 C291.652,279.447 290.749,279.552 289.851,279.655 C286.636,280.028 283.599,280.38 280.518,280.824 C270.781,282.229 261.308,284.386 252.362,287.233 C251.452,287.522 250.589,287.67 249.797,287.67 C246.51,287.67 244.547,285.29 244.544,281.304 C244.533,262.21 244.535,243.117 244.543,224.024 C244.545,219.385 246.501,217.341 251.085,217.187 L253.755,217.092 C256.538,216.991 259.416,216.887 262.255,216.849 L262.461,216.848 C264.769,216.848 266.41,217.406 267.478,218.555 C268.59,219.75 269.023,221.473 268.841,223.974 C268.354,230.641 267.887,237.31 267.42,243.978 L267.028,249.553 L291.066,246.024 C291.064,245.94 291.062,245.854 291.059,245.769 C291.008,244.427 290.951,243.084 290.893,241.742 C290.782,239.138 290.672,236.536 290.602,233.931 C290.482,229.422 292.658,226.557 296.574,226.071 C296.851,226.036 297.141,226.019 297.438,226.019 C299.074,226.019 300.765,226.521 301.959,227.363 C314.239,236.023 326.247,244.633 340.499,254.896 C342.318,256.206 343.42,258.217 343.522,260.415 C343.628,262.702 342.654,264.917 340.85,266.49 C336.046,270.679 331.132,274.901 326.38,278.982 C324.23,280.83 322.079,282.677 319.931,284.528 C318.224,285.999 316.519,287.472 314.814,288.946 C311.765,291.582 308.716,294.217 305.654,296.838 C303.999,298.254 302.016,299.036 300.073,299.036" fill="#2F2A2B"/>
    <path d="M262.464,215.347 L262.237,215.349 C259.381,215.387 256.496,215.492 253.705,215.592 C252.815,215.624 251.925,215.656 251.034,215.687 C245.66,215.868 243.046,218.595 243.043,224.023 C243.035,243.117 243.033,262.21 243.044,281.304 C243.047,287.109 246.684,289.169 249.797,289.169 C250.744,289.169 251.76,288.998 252.817,288.662 C261.685,285.84 271.077,283.702 280.732,282.309 C283.782,281.869 286.797,281.52 289.99,281.149 C290.371,281.105 290.753,281.061 291.135,281.016 C291.145,281.237 291.155,281.457 291.165,281.677 C291.315,284.984 291.457,288.108 291.683,291.28 C291.834,293.407 292.284,295.107 293.058,296.476 C294.495,299.018 297.117,300.535 300.071,300.535 C302.372,300.535 304.701,299.626 306.63,297.975 C309.703,295.345 312.763,292.7 315.823,290.055 C317.518,288.59 319.213,287.124 320.911,285.662 C323.07,283.802 325.232,281.945 327.394,280.088 C332.137,276.014 337.041,271.802 341.837,267.618 C343.989,265.741 345.149,263.089 345.021,260.342 C344.897,257.685 343.568,255.256 341.376,253.677 C327.077,243.38 315.048,234.755 302.824,226.136 C301.386,225.122 299.373,224.517 297.438,224.517 C297.079,224.517 296.726,224.538 296.388,224.58 C291.685,225.165 288.961,228.675 289.102,233.969 C289.172,236.582 289.284,239.226 289.393,241.783 C289.435,242.766 289.477,243.75 289.516,244.733 L268.654,247.795 L268.916,244.064 C269.383,237.403 269.85,230.741 270.336,224.081 C270.548,221.176 269.972,219.033 268.576,217.531 C267.211,216.062 265.211,215.347 262.464,215.347 M262.464,218.347 C266.281,218.347 267.631,219.967 267.347,223.864 C266.7,232.726 266.088,241.59 265.464,250.454 C265.448,250.694 265.463,250.936 265.463,251.298 C274.531,249.967 283.406,248.664 292.564,247.32 C292.564,246.902 292.584,246.305 292.561,245.711 C292.41,241.771 292.211,237.832 292.105,233.891 C292.007,230.231 293.535,227.96 296.762,227.559 C296.98,227.532 297.208,227.519 297.442,227.519 C298.704,227.519 300.13,227.907 301.099,228.59 C313.997,237.684 326.819,246.89 339.627,256.113 C342.736,258.352 342.852,262.757 339.869,265.359 C332.932,271.41 325.93,277.383 318.956,283.391 C314.197,287.492 309.456,291.613 304.683,295.697 C303.247,296.926 301.603,297.536 300.074,297.536 C298.269,297.536 296.625,296.686 295.672,295 C295.029,293.863 294.773,292.404 294.678,291.068 C294.367,286.707 294.213,282.336 293.983,277.659 C289.335,278.224 284.808,278.691 280.306,279.34 C270.674,280.73 261.199,282.847 251.91,285.803 C251.138,286.049 250.432,286.169 249.799,286.169 C247.403,286.169 246.048,284.448 246.046,281.302 C246.035,262.209 246.037,243.117 246.045,224.024 C246.047,220.2 247.387,218.811 251.138,218.685 C254.851,218.559 258.564,218.398 262.279,218.348 C262.34,218.347 262.402,218.347 262.464,218.347" fill="#FFFFFF"/>
    <path d="M52.102,47.252 L52.102,57.252 L42.674,57.252 C40.131,57.296 37.707,57.979 35.486,59.167 C30.604,62.005 27.613,67.58 27.506,73.729 L27.506,547.257 C28.018,553.757 29.821,558.501 35.442,561.933 C36.467,562.559 37.838,563.126 38.996,563.4 C43.302,564.335 47.736,563.943 52.102,563.885 L52.102,573.882 L42.506,573.882 L42.336,573.879 C32.77,573.554 24.769,568.449 20.455,559.894 C18.458,556.092 17.787,551.868 17.512,547.64 C17.504,547.484 17.506,547.562 17.506,547.405 L17.507,73.643 C18.067,63.274 21.815,56.311 30.46,50.522 C34.099,48.406 37.594,47.511 42.235,47.26 L42.371,47.252 z" fill="#000000"/>
    <path d="M454.202,47.146 L454.381,47.149 C463.975,47.493 471.931,52.563 476.253,61.135 C478.144,64.885 478.973,68.641 479.196,73.388 L479.202,73.506 L479.202,547.417 L479.196,547.534 C479.188,547.721 479.18,547.906 479.17,548.134 C479.158,548.421 479.151,548.586 479.146,548.7 C479.11,549.543 479.079,550.054 479.022,550.626 C478.886,551.994 478.621,553.284 478.108,555.067 C475.766,563.22 469.605,569.945 461.722,572.557 C458.943,573.478 455.499,573.883 451.23,573.971 L449.616,573.989 L446.118,573.943 L446,573.939 L446,563.929 C449.073,564.001 447.399,563.979 451.024,563.973 C454.376,563.904 456.961,563.6 458.577,563.064 C463.238,561.52 467.043,557.366 468.497,552.305 C468.853,551.066 469,550.353 469.071,549.636 C469.105,549.298 469.127,548.94 469.155,548.271 C469.16,548.164 469.166,548.005 469.179,547.711 C469.196,547.31 469.188,547.486 469.202,547.185 L469.202,73.771 C469.134,71.605 468.765,69.497 468.096,67.43 C466.855,63.597 463.802,60.186 460.145,58.525 C458.894,57.957 457.512,57.743 456.196,57.351 L454.056,57.146 L446,57.146 L446,47.146 z" fill="#000000"/>
  </g>
  <defs>
    <linearGradient id="Gradient_1" gradientUnits="userSpaceOnUse" x1="114.252" y1="106.866" x2="114.252" y2="54.627">
      <stop offset="0" stop-color="#616161"/>
      <stop offset="0.7" stop-color="#010101"/>
      <stop offset="1" stop-color="#010101"/>
    </linearGradient>
    <linearGradient id="Gradient_2" gradientUnits="userSpaceOnUse" x1="84.358" y1="107.284" x2="84.358" y2="78.626">
      <stop offset="0" stop-color="#616161"/>
      <stop offset="1" stop-color="#010101"/>
    </linearGradient>
    <linearGradient id="Gradient_3" gradientUnits="userSpaceOnUse" x1="90.282" y1="19.911" x2="90.282" y2="75.155">
      <stop offset="0" stop-color="#99CC99"/>
      <stop offset="1" stop-color="#333333"/>
    </linearGradient>
    <linearGradient id="Gradient_4" gradientUnits="userSpaceOnUse" x1="117.109" y1="19.911" x2="117.109" y2="75.155">
      <stop offset="0" stop-color="#99CC99"/>
      <stop offset="1" stop-color="#333333"/>
    </linearGradient>
    <linearGradient id="Gradient_5" gradientUnits="userSpaceOnUse" x1="332.684" y1="31.804" x2="332.684" y2="84.612">
      <stop offset="0" stop-color="#99CC99"/>
      <stop offset="1" stop-color="#1A1A1A"/>
    </linearGradient>
    <linearGradient id="Gradient_6" gradientUnits="userSpaceOnUse" x1="359.835" y1="31.804" x2="359.835" y2="84.612">
      <stop offset="0" stop-color="#99CC99"/>
      <stop offset="1" stop-color="#1A1A1A"/>
    </linearGradient>
    <linearGradient id="Gradient_7" gradientUnits="userSpaceOnUse" x1="388.728" y1="31.804" x2="388.728" y2="84.612">
      <stop offset="0" stop-color="#99CC99"/>
      <stop offset="1" stop-color="#1A1A1A"/>
    </linearGradient>
    <linearGradient id="Gradient_8" gradientUnits="userSpaceOnUse" x1="418.362" y1="31.804" x2="418.362" y2="84.612">
      <stop offset="0" stop-color="#99CC99"/>
      <stop offset="1" stop-color="#1A1A1A"/>
    </linearGradient>
    <linearGradient id="Gradient_9" gradientUnits="userSpaceOnUse" x1="74.849" y1="550.204" x2="74.849" y2="574.59">
      <stop offset="0" stop-color="#99CC99"/>
      <stop offset="0.014" stop-color="#97C997"/>
      <stop offset="0.369" stop-color="#627F62"/>
      <stop offset="0.663" stop-color="#3B483B"/>
      <stop offset="0.881" stop-color="#232723"/>
      <stop offset="1" stop-color="#1A1A1A"/>
    </linearGradient>
    <linearGradient id="Gradient_10" gradientUnits="userSpaceOnUse" x1="96.133" y1="550.206" x2="96.133" y2="574.592">
      <stop offset="0" stop-color="#99CC99"/>
      <stop offset="0.014" stop-color="#97C997"/>
      <stop offset="0.369" stop-color="#627F62"/>
      <stop offset="0.663" stop-color="#3B483B"/>
      <stop offset="0.881" stop-color="#232723"/>
      <stop offset="1" stop-color="#1A1A1A"/>
    </linearGradient>
    <linearGradient id="Gradient_11" gradientUnits="userSpaceOnUse" x1="117.951" y1="550.206" x2="117.951" y2="574.641">
      <stop offset="0" stop-color="#99CC99"/>
      <stop offset="0.014" stop-color="#97C997"/>
      <stop offset="0.369" stop-color="#627F62"/>
      <stop offset="0.663" stop-color="#3B483B"/>
      <stop offset="0.881" stop-color="#232723"/>
      <stop offset="1" stop-color="#1A1A1A"/>
    </linearGradient>
    <linearGradient id="Gradient_12" gradientUnits="userSpaceOnUse" x1="143.437" y1="550.206" x2="143.437" y2="574.114">
      <stop offset="0" stop-color="#99CC99"/>
      <stop offset="0.014" stop-color="#97C997"/>
      <stop offset="0.369" stop-color="#627F62"/>
      <stop offset="0.663" stop-color="#3B483B"/>
      <stop offset="0.881" stop-color="#232723"/>
      <stop offset="1" stop-color="#1A1A1A"/>
    </linearGradient>
    <linearGradient id="Gradient_13" gradientUnits="userSpaceOnUse" x1="178.62" y1="550.206" x2="178.62" y2="574.114">
      <stop offset="0" stop-color="#99CC99"/>
      <stop offset="0.014" stop-color="#97C997"/>
      <stop offset="0.369" stop-color="#627F62"/>
      <stop offset="0.663" stop-color="#3B483B"/>
      <stop offset="0.881" stop-color="#232723"/>
      <stop offset="1" stop-color="#1A1A1A"/>
    </linearGradient>
    <linearGradient id="Gradient_14" gradientUnits="userSpaceOnUse" x1="205.573" y1="550.206" x2="205.573" y2="574.64">
      <stop offset="0" stop-color="#99CC99"/>
      <stop offset="0.014" stop-color="#97C997"/>
      <stop offset="0.369" stop-color="#627F62"/>
      <stop offset="0.663" stop-color="#3B483B"/>
      <stop offset="0.881" stop-color="#232723"/>
      <stop offset="1" stop-color="#1A1A1A"/>
    </linearGradient>
    <linearGradient id="Gradient_15" gradientUnits="userSpaceOnUse" x1="237.59" y1="550.734" x2="237.59" y2="574.112">
      <stop offset="0" stop-color="#99CC99"/>
      <stop offset="0.014" stop-color="#97C997"/>
      <stop offset="0.369" stop-color="#627F62"/>
      <stop offset="0.663" stop-color="#3B483B"/>
      <stop offset="0.881" stop-color="#232723"/>
      <stop offset="1" stop-color="#1A1A1A"/>
    </linearGradient>
    <linearGradient id="Gradient_16" gradientUnits="userSpaceOnUse" x1="274.667" y1="550.206" x2="274.667" y2="574.641">
      <stop offset="0" stop-color="#99CC99"/>
      <stop offset="0.014" stop-color="#97C997"/>
      <stop offset="0.369" stop-color="#627F62"/>
      <stop offset="0.663" stop-color="#3B483B"/>
      <stop offset="0.881" stop-color="#232723"/>
      <stop offset="1" stop-color="#1A1A1A"/>
    </linearGradient>
    <linearGradient id="Gradient_17" gradientUnits="userSpaceOnUse" x1="300.154" y1="550.206" x2="300.154" y2="574.114">
      <stop offset="0" stop-color="#99CC99"/>
      <stop offset="0.014" stop-color="#97C997"/>
      <stop offset="0.369" stop-color="#627F62"/>
      <stop offset="0.663" stop-color="#3B483B"/>
      <stop offset="0.881" stop-color="#232723"/>
      <stop offset="1" stop-color="#1A1A1A"/>
    </linearGradient>
    <linearGradient id="Gradient_18" gradientUnits="userSpaceOnUse" x1="328.33" y1="540.029" x2="328.33" y2="574.64">
      <stop offset="0" stop-color="#99CC99"/>
      <stop offset="0.11" stop-color="#93C493"/>
      <stop offset="0.283" stop-color="#83AE83"/>
      <stop offset="0.496" stop-color="#698969"/>
      <stop offset="0.741" stop-color="#465746"/>
      <stop offset="1" stop-color="#1A1A1A"/>
    </linearGradient>
    <linearGradient id="Gradient_19" gradientUnits="userSpaceOnUse" x1="361.616" y1="550.205" x2="361.616" y2="584.146">
      <stop offset="0" stop-color="#99CC99"/>
      <stop offset="0.123" stop-color="#82AB82"/>
      <stop offset="0.339" stop-color="#5D785D"/>
      <stop offset="0.542" stop-color="#404F40"/>
      <stop offset="0.726" stop-color="#2B322B"/>
      <stop offset="0.885" stop-color="#1E201E"/>
      <stop offset="1" stop-color="#1A1A1A"/>
    </linearGradient>
    <linearGradient id="Gradient_20" gradientUnits="userSpaceOnUse" x1="381.778" y1="540.989" x2="381.778" y2="574.112">
      <stop offset="0" stop-color="#99CC99"/>
      <stop offset="0.11" stop-color="#93C493"/>
      <stop offset="0.283" stop-color="#83AE83"/>
      <stop offset="0.496" stop-color="#698969"/>
      <stop offset="0.741" stop-color="#465746"/>
      <stop offset="1" stop-color="#1A1A1A"/>
    </linearGradient>
    <linearGradient id="Gradient_21" gradientUnits="userSpaceOnUse" x1="400.546" y1="550.734" x2="400.546" y2="574.112">
      <stop offset="0" stop-color="#99CC99"/>
      <stop offset="0.014" stop-color="#97C997"/>
      <stop offset="0.369" stop-color="#627F62"/>
      <stop offset="0.663" stop-color="#3B483B"/>
      <stop offset="0.881" stop-color="#232723"/>
      <stop offset="1" stop-color="#1A1A1A"/>
    </linearGradient>
    <linearGradient id="Gradient_22" gradientUnits="userSpaceOnUse" x1="421.665" y1="550.206" x2="421.666" y2="574.592">
      <stop offset="0" stop-color="#99CC99"/>
      <stop offset="0.014" stop-color="#97C997"/>
      <stop offset="0.369" stop-color="#627F62"/>
      <stop offset="0.663" stop-color="#3B483B"/>
      <stop offset="0.881" stop-color="#232723"/>
      <stop offset="1" stop-color="#1A1A1A"/>
    </linearGradient>
  </defs>
</svg>
