<?xml version="1.0" encoding="UTF-8"?>
<!DOCTYPE svg PUBLIC "-//W3C//DTD SVG 1.1//EN" "http://www.w3.org/Graphics/SVG/1.1/DTD/svg11.dtd">
<svg version="1.1" xmlns="http://www.w3.org/2000/svg" xmlns:xlink="http://www.w3.org/1999/xlink" x="0" y="0" width="500" height="530" viewBox="0, 0, 500, 530">
  <g id="Outline">
    <path d="M162.945,494 L42.945,494 C32.11,494 23.326,485.086 23.326,474.09 L23.326,44.031 C23.326,33.035 32.11,24.121 42.945,24.121 L51.264,24.121" fill-opacity="0" stroke="#7D7D7D" stroke-width="7" stroke-linecap="round" stroke-linejoin="round"/>
    <path d="M73.841,31.653 L68.775,31.653 Q68.775,36.107 71.274,38.181 Q73.773,40.255 78.873,40.255 Q80.607,40.255 82.375,39.83 Q84.143,39.405 85.554,38.453 Q86.965,37.501 87.866,35.971 Q88.767,34.441 88.767,32.265 Q88.767,30.633 88.291,29.511 Q87.815,28.389 86.948,27.607 Q86.081,26.825 84.891,26.332 Q83.701,25.839 82.273,25.465 Q81.661,25.329 80.675,25.108 Q79.689,24.887 78.754,24.496 Q77.819,24.105 77.156,23.51 Q76.493,22.915 76.493,22.031 Q76.493,21.181 76.867,20.603 Q77.241,20.025 77.853,19.668 Q78.465,19.311 79.23,19.158 Q79.995,19.005 80.743,19.005 Q81.661,19.005 82.477,19.192 Q83.293,19.379 83.888,19.821 Q84.483,20.263 84.806,20.96 Q85.129,21.657 85.095,22.677 L90.161,22.677 Q90.161,20.569 89.43,19.09 Q88.699,17.611 87.458,16.659 Q86.217,15.707 84.568,15.282 Q82.919,14.857 81.049,14.857 Q79.281,14.857 77.564,15.282 Q75.847,15.707 74.487,16.608 Q73.127,17.509 72.277,18.937 Q71.427,20.365 71.427,22.405 Q71.427,23.969 71.954,25.057 Q72.481,26.145 73.348,26.893 Q74.215,27.641 75.303,28.117 Q76.391,28.593 77.547,28.933 Q78.669,29.273 79.774,29.579 Q80.879,29.885 81.746,30.293 Q82.613,30.701 83.157,31.262 Q83.701,31.823 83.701,32.707 Q83.701,33.625 83.276,34.271 Q82.851,34.917 82.188,35.325 Q81.525,35.733 80.709,35.937 Q79.893,36.141 79.077,36.141 Q77.921,36.141 76.935,35.92 Q75.949,35.699 75.235,35.189 Q74.521,34.679 74.147,33.812 Q73.773,32.945 73.841,31.653 z" fill="#8AAF8A"/>
    <path d="M109.541,23.867 L114.879,23.867 Q114.913,21.657 114.199,19.974 Q113.485,18.291 112.176,17.152 Q110.867,16.013 109.065,15.435 Q107.263,14.857 105.155,14.857 Q102.095,14.857 99.63,16.047 Q97.165,17.237 95.448,19.26 Q93.731,21.283 92.813,23.935 Q91.895,26.587 91.895,29.545 Q91.895,34.747 94.7,37.501 Q97.505,40.255 102.673,40.255 Q104.645,40.255 106.328,39.762 Q108.011,39.269 109.388,38.164 Q110.765,37.059 111.87,35.291 Q112.975,33.523 113.791,30.973 L108.453,30.973 Q108.283,31.925 107.773,32.809 Q107.263,33.693 106.515,34.356 Q105.767,35.019 104.798,35.41 Q103.829,35.801 102.741,35.801 Q101.279,35.801 100.242,35.291 Q99.205,34.781 98.542,33.914 Q97.879,33.047 97.556,31.925 Q97.233,30.803 97.233,29.545 Q97.233,27.811 97.709,25.992 Q98.185,24.173 99.154,22.694 Q100.123,21.215 101.636,20.28 Q103.149,19.345 105.189,19.345 Q107.127,19.345 108.334,20.484 Q109.541,21.623 109.541,23.867 z" fill="#8AAF8A"/>
    <path d="M127.561,15.435 L113.247,39.711 L118.857,39.711 L121.917,34.305 L130.995,34.305 L131.777,39.711 L137.081,39.711 L133.035,15.435 z M124.025,30.327 L129.261,20.671 L129.329,20.671 L130.519,30.327 z" fill="#8AAF8A"/>
    <path d="M144.119,15.435 L139.019,39.711 L143.983,39.711 L147.451,22.677 L147.519,22.677 L154.183,39.711 L159.521,39.711 L164.655,15.435 L159.759,15.435 L156.291,32.707 L156.223,32.707 L149.627,15.435 z" fill="#8AAF8A"/>
    <path d="M178.765,15.435 L173.665,39.711 L178.629,39.711 L182.097,22.677 L182.165,22.677 L188.829,39.711 L194.167,39.711 L199.301,15.435 L194.405,15.435 L190.937,32.707 L190.869,32.707 L184.273,15.435 z" fill="#8AAF8A"/>
    <path d="M200.219,29.545 Q200.219,34.747 203.024,37.501 Q205.829,40.255 210.997,40.255 Q214.193,40.255 216.658,39.048 Q219.123,37.841 220.806,35.767 Q222.489,33.693 223.373,30.973 Q224.257,28.253 224.257,25.261 Q224.257,22.711 223.492,20.773 Q222.727,18.835 221.333,17.509 Q219.939,16.183 217.933,15.52 Q215.927,14.857 213.479,14.857 Q210.419,14.857 207.954,16.047 Q205.489,17.237 203.772,19.26 Q202.055,21.283 201.137,23.935 Q200.219,26.587 200.219,29.545 z M205.557,29.545 Q205.557,27.811 206.033,25.992 Q206.509,24.173 207.478,22.694 Q208.447,21.215 209.96,20.28 Q211.473,19.345 213.513,19.345 Q215.009,19.345 216.029,19.855 Q217.049,20.365 217.695,21.215 Q218.341,22.065 218.63,23.204 Q218.919,24.343 218.919,25.635 Q218.919,27.369 218.426,29.171 Q217.933,30.973 216.947,32.452 Q215.961,33.931 214.499,34.866 Q213.037,35.801 211.065,35.801 Q209.603,35.801 208.566,35.291 Q207.529,34.781 206.866,33.914 Q206.203,33.047 205.88,31.925 Q205.557,30.803 205.557,29.545 z" fill="#8AAF8A"/>
    <path d="M248.465,39.711 L259.855,15.435 L254.517,15.435 L247.105,33.149 L247.037,33.149 L246.425,15.435 L241.325,15.435 L233.641,33.217 L233.573,33.217 L233.233,15.435 L227.895,15.435 L229.561,39.711 L234.933,39.711 L242.481,22.371 L242.549,22.371 L243.161,39.711 z" fill="#8AAF8A"/>
    <path d="M278.691,15.435 L264.377,39.711 L269.987,39.711 L273.047,34.305 L282.125,34.305 L282.907,39.711 L288.211,39.711 L284.165,15.435 z M275.155,30.327 L280.391,20.671 L280.459,20.671 L281.649,30.327 z" fill="#8AAF8A"/>
    <path d="M295.249,15.435 L290.149,39.711 L295.113,39.711 L298.581,22.677 L298.649,22.677 L305.313,39.711 L310.651,39.711 L315.785,15.435 L310.889,15.435 L307.421,32.707 L307.353,32.707 L300.757,15.435 z" fill="#8AAF8A"/>
    <path d="M321.599,35.223 L324.863,19.923 L328.875,19.923 Q330.303,19.923 331.306,20.348 Q332.309,20.773 332.955,21.555 Q333.601,22.337 333.89,23.408 Q334.179,24.479 334.179,25.805 Q334.179,27.743 333.618,29.443 Q333.057,31.143 331.986,32.435 Q330.915,33.727 329.334,34.475 Q327.753,35.223 325.713,35.223 z M320.443,15.435 L315.343,39.711 L325.475,39.711 Q328.977,39.711 331.612,38.589 Q334.247,37.467 335.998,35.478 Q337.749,33.489 338.633,30.769 Q339.517,28.049 339.517,24.887 Q339.517,20.365 336.933,17.9 Q334.349,15.435 329.215,15.435 z" fill="#8AAF8A"/>
    <path d="M368.315,37.229 L368.315,39.711 L371.681,39.711 L374.469,26.587 L364.167,26.587 L363.317,30.565 L368.927,30.565 Q368.587,31.721 368.06,32.69 Q367.533,33.659 366.734,34.339 Q365.935,35.019 364.83,35.41 Q363.725,35.801 362.195,35.801 Q360.733,35.801 359.696,35.291 Q358.659,34.781 357.996,33.914 Q357.333,33.047 357.01,31.925 Q356.687,30.803 356.687,29.545 Q356.687,27.811 357.163,25.992 Q357.639,24.173 358.608,22.694 Q359.577,21.215 361.09,20.28 Q362.603,19.345 364.643,19.345 Q366.887,19.345 368.179,20.28 Q369.471,21.215 369.573,23.459 L374.911,23.459 Q374.911,21.215 374.095,19.6 Q373.279,17.985 371.885,16.931 Q370.491,15.877 368.621,15.367 Q366.751,14.857 364.609,14.857 Q361.549,14.857 359.084,16.047 Q356.619,17.237 354.902,19.26 Q353.185,21.283 352.267,23.935 Q351.349,26.587 351.349,29.545 Q351.349,34.747 354.154,37.501 Q356.959,40.255 362.127,40.255 Q363.861,40.255 365.459,39.558 Q367.057,38.861 368.247,37.229 z" fill="#8AAF8A"/>
    <path d="M380.895,15.435 L375.795,39.711 L381.133,39.711 L386.267,15.435 z" fill="#8AAF8A"/>
    <path d="M397.215,39.711 L410.169,15.435 L404.627,15.435 L395.413,33.659 L395.345,33.659 L393.747,15.435 L388.409,15.435 L391.197,39.711 z" fill="#8AAF8A"/>
    <path d="M412.345,15.435 L407.279,39.711 L425.979,39.711 L426.931,35.223 L413.535,35.223 L414.793,29.273 L426.999,29.273 L427.883,25.125 L415.677,25.125 L416.765,19.923 L429.957,19.923 L430.875,15.435 z" fill="#8AAF8A"/>
    <path d="M449.423,24.135 L455.813,24.121 C466.648,24.098 475.45,33 475.474,44.004 L476.386,474.366 C476.41,485.37 467.645,494.309 456.81,494.332 L345.362,494.347" fill-opacity="0" stroke="#7D7D7D" stroke-width="7" stroke-linecap="round" stroke-linejoin="round"/>
  </g>
  <g id="Swiftgive_Logo">
    <g>
      <path d="M219.592,495.947 L224.128,489.282 L224.496,488.759 Q225.634,487.082 227.181,487.082 Q228.161,487.082 228.849,487.725 Q229.537,488.367 229.622,489.347 Q229.712,490.371 228.53,492.048 L221.262,502.329 Q219.827,504.354 218.106,504.354 Q216.691,504.354 215.617,503.287 Q214.544,502.22 214.408,500.673 Q214.374,500.281 214.403,499.867 L214.779,495.947 L210.894,502.329 Q209.677,504.354 207.978,504.354 Q206.519,504.354 205.483,503.222 Q204.448,502.089 204.291,500.303 Q204.268,500.042 204.275,499.867 L204.086,490.741 Q204.063,488.977 204.775,488.03 Q205.487,487.082 206.859,487.082 Q208.906,487.082 209.103,489.326 Q209.135,489.696 209.132,490.153 L209.055,496.252 L213.305,489.304 Q214.657,487.082 216.704,487.082 Q217.967,487.082 218.771,487.801 Q219.574,488.52 219.681,489.739 Q219.725,490.24 219.724,490.48 z" fill="#8AAF8A"/>
      <path d="M235.069,499.301 L237.531,499.301 Q240.275,499.301 240.445,501.24 Q240.561,502.568 239.656,503.309 Q238.752,504.049 237.009,504.049 L233.546,504.049 Q231.629,504.049 230.461,503.265 Q229.292,502.481 229.174,501.131 Q229.111,500.412 229.472,499.301 L232.292,490.458 L232.478,489.848 Q233.265,487.387 235.486,487.387 Q236.401,487.387 237.119,487.997 Q237.836,488.607 237.911,489.456 Q237.972,490.153 237.509,491.591 z M236.294,480.439 Q237.557,480.439 238.517,481.321 Q239.476,482.203 239.587,483.466 Q239.697,484.73 238.892,485.612 Q238.087,486.494 236.824,486.494 Q235.561,486.494 234.601,485.612 Q233.642,484.73 233.531,483.466 Q233.421,482.203 234.226,481.321 Q235.031,480.439 236.294,480.439 z" fill="#8AAF8A"/>
      <path d="M259.797,474.318 Q262.585,474.318 262.753,476.235 Q262.873,477.607 261.96,478.37 Q261.046,479.132 259.304,479.132 L258.65,479.132 Q256.821,479.132 255.829,479.873 Q254.838,480.613 254.273,482.377 L252.664,487.387 L255.67,487.387 Q258.436,487.387 258.606,489.326 Q258.722,490.654 257.817,491.395 Q256.913,492.135 255.17,492.135 L251.163,492.135 L246.465,506.903 L246.459,506.903 L245.981,508.406 Q244.884,511.803 243.06,513.23 Q241.235,514.657 237.968,514.657 L235.485,514.657 Q232.697,514.657 232.529,512.74 Q232.409,511.368 233.323,510.605 Q234.236,509.843 235.978,509.843 L236.632,509.843 Q238.462,509.843 239.453,509.103 Q240.445,508.362 241.009,506.598 L245.63,492.135 L244.149,492.135 Q241.383,492.135 241.217,490.24 Q241.099,488.89 242.003,488.138 Q242.906,487.387 244.649,487.387 L247.132,487.387 L249.301,480.57 Q250.398,477.172 252.223,475.745 Q254.047,474.318 257.314,474.318 L259.797,474.318 z" fill="#8AAF8A"/>
      <path d="M266.505,487.246 L267.181,487.246 Q269.947,487.246 270.116,489.184 Q270.233,490.513 269.317,491.254 Q268.402,491.994 266.681,491.994 L265.091,491.994 L262.799,499.16 L265.239,499.16 Q268.005,499.16 268.175,501.099 Q268.291,502.427 267.386,503.168 Q266.482,503.908 264.74,503.908 L260.841,503.908 Q259.185,503.908 258.149,503.146 Q257.114,502.384 256.999,501.077 Q256.929,500.271 257.235,499.291 L257.565,498.332 L259.581,491.994 L259.254,491.994 Q256.814,491.994 256.649,490.099 Q256.53,488.749 257.434,487.997 Q258.338,487.246 260.08,487.246 L261.082,487.246 L261.987,484.393 L262.175,483.804 Q262.987,481.387 265.187,481.387 Q266.08,481.387 266.775,481.986 Q267.47,482.585 267.544,483.434 Q267.616,484.262 267.161,485.525 z" fill="#8AAF8A"/>
      <path d="M282.926,504.659 L285.54,504.659 Q288.306,504.659 288.474,506.576 Q288.59,507.905 287.675,508.656 Q286.761,509.408 285.04,509.408 L281.425,509.408 L280.706,511.651 Q278.088,519.819 271.685,519.819 Q268.33,519.819 265.917,517.75 Q263.503,515.68 263.231,512.566 Q263.054,510.54 263.976,508.765 Q264.899,506.99 266.681,505.944 Q268.877,504.659 272.776,504.659 L277.459,504.659 L277.986,502.96 Q276.686,503.788 275.466,503.788 Q273.135,503.788 271.546,502.176 Q269.957,500.564 269.73,497.973 Q269.364,493.791 272.011,490.436 Q274.658,487.082 278.317,487.082 Q280.996,487.082 282.477,488.825 Q283.348,487.082 285.222,487.082 Q286.136,487.082 286.831,487.681 Q287.526,488.28 287.601,489.129 Q287.66,489.805 287.215,491.199 z M279.523,498.125 L280.91,493.812 Q281.08,493.268 281.049,492.919 Q280.992,492.266 280.377,491.83 Q279.762,491.395 278.89,491.395 Q277.322,491.395 276.053,493.192 Q274.783,494.989 274.959,496.992 Q275.159,499.279 277.293,499.279 Q279.145,499.279 279.523,498.125 z M275.936,509.408 L272.168,509.408 Q270.207,509.408 269.202,510.235 Q268.196,511.063 268.327,512.566 Q268.417,513.589 269.22,514.308 Q270.024,515.027 271.113,515.027 Q272.681,515.027 273.749,513.785 Q274.816,512.544 275.936,509.408 z" fill="#8AAF8A"/>
      <path d="M293.774,499.301 L296.235,499.301 Q298.979,499.301 299.149,501.24 Q299.265,502.568 298.361,503.309 Q297.456,504.049 295.714,504.049 L292.251,504.049 Q290.334,504.049 289.165,503.265 Q287.997,502.481 287.879,501.131 Q287.816,500.412 288.176,499.301 L290.996,490.458 L291.182,489.848 Q291.969,487.387 294.191,487.387 Q295.105,487.387 295.823,487.997 Q296.541,488.607 296.615,489.456 Q296.676,490.153 296.214,491.591 z M294.999,480.439 Q296.262,480.439 297.221,481.321 Q298.18,482.203 298.291,483.466 Q298.401,484.73 297.597,485.612 Q296.792,486.494 295.528,486.494 Q294.265,486.494 293.306,485.612 Q292.346,484.73 292.236,483.466 Q292.125,482.203 292.93,481.321 Q293.735,480.439 294.999,480.439 z" fill="#8AAF8A"/>
      <path d="M304.817,496.383 L309.268,489.5 L309.609,488.912 Q310.712,487.082 312.28,487.082 Q313.304,487.082 314.014,487.725 Q314.723,488.367 314.811,489.369 Q314.906,490.458 313.748,492.157 L306.602,502.59 Q305.406,504.354 303.576,504.354 Q302.03,504.354 301.043,503.276 Q300.055,502.198 299.891,500.325 Q299.857,499.933 299.858,499.693 L299.882,491.003 Q299.88,489.238 300.594,488.313 Q301.308,487.387 302.658,487.387 Q304.727,487.387 304.91,489.478 Q304.937,489.783 304.915,490.523 z" fill="#8AAF8A"/>
      <path d="M320.078,497.668 Q320.221,499.301 322.682,499.301 L329.151,499.301 Q331.896,499.301 332.065,501.24 Q332.181,502.568 331.277,503.309 Q330.372,504.049 328.63,504.049 L322.466,504.049 Q319.025,504.049 317.079,502.35 Q315.133,500.652 314.848,497.384 Q314.48,493.181 317.055,490.131 Q319.631,487.082 323.552,487.082 Q326.405,487.082 328.267,488.574 Q330.129,490.066 330.343,492.505 Q330.6,495.446 328.328,496.862 Q327.07,497.668 324.434,497.668 z M320.777,493.703 L323.173,493.703 Q325.503,493.703 325.348,492.68 Q325.182,491.525 323.744,491.525 Q321.741,491.525 320.777,493.703 z" fill="#8AAF8A"/>
      <path d="M197.505,474.765 Q198.294,474.765 198.908,475.295 Q199.521,475.824 199.587,476.574 C199.591,477.154 199.613,476.836 199.487,477.526 C200.405,477.734 201.197,478.249 201.949,478.792 Q204.094,480.495 204.336,483.205 Q204.714,486.99 201.723,488.912 C200.46,489.636 199.001,489.747 197.578,489.805 L197.389,489.801 C196.129,489.734 195.388,488.758 195.269,487.58 C195.319,486.357 196.184,485.48 197.389,485.359 L197.389,485.348 C198.705,485.2 199.6,484.698 199.648,483.297 Q199.572,482.454 198.75,481.942 Q197.927,481.429 196.636,481.429 Q194.615,481.429 193.069,482.656 C192.106,483.433 191.762,483.828 191.561,485.107 L191.558,485.104 C191.394,486.909 193.049,488.515 194.188,489.764 L196.096,491.924 L197.191,493.115 Q200.379,496.652 200.724,500.599 C200.909,502.408 200.605,503.346 200.13,504.982 C199.261,506.643 199.705,505.954 198.876,507.103 C196.878,509.666 193.848,510.923 190.645,510.995 C190.189,512.292 189.384,512.923 188.029,513.019 L188.029,513.02 Q187.24,513.019 186.626,512.49 Q186.012,511.961 185.947,511.211 C185.943,510.648 185.921,510.949 186.038,510.31 C184.773,509.975 183.718,509.185 182.719,508.375 Q179.761,505.748 179.402,501.646 C179.188,499.555 179.518,497.493 180.676,495.877 C181.437,494.816 182.221,494.136 183.215,493.277 Q185.321,491.501 187.234,491.501 L187.497,491.52 C187.991,491.643 188.219,491.747 188.629,492.036 Q189.315,492.613 189.395,493.525 Q189.503,494.753 188.123,495.647 L186.707,496.559 Q185.488,497.36 184.753,498.793 L184.478,499.419 C184.3,499.949 184.196,500.629 184.187,501.499 Q184.377,503.678 185.976,505.098 Q187.574,506.517 189.845,506.517 Q192.354,506.517 194.039,504.64 Q195.724,502.763 195.502,500.217 Q195.361,498.606 194.494,497.287 Q193.628,495.969 190.896,493.204 Q188.988,491.281 188.111,489.834 C187.382,488.475 186.893,487.542 186.801,485.094 C186.716,482.832 188.006,480.973 189.63,479.46 C191.08,478.193 192.855,477.549 194.729,477.261 L194.845,476.901 Q195.562,474.765 197.505,474.765 L197.505,474.765 z" fill="#8AAF8A"/>
      <path d="M176.747,470.155 L184.855,470.155 C185.96,470.155 186.636,471.051 186.366,472.155 L184.385,480.263 C184.115,481.368 183.001,482.263 181.896,482.263 L173.789,482.263 C172.684,482.263 172.007,481.368 172.277,480.263 L174.259,472.155 C174.529,471.051 175.643,470.155 176.747,470.155 z" fill="#7D7D7D"/>
      <path d="M213.129,470.155 L221.237,470.155 C222.342,470.155 223.018,471.051 222.748,472.155 L220.767,480.263 C220.497,481.368 219.383,482.263 218.278,482.263 L210.171,482.263 C209.066,482.263 208.389,481.368 208.659,480.263 L210.641,472.155 C210.911,471.051 212.025,470.155 213.129,470.155 z" fill="#7D7D7D"/>
      <path d="M167.474,508.815 L175.582,508.815 C176.686,508.815 177.363,509.71 177.093,510.815 L175.112,518.923 C174.842,520.027 173.728,520.923 172.623,520.923 L164.515,520.923 C163.411,520.923 162.734,520.027 163.004,518.923 L164.985,510.815 C165.255,509.71 166.37,508.815 167.474,508.815 z" fill="#7D7D7D"/>
      <path d="M202.205,508.815 L207.041,508.815 C207.7,508.815 208.104,509.349 207.943,510.008 L206.761,514.844 C206.6,515.503 205.935,516.037 205.277,516.037 L200.44,516.037 C199.782,516.037 199.378,515.503 199.539,514.844 L200.721,510.008 C200.882,509.349 201.546,508.815 202.205,508.815 z" fill="#7D7D7D"/>
    </g>
  </g>
  <g id="S">
    <g>
      <path d="M280.594,138.137 Q285.64,138.138 289.567,141.522 Q293.494,144.906 293.914,149.706 C293.938,153.16 294.081,151.381 293.411,155.035 C300.171,156.465 306.025,159.907 311.543,163.896 Q325.267,174.791 326.818,192.13 Q329.233,216.34 310.101,228.641 C302.02,233.273 292.683,233.982 283.58,234.35 L282.37,234.326 C274.31,233.898 269.572,227.653 268.812,220.117 C269.132,212.292 274.662,206.686 282.37,205.908 L282.37,205.835 C290.79,204.893 296.514,201.677 296.821,192.715 Q296.339,187.326 291.078,184.046 Q285.816,180.766 277.556,180.766 Q264.626,180.766 254.733,188.615 C248.577,193.59 246.377,196.117 245.085,204.297 L245.069,204.279 C244.019,215.826 254.608,226.1 261.891,234.091 L274.1,247.905 L281.104,255.527 Q301.499,278.156 303.708,303.404 C304.893,314.977 302.948,320.979 299.905,331.443 C294.345,342.073 297.19,337.664 291.888,345.011 C279.101,361.412 259.721,369.45 239.23,369.909 C236.314,378.21 231.163,382.242 222.492,382.862 L222.492,382.863 Q217.446,382.862 213.519,379.478 Q209.592,376.094 209.173,371.294 C209.146,367.692 209.004,369.619 209.754,365.528 C201.661,363.387 194.914,358.331 188.524,353.153 Q169.597,336.342 167.302,310.1 C165.935,296.723 168.047,283.531 175.453,273.198 C180.321,266.406 185.339,262.057 191.698,256.562 Q205.171,245.199 217.404,245.199 L219.086,245.323 C222.249,246.111 223.706,246.774 226.333,248.62 Q230.722,252.312 231.233,258.148 Q231.92,266.008 223.094,271.725 L214.037,277.56 Q206.236,282.681 201.537,291.852 L199.778,295.857 C198.639,299.246 197.97,303.594 197.913,309.163 Q199.133,323.104 209.358,332.183 Q219.583,341.262 234.109,341.262 Q250.159,341.262 260.94,329.254 Q271.722,317.246 270.297,300.962 Q269.396,290.653 263.854,282.218 Q258.313,273.784 240.833,256.094 Q228.628,243.793 223.015,234.538 C218.355,225.841 215.228,219.875 214.64,204.213 C214.096,189.744 222.348,177.85 232.733,168.172 C241.315,160.948 251.63,156.214 262.707,154.512 L263.575,151.798 Q268.164,138.138 280.594,138.138 L280.594,138.137 z M280.597,144.745 L280.594,144.745 C274.52,144.717 271.74,148.619 269.845,153.886 L269,156.525 L267.754,160.421 L263.711,161.043 C253.768,162.461 244.909,167.004 237.095,173.143 C228.197,181.273 221.203,191.565 221.243,203.965 C221.29,214.89 223.713,221.734 228.738,231.227 C233.372,238.711 239.418,245.171 245.533,251.449 C257.476,263.535 265.377,272.501 269.377,278.59 C273.676,285.134 276.184,292.431 276.88,300.387 C277.989,313.058 274.272,324.297 265.857,333.669 C257.418,343.068 246.688,347.87 234.109,347.87 C222.834,347.87 213.017,344.269 204.97,337.124 C196.883,329.943 192.29,320.704 191.33,309.739 L191.302,309.418 L191.305,309.095 C191.367,303.047 192.096,297.973 193.514,293.752 L193.609,293.471 L193.728,293.2 L195.488,289.194 L195.567,289.014 L195.656,288.839 C199.297,281.732 204.228,276.095 210.458,272.005 L219.502,266.178 C223.485,263.599 224.874,261.282 224.65,258.724 C224.533,256.678 223.606,255.21 222.196,253.794 C220.946,252.836 219.52,252.261 218.007,251.869 L217.27,251.815 C209.064,251.983 202.203,256.631 196.018,261.562 C187.576,268.857 184.562,271.832 180.824,277.047 C174.86,285.368 172.563,296.582 173.875,309.429 L173.884,309.524 C174.973,324.616 181.832,337.92 192.829,348.136 C198.422,352.809 204.416,356.998 211.444,359.14 L217.357,360.704 L216.254,366.72 C216.092,367.6 215.986,368.142 215.818,368.966 L215.753,369.286 L215.754,369.359 C215.756,369.467 215.765,369.997 215.766,370.071 C215.775,370.71 215.773,370.456 215.776,370.833 C215.859,372.336 216.825,373.466 217.833,374.473 C219.076,375.633 220.682,376.105 222.335,376.242 C228.251,375.888 230.871,373.006 232.996,367.719 L234.511,363.406 L239.082,363.303 C257.964,362.866 274.533,355.591 286.636,340.998 C287.498,339.804 288.368,338.617 289.233,337.426 C289.697,336.781 289.875,336.511 290.046,336.209 C291.275,333.796 292.492,331.377 293.741,328.974 C294.803,325.332 295.898,321.696 296.65,317.975 C297.515,313.57 297.69,309.497 297.135,304.077 L297.125,303.979 C295.785,288.655 288.874,274.018 276.238,259.998 L269.234,252.376 L269.148,252.281 L256.982,238.514 C255.254,236.637 253.521,234.764 251.811,232.871 C247.66,228.234 244.728,224.41 242.471,220.325 C239.431,214.825 237.975,209.325 238.488,203.681 L239.969,197.44 L242.5,191.774 C244.579,188.457 247.637,185.902 250.626,183.438 C258.397,177.273 267.454,174.158 277.556,174.158 C284.221,174.158 289.928,175.543 294.573,178.439 C299.775,181.682 302.889,186.382 303.402,192.127 L303.439,192.534 L303.425,192.941 C303.194,201.771 297.778,209.206 288.998,211.244 L283.033,212.483 C278.795,212.952 275.977,215.742 275.468,219.95 C276.043,224.369 278.247,227.085 282.691,227.723 L283.498,227.739 C291.676,227.451 299.277,226.818 306.681,222.978 C317.924,215.629 321.204,205.689 320.236,192.718 C319.54,183.212 314.77,175.165 307.539,169.158 C302.867,165.646 297.726,162.908 292.044,161.5 L285.752,160.169 L286.912,153.843 C286.992,153.403 287.067,153.009 287.141,152.631 C287.191,152.375 287.179,152.438 287.297,151.847 L287.334,151.666 L287.333,151.595 C287.332,151.532 287.323,151.068 287.32,150.891 C287.311,150.281 287.313,150.522 287.31,150.168 C287.227,148.665 286.262,147.534 285.253,146.527 C283.891,145.283 282.375,144.893 280.597,144.745 z" fill="#7D7D7D"/>
      <path d="M274.989,134.137 L280.595,134.137 C284.924,134.138 288.84,135.615 292.178,138.492 C295.57,141.416 297.526,145.097 297.898,149.357 L297.912,149.517 L297.913,149.677 C297.918,150.3 297.926,150.762 297.939,151.413 C297.94,152.131 297.955,151.883 297.937,152.16 C303.799,153.857 308.936,157.193 313.887,160.654 L314.03,160.763 C324.036,168.707 329.67,179.121 330.798,191.732 C332.554,209.338 326.311,222.974 312.264,232.006 L312.09,232.111 C304.512,236.455 296.924,237.813 283.742,238.347 L283.621,238.352 L283.499,238.349 L282.289,238.325 L282.158,238.32 C272.426,237.804 265.832,230.432 264.833,220.518 L264.804,220.237 L264.816,219.954 C265.206,211.784 270.434,204.885 278.355,202.69 L278.353,202.259 L281.925,201.859 C287.904,201.226 292.365,199.44 292.805,192.855 C292.578,190.398 290.89,188.752 288.961,187.441 C286.143,185.683 282.362,184.766 277.556,184.766 C269.833,184.766 263.103,187.081 257.247,191.726 C251.941,195.857 250.258,198.103 249.05,204.844 C248.778,213.197 254.512,219.878 259.714,225.795 C260.853,227.067 264.691,231.225 264.888,231.442 L277.045,245.199 L284.075,252.849 C298.228,268.552 306.14,285.311 307.687,302.996 C308.348,309.449 308.128,314.574 307.06,320.018 C306.42,323.277 306.021,324.737 303.746,332.56 L303.634,332.943 L303.449,333.297 C301.824,336.404 299.559,340.937 299.283,341.425 C298.889,342.123 298.514,342.69 297.842,343.623 C297.68,343.849 295.944,346.226 295.132,347.352 L295.043,347.47 C282.183,363.757 262.523,372.825 241.946,373.786 C239.076,380.519 233.535,384.928 226.39,386.325 L226.374,386.863 L222.491,386.862 C218.162,386.862 214.246,385.385 210.908,382.508 C207.516,379.584 205.56,375.903 205.188,371.642 L205.174,371.483 L205.173,371.323 C205.17,370.94 205.166,370.605 205.16,370.246 C205.159,370.191 205.149,369.636 205.147,369.503 C205.152,368.589 205.133,369.01 205.191,368.237 C197.988,365.682 191.9,360.988 186.005,356.261 L185.867,356.143 C172.477,344.25 164.935,328.95 163.322,310.507 C161.765,295.264 164.587,281.493 172.202,270.867 C176.568,264.776 180.039,261.351 189.119,253.504 C198.767,245.367 208.197,241.199 217.404,241.199 L217.552,241.199 L217.7,241.21 L219.382,241.334 L219.722,241.359 L220.052,241.442 C221.273,241.775 222.538,242.045 223.694,242.572 C220.598,238.293 221.942,240.295 219.595,236.612 L219.489,236.427 C213.05,224.409 211.173,218.487 210.643,204.363 C210.103,189.999 217.094,177.278 230.006,165.246 L230.157,165.112 C238.649,158.043 248.745,153.086 259.623,151.027 L259.784,150.524 C262.62,142.221 266.882,137.474 275.198,134.747 L274.989,134.137 z M280.594,138.137 L280.594,138.138 Q268.164,138.138 263.575,151.798 L262.707,154.512 C251.63,156.214 241.315,160.948 232.733,168.172 C222.348,177.85 214.096,189.744 214.64,204.213 C215.228,219.875 218.355,225.841 223.015,234.538 Q228.628,243.793 240.833,256.094 Q258.313,273.784 263.854,282.218 Q269.396,290.653 270.297,300.962 Q271.722,317.246 260.94,329.254 Q250.159,341.262 234.109,341.262 Q219.583,341.262 209.357,332.183 Q199.133,323.104 197.913,309.163 C197.97,303.594 198.639,299.246 199.778,295.857 L201.537,291.852 Q206.236,282.681 214.037,277.56 L223.094,271.725 Q231.92,266.008 231.233,258.148 Q230.722,252.312 226.333,248.62 C223.706,246.774 222.249,246.111 219.086,245.323 L217.404,245.199 Q205.171,245.199 191.698,256.562 C185.339,262.057 180.321,266.406 175.453,273.198 C168.047,283.531 165.935,296.723 167.301,310.1 Q169.597,336.342 188.523,353.153 C194.914,358.331 201.661,363.387 209.754,365.528 C209.004,369.619 209.146,367.692 209.173,371.294 Q209.592,376.094 213.519,379.478 Q217.446,382.862 222.492,382.862 L222.492,382.862 C231.163,382.242 236.314,378.21 239.23,369.909 C259.721,369.45 279.101,361.412 291.888,345.011 C297.19,337.664 294.345,342.073 299.905,331.443 C302.948,320.979 304.893,314.977 303.708,303.404 Q301.499,278.156 281.103,255.527 L274.1,247.905 L261.891,234.091 C254.608,226.1 244.019,215.826 245.068,204.279 L245.085,204.297 C246.377,196.117 248.577,193.59 254.733,188.615 Q264.626,180.766 277.556,180.766 Q285.816,180.766 291.078,184.046 Q296.339,187.326 296.821,192.715 C296.514,201.677 290.79,204.893 282.37,205.835 L282.37,205.908 C274.662,206.686 269.132,212.292 268.812,220.117 C269.572,227.653 274.31,233.898 282.37,234.326 L283.58,234.35 C292.683,233.982 302.02,233.273 310.101,228.641 Q329.233,216.34 326.818,192.13 Q325.267,174.791 311.543,163.896 C306.025,159.907 300.171,156.465 293.411,155.035 C294.081,151.381 293.938,153.16 293.914,149.706 Q293.494,144.906 289.567,141.522 Q285.64,138.138 280.594,138.137 z M280.597,144.745 C282.375,144.893 283.891,145.283 285.253,146.527 C286.262,147.534 287.227,148.665 287.31,150.168 C287.313,150.522 287.311,150.281 287.32,150.891 C287.323,151.068 287.332,151.532 287.333,151.595 L287.334,151.666 L287.297,151.847 C287.179,152.438 287.191,152.375 287.141,152.631 C287.067,153.009 286.992,153.403 286.912,153.843 L285.752,160.169 L292.044,161.5 C297.726,162.908 302.867,165.646 307.539,169.158 C314.77,175.165 319.54,183.212 320.236,192.718 C321.204,205.689 317.924,215.629 306.681,222.978 C299.277,226.818 291.676,227.451 283.498,227.739 L282.691,227.723 C278.247,227.085 276.043,224.369 275.468,219.95 C275.977,215.742 278.795,212.952 283.033,212.483 L288.997,211.244 C297.778,209.206 303.194,201.771 303.425,192.941 L303.439,192.533 L303.402,192.127 C302.889,186.382 299.775,181.682 294.573,178.439 C289.928,175.543 284.221,174.158 277.556,174.158 C267.454,174.158 258.397,177.273 250.626,183.438 C247.637,185.902 244.579,188.457 242.5,191.774 L239.969,197.44 L238.488,203.681 C237.975,209.325 239.431,214.825 242.471,220.325 C244.728,224.41 247.66,228.234 251.811,232.871 C253.521,234.764 255.254,236.637 256.982,238.514 L269.148,252.281 L269.234,252.376 L276.238,259.998 C288.874,274.018 295.785,288.655 297.125,303.979 L297.135,304.077 C297.69,309.497 297.515,313.57 296.65,317.974 C295.898,321.696 294.803,325.332 293.741,328.974 C292.492,331.377 291.275,333.796 290.046,336.209 C289.875,336.511 289.697,336.781 289.233,337.426 C288.368,338.617 287.498,339.804 286.636,340.998 C274.533,355.591 257.964,362.866 239.082,363.303 L234.511,363.406 L232.996,367.719 C230.871,373.006 228.251,375.888 222.335,376.242 C220.682,376.105 219.076,375.633 217.833,374.473 C216.825,373.466 215.859,372.336 215.776,370.832 C215.773,370.456 215.775,370.71 215.766,370.071 C215.765,369.997 215.756,369.467 215.754,369.359 L215.753,369.286 L215.818,368.966 C215.986,368.142 216.092,367.6 216.254,366.72 L217.357,360.704 L211.444,359.14 C204.416,356.998 198.422,352.809 192.829,348.136 C181.832,337.92 174.973,324.616 173.884,309.524 L173.875,309.428 C172.563,296.582 174.86,285.368 180.824,277.047 C184.562,271.832 187.576,268.857 196.018,261.562 C202.203,256.631 209.064,251.983 217.27,251.815 L218.007,251.869 C219.52,252.261 220.946,252.836 222.196,253.794 C223.606,255.21 224.533,256.678 224.65,258.724 C224.874,261.282 223.485,263.599 219.502,266.178 L210.458,272.005 C204.228,276.095 199.297,281.732 195.656,288.839 L195.567,289.014 L195.488,289.194 L193.728,293.2 L193.609,293.471 L193.514,293.752 C192.096,297.973 191.367,303.047 191.305,309.095 L191.302,309.418 L191.33,309.739 C192.29,320.704 196.883,329.943 204.97,337.124 C213.017,344.269 222.834,347.87 234.109,347.87 C246.688,347.87 257.418,343.068 265.857,333.669 C274.272,324.297 277.989,313.058 276.88,300.386 C276.184,292.431 273.676,285.134 269.377,278.59 C265.377,272.501 257.476,263.535 245.533,251.449 C239.418,245.171 233.372,238.711 228.738,231.227 C223.713,221.734 221.29,214.89 221.243,203.965 C221.203,191.565 228.197,181.273 237.095,173.143 C244.909,167.004 253.768,162.461 263.711,161.042 L267.754,160.421 L269,156.525 L269.845,153.886 C271.74,148.619 274.52,144.717 280.594,144.745 L280.597,144.745 z M280.449,148.753 C276.493,148.717 274.892,151.987 273.623,155.204 L272.81,157.745 L271.563,161.64 L270.809,163.999 L268.361,164.375 L264.276,165.002 C255.071,166.24 247.01,170.746 239.676,176.207 C231.562,183.473 225.567,192.849 225.243,203.947 C224.933,213.012 228.103,221.331 232.204,229.221 C236.652,236.424 242.514,242.587 248.378,248.638 C260.578,260.984 268.563,270.066 272.72,276.394 C277.382,283.49 280.111,291.422 280.865,300.038 C282.07,313.814 277.987,326.147 268.833,336.341 C259.635,346.586 247.823,351.87 234.109,351.87 C221.849,351.87 211.09,347.908 202.314,340.115 C193.464,332.256 188.394,322.073 187.345,310.087 L187.317,309.765 L187.3,309.571 L187.302,309.377 L187.305,309.054 C187.372,302.607 188.16,297.127 189.723,292.478 L189.817,292.197 L189.874,292.026 L189.947,291.861 L190.066,291.591 L191.825,287.585 L191.904,287.405 L191.952,287.296 L192.007,287.19 L192.096,287.014 C196.06,279.278 201.464,273.125 208.292,268.642 L217.327,262.821 C220.049,261.058 220.748,260.014 220.665,259.073 L220.656,258.951 C220.636,258.105 220.1,257.428 219.557,256.831 C218.891,256.328 218.086,256.061 217.295,255.827 L217.234,255.823 C210.018,256.077 204.035,260.359 198.566,264.647 C193.246,269.083 188.202,273.791 184.075,279.377 C178.785,286.759 176.622,296.956 177.857,309.051 L177.874,309.236 C178.792,323.211 185.563,335.518 195.482,345.138 C200.555,349.539 206.209,353.128 212.574,355.301 L218.38,356.837 L221.959,357.784 L221.291,361.425 L220.188,367.441 C220.054,368.181 219.908,368.919 219.76,369.657 C219.764,369.918 219.762,369.8 219.766,370.014 C219.769,370.237 219.771,370.377 219.773,370.492 C219.774,370.606 219.774,370.566 219.774,370.611 C219.776,370.61 219.777,370.609 219.779,370.608 C219.798,370.638 219.817,370.668 219.836,370.698 C220.272,371.266 220.025,370.972 220.589,371.568 C221.078,372.011 221.75,372.134 222.383,372.218 C226.38,372.024 227.806,369.62 229.263,366.276 L230.737,362.08 L231.654,359.469 L234.421,359.407 L238.989,359.304 C256.785,358.958 271.824,351.858 283.495,338.515 C284.009,337.803 284.527,337.093 285.044,336.383 C285.044,336.383 285.044,336.383 285.044,336.383 C285.522,335.728 285.733,335.437 285.987,335.088 C286.173,334.825 286.369,334.567 286.535,334.29 C286.845,333.68 287.155,333.069 287.465,332.459 C287.466,332.457 287.466,332.457 287.467,332.454 C288.309,330.793 289.154,329.134 290.01,327.48 L290.14,327.036 C290.16,326.97 290.16,326.97 290.179,326.903 C291.604,322.029 292.187,319.867 292.725,317.204 C293.527,313.121 293.662,309.432 293.153,304.456 L293.14,304.328 C291.877,289.88 285.316,276.045 273.293,262.704 L266.263,255.055 L266.151,254.93 L254.038,241.223 C253.782,240.944 253.578,240.722 253.116,240.221 L253.107,240.211 C250.974,237.897 250.024,236.859 248.831,235.539 C244.296,230.473 241.302,226.479 238.97,222.26 C235.469,215.924 233.929,209.654 234.504,203.319 L234.53,203.035 L234.596,202.757 L236.077,196.516 L236.164,196.151 L236.317,195.808 L238.848,190.143 L238.962,189.887 L239.111,189.65 C241.153,186.393 243.353,184.25 248.14,180.305 C256.617,173.579 266.55,170.158 277.556,170.158 C285.005,170.158 291.416,171.756 296.69,175.044 C302.978,178.965 306.763,184.793 307.387,191.772 L307.423,192.178 L307.445,192.424 L307.436,192.67 L307.423,193.046 C307.141,203.865 300.311,212.724 289.811,215.16 L283.846,216.399 L283.661,216.438 L283.473,216.459 C281.429,216.688 279.914,217.902 279.526,219.966 C279.755,222.132 281.046,223.323 283.092,223.73 L283.45,223.737 C290.928,223.606 297.865,222.744 304.664,219.51 C314.447,213.224 316.845,204.064 316.246,193.01 C315.674,184.574 311.136,177.812 305.041,172.287 C300.887,169.068 296.162,166.799 291.117,165.392 L284.924,164.083 L281.115,163.277 L281.817,159.448 L282.977,153.122 C283.058,152.68 283.136,152.27 283.216,151.863 C283.245,151.71 283.245,151.71 283.27,151.584 C283.302,151.424 283.283,151.518 283.327,151.303 L283.327,151.297 C283.326,151.292 283.326,151.292 283.326,151.288 C283.323,151.101 283.323,151.101 283.32,150.95 C283.317,150.736 283.315,150.604 283.313,150.493 L283.312,150.39 C283.31,150.391 283.309,150.391 283.307,150.392 C283.288,150.362 283.269,150.332 283.25,150.302 C282.819,149.741 283.061,150.028 282.513,149.449 C281.957,148.927 281.17,148.84 280.449,148.753 z M234.905,255.735 C235.141,256.572 234.964,255.899 235.217,257.799 C235.818,264.663 232.303,270.526 225.26,275.087 L216.232,280.903 C211.355,284.022 207.882,288.595 205.137,293.603 L203.529,297.263 C202.292,301.038 202.012,305.028 201.918,308.972 C202.581,317.204 206.187,323.539 212.013,329.192 C218.085,334.584 225.388,337.262 234.109,337.262 C243.672,337.262 251.534,333.744 257.964,326.582 C264.409,319.404 267.166,311.068 266.313,301.311 C265.769,295.093 263.839,289.481 260.511,284.414 C257.002,279.073 249.466,270.521 237.994,258.911 C234.947,255.782 235.945,256.872 234.905,255.735 z" fill="#FFFFFF"/>
    </g>
  </g>
</svg>
