<?xml version="1.0" encoding="UTF-8"?>
<!DOCTYPE svg PUBLIC "-//W3C//DTD SVG 1.1//EN" "http://www.w3.org/Graphics/SVG/1.1/DTD/svg11.dtd">
<svg version="1.1" xmlns="http://www.w3.org/2000/svg" xmlns:xlink="http://www.w3.org/1999/xlink" x="0" y="0" width="500" height="530" viewBox="0, 0, 500, 530">
  <g id="Outline">
    <g>
      <g>
        <path d="M75.685,20.621 L78.915,20.621 Q78.983,18.581 78.286,17.119 Q77.589,15.657 76.365,14.722 Q75.141,13.787 73.526,13.328 Q71.911,12.869 70.109,12.869 Q68.477,12.869 66.896,13.311 Q65.315,13.753 64.074,14.637 Q62.833,15.521 62.051,16.83 Q61.269,18.139 61.269,19.907 Q61.269,21.267 61.711,22.27 Q62.153,23.273 62.901,24.004 Q63.649,24.735 64.635,25.228 Q65.621,25.721 66.709,26.027 L70.007,26.911 Q70.891,27.149 71.673,27.455 Q72.455,27.761 73.05,28.22 Q73.645,28.679 73.985,29.342 Q74.325,30.005 74.325,30.923 Q74.325,32.147 73.798,33.031 Q73.271,33.915 72.421,34.476 Q71.571,35.037 70.466,35.309 Q69.361,35.581 68.239,35.581 Q66.777,35.581 65.553,35.292 Q64.329,35.003 63.462,34.323 Q62.595,33.643 62.153,32.521 Q61.711,31.399 61.779,29.767 L58.549,29.767 Q58.379,32.011 59.042,33.626 Q59.705,35.241 60.98,36.261 Q62.255,37.281 64.091,37.774 Q65.927,38.267 68.103,38.267 Q69.735,38.267 71.418,37.825 Q73.101,37.383 74.461,36.482 Q75.821,35.581 76.688,34.204 Q77.555,32.827 77.555,30.923 Q77.555,29.291 77.062,28.169 Q76.569,27.047 75.753,26.316 Q74.937,25.585 73.883,25.126 Q72.829,24.667 71.707,24.361 L68.443,23.477 Q67.627,23.239 66.896,22.933 Q66.165,22.627 65.638,22.168 Q65.111,21.709 64.805,21.08 Q64.499,20.451 64.499,19.567 Q64.499,18.479 65.043,17.731 Q65.587,16.983 66.42,16.507 Q67.253,16.031 68.239,15.81 Q69.225,15.589 70.109,15.589 Q71.367,15.589 72.421,15.827 Q73.475,16.065 74.206,16.66 Q74.937,17.255 75.328,18.224 Q75.719,19.193 75.685,20.621 z" fill="#F0F0F0"/>
        <path d="M75.685,20.621 L78.915,20.621 Q78.983,18.581 78.286,17.119 Q77.589,15.657 76.365,14.722 Q75.141,13.787 73.526,13.328 Q71.911,12.869 70.109,12.869 Q68.477,12.869 66.896,13.311 Q65.315,13.753 64.074,14.637 Q62.833,15.521 62.051,16.83 Q61.269,18.139 61.269,19.907 Q61.269,21.267 61.711,22.27 Q62.153,23.273 62.901,24.004 Q63.649,24.735 64.635,25.228 Q65.621,25.721 66.709,26.027 L70.007,26.911 Q70.891,27.149 71.673,27.455 Q72.455,27.761 73.05,28.22 Q73.645,28.679 73.985,29.342 Q74.325,30.005 74.325,30.923 Q74.325,32.147 73.798,33.031 Q73.271,33.915 72.421,34.476 Q71.571,35.037 70.466,35.309 Q69.361,35.581 68.239,35.581 Q66.777,35.581 65.553,35.292 Q64.329,35.003 63.462,34.323 Q62.595,33.643 62.153,32.521 Q61.711,31.399 61.779,29.767 L58.549,29.767 Q58.379,32.011 59.042,33.626 Q59.705,35.241 60.98,36.261 Q62.255,37.281 64.091,37.774 Q65.927,38.267 68.103,38.267 Q69.735,38.267 71.418,37.825 Q73.101,37.383 74.461,36.482 Q75.821,35.581 76.688,34.204 Q77.555,32.827 77.555,30.923 Q77.555,29.291 77.062,28.169 Q76.569,27.047 75.753,26.316 Q74.937,25.585 73.883,25.126 Q72.829,24.667 71.707,24.361 L68.443,23.477 Q67.627,23.239 66.896,22.933 Q66.165,22.627 65.638,22.168 Q65.111,21.709 64.805,21.08 Q64.499,20.451 64.499,19.567 Q64.499,18.479 65.043,17.731 Q65.587,16.983 66.42,16.507 Q67.253,16.031 68.239,15.81 Q69.225,15.589 70.109,15.589 Q71.367,15.589 72.421,15.827 Q73.475,16.065 74.206,16.66 Q74.937,17.255 75.328,18.224 Q75.719,19.193 75.685,20.621 z" fill-opacity="0" stroke="#F0F0F0" stroke-width="3" stroke-linecap="round" stroke-linejoin="round"/>
      </g>
      <g>
        <path d="M104.311,29.529 L101.081,29.529 Q100.299,32.419 98.429,34 Q96.559,35.581 93.567,35.581 Q91.731,35.581 90.388,35.003 Q89.045,34.425 88.161,33.388 Q87.277,32.351 86.835,30.889 Q86.393,29.427 86.393,27.659 Q86.393,25.449 87.022,23.29 Q87.651,21.131 88.909,19.431 Q90.167,17.731 92.054,16.66 Q93.941,15.589 96.491,15.589 Q99.143,15.589 100.826,17 Q102.509,18.411 102.509,21.267 L105.739,21.267 Q105.739,19.159 105.025,17.578 Q104.311,15.997 103.07,14.96 Q101.829,13.923 100.146,13.396 Q98.463,12.869 96.491,12.869 Q93.397,12.869 90.915,14.076 Q88.433,15.283 86.716,17.323 Q84.999,19.363 84.081,22.032 Q83.163,24.701 83.163,27.659 Q83.163,32.725 85.866,35.496 Q88.569,38.267 93.567,38.267 Q98.055,38.267 100.724,35.938 Q103.393,33.609 104.311,29.529 z" fill="#F0F0F0"/>
        <path d="M104.311,29.529 L101.081,29.529 Q100.299,32.419 98.429,34 Q96.559,35.581 93.567,35.581 Q91.731,35.581 90.388,35.003 Q89.045,34.425 88.161,33.388 Q87.277,32.351 86.835,30.889 Q86.393,29.427 86.393,27.659 Q86.393,25.449 87.022,23.29 Q87.651,21.131 88.909,19.431 Q90.167,17.731 92.054,16.66 Q93.941,15.589 96.491,15.589 Q99.143,15.589 100.826,17 Q102.509,18.411 102.509,21.267 L105.739,21.267 Q105.739,19.159 105.025,17.578 Q104.311,15.997 103.07,14.96 Q101.829,13.923 100.146,13.396 Q98.463,12.869 96.491,12.869 Q93.397,12.869 90.915,14.076 Q88.433,15.283 86.716,17.323 Q84.999,19.363 84.081,22.032 Q83.163,24.701 83.163,27.659 Q83.163,32.725 85.866,35.496 Q88.569,38.267 93.567,38.267 Q98.055,38.267 100.724,35.938 Q103.393,33.609 104.311,29.529 z" fill-opacity="0" stroke="#F0F0F0" stroke-width="3" stroke-linecap="round" stroke-linejoin="round"/>
      </g>
      <g>
        <path d="M120.969,13.447 L106.383,37.723 L109.953,37.723 L114.203,30.413 L124.437,30.413 L125.559,37.723 L128.891,37.723 L124.505,13.447 z M115.665,27.693 L122.159,16.303 L122.227,16.303 L124.029,27.693 z" fill="#F0F0F0"/>
        <path d="M120.969,13.447 L106.383,37.723 L109.953,37.723 L114.203,30.413 L124.437,30.413 L125.559,37.723 L128.891,37.723 L124.505,13.447 z M115.665,27.693 L122.159,16.303 L122.227,16.303 L124.029,27.693 z" fill-opacity="0" stroke="#F0F0F0" stroke-width="3" stroke-linecap="round" stroke-linejoin="round"/>
      </g>
      <g>
        <path d="M138.069,13.447 L132.935,37.723 L136.063,37.723 L140.177,17.765 L140.245,17.765 L148.847,37.723 L152.315,37.723 L157.449,13.447 L154.321,13.447 L150.275,33.541 L150.207,33.541 L141.537,13.447 z" fill="#F0F0F0"/>
        <path d="M138.069,13.447 L132.935,37.723 L136.063,37.723 L140.177,17.765 L140.245,17.765 L148.847,37.723 L152.315,37.723 L157.449,13.447 L154.321,13.447 L150.275,33.541 L150.207,33.541 L141.537,13.447 z" fill-opacity="0" stroke="#F0F0F0" stroke-width="3" stroke-linecap="round" stroke-linejoin="round"/>
      </g>
      <g>
        <path d="M175.669,13.447 L170.535,37.723 L173.663,37.723 L177.777,17.765 L177.845,17.765 L186.447,37.723 L189.915,37.723 L195.049,13.447 L191.921,13.447 L187.875,33.541 L187.807,33.541 L179.137,13.447 z" fill="#F0F0F0"/>
        <path d="M175.669,13.447 L170.535,37.723 L173.663,37.723 L177.777,17.765 L177.845,17.765 L186.447,37.723 L189.915,37.723 L195.049,13.447 L191.921,13.447 L187.875,33.541 L187.807,33.541 L179.137,13.447 z" fill-opacity="0" stroke="#F0F0F0" stroke-width="3" stroke-linecap="round" stroke-linejoin="round"/>
      </g>
      <g>
        <path d="M201.167,27.659 Q201.167,25.449 201.796,23.29 Q202.425,21.131 203.683,19.431 Q204.941,17.731 206.828,16.66 Q208.715,15.589 211.265,15.589 Q212.965,15.589 214.24,16.218 Q215.515,16.847 216.399,17.918 Q217.283,18.989 217.725,20.451 Q218.167,21.913 218.167,23.613 Q218.167,25.789 217.538,27.931 Q216.909,30.073 215.668,31.773 Q214.427,33.473 212.591,34.527 Q210.755,35.581 208.341,35.581 Q206.505,35.581 205.162,35.003 Q203.819,34.425 202.935,33.388 Q202.051,32.351 201.609,30.889 Q201.167,29.427 201.167,27.659 z M197.937,27.659 Q197.937,32.725 200.64,35.496 Q203.343,38.267 208.341,38.267 Q211.367,38.267 213.798,37.06 Q216.229,35.853 217.912,33.813 Q219.595,31.773 220.496,29.121 Q221.397,26.469 221.397,23.613 Q221.397,21.369 220.7,19.397 Q220.003,17.425 218.694,15.98 Q217.385,14.535 215.498,13.702 Q213.611,12.869 211.265,12.869 Q208.171,12.869 205.689,14.076 Q203.207,15.283 201.49,17.323 Q199.773,19.363 198.855,22.032 Q197.937,24.701 197.937,27.659 z" fill="#F0F0F0"/>
        <path d="M201.167,27.659 Q201.167,25.449 201.796,23.29 Q202.425,21.131 203.683,19.431 Q204.941,17.731 206.828,16.66 Q208.715,15.589 211.265,15.589 Q212.965,15.589 214.24,16.218 Q215.515,16.847 216.399,17.918 Q217.283,18.989 217.725,20.451 Q218.167,21.913 218.167,23.613 Q218.167,25.789 217.538,27.931 Q216.909,30.073 215.668,31.773 Q214.427,33.473 212.591,34.527 Q210.755,35.581 208.341,35.581 Q206.505,35.581 205.162,35.003 Q203.819,34.425 202.935,33.388 Q202.051,32.351 201.609,30.889 Q201.167,29.427 201.167,27.659 z M197.937,27.659 Q197.937,32.725 200.64,35.496 Q203.343,38.267 208.341,38.267 Q211.367,38.267 213.798,37.06 Q216.229,35.853 217.912,33.813 Q219.595,31.773 220.496,29.121 Q221.397,26.469 221.397,23.613 Q221.397,21.369 220.7,19.397 Q220.003,17.425 218.694,15.98 Q217.385,14.535 215.498,13.702 Q213.611,12.869 211.265,12.869 Q208.171,12.869 205.689,14.076 Q203.207,15.283 201.49,17.323 Q199.773,19.363 198.855,22.032 Q197.937,24.701 197.937,27.659 z" fill-opacity="0" stroke="#F0F0F0" stroke-width="3" stroke-linecap="round" stroke-linejoin="round"/>
      </g>
      <g>
        <path d="M246.521,37.723 L257.673,13.447 L254.341,13.447 L245.501,33.949 L245.433,33.949 L244.073,13.447 L240.401,13.447 L231.085,33.881 L231.017,33.881 L230.167,13.447 L226.971,13.447 L228.501,37.723 L231.969,37.723 L241.557,16.779 L241.625,16.779 L243.155,37.723 z" fill="#F0F0F0"/>
        <path d="M246.521,37.723 L257.673,13.447 L254.341,13.447 L245.501,33.949 L245.433,33.949 L244.073,13.447 L240.401,13.447 L231.085,33.881 L231.017,33.881 L230.167,13.447 L226.971,13.447 L228.501,37.723 L231.969,37.723 L241.557,16.779 L241.625,16.779 L243.155,37.723 z" fill-opacity="0" stroke="#F0F0F0" stroke-width="3" stroke-linecap="round" stroke-linejoin="round"/>
      </g>
      <g>
        <path d="M281.537,13.447 L266.951,37.723 L270.521,37.723 L274.771,30.413 L285.005,30.413 L286.127,37.723 L289.459,37.723 L285.073,13.447 z M276.233,27.693 L282.727,16.303 L282.795,16.303 L284.597,27.693 z" fill="#F0F0F0"/>
        <path d="M281.537,13.447 L266.951,37.723 L270.521,37.723 L274.771,30.413 L285.005,30.413 L286.127,37.723 L289.459,37.723 L285.073,13.447 z M276.233,27.693 L282.727,16.303 L282.795,16.303 L284.597,27.693 z" fill-opacity="0" stroke="#F0F0F0" stroke-width="3" stroke-linecap="round" stroke-linejoin="round"/>
      </g>
      <g>
        <path d="M298.637,13.447 L293.503,37.723 L296.631,37.723 L300.745,17.765 L300.813,17.765 L309.415,37.723 L312.883,37.723 L318.017,13.447 L314.889,13.447 L310.843,33.541 L310.775,33.541 L302.105,13.447 z" fill="#F0F0F0"/>
        <path d="M298.637,13.447 L293.503,37.723 L296.631,37.723 L300.745,17.765 L300.813,17.765 L309.415,37.723 L312.883,37.723 L318.017,13.447 L314.889,13.447 L310.843,33.541 L310.775,33.541 L302.105,13.447 z" fill-opacity="0" stroke="#F0F0F0" stroke-width="3" stroke-linecap="round" stroke-linejoin="round"/>
      </g>
      <g>
        <path d="M323.591,35.003 L327.569,16.167 L332.737,16.167 Q334.743,16.167 336.052,16.745 Q337.361,17.323 338.109,18.275 Q338.857,19.227 339.146,20.485 Q339.435,21.743 339.435,23.069 Q339.435,25.279 338.806,27.421 Q338.177,29.563 336.902,31.246 Q335.627,32.929 333.706,33.966 Q331.785,35.003 329.201,35.003 z M324.985,13.447 L319.851,37.723 L329.167,37.723 Q332.193,37.723 334.675,36.669 Q337.157,35.615 338.925,33.66 Q340.693,31.705 341.679,28.934 Q342.665,26.163 342.665,22.729 Q342.665,18.411 340.336,15.929 Q338.007,13.447 333.485,13.447 z" fill="#F0F0F0"/>
        <path d="M323.591,35.003 L327.569,16.167 L332.737,16.167 Q334.743,16.167 336.052,16.745 Q337.361,17.323 338.109,18.275 Q338.857,19.227 339.146,20.485 Q339.435,21.743 339.435,23.069 Q339.435,25.279 338.806,27.421 Q338.177,29.563 336.902,31.246 Q335.627,32.929 333.706,33.966 Q331.785,35.003 329.201,35.003 z M324.985,13.447 L319.851,37.723 L329.167,37.723 Q332.193,37.723 334.675,36.669 Q337.157,35.615 338.925,33.66 Q340.693,31.705 341.679,28.934 Q342.665,26.163 342.665,22.729 Q342.665,18.411 340.336,15.929 Q338.007,13.447 333.485,13.447 z" fill-opacity="0" stroke="#F0F0F0" stroke-width="3" stroke-linecap="round" stroke-linejoin="round"/>
      </g>
      <g>
        <path d="M375.539,35.309 L375.743,37.723 L377.783,37.723 L380.435,24.939 L369.861,24.939 L369.317,27.659 L377.069,27.659 Q376.627,29.427 375.93,30.889 Q375.233,32.351 374.179,33.388 Q373.125,34.425 371.68,35.003 Q370.235,35.581 368.297,35.581 Q366.461,35.581 365.118,35.003 Q363.775,34.425 362.891,33.388 Q362.007,32.351 361.565,30.889 Q361.123,29.427 361.123,27.659 Q361.123,25.449 361.752,23.29 Q362.381,21.131 363.639,19.431 Q364.897,17.731 366.784,16.66 Q368.671,15.589 371.221,15.589 Q372.547,15.589 373.737,15.912 Q374.927,16.235 375.811,16.898 Q376.695,17.561 377.222,18.581 Q377.749,19.601 377.749,20.995 L380.979,20.995 Q380.979,18.887 380.214,17.357 Q379.449,15.827 378.123,14.824 Q376.797,13.821 375.012,13.345 Q373.227,12.869 371.221,12.869 Q368.127,12.869 365.645,14.076 Q363.163,15.283 361.446,17.323 Q359.729,19.363 358.811,22.032 Q357.893,24.701 357.893,27.659 Q357.893,32.725 360.596,35.496 Q363.299,38.267 368.297,38.267 Q370.269,38.267 372.19,37.553 Q374.111,36.839 375.539,35.309 z" fill="#F0F0F0"/>
        <path d="M375.539,35.309 L375.743,37.723 L377.783,37.723 L380.435,24.939 L369.861,24.939 L369.317,27.659 L377.069,27.659 Q376.627,29.427 375.93,30.889 Q375.233,32.351 374.179,33.388 Q373.125,34.425 371.68,35.003 Q370.235,35.581 368.297,35.581 Q366.461,35.581 365.118,35.003 Q363.775,34.425 362.891,33.388 Q362.007,32.351 361.565,30.889 Q361.123,29.427 361.123,27.659 Q361.123,25.449 361.752,23.29 Q362.381,21.131 363.639,19.431 Q364.897,17.731 366.784,16.66 Q368.671,15.589 371.221,15.589 Q372.547,15.589 373.737,15.912 Q374.927,16.235 375.811,16.898 Q376.695,17.561 377.222,18.581 Q377.749,19.601 377.749,20.995 L380.979,20.995 Q380.979,18.887 380.214,17.357 Q379.449,15.827 378.123,14.824 Q376.797,13.821 375.012,13.345 Q373.227,12.869 371.221,12.869 Q368.127,12.869 365.645,14.076 Q363.163,15.283 361.446,17.323 Q359.729,19.363 358.811,22.032 Q357.893,24.701 357.893,27.659 Q357.893,32.725 360.596,35.496 Q363.299,38.267 368.297,38.267 Q370.269,38.267 372.19,37.553 Q374.111,36.839 375.539,35.309 z" fill-opacity="0" stroke="#F0F0F0" stroke-width="3" stroke-linecap="round" stroke-linejoin="round"/>
      </g>
      <g>
        <path d="M389.545,13.447 L384.445,37.723 L387.675,37.723 L392.775,13.447 z" fill="#F0F0F0"/>
        <path d="M389.545,13.447 L384.445,37.723 L387.675,37.723 L392.775,13.447 z" fill-opacity="0" stroke="#F0F0F0" stroke-width="3" stroke-linecap="round" stroke-linejoin="round"/>
      </g>
      <g>
        <path d="M404.605,37.723 L418.307,13.447 L414.873,13.447 L403.347,34.561 L403.279,34.561 L400.797,13.447 L397.499,13.447 L400.967,37.723 z" fill="#F0F0F0"/>
        <path d="M404.605,37.723 L418.307,13.447 L414.873,13.447 L403.347,34.561 L403.279,34.561 L400.797,13.447 L397.499,13.447 L400.967,37.723 z" fill-opacity="0" stroke="#F0F0F0" stroke-width="3" stroke-linecap="round" stroke-linejoin="round"/>
      </g>
      <g>
        <path d="M422.759,13.447 L417.625,37.723 L434.523,37.723 L435.135,35.003 L421.467,35.003 L423.235,26.605 L435.849,26.605 L436.393,23.885 L423.813,23.885 L425.445,16.167 L438.943,16.167 L439.487,13.447 z" fill="#F0F0F0"/>
        <path d="M422.759,13.447 L417.625,37.723 L434.523,37.723 L435.135,35.003 L421.467,35.003 L423.235,26.605 L435.849,26.605 L436.393,23.885 L423.813,23.885 L425.445,16.167 L438.943,16.167 L439.487,13.447 z" fill-opacity="0" stroke="#F0F0F0" stroke-width="3" stroke-linecap="round" stroke-linejoin="round"/>
      </g>
    </g>
    <g>
      <path d="M158.47,494 L42.945,494 C32.11,494 23.326,485.086 23.326,474.09 L23.326,44.031 C23.326,33.035 32.11,24.121 42.945,24.121" fill-opacity="0" stroke="#7D7D7D" stroke-width="7" stroke-linecap="round" stroke-linejoin="round"/>
      <path d="M455.813,24.121 C466.648,24.098 475.45,33 475.474,44.004 L476.386,474.366 C476.41,485.37 467.645,494.309 456.81,494.332 L349.56,494.347" fill-opacity="0" stroke="#7D7D7D" stroke-width="7" stroke-linecap="round" stroke-linejoin="round"/>
    </g>
    <g>
      <g>
        <path d="M76.684,21.621 L79.914,21.621 Q79.982,19.581 79.285,18.119 Q78.588,16.657 77.364,15.722 Q76.14,14.787 74.525,14.328 Q72.91,13.869 71.108,13.869 Q69.476,13.869 67.895,14.311 Q66.314,14.753 65.073,15.637 Q63.832,16.521 63.05,17.83 Q62.268,19.139 62.268,20.907 Q62.268,22.267 62.71,23.27 Q63.152,24.273 63.9,25.004 Q64.648,25.735 65.634,26.228 Q66.62,26.721 67.708,27.027 L71.006,27.911 Q71.89,28.149 72.672,28.455 Q73.454,28.761 74.049,29.22 Q74.644,29.679 74.984,30.342 Q75.324,31.005 75.324,31.923 Q75.324,33.147 74.797,34.031 Q74.27,34.915 73.42,35.476 Q72.57,36.037 71.465,36.309 Q70.36,36.581 69.238,36.581 Q67.776,36.581 66.552,36.292 Q65.328,36.003 64.461,35.323 Q63.594,34.643 63.152,33.521 Q62.71,32.399 62.778,30.767 L59.548,30.767 Q59.378,33.011 60.041,34.626 Q60.704,36.241 61.979,37.261 Q63.254,38.281 65.09,38.774 Q66.926,39.267 69.102,39.267 Q70.734,39.267 72.417,38.825 Q74.1,38.383 75.46,37.482 Q76.82,36.581 77.687,35.204 Q78.554,33.827 78.554,31.923 Q78.554,30.291 78.061,29.169 Q77.568,28.047 76.752,27.316 Q75.936,26.585 74.882,26.126 Q73.828,25.667 72.706,25.361 L69.442,24.477 Q68.626,24.239 67.895,23.933 Q67.164,23.627 66.637,23.168 Q66.11,22.709 65.804,22.08 Q65.498,21.451 65.498,20.567 Q65.498,19.479 66.042,18.731 Q66.586,17.983 67.419,17.507 Q68.252,17.031 69.238,16.81 Q70.224,16.589 71.108,16.589 Q72.366,16.589 73.42,16.827 Q74.474,17.065 75.205,17.66 Q75.936,18.255 76.327,19.224 Q76.718,20.193 76.684,21.621 z" fill="#8AAF8A"/>
        <path d="M76.684,21.621 L79.914,21.621 Q79.982,19.581 79.285,18.119 Q78.588,16.657 77.364,15.722 Q76.14,14.787 74.525,14.328 Q72.91,13.869 71.108,13.869 Q69.476,13.869 67.895,14.311 Q66.314,14.753 65.073,15.637 Q63.832,16.521 63.05,17.83 Q62.268,19.139 62.268,20.907 Q62.268,22.267 62.71,23.27 Q63.152,24.273 63.9,25.004 Q64.648,25.735 65.634,26.228 Q66.62,26.721 67.708,27.027 L71.006,27.911 Q71.89,28.149 72.672,28.455 Q73.454,28.761 74.049,29.22 Q74.644,29.679 74.984,30.342 Q75.324,31.005 75.324,31.923 Q75.324,33.147 74.797,34.031 Q74.27,34.915 73.42,35.476 Q72.57,36.037 71.465,36.309 Q70.36,36.581 69.238,36.581 Q67.776,36.581 66.552,36.292 Q65.328,36.003 64.461,35.323 Q63.594,34.643 63.152,33.521 Q62.71,32.399 62.778,30.767 L59.548,30.767 Q59.378,33.011 60.041,34.626 Q60.704,36.241 61.979,37.261 Q63.254,38.281 65.09,38.774 Q66.926,39.267 69.102,39.267 Q70.734,39.267 72.417,38.825 Q74.1,38.383 75.46,37.482 Q76.82,36.581 77.687,35.204 Q78.554,33.827 78.554,31.923 Q78.554,30.291 78.061,29.169 Q77.568,28.047 76.752,27.316 Q75.936,26.585 74.882,26.126 Q73.828,25.667 72.706,25.361 L69.442,24.477 Q68.626,24.239 67.895,23.933 Q67.164,23.627 66.637,23.168 Q66.11,22.709 65.804,22.08 Q65.498,21.451 65.498,20.567 Q65.498,19.479 66.042,18.731 Q66.586,17.983 67.419,17.507 Q68.252,17.031 69.238,16.81 Q70.224,16.589 71.108,16.589 Q72.366,16.589 73.42,16.827 Q74.474,17.065 75.205,17.66 Q75.936,18.255 76.327,19.224 Q76.718,20.193 76.684,21.621 z" fill-opacity="0" stroke="#8AAF8A" stroke-width="3" stroke-linecap="round" stroke-linejoin="round"/>
      </g>
      <g>
        <path d="M105.31,30.529 L102.08,30.529 Q101.298,33.419 99.428,35 Q97.558,36.581 94.566,36.581 Q92.73,36.581 91.387,36.003 Q90.044,35.425 89.16,34.388 Q88.276,33.351 87.834,31.889 Q87.392,30.427 87.392,28.659 Q87.392,26.449 88.021,24.29 Q88.65,22.131 89.908,20.431 Q91.166,18.731 93.053,17.66 Q94.94,16.589 97.49,16.589 Q100.142,16.589 101.825,18 Q103.508,19.411 103.508,22.267 L106.738,22.267 Q106.738,20.159 106.024,18.578 Q105.31,16.997 104.069,15.96 Q102.828,14.923 101.145,14.396 Q99.462,13.869 97.49,13.869 Q94.396,13.869 91.914,15.076 Q89.432,16.283 87.715,18.323 Q85.998,20.363 85.08,23.032 Q84.162,25.701 84.162,28.659 Q84.162,33.725 86.865,36.496 Q89.568,39.267 94.566,39.267 Q99.054,39.267 101.723,36.938 Q104.392,34.609 105.31,30.529 z" fill="#8AAF8A"/>
        <path d="M105.31,30.529 L102.08,30.529 Q101.298,33.419 99.428,35 Q97.558,36.581 94.566,36.581 Q92.73,36.581 91.387,36.003 Q90.044,35.425 89.16,34.388 Q88.276,33.351 87.834,31.889 Q87.392,30.427 87.392,28.659 Q87.392,26.449 88.021,24.29 Q88.65,22.131 89.908,20.431 Q91.166,18.731 93.053,17.66 Q94.94,16.589 97.49,16.589 Q100.142,16.589 101.825,18 Q103.508,19.411 103.508,22.267 L106.738,22.267 Q106.738,20.159 106.024,18.578 Q105.31,16.997 104.069,15.96 Q102.828,14.923 101.145,14.396 Q99.462,13.869 97.49,13.869 Q94.396,13.869 91.914,15.076 Q89.432,16.283 87.715,18.323 Q85.998,20.363 85.08,23.032 Q84.162,25.701 84.162,28.659 Q84.162,33.725 86.865,36.496 Q89.568,39.267 94.566,39.267 Q99.054,39.267 101.723,36.938 Q104.392,34.609 105.31,30.529 z" fill-opacity="0" stroke="#8AAF8A" stroke-width="3" stroke-linecap="round" stroke-linejoin="round"/>
      </g>
      <g>
        <path d="M121.968,14.447 L107.382,38.723 L110.952,38.723 L115.202,31.413 L125.436,31.413 L126.558,38.723 L129.89,38.723 L125.504,14.447 z M116.664,28.693 L123.158,17.303 L123.226,17.303 L125.028,28.693 z" fill="#8AAF8A"/>
        <path d="M121.968,14.447 L107.382,38.723 L110.952,38.723 L115.202,31.413 L125.436,31.413 L126.558,38.723 L129.89,38.723 L125.504,14.447 z M116.664,28.693 L123.158,17.303 L123.226,17.303 L125.028,28.693 z" fill-opacity="0" stroke="#8AAF8A" stroke-width="3" stroke-linecap="round" stroke-linejoin="round"/>
      </g>
      <g>
        <path d="M139.068,14.447 L133.934,38.723 L137.062,38.723 L141.176,18.765 L141.244,18.765 L149.846,38.723 L153.314,38.723 L158.448,14.447 L155.32,14.447 L151.274,34.541 L151.206,34.541 L142.536,14.447 z" fill="#8AAF8A"/>
        <path d="M139.068,14.447 L133.934,38.723 L137.062,38.723 L141.176,18.765 L141.244,18.765 L149.846,38.723 L153.314,38.723 L158.448,14.447 L155.32,14.447 L151.274,34.541 L151.206,34.541 L142.536,14.447 z" fill-opacity="0" stroke="#8AAF8A" stroke-width="3" stroke-linecap="round" stroke-linejoin="round"/>
      </g>
      <g>
        <path d="M176.668,14.447 L171.534,38.723 L174.662,38.723 L178.776,18.765 L178.844,18.765 L187.446,38.723 L190.914,38.723 L196.048,14.447 L192.92,14.447 L188.874,34.541 L188.806,34.541 L180.136,14.447 z" fill="#8AAF8A"/>
        <path d="M176.668,14.447 L171.534,38.723 L174.662,38.723 L178.776,18.765 L178.844,18.765 L187.446,38.723 L190.914,38.723 L196.048,14.447 L192.92,14.447 L188.874,34.541 L188.806,34.541 L180.136,14.447 z" fill-opacity="0" stroke="#8AAF8A" stroke-width="3" stroke-linecap="round" stroke-linejoin="round"/>
      </g>
      <g>
        <path d="M202.166,28.659 Q202.166,26.449 202.795,24.29 Q203.424,22.131 204.682,20.431 Q205.94,18.731 207.827,17.66 Q209.714,16.589 212.264,16.589 Q213.964,16.589 215.239,17.218 Q216.514,17.847 217.398,18.918 Q218.282,19.989 218.724,21.451 Q219.166,22.913 219.166,24.613 Q219.166,26.789 218.537,28.931 Q217.908,31.073 216.667,32.773 Q215.426,34.473 213.59,35.527 Q211.754,36.581 209.34,36.581 Q207.504,36.581 206.161,36.003 Q204.818,35.425 203.934,34.388 Q203.05,33.351 202.608,31.889 Q202.166,30.427 202.166,28.659 z M198.936,28.659 Q198.936,33.725 201.639,36.496 Q204.342,39.267 209.34,39.267 Q212.366,39.267 214.797,38.06 Q217.228,36.853 218.911,34.813 Q220.594,32.773 221.495,30.121 Q222.396,27.469 222.396,24.613 Q222.396,22.369 221.699,20.397 Q221.002,18.425 219.693,16.98 Q218.384,15.535 216.497,14.702 Q214.61,13.869 212.264,13.869 Q209.17,13.869 206.688,15.076 Q204.206,16.283 202.489,18.323 Q200.772,20.363 199.854,23.032 Q198.936,25.701 198.936,28.659 z" fill="#8AAF8A"/>
        <path d="M202.166,28.659 Q202.166,26.449 202.795,24.29 Q203.424,22.131 204.682,20.431 Q205.94,18.731 207.827,17.66 Q209.714,16.589 212.264,16.589 Q213.964,16.589 215.239,17.218 Q216.514,17.847 217.398,18.918 Q218.282,19.989 218.724,21.451 Q219.166,22.913 219.166,24.613 Q219.166,26.789 218.537,28.931 Q217.908,31.073 216.667,32.773 Q215.426,34.473 213.59,35.527 Q211.754,36.581 209.34,36.581 Q207.504,36.581 206.161,36.003 Q204.818,35.425 203.934,34.388 Q203.05,33.351 202.608,31.889 Q202.166,30.427 202.166,28.659 z M198.936,28.659 Q198.936,33.725 201.639,36.496 Q204.342,39.267 209.34,39.267 Q212.366,39.267 214.797,38.06 Q217.228,36.853 218.911,34.813 Q220.594,32.773 221.495,30.121 Q222.396,27.469 222.396,24.613 Q222.396,22.369 221.699,20.397 Q221.002,18.425 219.693,16.98 Q218.384,15.535 216.497,14.702 Q214.61,13.869 212.264,13.869 Q209.17,13.869 206.688,15.076 Q204.206,16.283 202.489,18.323 Q200.772,20.363 199.854,23.032 Q198.936,25.701 198.936,28.659 z" fill-opacity="0" stroke="#8AAF8A" stroke-width="3" stroke-linecap="round" stroke-linejoin="round"/>
      </g>
      <g>
        <path d="M247.52,38.723 L258.672,14.447 L255.34,14.447 L246.5,34.949 L246.432,34.949 L245.072,14.447 L241.4,14.447 L232.084,34.881 L232.016,34.881 L231.166,14.447 L227.97,14.447 L229.5,38.723 L232.968,38.723 L242.556,17.779 L242.624,17.779 L244.154,38.723 z" fill="#8AAF8A"/>
        <path d="M247.52,38.723 L258.672,14.447 L255.34,14.447 L246.5,34.949 L246.432,34.949 L245.072,14.447 L241.4,14.447 L232.084,34.881 L232.016,34.881 L231.166,14.447 L227.97,14.447 L229.5,38.723 L232.968,38.723 L242.556,17.779 L242.624,17.779 L244.154,38.723 z" fill-opacity="0" stroke="#8AAF8A" stroke-width="3" stroke-linecap="round" stroke-linejoin="round"/>
      </g>
      <g>
        <path d="M282.536,14.447 L267.95,38.723 L271.52,38.723 L275.77,31.413 L286.004,31.413 L287.126,38.723 L290.458,38.723 L286.072,14.447 z M277.232,28.693 L283.726,17.303 L283.794,17.303 L285.596,28.693 z" fill="#8AAF8A"/>
        <path d="M282.536,14.447 L267.95,38.723 L271.52,38.723 L275.77,31.413 L286.004,31.413 L287.126,38.723 L290.458,38.723 L286.072,14.447 z M277.232,28.693 L283.726,17.303 L283.794,17.303 L285.596,28.693 z" fill-opacity="0" stroke="#8AAF8A" stroke-width="3" stroke-linecap="round" stroke-linejoin="round"/>
      </g>
      <g>
        <path d="M299.636,14.447 L294.502,38.723 L297.63,38.723 L301.744,18.765 L301.812,18.765 L310.414,38.723 L313.882,38.723 L319.016,14.447 L315.888,14.447 L311.842,34.541 L311.774,34.541 L303.104,14.447 z" fill="#8AAF8A"/>
        <path d="M299.636,14.447 L294.502,38.723 L297.63,38.723 L301.744,18.765 L301.812,18.765 L310.414,38.723 L313.882,38.723 L319.016,14.447 L315.888,14.447 L311.842,34.541 L311.774,34.541 L303.104,14.447 z" fill-opacity="0" stroke="#8AAF8A" stroke-width="3" stroke-linecap="round" stroke-linejoin="round"/>
      </g>
      <g>
        <path d="M324.59,36.003 L328.568,17.167 L333.736,17.167 Q335.742,17.167 337.051,17.745 Q338.36,18.323 339.108,19.275 Q339.856,20.227 340.145,21.485 Q340.434,22.743 340.434,24.069 Q340.434,26.279 339.805,28.421 Q339.176,30.563 337.901,32.246 Q336.626,33.929 334.705,34.966 Q332.784,36.003 330.2,36.003 z M325.984,14.447 L320.85,38.723 L330.166,38.723 Q333.192,38.723 335.674,37.669 Q338.156,36.615 339.924,34.66 Q341.692,32.705 342.678,29.934 Q343.664,27.163 343.664,23.729 Q343.664,19.411 341.335,16.929 Q339.006,14.447 334.484,14.447 z" fill="#8AAF8A"/>
        <path d="M324.59,36.003 L328.568,17.167 L333.736,17.167 Q335.742,17.167 337.051,17.745 Q338.36,18.323 339.108,19.275 Q339.856,20.227 340.145,21.485 Q340.434,22.743 340.434,24.069 Q340.434,26.279 339.805,28.421 Q339.176,30.563 337.901,32.246 Q336.626,33.929 334.705,34.966 Q332.784,36.003 330.2,36.003 z M325.984,14.447 L320.85,38.723 L330.166,38.723 Q333.192,38.723 335.674,37.669 Q338.156,36.615 339.924,34.66 Q341.692,32.705 342.678,29.934 Q343.664,27.163 343.664,23.729 Q343.664,19.411 341.335,16.929 Q339.006,14.447 334.484,14.447 z" fill-opacity="0" stroke="#8AAF8A" stroke-width="3" stroke-linecap="round" stroke-linejoin="round"/>
      </g>
      <g>
        <path d="M376.538,36.309 L376.742,38.723 L378.782,38.723 L381.434,25.939 L370.86,25.939 L370.316,28.659 L378.068,28.659 Q377.626,30.427 376.929,31.889 Q376.232,33.351 375.178,34.388 Q374.124,35.425 372.679,36.003 Q371.234,36.581 369.296,36.581 Q367.46,36.581 366.117,36.003 Q364.774,35.425 363.89,34.388 Q363.006,33.351 362.564,31.889 Q362.122,30.427 362.122,28.659 Q362.122,26.449 362.751,24.29 Q363.38,22.131 364.638,20.431 Q365.896,18.731 367.783,17.66 Q369.67,16.589 372.22,16.589 Q373.546,16.589 374.736,16.912 Q375.926,17.235 376.81,17.898 Q377.694,18.561 378.221,19.581 Q378.748,20.601 378.748,21.995 L381.978,21.995 Q381.978,19.887 381.213,18.357 Q380.448,16.827 379.122,15.824 Q377.796,14.821 376.011,14.345 Q374.226,13.869 372.22,13.869 Q369.126,13.869 366.644,15.076 Q364.162,16.283 362.445,18.323 Q360.728,20.363 359.81,23.032 Q358.892,25.701 358.892,28.659 Q358.892,33.725 361.595,36.496 Q364.298,39.267 369.296,39.267 Q371.268,39.267 373.189,38.553 Q375.11,37.839 376.538,36.309 z" fill="#8AAF8A"/>
        <path d="M376.538,36.309 L376.742,38.723 L378.782,38.723 L381.434,25.939 L370.86,25.939 L370.316,28.659 L378.068,28.659 Q377.626,30.427 376.929,31.889 Q376.232,33.351 375.178,34.388 Q374.124,35.425 372.679,36.003 Q371.234,36.581 369.296,36.581 Q367.46,36.581 366.117,36.003 Q364.774,35.425 363.89,34.388 Q363.006,33.351 362.564,31.889 Q362.122,30.427 362.122,28.659 Q362.122,26.449 362.751,24.29 Q363.38,22.131 364.638,20.431 Q365.896,18.731 367.783,17.66 Q369.67,16.589 372.22,16.589 Q373.546,16.589 374.736,16.912 Q375.926,17.235 376.81,17.898 Q377.694,18.561 378.221,19.581 Q378.748,20.601 378.748,21.995 L381.978,21.995 Q381.978,19.887 381.213,18.357 Q380.448,16.827 379.122,15.824 Q377.796,14.821 376.011,14.345 Q374.226,13.869 372.22,13.869 Q369.126,13.869 366.644,15.076 Q364.162,16.283 362.445,18.323 Q360.728,20.363 359.81,23.032 Q358.892,25.701 358.892,28.659 Q358.892,33.725 361.595,36.496 Q364.298,39.267 369.296,39.267 Q371.268,39.267 373.189,38.553 Q375.11,37.839 376.538,36.309 z" fill-opacity="0" stroke="#8AAF8A" stroke-width="3" stroke-linecap="round" stroke-linejoin="round"/>
      </g>
      <g>
        <path d="M390.544,14.447 L385.444,38.723 L388.674,38.723 L393.774,14.447 z" fill="#8AAF8A"/>
        <path d="M390.544,14.447 L385.444,38.723 L388.674,38.723 L393.774,14.447 z" fill-opacity="0" stroke="#8AAF8A" stroke-width="3" stroke-linecap="round" stroke-linejoin="round"/>
      </g>
      <g>
        <path d="M405.604,38.723 L419.306,14.447 L415.872,14.447 L404.346,35.561 L404.278,35.561 L401.796,14.447 L398.498,14.447 L401.966,38.723 z" fill="#8AAF8A"/>
        <path d="M405.604,38.723 L419.306,14.447 L415.872,14.447 L404.346,35.561 L404.278,35.561 L401.796,14.447 L398.498,14.447 L401.966,38.723 z" fill-opacity="0" stroke="#8AAF8A" stroke-width="3" stroke-linecap="round" stroke-linejoin="round"/>
      </g>
      <g>
        <path d="M423.758,14.447 L418.624,38.723 L435.522,38.723 L436.134,36.003 L422.466,36.003 L424.234,27.605 L436.848,27.605 L437.392,24.885 L424.812,24.885 L426.444,17.167 L439.942,17.167 L440.486,14.447 z" fill="#8AAF8A"/>
        <path d="M423.758,14.447 L418.624,38.723 L435.522,38.723 L436.134,36.003 L422.466,36.003 L424.234,27.605 L436.848,27.605 L437.392,24.885 L424.812,24.885 L426.444,17.167 L439.942,17.167 L440.486,14.447 z" fill-opacity="0" stroke="#8AAF8A" stroke-width="3" stroke-linecap="round" stroke-linejoin="round"/>
      </g>
    </g>
  </g>
  <g id="Swiftgive_Logo">
    <g>
      <g>
        <path d="M218.592,494.947 L223.128,488.282 L223.496,487.759 Q224.634,486.082 226.181,486.082 Q227.161,486.082 227.849,486.725 Q228.537,487.367 228.622,488.347 Q228.712,489.371 227.53,491.048 L220.262,501.329 Q218.827,503.354 217.106,503.354 Q215.691,503.354 214.617,502.287 Q213.544,501.22 213.408,499.673 Q213.374,499.281 213.403,498.867 L213.779,494.947 L209.894,501.329 Q208.677,503.354 206.978,503.354 Q205.519,503.354 204.483,502.222 Q203.448,501.089 203.291,499.303 Q203.268,499.042 203.275,498.867 L203.086,489.741 Q203.063,487.977 203.775,487.029 Q204.487,486.082 205.859,486.082 Q207.906,486.082 208.103,488.325 Q208.135,488.696 208.132,489.153 L208.055,495.252 L212.305,488.304 Q213.657,486.082 215.704,486.082 Q216.967,486.082 217.771,486.801 Q218.574,487.52 218.681,488.739 Q218.725,489.24 218.724,489.48 z" fill="#F0F0F0"/>
        <path d="M234.069,498.301 L236.531,498.301 Q239.275,498.301 239.445,500.24 Q239.561,501.568 238.656,502.309 Q237.752,503.049 236.009,503.049 L232.546,503.049 Q230.629,503.049 229.461,502.265 Q228.292,501.481 228.174,500.131 Q228.111,499.412 228.472,498.301 L231.292,489.458 L231.478,488.848 Q232.265,486.387 234.486,486.387 Q235.401,486.387 236.119,486.997 Q236.836,487.607 236.911,488.456 Q236.972,489.153 236.509,490.591 z M235.294,479.439 Q236.557,479.439 237.517,480.321 Q238.476,481.203 238.587,482.466 Q238.697,483.73 237.892,484.612 Q237.087,485.494 235.824,485.494 Q234.561,485.494 233.601,484.612 Q232.642,483.73 232.531,482.466 Q232.421,481.203 233.226,480.321 Q234.031,479.439 235.294,479.439 z" fill="#F0F0F0"/>
        <path d="M258.797,473.318 Q261.585,473.318 261.753,475.235 Q261.873,476.607 260.96,477.37 Q260.046,478.132 258.304,478.132 L257.65,478.132 Q255.821,478.132 254.829,478.872 Q253.838,479.613 253.273,481.377 L251.664,486.387 L254.67,486.387 Q257.436,486.387 257.606,488.325 Q257.722,489.654 256.817,490.395 Q255.913,491.135 254.17,491.135 L250.163,491.135 L245.465,505.903 L245.459,505.903 L244.981,507.406 Q243.884,510.803 242.06,512.23 Q240.235,513.657 236.968,513.657 L234.485,513.657 Q231.697,513.657 231.529,511.74 Q231.409,510.368 232.323,509.605 Q233.236,508.843 234.978,508.843 L235.632,508.843 Q237.462,508.843 238.453,508.103 Q239.445,507.362 240.009,505.598 L244.63,491.135 L243.149,491.135 Q240.383,491.135 240.217,489.24 Q240.099,487.89 241.003,487.138 Q241.906,486.387 243.649,486.387 L246.132,486.387 L248.301,479.569 Q249.398,476.172 251.223,474.745 Q253.047,473.318 256.314,473.318 L258.797,473.318 z" fill="#F0F0F0"/>
        <path d="M265.505,486.246 L266.181,486.246 Q268.947,486.246 269.116,488.184 Q269.233,489.513 268.317,490.253 Q267.402,490.994 265.681,490.994 L264.091,490.994 L261.799,498.16 L264.239,498.16 Q267.005,498.16 267.175,500.098 Q267.291,501.427 266.386,502.168 Q265.482,502.908 263.74,502.908 L259.841,502.908 Q258.185,502.908 257.149,502.146 Q256.114,501.384 255.999,500.077 Q255.929,499.271 256.235,498.291 L256.565,497.332 L258.581,490.994 L258.254,490.994 Q255.814,490.994 255.649,489.099 Q255.531,487.749 256.434,486.997 Q257.338,486.246 259.08,486.246 L260.082,486.246 L260.987,483.392 L261.175,482.804 Q261.987,480.387 264.187,480.387 Q265.08,480.387 265.775,480.986 Q266.47,481.585 266.544,482.434 Q266.616,483.262 266.161,484.525 z" fill="#F0F0F0"/>
        <path d="M281.926,503.659 L284.54,503.659 Q287.306,503.659 287.474,505.576 Q287.59,506.905 286.675,507.656 Q285.761,508.407 284.04,508.407 L280.425,508.407 L279.706,510.651 Q277.088,518.819 270.685,518.819 Q267.33,518.819 264.917,516.75 Q262.503,514.68 262.231,511.566 Q262.054,509.54 262.976,507.765 Q263.899,505.99 265.681,504.944 Q267.877,503.659 271.776,503.659 L276.459,503.659 L276.986,501.96 Q275.686,502.788 274.466,502.788 Q272.135,502.788 270.546,501.176 Q268.957,499.564 268.73,496.972 Q268.364,492.79 271.011,489.436 Q273.658,486.082 277.317,486.082 Q279.996,486.082 281.477,487.824 Q282.348,486.082 284.222,486.082 Q285.136,486.082 285.831,486.681 Q286.526,487.28 286.601,488.129 Q286.66,488.805 286.215,490.199 z M278.523,497.125 L279.91,492.812 Q280.08,492.268 280.049,491.919 Q279.992,491.266 279.377,490.83 Q278.762,490.395 277.89,490.395 Q276.322,490.395 275.053,492.192 Q273.783,493.988 273.959,495.992 Q274.159,498.279 276.293,498.279 Q278.145,498.279 278.523,497.125 z M274.936,508.407 L271.168,508.407 Q269.207,508.407 268.202,509.235 Q267.196,510.063 267.327,511.566 Q267.417,512.589 268.22,513.308 Q269.024,514.027 270.113,514.027 Q271.681,514.027 272.749,512.785 Q273.816,511.544 274.936,508.407 z" fill="#F0F0F0"/>
        <path d="M292.774,498.301 L295.235,498.301 Q297.979,498.301 298.149,500.24 Q298.265,501.568 297.361,502.309 Q296.456,503.049 294.714,503.049 L291.251,503.049 Q289.334,503.049 288.165,502.265 Q286.997,501.481 286.879,500.131 Q286.816,499.412 287.176,498.301 L289.996,489.458 L290.182,488.848 Q290.969,486.387 293.191,486.387 Q294.105,486.387 294.823,486.997 Q295.541,487.607 295.615,488.456 Q295.676,489.153 295.214,490.591 z M293.999,479.439 Q295.262,479.439 296.221,480.321 Q297.18,481.203 297.291,482.466 Q297.401,483.73 296.597,484.612 Q295.792,485.494 294.528,485.494 Q293.265,485.494 292.306,484.612 Q291.346,483.73 291.236,482.466 Q291.125,481.203 291.93,480.321 Q292.735,479.439 293.999,479.439 z" fill="#F0F0F0"/>
        <path d="M303.817,495.382 L308.268,488.5 L308.609,487.912 Q309.712,486.082 311.28,486.082 Q312.304,486.082 313.014,486.725 Q313.723,487.367 313.811,488.369 Q313.906,489.458 312.748,491.157 L305.602,501.59 Q304.406,503.354 302.576,503.354 Q301.03,503.354 300.043,502.276 Q299.055,501.198 298.891,499.325 Q298.857,498.933 298.858,498.693 L298.882,490.003 Q298.88,488.238 299.594,487.313 Q300.308,486.387 301.658,486.387 Q303.727,486.387 303.91,488.478 Q303.937,488.783 303.915,489.523 z" fill="#F0F0F0"/>
        <path d="M319.078,496.668 Q319.221,498.301 321.682,498.301 L328.151,498.301 Q330.896,498.301 331.065,500.24 Q331.181,501.568 330.277,502.309 Q329.372,503.049 327.63,503.049 L321.466,503.049 Q318.025,503.049 316.079,501.35 Q314.133,499.651 313.848,496.384 Q313.48,492.181 316.055,489.131 Q318.631,486.082 322.552,486.082 Q325.405,486.082 327.267,487.574 Q329.129,489.066 329.343,491.505 Q329.6,494.446 327.328,495.862 Q326.07,496.668 323.434,496.668 z M319.777,492.703 L322.173,492.703 Q324.503,492.703 324.348,491.68 Q324.182,490.525 322.744,490.525 Q320.741,490.525 319.777,492.703 z" fill="#F0F0F0"/>
        <path d="M196.505,473.765 Q197.294,473.765 197.908,474.294 Q198.521,474.823 198.587,475.574 C198.591,476.154 198.613,475.836 198.487,476.526 C199.405,476.734 200.197,477.249 200.949,477.792 Q203.094,479.495 203.336,482.205 Q203.714,485.99 200.723,487.912 C199.46,488.636 198.001,488.747 196.578,488.805 L196.389,488.801 C195.129,488.734 194.388,487.758 194.269,486.58 C194.319,485.357 195.184,484.48 196.389,484.359 L196.389,484.347 C197.705,484.2 198.6,483.698 198.648,482.297 Q198.572,481.454 197.75,480.942 Q196.927,480.429 195.636,480.429 Q193.615,480.429 192.069,481.656 C191.106,482.433 190.762,482.828 190.561,484.107 L190.558,484.104 C190.394,485.909 192.049,487.515 193.187,488.764 L195.096,490.924 L196.191,492.115 Q199.379,495.652 199.724,499.599 C199.909,501.408 199.605,502.346 199.13,503.982 C198.261,505.643 198.705,504.954 197.876,506.103 C195.878,508.666 192.848,509.923 189.645,509.995 C189.189,511.292 188.384,511.922 187.029,512.019 L187.029,512.019 Q186.24,512.019 185.626,511.49 Q185.012,510.961 184.947,510.211 C184.943,509.648 184.921,509.949 185.038,509.31 C183.773,508.975 182.718,508.185 181.719,507.375 Q178.761,504.748 178.402,500.646 C178.188,498.555 178.518,496.492 179.676,494.877 C180.437,493.816 181.221,493.136 182.215,492.277 Q184.321,490.501 186.234,490.501 L186.497,490.52 C186.991,490.643 187.219,490.747 187.629,491.035 Q188.315,491.613 188.395,492.525 Q188.503,493.753 187.123,494.647 L185.707,495.559 Q184.488,496.36 183.753,497.793 L183.478,498.419 C183.3,498.949 183.196,499.629 183.187,500.499 Q183.377,502.678 184.976,504.097 Q186.574,505.517 188.845,505.517 Q191.354,505.517 193.039,503.64 Q194.724,501.763 194.502,499.217 Q194.361,497.606 193.494,496.287 Q192.628,494.969 189.896,492.204 Q187.988,490.281 187.111,488.834 C186.382,487.475 185.893,486.542 185.801,484.094 C185.716,481.832 187.006,479.973 188.63,478.46 C190.08,477.193 191.855,476.549 193.729,476.261 L193.845,475.901 Q194.562,473.765 196.505,473.765 L196.505,473.765 z" fill="#F0F0F0"/>
      </g>
      <g>
        <path d="M175.747,469.155 L183.855,469.155 C184.96,469.155 185.636,470.051 185.366,471.155 L183.385,479.263 C183.115,480.368 182.001,481.263 180.896,481.263 L172.789,481.263 C171.684,481.263 171.007,480.368 171.277,479.263 L173.259,471.155 C173.529,470.051 174.643,469.155 175.747,469.155 z" fill="#F0F0F0"/>
        <path d="M212.129,469.155 L220.237,469.155 C221.342,469.155 222.018,470.051 221.748,471.155 L219.767,479.263 C219.497,480.368 218.383,481.263 217.278,481.263 L209.171,481.263 C208.066,481.263 207.389,480.368 207.659,479.263 L209.641,471.155 C209.911,470.051 211.025,469.155 212.129,469.155 z" fill="#F0F0F0"/>
        <path d="M166.474,507.815 L174.582,507.815 C175.686,507.815 176.363,508.71 176.093,509.815 L174.112,517.923 C173.842,519.027 172.728,519.923 171.623,519.923 L163.515,519.923 C162.411,519.923 161.734,519.027 162.004,517.923 L163.985,509.815 C164.255,508.71 165.37,507.815 166.474,507.815 z" fill="#F0F0F0"/>
        <path d="M201.205,507.815 L206.041,507.815 C206.7,507.815 207.104,508.349 206.943,509.008 L205.761,513.844 C205.6,514.503 204.935,515.037 204.277,515.037 L199.44,515.037 C198.782,515.037 198.378,514.503 198.539,513.844 L199.721,509.008 C199.882,508.349 200.546,507.815 201.205,507.815 z" fill="#F0F0F0"/>
      </g>
    </g>
    <g>
      <path d="M219.592,495.947 L224.128,489.282 L224.496,488.759 Q225.634,487.082 227.181,487.082 Q228.161,487.082 228.849,487.725 Q229.537,488.367 229.622,489.347 Q229.712,490.371 228.53,492.048 L221.262,502.329 Q219.827,504.354 218.106,504.354 Q216.691,504.354 215.617,503.287 Q214.544,502.22 214.408,500.673 Q214.374,500.281 214.403,499.867 L214.779,495.947 L210.894,502.329 Q209.677,504.354 207.978,504.354 Q206.519,504.354 205.483,503.222 Q204.448,502.089 204.291,500.303 Q204.268,500.042 204.275,499.867 L204.086,490.741 Q204.063,488.977 204.775,488.03 Q205.487,487.082 206.859,487.082 Q208.906,487.082 209.103,489.326 Q209.135,489.696 209.132,490.153 L209.055,496.252 L213.305,489.304 Q214.657,487.082 216.704,487.082 Q217.967,487.082 218.771,487.801 Q219.574,488.52 219.681,489.739 Q219.725,490.24 219.724,490.48 z" fill="#8AAF8A"/>
      <path d="M235.069,499.301 L237.531,499.301 Q240.275,499.301 240.445,501.24 Q240.561,502.568 239.656,503.309 Q238.752,504.049 237.009,504.049 L233.546,504.049 Q231.629,504.049 230.461,503.265 Q229.292,502.481 229.174,501.131 Q229.111,500.412 229.472,499.301 L232.292,490.458 L232.478,489.848 Q233.265,487.387 235.486,487.387 Q236.401,487.387 237.119,487.997 Q237.836,488.607 237.911,489.456 Q237.972,490.153 237.509,491.591 z M236.294,480.439 Q237.557,480.439 238.517,481.321 Q239.476,482.203 239.587,483.466 Q239.697,484.73 238.892,485.612 Q238.087,486.494 236.824,486.494 Q235.561,486.494 234.601,485.612 Q233.642,484.73 233.531,483.466 Q233.421,482.203 234.226,481.321 Q235.031,480.439 236.294,480.439 z" fill="#8AAF8A"/>
      <path d="M259.797,474.318 Q262.585,474.318 262.753,476.235 Q262.873,477.607 261.96,478.37 Q261.046,479.132 259.304,479.132 L258.65,479.132 Q256.821,479.132 255.829,479.873 Q254.838,480.613 254.273,482.377 L252.664,487.387 L255.67,487.387 Q258.436,487.387 258.606,489.326 Q258.722,490.654 257.817,491.395 Q256.913,492.135 255.17,492.135 L251.163,492.135 L246.465,506.903 L246.459,506.903 L245.981,508.406 Q244.884,511.803 243.06,513.23 Q241.235,514.657 237.968,514.657 L235.485,514.657 Q232.697,514.657 232.529,512.74 Q232.409,511.368 233.323,510.605 Q234.236,509.843 235.978,509.843 L236.632,509.843 Q238.462,509.843 239.453,509.103 Q240.445,508.362 241.009,506.598 L245.63,492.135 L244.149,492.135 Q241.383,492.135 241.217,490.24 Q241.099,488.89 242.003,488.138 Q242.906,487.387 244.649,487.387 L247.132,487.387 L249.301,480.57 Q250.398,477.172 252.223,475.745 Q254.047,474.318 257.314,474.318 L259.797,474.318 z" fill="#8AAF8A"/>
      <path d="M266.505,487.246 L267.181,487.246 Q269.947,487.246 270.116,489.184 Q270.233,490.513 269.317,491.254 Q268.402,491.994 266.681,491.994 L265.091,491.994 L262.799,499.16 L265.239,499.16 Q268.005,499.16 268.175,501.099 Q268.291,502.427 267.386,503.168 Q266.482,503.908 264.74,503.908 L260.841,503.908 Q259.185,503.908 258.149,503.146 Q257.114,502.384 256.999,501.077 Q256.929,500.271 257.235,499.291 L257.565,498.332 L259.581,491.994 L259.254,491.994 Q256.814,491.994 256.649,490.099 Q256.53,488.749 257.434,487.997 Q258.338,487.246 260.08,487.246 L261.082,487.246 L261.987,484.393 L262.175,483.804 Q262.987,481.387 265.187,481.387 Q266.08,481.387 266.775,481.986 Q267.47,482.585 267.544,483.434 Q267.616,484.262 267.161,485.525 z" fill="#8AAF8A"/>
      <path d="M282.926,504.659 L285.54,504.659 Q288.306,504.659 288.474,506.576 Q288.59,507.905 287.675,508.656 Q286.761,509.408 285.04,509.408 L281.425,509.408 L280.706,511.651 Q278.088,519.819 271.685,519.819 Q268.33,519.819 265.917,517.75 Q263.503,515.68 263.231,512.566 Q263.054,510.54 263.976,508.765 Q264.899,506.99 266.681,505.944 Q268.877,504.659 272.776,504.659 L277.459,504.659 L277.986,502.96 Q276.686,503.788 275.466,503.788 Q273.135,503.788 271.546,502.176 Q269.957,500.564 269.73,497.973 Q269.364,493.791 272.011,490.436 Q274.658,487.082 278.317,487.082 Q280.996,487.082 282.477,488.825 Q283.348,487.082 285.222,487.082 Q286.136,487.082 286.831,487.681 Q287.526,488.28 287.601,489.129 Q287.66,489.805 287.215,491.199 z M279.523,498.125 L280.91,493.812 Q281.08,493.268 281.049,492.919 Q280.992,492.266 280.377,491.83 Q279.762,491.395 278.89,491.395 Q277.322,491.395 276.053,493.192 Q274.783,494.989 274.959,496.992 Q275.159,499.279 277.293,499.279 Q279.145,499.279 279.523,498.125 z M275.936,509.408 L272.168,509.408 Q270.207,509.408 269.202,510.235 Q268.196,511.063 268.327,512.566 Q268.417,513.589 269.22,514.308 Q270.024,515.027 271.113,515.027 Q272.681,515.027 273.749,513.785 Q274.816,512.544 275.936,509.408 z" fill="#8AAF8A"/>
      <path d="M293.774,499.301 L296.235,499.301 Q298.979,499.301 299.149,501.24 Q299.265,502.568 298.361,503.309 Q297.456,504.049 295.714,504.049 L292.251,504.049 Q290.334,504.049 289.165,503.265 Q287.997,502.481 287.879,501.131 Q287.816,500.412 288.176,499.301 L290.996,490.458 L291.182,489.848 Q291.969,487.387 294.191,487.387 Q295.105,487.387 295.823,487.997 Q296.541,488.607 296.615,489.456 Q296.676,490.153 296.214,491.591 z M294.999,480.439 Q296.262,480.439 297.221,481.321 Q298.18,482.203 298.291,483.466 Q298.401,484.73 297.597,485.612 Q296.792,486.494 295.528,486.494 Q294.265,486.494 293.306,485.612 Q292.346,484.73 292.236,483.466 Q292.125,482.203 292.93,481.321 Q293.735,480.439 294.999,480.439 z" fill="#8AAF8A"/>
      <path d="M304.817,496.383 L309.268,489.5 L309.609,488.912 Q310.712,487.082 312.28,487.082 Q313.304,487.082 314.014,487.725 Q314.723,488.367 314.811,489.369 Q314.906,490.458 313.748,492.157 L306.602,502.59 Q305.406,504.354 303.576,504.354 Q302.03,504.354 301.043,503.276 Q300.055,502.198 299.891,500.325 Q299.857,499.933 299.858,499.693 L299.882,491.003 Q299.88,489.238 300.594,488.313 Q301.308,487.387 302.658,487.387 Q304.727,487.387 304.91,489.478 Q304.937,489.783 304.915,490.523 z" fill="#8AAF8A"/>
      <path d="M320.078,497.668 Q320.221,499.301 322.682,499.301 L329.151,499.301 Q331.896,499.301 332.065,501.24 Q332.181,502.568 331.277,503.309 Q330.372,504.049 328.63,504.049 L322.466,504.049 Q319.025,504.049 317.079,502.35 Q315.133,500.652 314.848,497.384 Q314.48,493.181 317.055,490.131 Q319.631,487.082 323.552,487.082 Q326.405,487.082 328.267,488.574 Q330.129,490.066 330.343,492.505 Q330.6,495.446 328.328,496.862 Q327.07,497.668 324.434,497.668 z M320.777,493.703 L323.173,493.703 Q325.503,493.703 325.348,492.68 Q325.182,491.525 323.744,491.525 Q321.741,491.525 320.777,493.703 z" fill="#8AAF8A"/>
      <path d="M197.505,474.765 Q198.294,474.765 198.908,475.295 Q199.521,475.824 199.587,476.574 C199.591,477.154 199.613,476.836 199.487,477.526 C200.405,477.734 201.197,478.249 201.949,478.792 Q204.094,480.495 204.336,483.205 Q204.714,486.99 201.723,488.912 C200.46,489.636 199.001,489.747 197.578,489.805 L197.389,489.801 C196.129,489.734 195.388,488.758 195.269,487.58 C195.319,486.357 196.184,485.48 197.389,485.359 L197.389,485.348 C198.705,485.2 199.6,484.698 199.648,483.297 Q199.572,482.454 198.75,481.942 Q197.927,481.429 196.636,481.429 Q194.615,481.429 193.069,482.656 C192.106,483.433 191.762,483.828 191.561,485.107 L191.558,485.104 C191.394,486.909 193.049,488.515 194.188,489.764 L196.096,491.924 L197.191,493.115 Q200.379,496.652 200.724,500.599 C200.909,502.408 200.605,503.346 200.13,504.982 C199.261,506.643 199.705,505.954 198.876,507.103 C196.878,509.666 193.848,510.923 190.645,510.995 C190.189,512.292 189.384,512.923 188.029,513.019 L188.029,513.02 Q187.24,513.019 186.626,512.49 Q186.012,511.961 185.947,511.211 C185.943,510.648 185.921,510.949 186.038,510.31 C184.773,509.975 183.718,509.185 182.719,508.375 Q179.761,505.748 179.402,501.646 C179.188,499.555 179.518,497.493 180.676,495.877 C181.437,494.816 182.221,494.136 183.215,493.277 Q185.321,491.501 187.234,491.501 L187.497,491.52 C187.991,491.643 188.219,491.747 188.629,492.036 Q189.315,492.613 189.395,493.525 Q189.503,494.753 188.123,495.647 L186.707,496.559 Q185.488,497.36 184.753,498.793 L184.478,499.419 C184.3,499.949 184.196,500.629 184.187,501.499 Q184.377,503.678 185.976,505.098 Q187.574,506.517 189.845,506.517 Q192.354,506.517 194.039,504.64 Q195.724,502.763 195.502,500.217 Q195.361,498.606 194.494,497.287 Q193.628,495.969 190.896,493.204 Q188.988,491.281 188.111,489.834 C187.382,488.475 186.893,487.542 186.801,485.094 C186.716,482.832 188.006,480.973 189.63,479.46 C191.08,478.193 192.855,477.549 194.729,477.261 L194.845,476.901 Q195.562,474.765 197.505,474.765 L197.505,474.765 z" fill="#8AAF8A"/>
    </g>
    <g>
      <path d="M176.747,470.155 L184.855,470.155 C185.96,470.155 186.636,471.051 186.366,472.155 L184.385,480.263 C184.115,481.368 183.001,482.263 181.896,482.263 L173.789,482.263 C172.684,482.263 172.007,481.368 172.277,480.263 L174.259,472.155 C174.529,471.051 175.643,470.155 176.747,470.155 z" fill="#CFCFCF"/>
      <path d="M213.129,470.155 L221.237,470.155 C222.342,470.155 223.018,471.051 222.748,472.155 L220.767,480.263 C220.497,481.368 219.383,482.263 218.278,482.263 L210.171,482.263 C209.066,482.263 208.389,481.368 208.659,480.263 L210.641,472.155 C210.911,471.051 212.025,470.155 213.129,470.155 z" fill="#CFCFCF"/>
      <path d="M167.474,508.815 L175.582,508.815 C176.686,508.815 177.363,509.71 177.093,510.815 L175.112,518.923 C174.842,520.027 173.728,520.923 172.623,520.923 L164.515,520.923 C163.411,520.923 162.734,520.027 163.004,518.923 L164.985,510.815 C165.255,509.71 166.37,508.815 167.474,508.815 z" fill="#CFCFCF"/>
      <path d="M202.205,508.815 L207.041,508.815 C207.7,508.815 208.104,509.349 207.943,510.008 L206.761,514.844 C206.6,515.503 205.935,516.037 205.277,516.037 L200.44,516.037 C199.782,516.037 199.378,515.503 199.539,514.844 L200.721,510.008 C200.882,509.349 201.546,508.815 202.205,508.815 z" fill="#CFCFCF"/>
    </g>
  </g>
  <g id="S">
    <g>
      <path d="M280.594,138.137 Q285.64,138.138 289.567,141.522 Q293.494,144.906 293.914,149.706 C293.938,153.16 294.081,151.381 293.411,155.035 C300.171,156.465 306.025,159.907 311.543,163.896 Q325.267,174.791 326.818,192.13 Q329.233,216.34 310.101,228.641 C302.02,233.273 292.683,233.982 283.58,234.35 L282.37,234.326 C274.31,233.898 269.572,227.653 268.812,220.117 C269.132,212.292 274.662,206.686 282.37,205.908 L282.37,205.835 C290.79,204.893 296.514,201.677 296.821,192.715 Q296.339,187.326 291.078,184.046 Q285.816,180.766 277.556,180.766 Q264.626,180.766 254.733,188.615 C248.577,193.59 246.377,196.117 245.085,204.297 L245.069,204.279 C244.019,215.826 254.608,226.1 261.891,234.091 L274.1,247.905 L281.104,255.527 Q301.499,278.156 303.708,303.404 C304.893,314.977 302.948,320.979 299.905,331.443 C294.345,342.073 297.19,337.664 291.888,345.011 C279.101,361.412 259.721,369.45 239.23,369.909 C236.314,378.21 231.163,382.242 222.492,382.862 L222.492,382.863 Q217.446,382.862 213.519,379.478 Q209.592,376.094 209.173,371.294 C209.146,367.692 209.004,369.619 209.754,365.528 C201.661,363.387 194.914,358.331 188.524,353.153 Q169.597,336.342 167.302,310.1 C165.935,296.723 168.047,283.531 175.453,273.198 C180.321,266.406 185.339,262.057 191.698,256.562 Q205.171,245.199 217.404,245.199 L219.086,245.323 C222.249,246.111 223.706,246.774 226.333,248.62 Q230.722,252.312 231.233,258.148 Q231.92,266.008 223.094,271.725 L214.037,277.56 Q206.236,282.681 201.537,291.852 L199.778,295.857 C198.639,299.246 197.97,303.594 197.913,309.163 Q199.133,323.104 209.358,332.183 Q219.583,341.262 234.109,341.262 Q250.159,341.262 260.94,329.254 Q271.722,317.246 270.297,300.962 Q269.396,290.653 263.854,282.218 Q258.313,273.784 240.833,256.094 Q228.628,243.793 223.015,234.538 C218.355,225.841 215.228,219.875 214.64,204.213 C214.096,189.744 222.348,177.85 232.733,168.172 C241.315,160.948 251.63,156.214 262.707,154.512 L263.575,151.798 Q268.164,138.138 280.594,138.138 L280.594,138.137 z M280.597,144.745 L280.594,144.745 C274.52,144.717 271.74,148.619 269.845,153.886 L269,156.525 L267.754,160.421 L263.711,161.043 C253.768,162.461 244.909,167.004 237.095,173.143 C228.197,181.273 221.203,191.565 221.243,203.965 C221.29,214.89 223.713,221.734 228.738,231.227 C233.372,238.711 239.418,245.171 245.533,251.449 C257.476,263.535 265.377,272.501 269.377,278.59 C273.676,285.134 276.184,292.431 276.88,300.387 C277.989,313.058 274.272,324.297 265.857,333.669 C257.418,343.068 246.688,347.87 234.109,347.87 C222.834,347.87 213.017,344.269 204.97,337.124 C196.883,329.943 192.29,320.704 191.33,309.739 L191.302,309.418 L191.305,309.095 C191.367,303.047 192.096,297.973 193.514,293.752 L193.609,293.471 L193.728,293.2 L195.488,289.194 L195.567,289.014 L195.656,288.839 C199.297,281.732 204.228,276.095 210.458,272.005 L219.502,266.178 C223.485,263.599 224.874,261.282 224.65,258.724 C224.533,256.678 223.606,255.21 222.196,253.794 C220.946,252.836 219.52,252.261 218.007,251.869 L217.27,251.815 C209.064,251.983 202.203,256.631 196.018,261.562 C187.576,268.857 184.562,271.832 180.824,277.047 C174.86,285.368 172.563,296.582 173.875,309.429 L173.884,309.524 C174.973,324.616 181.832,337.92 192.829,348.136 C198.422,352.809 204.416,356.998 211.444,359.14 L217.357,360.704 L216.254,366.72 C216.092,367.6 215.986,368.142 215.818,368.966 L215.753,369.286 L215.754,369.359 C215.756,369.467 215.765,369.997 215.766,370.071 C215.775,370.71 215.773,370.456 215.776,370.833 C215.859,372.336 216.825,373.466 217.833,374.473 C219.076,375.633 220.682,376.105 222.335,376.242 C228.251,375.888 230.871,373.006 232.996,367.719 L234.511,363.406 L239.082,363.303 C257.964,362.866 274.533,355.591 286.636,340.998 C287.498,339.804 288.368,338.617 289.233,337.426 C289.697,336.781 289.875,336.511 290.046,336.209 C291.275,333.796 292.492,331.377 293.741,328.974 C294.803,325.332 295.898,321.696 296.65,317.975 C297.515,313.57 297.69,309.497 297.135,304.077 L297.125,303.979 C295.785,288.655 288.874,274.018 276.238,259.998 L269.234,252.376 L269.148,252.281 L256.982,238.514 C255.254,236.637 253.521,234.764 251.811,232.871 C247.66,228.234 244.728,224.41 242.471,220.325 C239.431,214.825 237.975,209.325 238.488,203.681 L239.969,197.44 L242.5,191.774 C244.579,188.457 247.637,185.902 250.626,183.438 C258.397,177.273 267.454,174.158 277.556,174.158 C284.221,174.158 289.928,175.543 294.573,178.439 C299.775,181.682 302.889,186.382 303.402,192.127 L303.439,192.534 L303.425,192.941 C303.194,201.771 297.778,209.206 288.998,211.244 L283.033,212.483 C278.795,212.952 275.977,215.742 275.468,219.95 C276.043,224.369 278.247,227.085 282.691,227.723 L283.498,227.739 C291.676,227.451 299.277,226.818 306.681,222.978 C317.924,215.629 321.204,205.689 320.236,192.718 C319.54,183.212 314.77,175.165 307.539,169.158 C302.867,165.646 297.726,162.908 292.044,161.5 L285.752,160.169 L286.912,153.843 C286.992,153.403 287.067,153.009 287.141,152.631 C287.191,152.375 287.179,152.438 287.297,151.847 L287.334,151.666 L287.333,151.595 C287.332,151.532 287.323,151.068 287.32,150.891 C287.311,150.281 287.313,150.522 287.31,150.168 C287.227,148.665 286.262,147.534 285.253,146.527 C283.891,145.283 282.375,144.893 280.597,144.745 z" fill="#7D7D7D"/>
      <path d="M274.989,134.137 L280.595,134.137 C284.924,134.138 288.84,135.615 292.178,138.492 C295.57,141.416 297.526,145.097 297.898,149.357 L297.912,149.517 L297.913,149.677 C297.918,150.3 297.926,150.762 297.939,151.413 C297.94,152.131 297.955,151.883 297.937,152.16 C303.799,153.857 308.936,157.193 313.887,160.654 L314.03,160.763 C324.036,168.707 329.67,179.121 330.798,191.732 C332.554,209.338 326.311,222.974 312.264,232.006 L312.09,232.111 C304.512,236.455 296.924,237.813 283.742,238.347 L283.621,238.352 L283.499,238.349 L282.289,238.325 L282.158,238.32 C272.426,237.804 265.832,230.432 264.833,220.518 L264.804,220.237 L264.816,219.954 C265.206,211.784 270.434,204.885 278.355,202.69 L278.353,202.259 L281.925,201.859 C287.904,201.226 292.365,199.44 292.805,192.855 C292.578,190.398 290.89,188.752 288.961,187.441 C286.143,185.683 282.362,184.766 277.556,184.766 C269.833,184.766 263.103,187.081 257.247,191.726 C251.941,195.857 250.258,198.103 249.05,204.844 C248.778,213.197 254.512,219.878 259.714,225.795 C260.853,227.067 264.691,231.225 264.888,231.442 L277.045,245.199 L284.075,252.849 C298.228,268.552 306.14,285.311 307.687,302.996 C308.348,309.449 308.128,314.574 307.06,320.018 C306.42,323.277 306.021,324.737 303.746,332.56 L303.634,332.943 L303.449,333.297 C301.824,336.404 299.559,340.937 299.283,341.425 C298.889,342.123 298.514,342.69 297.842,343.623 C297.68,343.849 295.944,346.226 295.132,347.352 L295.043,347.47 C282.183,363.757 262.523,372.825 241.946,373.786 C239.076,380.519 233.535,384.928 226.39,386.325 L226.374,386.863 L222.491,386.862 C218.162,386.862 214.246,385.385 210.908,382.508 C207.516,379.584 205.56,375.903 205.188,371.642 L205.174,371.483 L205.173,371.323 C205.17,370.94 205.166,370.605 205.16,370.246 C205.159,370.191 205.149,369.636 205.147,369.503 C205.152,368.589 205.133,369.01 205.191,368.237 C197.988,365.682 191.9,360.988 186.005,356.261 L185.867,356.143 C172.477,344.25 164.935,328.95 163.322,310.507 C161.765,295.264 164.587,281.493 172.202,270.867 C176.568,264.776 180.039,261.351 189.119,253.504 C198.767,245.367 208.197,241.199 217.404,241.199 L217.552,241.199 L217.7,241.21 L219.382,241.334 L219.722,241.359 L220.052,241.442 C221.273,241.775 222.538,242.045 223.694,242.572 C220.598,238.293 221.942,240.295 219.595,236.612 L219.489,236.427 C213.05,224.409 211.173,218.487 210.643,204.363 C210.103,189.999 217.094,177.278 230.006,165.246 L230.157,165.112 C238.649,158.043 248.745,153.086 259.623,151.027 L259.784,150.524 C262.62,142.221 266.882,137.474 275.198,134.747 L274.989,134.137 z M280.594,138.137 L280.594,138.138 Q268.164,138.138 263.575,151.798 L262.707,154.512 C251.63,156.214 241.315,160.948 232.733,168.172 C222.348,177.85 214.096,189.744 214.64,204.213 C215.228,219.875 218.355,225.841 223.015,234.538 Q228.628,243.793 240.833,256.094 Q258.313,273.784 263.854,282.218 Q269.396,290.653 270.297,300.962 Q271.722,317.246 260.94,329.254 Q250.159,341.262 234.109,341.262 Q219.583,341.262 209.357,332.183 Q199.133,323.104 197.913,309.163 C197.97,303.594 198.639,299.246 199.778,295.857 L201.537,291.852 Q206.236,282.681 214.037,277.56 L223.094,271.725 Q231.92,266.008 231.233,258.148 Q230.722,252.312 226.333,248.62 C223.706,246.774 222.249,246.111 219.086,245.323 L217.404,245.199 Q205.171,245.199 191.698,256.562 C185.339,262.057 180.321,266.406 175.453,273.198 C168.047,283.531 165.935,296.723 167.301,310.1 Q169.597,336.342 188.523,353.153 C194.914,358.331 201.661,363.387 209.754,365.528 C209.004,369.619 209.146,367.692 209.173,371.294 Q209.592,376.094 213.519,379.478 Q217.446,382.862 222.492,382.862 L222.492,382.862 C231.163,382.242 236.314,378.21 239.23,369.909 C259.721,369.45 279.101,361.412 291.888,345.011 C297.19,337.664 294.345,342.073 299.905,331.443 C302.948,320.979 304.893,314.977 303.708,303.404 Q301.499,278.156 281.103,255.527 L274.1,247.905 L261.891,234.091 C254.608,226.1 244.019,215.826 245.068,204.279 L245.085,204.297 C246.377,196.117 248.577,193.59 254.733,188.615 Q264.626,180.766 277.556,180.766 Q285.816,180.766 291.078,184.046 Q296.339,187.326 296.821,192.715 C296.514,201.677 290.79,204.893 282.37,205.835 L282.37,205.908 C274.662,206.686 269.132,212.292 268.812,220.117 C269.572,227.653 274.31,233.898 282.37,234.326 L283.58,234.35 C292.683,233.982 302.02,233.273 310.101,228.641 Q329.233,216.34 326.818,192.13 Q325.267,174.791 311.543,163.896 C306.025,159.907 300.171,156.465 293.411,155.035 C294.081,151.381 293.938,153.16 293.914,149.706 Q293.494,144.906 289.567,141.522 Q285.64,138.138 280.594,138.137 z M280.597,144.745 C282.375,144.893 283.891,145.283 285.253,146.527 C286.262,147.534 287.227,148.665 287.31,150.168 C287.313,150.522 287.311,150.281 287.32,150.891 C287.323,151.068 287.332,151.532 287.333,151.595 L287.334,151.666 L287.297,151.847 C287.179,152.438 287.191,152.375 287.141,152.631 C287.067,153.009 286.992,153.403 286.912,153.843 L285.752,160.169 L292.044,161.5 C297.726,162.908 302.867,165.646 307.539,169.158 C314.77,175.165 319.54,183.212 320.236,192.718 C321.204,205.689 317.924,215.629 306.681,222.978 C299.277,226.818 291.676,227.451 283.498,227.739 L282.691,227.723 C278.247,227.085 276.043,224.369 275.468,219.95 C275.977,215.742 278.795,212.952 283.033,212.483 L288.997,211.244 C297.778,209.206 303.194,201.771 303.425,192.941 L303.439,192.533 L303.402,192.127 C302.889,186.382 299.775,181.682 294.573,178.439 C289.928,175.543 284.221,174.158 277.556,174.158 C267.454,174.158 258.397,177.273 250.626,183.438 C247.637,185.902 244.579,188.457 242.5,191.774 L239.969,197.44 L238.488,203.681 C237.975,209.325 239.431,214.825 242.471,220.325 C244.728,224.41 247.66,228.234 251.811,232.871 C253.521,234.764 255.254,236.637 256.982,238.514 L269.148,252.281 L269.234,252.376 L276.238,259.998 C288.874,274.018 295.785,288.655 297.125,303.979 L297.135,304.077 C297.69,309.497 297.515,313.57 296.65,317.974 C295.898,321.696 294.803,325.332 293.741,328.974 C292.492,331.377 291.275,333.796 290.046,336.209 C289.875,336.511 289.697,336.781 289.233,337.426 C288.368,338.617 287.498,339.804 286.636,340.998 C274.533,355.591 257.964,362.866 239.082,363.303 L234.511,363.406 L232.996,367.719 C230.871,373.006 228.251,375.888 222.335,376.242 C220.682,376.105 219.076,375.633 217.833,374.473 C216.825,373.466 215.859,372.336 215.776,370.832 C215.773,370.456 215.775,370.71 215.766,370.071 C215.765,369.997 215.756,369.467 215.754,369.359 L215.753,369.286 L215.818,368.966 C215.986,368.142 216.092,367.6 216.254,366.72 L217.357,360.704 L211.444,359.14 C204.416,356.998 198.422,352.809 192.829,348.136 C181.832,337.92 174.973,324.616 173.884,309.524 L173.875,309.428 C172.563,296.582 174.86,285.368 180.824,277.047 C184.562,271.832 187.576,268.857 196.018,261.562 C202.203,256.631 209.064,251.983 217.27,251.815 L218.007,251.869 C219.52,252.261 220.946,252.836 222.196,253.794 C223.606,255.21 224.533,256.678 224.65,258.724 C224.874,261.282 223.485,263.599 219.502,266.178 L210.458,272.005 C204.228,276.095 199.297,281.732 195.656,288.839 L195.567,289.014 L195.488,289.194 L193.728,293.2 L193.609,293.471 L193.514,293.752 C192.096,297.973 191.367,303.047 191.305,309.095 L191.302,309.418 L191.33,309.739 C192.29,320.704 196.883,329.943 204.97,337.124 C213.017,344.269 222.834,347.87 234.109,347.87 C246.688,347.87 257.418,343.068 265.857,333.669 C274.272,324.297 277.989,313.058 276.88,300.386 C276.184,292.431 273.676,285.134 269.377,278.59 C265.377,272.501 257.476,263.535 245.533,251.449 C239.418,245.171 233.372,238.711 228.738,231.227 C223.713,221.734 221.29,214.89 221.243,203.965 C221.203,191.565 228.197,181.273 237.095,173.143 C244.909,167.004 253.768,162.461 263.711,161.042 L267.754,160.421 L269,156.525 L269.845,153.886 C271.74,148.619 274.52,144.717 280.594,144.745 L280.597,144.745 z M280.449,148.753 C276.493,148.717 274.892,151.987 273.623,155.204 L272.81,157.745 L271.563,161.64 L270.809,163.999 L268.361,164.375 L264.276,165.002 C255.071,166.24 247.01,170.746 239.676,176.207 C231.562,183.473 225.567,192.849 225.243,203.947 C224.933,213.012 228.103,221.331 232.204,229.221 C236.652,236.424 242.514,242.587 248.378,248.638 C260.578,260.984 268.563,270.066 272.72,276.394 C277.382,283.49 280.111,291.422 280.865,300.038 C282.07,313.814 277.987,326.147 268.833,336.341 C259.635,346.586 247.823,351.87 234.109,351.87 C221.849,351.87 211.09,347.908 202.314,340.115 C193.464,332.256 188.394,322.073 187.345,310.087 L187.317,309.765 L187.3,309.571 L187.302,309.377 L187.305,309.054 C187.372,302.607 188.16,297.127 189.723,292.478 L189.817,292.197 L189.874,292.026 L189.947,291.861 L190.066,291.591 L191.825,287.585 L191.904,287.405 L191.952,287.296 L192.007,287.19 L192.096,287.014 C196.06,279.278 201.464,273.125 208.292,268.642 L217.327,262.821 C220.049,261.058 220.748,260.014 220.665,259.073 L220.656,258.951 C220.636,258.105 220.1,257.428 219.557,256.831 C218.891,256.328 218.086,256.061 217.295,255.827 L217.234,255.823 C210.018,256.077 204.035,260.359 198.566,264.647 C193.246,269.083 188.202,273.791 184.075,279.377 C178.785,286.759 176.622,296.956 177.857,309.051 L177.874,309.236 C178.792,323.211 185.563,335.518 195.482,345.138 C200.555,349.539 206.209,353.128 212.574,355.301 L218.38,356.837 L221.959,357.784 L221.291,361.425 L220.188,367.441 C220.054,368.181 219.908,368.919 219.76,369.657 C219.764,369.918 219.762,369.8 219.766,370.014 C219.769,370.237 219.771,370.377 219.773,370.492 C219.774,370.606 219.774,370.566 219.774,370.611 C219.776,370.61 219.777,370.609 219.779,370.608 C219.798,370.638 219.817,370.668 219.836,370.698 C220.272,371.266 220.025,370.972 220.589,371.568 C221.078,372.011 221.75,372.134 222.383,372.218 C226.38,372.024 227.806,369.62 229.263,366.276 L230.737,362.08 L231.654,359.469 L234.421,359.407 L238.989,359.304 C256.785,358.958 271.824,351.858 283.495,338.515 C284.009,337.803 284.527,337.093 285.044,336.383 C285.044,336.383 285.044,336.383 285.044,336.383 C285.522,335.728 285.733,335.437 285.987,335.088 C286.173,334.825 286.369,334.567 286.535,334.29 C286.845,333.68 287.155,333.069 287.465,332.459 C287.466,332.457 287.466,332.457 287.467,332.454 C288.309,330.793 289.154,329.134 290.01,327.48 L290.14,327.036 C290.16,326.97 290.16,326.97 290.179,326.903 C291.604,322.029 292.187,319.867 292.725,317.204 C293.527,313.121 293.662,309.432 293.153,304.456 L293.14,304.328 C291.877,289.88 285.316,276.045 273.293,262.704 L266.263,255.055 L266.151,254.93 L254.038,241.223 C253.782,240.944 253.578,240.722 253.116,240.221 L253.107,240.211 C250.974,237.897 250.024,236.859 248.831,235.539 C244.296,230.473 241.302,226.479 238.97,222.26 C235.469,215.924 233.929,209.654 234.504,203.319 L234.53,203.035 L234.596,202.757 L236.077,196.516 L236.164,196.151 L236.317,195.808 L238.848,190.143 L238.962,189.887 L239.111,189.65 C241.153,186.393 243.353,184.25 248.14,180.305 C256.617,173.579 266.55,170.158 277.556,170.158 C285.005,170.158 291.416,171.756 296.69,175.044 C302.978,178.965 306.763,184.793 307.387,191.772 L307.423,192.178 L307.445,192.424 L307.436,192.67 L307.423,193.046 C307.141,203.865 300.311,212.724 289.811,215.16 L283.846,216.399 L283.661,216.438 L283.473,216.459 C281.429,216.688 279.914,217.902 279.526,219.966 C279.755,222.132 281.046,223.323 283.092,223.73 L283.45,223.737 C290.928,223.606 297.865,222.744 304.664,219.51 C314.447,213.224 316.845,204.064 316.246,193.01 C315.674,184.574 311.136,177.812 305.041,172.287 C300.887,169.068 296.162,166.799 291.117,165.392 L284.924,164.083 L281.115,163.277 L281.817,159.448 L282.977,153.122 C283.058,152.68 283.136,152.27 283.216,151.863 C283.245,151.71 283.245,151.71 283.27,151.584 C283.302,151.424 283.283,151.518 283.327,151.303 L283.327,151.297 C283.326,151.292 283.326,151.292 283.326,151.288 C283.323,151.101 283.323,151.101 283.32,150.95 C283.317,150.736 283.315,150.604 283.313,150.493 L283.312,150.39 C283.31,150.391 283.309,150.391 283.307,150.392 C283.288,150.362 283.269,150.332 283.25,150.302 C282.819,149.741 283.061,150.028 282.513,149.449 C281.957,148.927 281.17,148.84 280.449,148.753 z M234.905,255.735 C235.141,256.572 234.964,255.899 235.217,257.799 C235.818,264.663 232.303,270.526 225.26,275.087 L216.232,280.903 C211.355,284.022 207.882,288.595 205.137,293.603 L203.529,297.263 C202.292,301.038 202.012,305.028 201.918,308.972 C202.581,317.204 206.187,323.539 212.013,329.192 C218.085,334.584 225.388,337.262 234.109,337.262 C243.672,337.262 251.534,333.744 257.964,326.582 C264.409,319.404 267.166,311.068 266.313,301.311 C265.769,295.093 263.839,289.481 260.511,284.414 C257.002,279.073 249.466,270.521 237.994,258.911 C234.947,255.782 235.945,256.872 234.905,255.735 z" fill="#FFFFFF"/>
    </g>
  </g>
</svg>
