<?xml version="1.0" encoding="UTF-8"?>
<!DOCTYPE svg PUBLIC "-//W3C//DTD SVG 1.1//EN" "http://www.w3.org/Graphics/SVG/1.1/DTD/svg11.dtd">
<svg version="1.1" xmlns="http://www.w3.org/2000/svg" xmlns:xlink="http://www.w3.org/1999/xlink" x="0" y="0" width="500" height="530" viewBox="0, 0, 500, 530">
  <g id="Outline">
    <g>
      <g>
        <path d="M75.685,20.621 L78.915,20.621 Q78.983,18.581 78.286,17.119 Q77.589,15.657 76.365,14.722 Q75.141,13.787 73.526,13.328 Q71.911,12.869 70.109,12.869 Q68.477,12.869 66.896,13.311 Q65.315,13.753 64.074,14.637 Q62.833,15.521 62.051,16.83 Q61.269,18.139 61.269,19.907 Q61.269,21.267 61.711,22.27 Q62.153,23.273 62.901,24.004 Q63.649,24.735 64.635,25.228 Q65.621,25.721 66.709,26.027 L70.007,26.911 Q70.891,27.149 71.673,27.455 Q72.455,27.761 73.05,28.22 Q73.645,28.679 73.985,29.342 Q74.325,30.005 74.325,30.923 Q74.325,32.147 73.798,33.031 Q73.271,33.915 72.421,34.476 Q71.571,35.037 70.466,35.309 Q69.361,35.581 68.239,35.581 Q66.777,35.581 65.553,35.292 Q64.329,35.003 63.462,34.323 Q62.595,33.643 62.153,32.521 Q61.711,31.399 61.779,29.767 L58.549,29.767 Q58.379,32.011 59.042,33.626 Q59.705,35.241 60.98,36.261 Q62.255,37.281 64.091,37.774 Q65.927,38.267 68.103,38.267 Q69.735,38.267 71.418,37.825 Q73.101,37.383 74.461,36.482 Q75.821,35.581 76.688,34.204 Q77.555,32.827 77.555,30.923 Q77.555,29.291 77.062,28.169 Q76.569,27.047 75.753,26.316 Q74.937,25.585 73.883,25.126 Q72.829,24.667 71.707,24.361 L68.443,23.477 Q67.627,23.239 66.896,22.933 Q66.165,22.627 65.638,22.168 Q65.111,21.709 64.805,21.08 Q64.499,20.451 64.499,19.567 Q64.499,18.479 65.043,17.731 Q65.587,16.983 66.42,16.507 Q67.253,16.031 68.239,15.81 Q69.225,15.589 70.109,15.589 Q71.367,15.589 72.421,15.827 Q73.475,16.065 74.206,16.66 Q74.937,17.255 75.328,18.224 Q75.719,19.193 75.685,20.621 z" fill="#F0F0F0"/>
        <path d="M75.685,20.621 L78.915,20.621 Q78.983,18.581 78.286,17.119 Q77.589,15.657 76.365,14.722 Q75.141,13.787 73.526,13.328 Q71.911,12.869 70.109,12.869 Q68.477,12.869 66.896,13.311 Q65.315,13.753 64.074,14.637 Q62.833,15.521 62.051,16.83 Q61.269,18.139 61.269,19.907 Q61.269,21.267 61.711,22.27 Q62.153,23.273 62.901,24.004 Q63.649,24.735 64.635,25.228 Q65.621,25.721 66.709,26.027 L70.007,26.911 Q70.891,27.149 71.673,27.455 Q72.455,27.761 73.05,28.22 Q73.645,28.679 73.985,29.342 Q74.325,30.005 74.325,30.923 Q74.325,32.147 73.798,33.031 Q73.271,33.915 72.421,34.476 Q71.571,35.037 70.466,35.309 Q69.361,35.581 68.239,35.581 Q66.777,35.581 65.553,35.292 Q64.329,35.003 63.462,34.323 Q62.595,33.643 62.153,32.521 Q61.711,31.399 61.779,29.767 L58.549,29.767 Q58.379,32.011 59.042,33.626 Q59.705,35.241 60.98,36.261 Q62.255,37.281 64.091,37.774 Q65.927,38.267 68.103,38.267 Q69.735,38.267 71.418,37.825 Q73.101,37.383 74.461,36.482 Q75.821,35.581 76.688,34.204 Q77.555,32.827 77.555,30.923 Q77.555,29.291 77.062,28.169 Q76.569,27.047 75.753,26.316 Q74.937,25.585 73.883,25.126 Q72.829,24.667 71.707,24.361 L68.443,23.477 Q67.627,23.239 66.896,22.933 Q66.165,22.627 65.638,22.168 Q65.111,21.709 64.805,21.08 Q64.499,20.451 64.499,19.567 Q64.499,18.479 65.043,17.731 Q65.587,16.983 66.42,16.507 Q67.253,16.031 68.239,15.81 Q69.225,15.589 70.109,15.589 Q71.367,15.589 72.421,15.827 Q73.475,16.065 74.206,16.66 Q74.937,17.255 75.328,18.224 Q75.719,19.193 75.685,20.621 z" fill-opacity="0" stroke="#F0F0F0" stroke-width="3" stroke-linecap="round" stroke-linejoin="round"/>
      </g>
      <g>
        <path d="M104.311,29.529 L101.081,29.529 Q100.299,32.419 98.429,34 Q96.559,35.581 93.567,35.581 Q91.731,35.581 90.388,35.003 Q89.045,34.425 88.161,33.388 Q87.277,32.351 86.835,30.889 Q86.393,29.427 86.393,27.659 Q86.393,25.449 87.022,23.29 Q87.651,21.131 88.909,19.431 Q90.167,17.731 92.054,16.66 Q93.941,15.589 96.491,15.589 Q99.143,15.589 100.826,17 Q102.509,18.411 102.509,21.267 L105.739,21.267 Q105.739,19.159 105.025,17.578 Q104.311,15.997 103.07,14.96 Q101.829,13.923 100.146,13.396 Q98.463,12.869 96.491,12.869 Q93.397,12.869 90.915,14.076 Q88.433,15.283 86.716,17.323 Q84.999,19.363 84.081,22.032 Q83.163,24.701 83.163,27.659 Q83.163,32.725 85.866,35.496 Q88.569,38.267 93.567,38.267 Q98.055,38.267 100.724,35.938 Q103.393,33.609 104.311,29.529 z" fill="#F0F0F0"/>
        <path d="M104.311,29.529 L101.081,29.529 Q100.299,32.419 98.429,34 Q96.559,35.581 93.567,35.581 Q91.731,35.581 90.388,35.003 Q89.045,34.425 88.161,33.388 Q87.277,32.351 86.835,30.889 Q86.393,29.427 86.393,27.659 Q86.393,25.449 87.022,23.29 Q87.651,21.131 88.909,19.431 Q90.167,17.731 92.054,16.66 Q93.941,15.589 96.491,15.589 Q99.143,15.589 100.826,17 Q102.509,18.411 102.509,21.267 L105.739,21.267 Q105.739,19.159 105.025,17.578 Q104.311,15.997 103.07,14.96 Q101.829,13.923 100.146,13.396 Q98.463,12.869 96.491,12.869 Q93.397,12.869 90.915,14.076 Q88.433,15.283 86.716,17.323 Q84.999,19.363 84.081,22.032 Q83.163,24.701 83.163,27.659 Q83.163,32.725 85.866,35.496 Q88.569,38.267 93.567,38.267 Q98.055,38.267 100.724,35.938 Q103.393,33.609 104.311,29.529 z" fill-opacity="0" stroke="#F0F0F0" stroke-width="3" stroke-linecap="round" stroke-linejoin="round"/>
      </g>
      <g>
        <path d="M120.969,13.447 L106.383,37.723 L109.953,37.723 L114.203,30.413 L124.437,30.413 L125.559,37.723 L128.891,37.723 L124.505,13.447 z M115.665,27.693 L122.159,16.303 L122.227,16.303 L124.029,27.693 z" fill="#F0F0F0"/>
        <path d="M120.969,13.447 L106.383,37.723 L109.953,37.723 L114.203,30.413 L124.437,30.413 L125.559,37.723 L128.891,37.723 L124.505,13.447 z M115.665,27.693 L122.159,16.303 L122.227,16.303 L124.029,27.693 z" fill-opacity="0" stroke="#F0F0F0" stroke-width="3" stroke-linecap="round" stroke-linejoin="round"/>
      </g>
      <g>
        <path d="M138.069,13.447 L132.935,37.723 L136.063,37.723 L140.177,17.765 L140.245,17.765 L148.847,37.723 L152.315,37.723 L157.449,13.447 L154.321,13.447 L150.275,33.541 L150.207,33.541 L141.537,13.447 z" fill="#F0F0F0"/>
        <path d="M138.069,13.447 L132.935,37.723 L136.063,37.723 L140.177,17.765 L140.245,17.765 L148.847,37.723 L152.315,37.723 L157.449,13.447 L154.321,13.447 L150.275,33.541 L150.207,33.541 L141.537,13.447 z" fill-opacity="0" stroke="#F0F0F0" stroke-width="3" stroke-linecap="round" stroke-linejoin="round"/>
      </g>
      <g>
        <path d="M175.669,13.447 L170.535,37.723 L173.663,37.723 L177.777,17.765 L177.845,17.765 L186.447,37.723 L189.915,37.723 L195.049,13.447 L191.921,13.447 L187.875,33.541 L187.807,33.541 L179.137,13.447 z" fill="#F0F0F0"/>
        <path d="M175.669,13.447 L170.535,37.723 L173.663,37.723 L177.777,17.765 L177.845,17.765 L186.447,37.723 L189.915,37.723 L195.049,13.447 L191.921,13.447 L187.875,33.541 L187.807,33.541 L179.137,13.447 z" fill-opacity="0" stroke="#F0F0F0" stroke-width="3" stroke-linecap="round" stroke-linejoin="round"/>
      </g>
      <g>
        <path d="M201.167,27.659 Q201.167,25.449 201.796,23.29 Q202.425,21.131 203.683,19.431 Q204.941,17.731 206.828,16.66 Q208.715,15.589 211.265,15.589 Q212.965,15.589 214.24,16.218 Q215.515,16.847 216.399,17.918 Q217.283,18.989 217.725,20.451 Q218.167,21.913 218.167,23.613 Q218.167,25.789 217.538,27.931 Q216.909,30.073 215.668,31.773 Q214.427,33.473 212.591,34.527 Q210.755,35.581 208.341,35.581 Q206.505,35.581 205.162,35.003 Q203.819,34.425 202.935,33.388 Q202.051,32.351 201.609,30.889 Q201.167,29.427 201.167,27.659 z M197.937,27.659 Q197.937,32.725 200.64,35.496 Q203.343,38.267 208.341,38.267 Q211.367,38.267 213.798,37.06 Q216.229,35.853 217.912,33.813 Q219.595,31.773 220.496,29.121 Q221.397,26.469 221.397,23.613 Q221.397,21.369 220.7,19.397 Q220.003,17.425 218.694,15.98 Q217.385,14.535 215.498,13.702 Q213.611,12.869 211.265,12.869 Q208.171,12.869 205.689,14.076 Q203.207,15.283 201.49,17.323 Q199.773,19.363 198.855,22.032 Q197.937,24.701 197.937,27.659 z" fill="#F0F0F0"/>
        <path d="M201.167,27.659 Q201.167,25.449 201.796,23.29 Q202.425,21.131 203.683,19.431 Q204.941,17.731 206.828,16.66 Q208.715,15.589 211.265,15.589 Q212.965,15.589 214.24,16.218 Q215.515,16.847 216.399,17.918 Q217.283,18.989 217.725,20.451 Q218.167,21.913 218.167,23.613 Q218.167,25.789 217.538,27.931 Q216.909,30.073 215.668,31.773 Q214.427,33.473 212.591,34.527 Q210.755,35.581 208.341,35.581 Q206.505,35.581 205.162,35.003 Q203.819,34.425 202.935,33.388 Q202.051,32.351 201.609,30.889 Q201.167,29.427 201.167,27.659 z M197.937,27.659 Q197.937,32.725 200.64,35.496 Q203.343,38.267 208.341,38.267 Q211.367,38.267 213.798,37.06 Q216.229,35.853 217.912,33.813 Q219.595,31.773 220.496,29.121 Q221.397,26.469 221.397,23.613 Q221.397,21.369 220.7,19.397 Q220.003,17.425 218.694,15.98 Q217.385,14.535 215.498,13.702 Q213.611,12.869 211.265,12.869 Q208.171,12.869 205.689,14.076 Q203.207,15.283 201.49,17.323 Q199.773,19.363 198.855,22.032 Q197.937,24.701 197.937,27.659 z" fill-opacity="0" stroke="#F0F0F0" stroke-width="3" stroke-linecap="round" stroke-linejoin="round"/>
      </g>
      <g>
        <path d="M246.521,37.723 L257.673,13.447 L254.341,13.447 L245.501,33.949 L245.433,33.949 L244.073,13.447 L240.401,13.447 L231.085,33.881 L231.017,33.881 L230.167,13.447 L226.971,13.447 L228.501,37.723 L231.969,37.723 L241.557,16.779 L241.625,16.779 L243.155,37.723 z" fill="#F0F0F0"/>
        <path d="M246.521,37.723 L257.673,13.447 L254.341,13.447 L245.501,33.949 L245.433,33.949 L244.073,13.447 L240.401,13.447 L231.085,33.881 L231.017,33.881 L230.167,13.447 L226.971,13.447 L228.501,37.723 L231.969,37.723 L241.557,16.779 L241.625,16.779 L243.155,37.723 z" fill-opacity="0" stroke="#F0F0F0" stroke-width="3" stroke-linecap="round" stroke-linejoin="round"/>
      </g>
      <g>
        <path d="M281.537,13.447 L266.951,37.723 L270.521,37.723 L274.771,30.413 L285.005,30.413 L286.127,37.723 L289.459,37.723 L285.073,13.447 z M276.233,27.693 L282.727,16.303 L282.795,16.303 L284.597,27.693 z" fill="#F0F0F0"/>
        <path d="M281.537,13.447 L266.951,37.723 L270.521,37.723 L274.771,30.413 L285.005,30.413 L286.127,37.723 L289.459,37.723 L285.073,13.447 z M276.233,27.693 L282.727,16.303 L282.795,16.303 L284.597,27.693 z" fill-opacity="0" stroke="#F0F0F0" stroke-width="3" stroke-linecap="round" stroke-linejoin="round"/>
      </g>
      <g>
        <path d="M298.637,13.447 L293.503,37.723 L296.631,37.723 L300.745,17.765 L300.813,17.765 L309.415,37.723 L312.883,37.723 L318.017,13.447 L314.889,13.447 L310.843,33.541 L310.775,33.541 L302.105,13.447 z" fill="#F0F0F0"/>
        <path d="M298.637,13.447 L293.503,37.723 L296.631,37.723 L300.745,17.765 L300.813,17.765 L309.415,37.723 L312.883,37.723 L318.017,13.447 L314.889,13.447 L310.843,33.541 L310.775,33.541 L302.105,13.447 z" fill-opacity="0" stroke="#F0F0F0" stroke-width="3" stroke-linecap="round" stroke-linejoin="round"/>
      </g>
      <g>
        <path d="M323.591,35.003 L327.569,16.167 L332.737,16.167 Q334.743,16.167 336.052,16.745 Q337.361,17.323 338.109,18.275 Q338.857,19.227 339.146,20.485 Q339.435,21.743 339.435,23.069 Q339.435,25.279 338.806,27.421 Q338.177,29.563 336.902,31.246 Q335.627,32.929 333.706,33.966 Q331.785,35.003 329.201,35.003 z M324.985,13.447 L319.851,37.723 L329.167,37.723 Q332.193,37.723 334.675,36.669 Q337.157,35.615 338.925,33.66 Q340.693,31.705 341.679,28.934 Q342.665,26.163 342.665,22.729 Q342.665,18.411 340.336,15.929 Q338.007,13.447 333.485,13.447 z" fill="#F0F0F0"/>
        <path d="M323.591,35.003 L327.569,16.167 L332.737,16.167 Q334.743,16.167 336.052,16.745 Q337.361,17.323 338.109,18.275 Q338.857,19.227 339.146,20.485 Q339.435,21.743 339.435,23.069 Q339.435,25.279 338.806,27.421 Q338.177,29.563 336.902,31.246 Q335.627,32.929 333.706,33.966 Q331.785,35.003 329.201,35.003 z M324.985,13.447 L319.851,37.723 L329.167,37.723 Q332.193,37.723 334.675,36.669 Q337.157,35.615 338.925,33.66 Q340.693,31.705 341.679,28.934 Q342.665,26.163 342.665,22.729 Q342.665,18.411 340.336,15.929 Q338.007,13.447 333.485,13.447 z" fill-opacity="0" stroke="#F0F0F0" stroke-width="3" stroke-linecap="round" stroke-linejoin="round"/>
      </g>
      <g>
        <path d="M375.539,35.309 L375.743,37.723 L377.783,37.723 L380.435,24.939 L369.861,24.939 L369.317,27.659 L377.069,27.659 Q376.627,29.427 375.93,30.889 Q375.233,32.351 374.179,33.388 Q373.125,34.425 371.68,35.003 Q370.235,35.581 368.297,35.581 Q366.461,35.581 365.118,35.003 Q363.775,34.425 362.891,33.388 Q362.007,32.351 361.565,30.889 Q361.123,29.427 361.123,27.659 Q361.123,25.449 361.752,23.29 Q362.381,21.131 363.639,19.431 Q364.897,17.731 366.784,16.66 Q368.671,15.589 371.221,15.589 Q372.547,15.589 373.737,15.912 Q374.927,16.235 375.811,16.898 Q376.695,17.561 377.222,18.581 Q377.749,19.601 377.749,20.995 L380.979,20.995 Q380.979,18.887 380.214,17.357 Q379.449,15.827 378.123,14.824 Q376.797,13.821 375.012,13.345 Q373.227,12.869 371.221,12.869 Q368.127,12.869 365.645,14.076 Q363.163,15.283 361.446,17.323 Q359.729,19.363 358.811,22.032 Q357.893,24.701 357.893,27.659 Q357.893,32.725 360.596,35.496 Q363.299,38.267 368.297,38.267 Q370.269,38.267 372.19,37.553 Q374.111,36.839 375.539,35.309 z" fill="#F0F0F0"/>
        <path d="M375.539,35.309 L375.743,37.723 L377.783,37.723 L380.435,24.939 L369.861,24.939 L369.317,27.659 L377.069,27.659 Q376.627,29.427 375.93,30.889 Q375.233,32.351 374.179,33.388 Q373.125,34.425 371.68,35.003 Q370.235,35.581 368.297,35.581 Q366.461,35.581 365.118,35.003 Q363.775,34.425 362.891,33.388 Q362.007,32.351 361.565,30.889 Q361.123,29.427 361.123,27.659 Q361.123,25.449 361.752,23.29 Q362.381,21.131 363.639,19.431 Q364.897,17.731 366.784,16.66 Q368.671,15.589 371.221,15.589 Q372.547,15.589 373.737,15.912 Q374.927,16.235 375.811,16.898 Q376.695,17.561 377.222,18.581 Q377.749,19.601 377.749,20.995 L380.979,20.995 Q380.979,18.887 380.214,17.357 Q379.449,15.827 378.123,14.824 Q376.797,13.821 375.012,13.345 Q373.227,12.869 371.221,12.869 Q368.127,12.869 365.645,14.076 Q363.163,15.283 361.446,17.323 Q359.729,19.363 358.811,22.032 Q357.893,24.701 357.893,27.659 Q357.893,32.725 360.596,35.496 Q363.299,38.267 368.297,38.267 Q370.269,38.267 372.19,37.553 Q374.111,36.839 375.539,35.309 z" fill-opacity="0" stroke="#F0F0F0" stroke-width="3" stroke-linecap="round" stroke-linejoin="round"/>
      </g>
      <g>
        <path d="M389.545,13.447 L384.445,37.723 L387.675,37.723 L392.775,13.447 z" fill="#F0F0F0"/>
        <path d="M389.545,13.447 L384.445,37.723 L387.675,37.723 L392.775,13.447 z" fill-opacity="0" stroke="#F0F0F0" stroke-width="3" stroke-linecap="round" stroke-linejoin="round"/>
      </g>
      <g>
        <path d="M404.605,37.723 L418.307,13.447 L414.873,13.447 L403.347,34.561 L403.279,34.561 L400.797,13.447 L397.499,13.447 L400.967,37.723 z" fill="#F0F0F0"/>
        <path d="M404.605,37.723 L418.307,13.447 L414.873,13.447 L403.347,34.561 L403.279,34.561 L400.797,13.447 L397.499,13.447 L400.967,37.723 z" fill-opacity="0" stroke="#F0F0F0" stroke-width="3" stroke-linecap="round" stroke-linejoin="round"/>
      </g>
      <g>
        <path d="M422.759,13.447 L417.625,37.723 L434.523,37.723 L435.135,35.003 L421.467,35.003 L423.235,26.605 L435.849,26.605 L436.393,23.885 L423.813,23.885 L425.445,16.167 L438.943,16.167 L439.487,13.447 z" fill="#F0F0F0"/>
        <path d="M422.759,13.447 L417.625,37.723 L434.523,37.723 L435.135,35.003 L421.467,35.003 L423.235,26.605 L435.849,26.605 L436.393,23.885 L423.813,23.885 L425.445,16.167 L438.943,16.167 L439.487,13.447 z" fill-opacity="0" stroke="#F0F0F0" stroke-width="3" stroke-linecap="round" stroke-linejoin="round"/>
      </g>
    </g>
    <g>
      <path d="M158.47,494 L42.945,494 C32.11,494 23.326,485.086 23.326,474.09 L23.326,44.031 C23.326,33.035 32.11,24.121 42.945,24.121" fill-opacity="0" stroke="#7D7D7D" stroke-width="7" stroke-linecap="round" stroke-linejoin="round"/>
      <path d="M455.813,24.121 C466.648,24.098 475.45,33 475.474,44.004 L476.386,474.366 C476.41,485.37 467.645,494.309 456.81,494.332 L349.56,494.347" fill-opacity="0" stroke="#7D7D7D" stroke-width="7" stroke-linecap="round" stroke-linejoin="round"/>
    </g>
    <g>
      <g>
        <path d="M76.684,21.621 L79.914,21.621 Q79.982,19.581 79.285,18.119 Q78.588,16.657 77.364,15.722 Q76.14,14.787 74.525,14.328 Q72.91,13.869 71.108,13.869 Q69.476,13.869 67.895,14.311 Q66.314,14.753 65.073,15.637 Q63.832,16.521 63.05,17.83 Q62.268,19.139 62.268,20.907 Q62.268,22.267 62.71,23.27 Q63.152,24.273 63.9,25.004 Q64.648,25.735 65.634,26.228 Q66.62,26.721 67.708,27.027 L71.006,27.911 Q71.89,28.149 72.672,28.455 Q73.454,28.761 74.049,29.22 Q74.644,29.679 74.984,30.342 Q75.324,31.005 75.324,31.923 Q75.324,33.147 74.797,34.031 Q74.27,34.915 73.42,35.476 Q72.57,36.037 71.465,36.309 Q70.36,36.581 69.238,36.581 Q67.776,36.581 66.552,36.292 Q65.328,36.003 64.461,35.323 Q63.594,34.643 63.152,33.521 Q62.71,32.399 62.778,30.767 L59.548,30.767 Q59.378,33.011 60.041,34.626 Q60.704,36.241 61.979,37.261 Q63.254,38.281 65.09,38.774 Q66.926,39.267 69.102,39.267 Q70.734,39.267 72.417,38.825 Q74.1,38.383 75.46,37.482 Q76.82,36.581 77.687,35.204 Q78.554,33.827 78.554,31.923 Q78.554,30.291 78.061,29.169 Q77.568,28.047 76.752,27.316 Q75.936,26.585 74.882,26.126 Q73.828,25.667 72.706,25.361 L69.442,24.477 Q68.626,24.239 67.895,23.933 Q67.164,23.627 66.637,23.168 Q66.11,22.709 65.804,22.08 Q65.498,21.451 65.498,20.567 Q65.498,19.479 66.042,18.731 Q66.586,17.983 67.419,17.507 Q68.252,17.031 69.238,16.81 Q70.224,16.589 71.108,16.589 Q72.366,16.589 73.42,16.827 Q74.474,17.065 75.205,17.66 Q75.936,18.255 76.327,19.224 Q76.718,20.193 76.684,21.621 z" fill="#8AAF8A"/>
        <path d="M76.684,21.621 L79.914,21.621 Q79.982,19.581 79.285,18.119 Q78.588,16.657 77.364,15.722 Q76.14,14.787 74.525,14.328 Q72.91,13.869 71.108,13.869 Q69.476,13.869 67.895,14.311 Q66.314,14.753 65.073,15.637 Q63.832,16.521 63.05,17.83 Q62.268,19.139 62.268,20.907 Q62.268,22.267 62.71,23.27 Q63.152,24.273 63.9,25.004 Q64.648,25.735 65.634,26.228 Q66.62,26.721 67.708,27.027 L71.006,27.911 Q71.89,28.149 72.672,28.455 Q73.454,28.761 74.049,29.22 Q74.644,29.679 74.984,30.342 Q75.324,31.005 75.324,31.923 Q75.324,33.147 74.797,34.031 Q74.27,34.915 73.42,35.476 Q72.57,36.037 71.465,36.309 Q70.36,36.581 69.238,36.581 Q67.776,36.581 66.552,36.292 Q65.328,36.003 64.461,35.323 Q63.594,34.643 63.152,33.521 Q62.71,32.399 62.778,30.767 L59.548,30.767 Q59.378,33.011 60.041,34.626 Q60.704,36.241 61.979,37.261 Q63.254,38.281 65.09,38.774 Q66.926,39.267 69.102,39.267 Q70.734,39.267 72.417,38.825 Q74.1,38.383 75.46,37.482 Q76.82,36.581 77.687,35.204 Q78.554,33.827 78.554,31.923 Q78.554,30.291 78.061,29.169 Q77.568,28.047 76.752,27.316 Q75.936,26.585 74.882,26.126 Q73.828,25.667 72.706,25.361 L69.442,24.477 Q68.626,24.239 67.895,23.933 Q67.164,23.627 66.637,23.168 Q66.11,22.709 65.804,22.08 Q65.498,21.451 65.498,20.567 Q65.498,19.479 66.042,18.731 Q66.586,17.983 67.419,17.507 Q68.252,17.031 69.238,16.81 Q70.224,16.589 71.108,16.589 Q72.366,16.589 73.42,16.827 Q74.474,17.065 75.205,17.66 Q75.936,18.255 76.327,19.224 Q76.718,20.193 76.684,21.621 z" fill-opacity="0" stroke="#8AAF8A" stroke-width="3" stroke-linecap="round" stroke-linejoin="round"/>
      </g>
      <g>
        <path d="M105.31,30.529 L102.08,30.529 Q101.298,33.419 99.428,35 Q97.558,36.581 94.566,36.581 Q92.73,36.581 91.387,36.003 Q90.044,35.425 89.16,34.388 Q88.276,33.351 87.834,31.889 Q87.392,30.427 87.392,28.659 Q87.392,26.449 88.021,24.29 Q88.65,22.131 89.908,20.431 Q91.166,18.731 93.053,17.66 Q94.94,16.589 97.49,16.589 Q100.142,16.589 101.825,18 Q103.508,19.411 103.508,22.267 L106.738,22.267 Q106.738,20.159 106.024,18.578 Q105.31,16.997 104.069,15.96 Q102.828,14.923 101.145,14.396 Q99.462,13.869 97.49,13.869 Q94.396,13.869 91.914,15.076 Q89.432,16.283 87.715,18.323 Q85.998,20.363 85.08,23.032 Q84.162,25.701 84.162,28.659 Q84.162,33.725 86.865,36.496 Q89.568,39.267 94.566,39.267 Q99.054,39.267 101.723,36.938 Q104.392,34.609 105.31,30.529 z" fill="#8AAF8A"/>
        <path d="M105.31,30.529 L102.08,30.529 Q101.298,33.419 99.428,35 Q97.558,36.581 94.566,36.581 Q92.73,36.581 91.387,36.003 Q90.044,35.425 89.16,34.388 Q88.276,33.351 87.834,31.889 Q87.392,30.427 87.392,28.659 Q87.392,26.449 88.021,24.29 Q88.65,22.131 89.908,20.431 Q91.166,18.731 93.053,17.66 Q94.94,16.589 97.49,16.589 Q100.142,16.589 101.825,18 Q103.508,19.411 103.508,22.267 L106.738,22.267 Q106.738,20.159 106.024,18.578 Q105.31,16.997 104.069,15.96 Q102.828,14.923 101.145,14.396 Q99.462,13.869 97.49,13.869 Q94.396,13.869 91.914,15.076 Q89.432,16.283 87.715,18.323 Q85.998,20.363 85.08,23.032 Q84.162,25.701 84.162,28.659 Q84.162,33.725 86.865,36.496 Q89.568,39.267 94.566,39.267 Q99.054,39.267 101.723,36.938 Q104.392,34.609 105.31,30.529 z" fill-opacity="0" stroke="#8AAF8A" stroke-width="3" stroke-linecap="round" stroke-linejoin="round"/>
      </g>
      <g>
        <path d="M121.968,14.447 L107.382,38.723 L110.952,38.723 L115.202,31.413 L125.436,31.413 L126.558,38.723 L129.89,38.723 L125.504,14.447 z M116.664,28.693 L123.158,17.303 L123.226,17.303 L125.028,28.693 z" fill="#8AAF8A"/>
        <path d="M121.968,14.447 L107.382,38.723 L110.952,38.723 L115.202,31.413 L125.436,31.413 L126.558,38.723 L129.89,38.723 L125.504,14.447 z M116.664,28.693 L123.158,17.303 L123.226,17.303 L125.028,28.693 z" fill-opacity="0" stroke="#8AAF8A" stroke-width="3" stroke-linecap="round" stroke-linejoin="round"/>
      </g>
      <g>
        <path d="M139.068,14.447 L133.934,38.723 L137.062,38.723 L141.176,18.765 L141.244,18.765 L149.846,38.723 L153.314,38.723 L158.448,14.447 L155.32,14.447 L151.274,34.541 L151.206,34.541 L142.536,14.447 z" fill="#8AAF8A"/>
        <path d="M139.068,14.447 L133.934,38.723 L137.062,38.723 L141.176,18.765 L141.244,18.765 L149.846,38.723 L153.314,38.723 L158.448,14.447 L155.32,14.447 L151.274,34.541 L151.206,34.541 L142.536,14.447 z" fill-opacity="0" stroke="#8AAF8A" stroke-width="3" stroke-linecap="round" stroke-linejoin="round"/>
      </g>
      <g>
        <path d="M176.668,14.447 L171.534,38.723 L174.662,38.723 L178.776,18.765 L178.844,18.765 L187.446,38.723 L190.914,38.723 L196.048,14.447 L192.92,14.447 L188.874,34.541 L188.806,34.541 L180.136,14.447 z" fill="#8AAF8A"/>
        <path d="M176.668,14.447 L171.534,38.723 L174.662,38.723 L178.776,18.765 L178.844,18.765 L187.446,38.723 L190.914,38.723 L196.048,14.447 L192.92,14.447 L188.874,34.541 L188.806,34.541 L180.136,14.447 z" fill-opacity="0" stroke="#8AAF8A" stroke-width="3" stroke-linecap="round" stroke-linejoin="round"/>
      </g>
      <g>
        <path d="M202.166,28.659 Q202.166,26.449 202.795,24.29 Q203.424,22.131 204.682,20.431 Q205.94,18.731 207.827,17.66 Q209.714,16.589 212.264,16.589 Q213.964,16.589 215.239,17.218 Q216.514,17.847 217.398,18.918 Q218.282,19.989 218.724,21.451 Q219.166,22.913 219.166,24.613 Q219.166,26.789 218.537,28.931 Q217.908,31.073 216.667,32.773 Q215.426,34.473 213.59,35.527 Q211.754,36.581 209.34,36.581 Q207.504,36.581 206.161,36.003 Q204.818,35.425 203.934,34.388 Q203.05,33.351 202.608,31.889 Q202.166,30.427 202.166,28.659 z M198.936,28.659 Q198.936,33.725 201.639,36.496 Q204.342,39.267 209.34,39.267 Q212.366,39.267 214.797,38.06 Q217.228,36.853 218.911,34.813 Q220.594,32.773 221.495,30.121 Q222.396,27.469 222.396,24.613 Q222.396,22.369 221.699,20.397 Q221.002,18.425 219.693,16.98 Q218.384,15.535 216.497,14.702 Q214.61,13.869 212.264,13.869 Q209.17,13.869 206.688,15.076 Q204.206,16.283 202.489,18.323 Q200.772,20.363 199.854,23.032 Q198.936,25.701 198.936,28.659 z" fill="#8AAF8A"/>
        <path d="M202.166,28.659 Q202.166,26.449 202.795,24.29 Q203.424,22.131 204.682,20.431 Q205.94,18.731 207.827,17.66 Q209.714,16.589 212.264,16.589 Q213.964,16.589 215.239,17.218 Q216.514,17.847 217.398,18.918 Q218.282,19.989 218.724,21.451 Q219.166,22.913 219.166,24.613 Q219.166,26.789 218.537,28.931 Q217.908,31.073 216.667,32.773 Q215.426,34.473 213.59,35.527 Q211.754,36.581 209.34,36.581 Q207.504,36.581 206.161,36.003 Q204.818,35.425 203.934,34.388 Q203.05,33.351 202.608,31.889 Q202.166,30.427 202.166,28.659 z M198.936,28.659 Q198.936,33.725 201.639,36.496 Q204.342,39.267 209.34,39.267 Q212.366,39.267 214.797,38.06 Q217.228,36.853 218.911,34.813 Q220.594,32.773 221.495,30.121 Q222.396,27.469 222.396,24.613 Q222.396,22.369 221.699,20.397 Q221.002,18.425 219.693,16.98 Q218.384,15.535 216.497,14.702 Q214.61,13.869 212.264,13.869 Q209.17,13.869 206.688,15.076 Q204.206,16.283 202.489,18.323 Q200.772,20.363 199.854,23.032 Q198.936,25.701 198.936,28.659 z" fill-opacity="0" stroke="#8AAF8A" stroke-width="3" stroke-linecap="round" stroke-linejoin="round"/>
      </g>
      <g>
        <path d="M247.52,38.723 L258.672,14.447 L255.34,14.447 L246.5,34.949 L246.432,34.949 L245.072,14.447 L241.4,14.447 L232.084,34.881 L232.016,34.881 L231.166,14.447 L227.97,14.447 L229.5,38.723 L232.968,38.723 L242.556,17.779 L242.624,17.779 L244.154,38.723 z" fill="#8AAF8A"/>
        <path d="M247.52,38.723 L258.672,14.447 L255.34,14.447 L246.5,34.949 L246.432,34.949 L245.072,14.447 L241.4,14.447 L232.084,34.881 L232.016,34.881 L231.166,14.447 L227.97,14.447 L229.5,38.723 L232.968,38.723 L242.556,17.779 L242.624,17.779 L244.154,38.723 z" fill-opacity="0" stroke="#8AAF8A" stroke-width="3" stroke-linecap="round" stroke-linejoin="round"/>
      </g>
      <g>
        <path d="M282.536,14.447 L267.95,38.723 L271.52,38.723 L275.77,31.413 L286.004,31.413 L287.126,38.723 L290.458,38.723 L286.072,14.447 z M277.232,28.693 L283.726,17.303 L283.794,17.303 L285.596,28.693 z" fill="#8AAF8A"/>
        <path d="M282.536,14.447 L267.95,38.723 L271.52,38.723 L275.77,31.413 L286.004,31.413 L287.126,38.723 L290.458,38.723 L286.072,14.447 z M277.232,28.693 L283.726,17.303 L283.794,17.303 L285.596,28.693 z" fill-opacity="0" stroke="#8AAF8A" stroke-width="3" stroke-linecap="round" stroke-linejoin="round"/>
      </g>
      <g>
        <path d="M299.636,14.447 L294.502,38.723 L297.63,38.723 L301.744,18.765 L301.812,18.765 L310.414,38.723 L313.882,38.723 L319.016,14.447 L315.888,14.447 L311.842,34.541 L311.774,34.541 L303.104,14.447 z" fill="#8AAF8A"/>
        <path d="M299.636,14.447 L294.502,38.723 L297.63,38.723 L301.744,18.765 L301.812,18.765 L310.414,38.723 L313.882,38.723 L319.016,14.447 L315.888,14.447 L311.842,34.541 L311.774,34.541 L303.104,14.447 z" fill-opacity="0" stroke="#8AAF8A" stroke-width="3" stroke-linecap="round" stroke-linejoin="round"/>
      </g>
      <g>
        <path d="M324.59,36.003 L328.568,17.167 L333.736,17.167 Q335.742,17.167 337.051,17.745 Q338.36,18.323 339.108,19.275 Q339.856,20.227 340.145,21.485 Q340.434,22.743 340.434,24.069 Q340.434,26.279 339.805,28.421 Q339.176,30.563 337.901,32.246 Q336.626,33.929 334.705,34.966 Q332.784,36.003 330.2,36.003 z M325.984,14.447 L320.85,38.723 L330.166,38.723 Q333.192,38.723 335.674,37.669 Q338.156,36.615 339.924,34.66 Q341.692,32.705 342.678,29.934 Q343.664,27.163 343.664,23.729 Q343.664,19.411 341.335,16.929 Q339.006,14.447 334.484,14.447 z" fill="#8AAF8A"/>
        <path d="M324.59,36.003 L328.568,17.167 L333.736,17.167 Q335.742,17.167 337.051,17.745 Q338.36,18.323 339.108,19.275 Q339.856,20.227 340.145,21.485 Q340.434,22.743 340.434,24.069 Q340.434,26.279 339.805,28.421 Q339.176,30.563 337.901,32.246 Q336.626,33.929 334.705,34.966 Q332.784,36.003 330.2,36.003 z M325.984,14.447 L320.85,38.723 L330.166,38.723 Q333.192,38.723 335.674,37.669 Q338.156,36.615 339.924,34.66 Q341.692,32.705 342.678,29.934 Q343.664,27.163 343.664,23.729 Q343.664,19.411 341.335,16.929 Q339.006,14.447 334.484,14.447 z" fill-opacity="0" stroke="#8AAF8A" stroke-width="3" stroke-linecap="round" stroke-linejoin="round"/>
      </g>
      <g>
        <path d="M376.538,36.309 L376.742,38.723 L378.782,38.723 L381.434,25.939 L370.86,25.939 L370.316,28.659 L378.068,28.659 Q377.626,30.427 376.929,31.889 Q376.232,33.351 375.178,34.388 Q374.124,35.425 372.679,36.003 Q371.234,36.581 369.296,36.581 Q367.46,36.581 366.117,36.003 Q364.774,35.425 363.89,34.388 Q363.006,33.351 362.564,31.889 Q362.122,30.427 362.122,28.659 Q362.122,26.449 362.751,24.29 Q363.38,22.131 364.638,20.431 Q365.896,18.731 367.783,17.66 Q369.67,16.589 372.22,16.589 Q373.546,16.589 374.736,16.912 Q375.926,17.235 376.81,17.898 Q377.694,18.561 378.221,19.581 Q378.748,20.601 378.748,21.995 L381.978,21.995 Q381.978,19.887 381.213,18.357 Q380.448,16.827 379.122,15.824 Q377.796,14.821 376.011,14.345 Q374.226,13.869 372.22,13.869 Q369.126,13.869 366.644,15.076 Q364.162,16.283 362.445,18.323 Q360.728,20.363 359.81,23.032 Q358.892,25.701 358.892,28.659 Q358.892,33.725 361.595,36.496 Q364.298,39.267 369.296,39.267 Q371.268,39.267 373.189,38.553 Q375.11,37.839 376.538,36.309 z" fill="#8AAF8A"/>
        <path d="M376.538,36.309 L376.742,38.723 L378.782,38.723 L381.434,25.939 L370.86,25.939 L370.316,28.659 L378.068,28.659 Q377.626,30.427 376.929,31.889 Q376.232,33.351 375.178,34.388 Q374.124,35.425 372.679,36.003 Q371.234,36.581 369.296,36.581 Q367.46,36.581 366.117,36.003 Q364.774,35.425 363.89,34.388 Q363.006,33.351 362.564,31.889 Q362.122,30.427 362.122,28.659 Q362.122,26.449 362.751,24.29 Q363.38,22.131 364.638,20.431 Q365.896,18.731 367.783,17.66 Q369.67,16.589 372.22,16.589 Q373.546,16.589 374.736,16.912 Q375.926,17.235 376.81,17.898 Q377.694,18.561 378.221,19.581 Q378.748,20.601 378.748,21.995 L381.978,21.995 Q381.978,19.887 381.213,18.357 Q380.448,16.827 379.122,15.824 Q377.796,14.821 376.011,14.345 Q374.226,13.869 372.22,13.869 Q369.126,13.869 366.644,15.076 Q364.162,16.283 362.445,18.323 Q360.728,20.363 359.81,23.032 Q358.892,25.701 358.892,28.659 Q358.892,33.725 361.595,36.496 Q364.298,39.267 369.296,39.267 Q371.268,39.267 373.189,38.553 Q375.11,37.839 376.538,36.309 z" fill-opacity="0" stroke="#8AAF8A" stroke-width="3" stroke-linecap="round" stroke-linejoin="round"/>
      </g>
      <g>
        <path d="M390.544,14.447 L385.444,38.723 L388.674,38.723 L393.774,14.447 z" fill="#8AAF8A"/>
        <path d="M390.544,14.447 L385.444,38.723 L388.674,38.723 L393.774,14.447 z" fill-opacity="0" stroke="#8AAF8A" stroke-width="3" stroke-linecap="round" stroke-linejoin="round"/>
      </g>
      <g>
        <path d="M405.604,38.723 L419.306,14.447 L415.872,14.447 L404.346,35.561 L404.278,35.561 L401.796,14.447 L398.498,14.447 L401.966,38.723 z" fill="#8AAF8A"/>
        <path d="M405.604,38.723 L419.306,14.447 L415.872,14.447 L404.346,35.561 L404.278,35.561 L401.796,14.447 L398.498,14.447 L401.966,38.723 z" fill-opacity="0" stroke="#8AAF8A" stroke-width="3" stroke-linecap="round" stroke-linejoin="round"/>
      </g>
      <g>
        <path d="M423.758,14.447 L418.624,38.723 L435.522,38.723 L436.134,36.003 L422.466,36.003 L424.234,27.605 L436.848,27.605 L437.392,24.885 L424.812,24.885 L426.444,17.167 L439.942,17.167 L440.486,14.447 z" fill="#8AAF8A"/>
        <path d="M423.758,14.447 L418.624,38.723 L435.522,38.723 L436.134,36.003 L422.466,36.003 L424.234,27.605 L436.848,27.605 L437.392,24.885 L424.812,24.885 L426.444,17.167 L439.942,17.167 L440.486,14.447 z" fill-opacity="0" stroke="#8AAF8A" stroke-width="3" stroke-linecap="round" stroke-linejoin="round"/>
      </g>
    </g>
  </g>
  <g id="Swiftgive_Logo">
    <g>
      <g>
        <path d="M218.592,494.947 L223.128,488.282 L223.496,487.759 Q224.634,486.082 226.181,486.082 Q227.161,486.082 227.849,486.725 Q228.537,487.367 228.622,488.347 Q228.712,489.371 227.53,491.048 L220.262,501.329 Q218.827,503.354 217.106,503.354 Q215.691,503.354 214.617,502.287 Q213.544,501.22 213.408,499.673 Q213.374,499.281 213.403,498.867 L213.779,494.947 L209.894,501.329 Q208.677,503.354 206.978,503.354 Q205.519,503.354 204.483,502.222 Q203.448,501.089 203.291,499.303 Q203.268,499.042 203.275,498.867 L203.086,489.741 Q203.063,487.977 203.775,487.029 Q204.487,486.082 205.859,486.082 Q207.906,486.082 208.103,488.325 Q208.135,488.696 208.132,489.153 L208.055,495.252 L212.305,488.304 Q213.657,486.082 215.704,486.082 Q216.967,486.082 217.771,486.801 Q218.574,487.52 218.681,488.739 Q218.725,489.24 218.724,489.48 z" fill="#F0F0F0"/>
        <path d="M234.069,498.301 L236.531,498.301 Q239.275,498.301 239.445,500.24 Q239.561,501.568 238.656,502.309 Q237.752,503.049 236.009,503.049 L232.546,503.049 Q230.629,503.049 229.461,502.265 Q228.292,501.481 228.174,500.131 Q228.111,499.412 228.472,498.301 L231.292,489.458 L231.478,488.848 Q232.265,486.387 234.486,486.387 Q235.401,486.387 236.119,486.997 Q236.836,487.607 236.911,488.456 Q236.972,489.153 236.509,490.591 z M235.294,479.439 Q236.557,479.439 237.517,480.321 Q238.476,481.203 238.587,482.466 Q238.697,483.73 237.892,484.612 Q237.087,485.494 235.824,485.494 Q234.561,485.494 233.601,484.612 Q232.642,483.73 232.531,482.466 Q232.421,481.203 233.226,480.321 Q234.031,479.439 235.294,479.439 z" fill="#F0F0F0"/>
        <path d="M258.797,473.318 Q261.585,473.318 261.753,475.235 Q261.873,476.607 260.96,477.37 Q260.046,478.132 258.304,478.132 L257.65,478.132 Q255.821,478.132 254.829,478.872 Q253.838,479.613 253.273,481.377 L251.664,486.387 L254.67,486.387 Q257.436,486.387 257.606,488.325 Q257.722,489.654 256.817,490.395 Q255.913,491.135 254.17,491.135 L250.163,491.135 L245.465,505.903 L245.459,505.903 L244.981,507.406 Q243.884,510.803 242.06,512.23 Q240.235,513.657 236.968,513.657 L234.485,513.657 Q231.697,513.657 231.529,511.74 Q231.409,510.368 232.323,509.605 Q233.236,508.843 234.978,508.843 L235.632,508.843 Q237.462,508.843 238.453,508.103 Q239.445,507.362 240.009,505.598 L244.63,491.135 L243.149,491.135 Q240.383,491.135 240.217,489.24 Q240.099,487.89 241.003,487.138 Q241.906,486.387 243.649,486.387 L246.132,486.387 L248.301,479.569 Q249.398,476.172 251.223,474.745 Q253.047,473.318 256.314,473.318 L258.797,473.318 z" fill="#F0F0F0"/>
        <path d="M265.505,486.246 L266.181,486.246 Q268.947,486.246 269.116,488.184 Q269.233,489.513 268.317,490.253 Q267.402,490.994 265.681,490.994 L264.091,490.994 L261.799,498.16 L264.239,498.16 Q267.005,498.16 267.175,500.098 Q267.291,501.427 266.386,502.168 Q265.482,502.908 263.74,502.908 L259.841,502.908 Q258.185,502.908 257.149,502.146 Q256.114,501.384 255.999,500.077 Q255.929,499.271 256.235,498.291 L256.565,497.332 L258.581,490.994 L258.254,490.994 Q255.814,490.994 255.649,489.099 Q255.531,487.749 256.434,486.997 Q257.338,486.246 259.08,486.246 L260.082,486.246 L260.987,483.392 L261.175,482.804 Q261.987,480.387 264.187,480.387 Q265.08,480.387 265.775,480.986 Q266.47,481.585 266.544,482.434 Q266.616,483.262 266.161,484.525 z" fill="#F0F0F0"/>
        <path d="M281.926,503.659 L284.54,503.659 Q287.306,503.659 287.474,505.576 Q287.59,506.905 286.675,507.656 Q285.761,508.407 284.04,508.407 L280.425,508.407 L279.706,510.651 Q277.088,518.819 270.685,518.819 Q267.33,518.819 264.917,516.75 Q262.503,514.68 262.231,511.566 Q262.054,509.54 262.976,507.765 Q263.899,505.99 265.681,504.944 Q267.877,503.659 271.776,503.659 L276.459,503.659 L276.986,501.96 Q275.686,502.788 274.466,502.788 Q272.135,502.788 270.546,501.176 Q268.957,499.564 268.73,496.972 Q268.364,492.79 271.011,489.436 Q273.658,486.082 277.317,486.082 Q279.996,486.082 281.477,487.824 Q282.348,486.082 284.222,486.082 Q285.136,486.082 285.831,486.681 Q286.526,487.28 286.601,488.129 Q286.66,488.805 286.215,490.199 z M278.523,497.125 L279.91,492.812 Q280.08,492.268 280.049,491.919 Q279.992,491.266 279.377,490.83 Q278.762,490.395 277.89,490.395 Q276.322,490.395 275.053,492.192 Q273.783,493.988 273.959,495.992 Q274.159,498.279 276.293,498.279 Q278.145,498.279 278.523,497.125 z M274.936,508.407 L271.168,508.407 Q269.207,508.407 268.202,509.235 Q267.196,510.063 267.327,511.566 Q267.417,512.589 268.22,513.308 Q269.024,514.027 270.113,514.027 Q271.681,514.027 272.749,512.785 Q273.816,511.544 274.936,508.407 z" fill="#F0F0F0"/>
        <path d="M292.774,498.301 L295.235,498.301 Q297.979,498.301 298.149,500.24 Q298.265,501.568 297.361,502.309 Q296.456,503.049 294.714,503.049 L291.251,503.049 Q289.334,503.049 288.165,502.265 Q286.997,501.481 286.879,500.131 Q286.816,499.412 287.176,498.301 L289.996,489.458 L290.182,488.848 Q290.969,486.387 293.191,486.387 Q294.105,486.387 294.823,486.997 Q295.541,487.607 295.615,488.456 Q295.676,489.153 295.214,490.591 z M293.999,479.439 Q295.262,479.439 296.221,480.321 Q297.18,481.203 297.291,482.466 Q297.401,483.73 296.597,484.612 Q295.792,485.494 294.528,485.494 Q293.265,485.494 292.306,484.612 Q291.346,483.73 291.236,482.466 Q291.125,481.203 291.93,480.321 Q292.735,479.439 293.999,479.439 z" fill="#F0F0F0"/>
        <path d="M303.817,495.382 L308.268,488.5 L308.609,487.912 Q309.712,486.082 311.28,486.082 Q312.304,486.082 313.014,486.725 Q313.723,487.367 313.811,488.369 Q313.906,489.458 312.748,491.157 L305.602,501.59 Q304.406,503.354 302.576,503.354 Q301.03,503.354 300.043,502.276 Q299.055,501.198 298.891,499.325 Q298.857,498.933 298.858,498.693 L298.882,490.003 Q298.88,488.238 299.594,487.313 Q300.308,486.387 301.658,486.387 Q303.727,486.387 303.91,488.478 Q303.937,488.783 303.915,489.523 z" fill="#F0F0F0"/>
        <path d="M319.078,496.668 Q319.221,498.301 321.682,498.301 L328.151,498.301 Q330.896,498.301 331.065,500.24 Q331.181,501.568 330.277,502.309 Q329.372,503.049 327.63,503.049 L321.466,503.049 Q318.025,503.049 316.079,501.35 Q314.133,499.651 313.848,496.384 Q313.48,492.181 316.055,489.131 Q318.631,486.082 322.552,486.082 Q325.405,486.082 327.267,487.574 Q329.129,489.066 329.343,491.505 Q329.6,494.446 327.328,495.862 Q326.07,496.668 323.434,496.668 z M319.777,492.703 L322.173,492.703 Q324.503,492.703 324.348,491.68 Q324.182,490.525 322.744,490.525 Q320.741,490.525 319.777,492.703 z" fill="#F0F0F0"/>
        <path d="M196.505,473.765 Q197.294,473.765 197.908,474.294 Q198.521,474.823 198.587,475.574 C198.591,476.154 198.613,475.836 198.487,476.526 C199.405,476.734 200.197,477.249 200.949,477.792 Q203.094,479.495 203.336,482.205 Q203.714,485.99 200.723,487.912 C199.46,488.636 198.001,488.747 196.578,488.805 L196.389,488.801 C195.129,488.734 194.388,487.758 194.269,486.58 C194.319,485.357 195.184,484.48 196.389,484.359 L196.389,484.347 C197.705,484.2 198.6,483.698 198.648,482.297 Q198.572,481.454 197.75,480.942 Q196.927,480.429 195.636,480.429 Q193.615,480.429 192.069,481.656 C191.106,482.433 190.762,482.828 190.561,484.107 L190.558,484.104 C190.394,485.909 192.049,487.515 193.187,488.764 L195.096,490.924 L196.191,492.115 Q199.379,495.652 199.724,499.599 C199.909,501.408 199.605,502.346 199.13,503.982 C198.261,505.643 198.705,504.954 197.876,506.103 C195.878,508.666 192.848,509.923 189.645,509.995 C189.189,511.292 188.384,511.922 187.029,512.019 L187.029,512.019 Q186.24,512.019 185.626,511.49 Q185.012,510.961 184.947,510.211 C184.943,509.648 184.921,509.949 185.038,509.31 C183.773,508.975 182.718,508.185 181.719,507.375 Q178.761,504.748 178.402,500.646 C178.188,498.555 178.518,496.492 179.676,494.877 C180.437,493.816 181.221,493.136 182.215,492.277 Q184.321,490.501 186.234,490.501 L186.497,490.52 C186.991,490.643 187.219,490.747 187.629,491.035 Q188.315,491.613 188.395,492.525 Q188.503,493.753 187.123,494.647 L185.707,495.559 Q184.488,496.36 183.753,497.793 L183.478,498.419 C183.3,498.949 183.196,499.629 183.187,500.499 Q183.377,502.678 184.976,504.097 Q186.574,505.517 188.845,505.517 Q191.354,505.517 193.039,503.64 Q194.724,501.763 194.502,499.217 Q194.361,497.606 193.494,496.287 Q192.628,494.969 189.896,492.204 Q187.988,490.281 187.111,488.834 C186.382,487.475 185.893,486.542 185.801,484.094 C185.716,481.832 187.006,479.973 188.63,478.46 C190.08,477.193 191.855,476.549 193.729,476.261 L193.845,475.901 Q194.562,473.765 196.505,473.765 L196.505,473.765 z" fill="#F0F0F0"/>
      </g>
      <g>
        <path d="M175.747,469.155 L183.855,469.155 C184.96,469.155 185.636,470.051 185.366,471.155 L183.385,479.263 C183.115,480.368 182.001,481.263 180.896,481.263 L172.789,481.263 C171.684,481.263 171.007,480.368 171.277,479.263 L173.259,471.155 C173.529,470.051 174.643,469.155 175.747,469.155 z" fill="#F0F0F0"/>
        <path d="M212.129,469.155 L220.237,469.155 C221.342,469.155 222.018,470.051 221.748,471.155 L219.767,479.263 C219.497,480.368 218.383,481.263 217.278,481.263 L209.171,481.263 C208.066,481.263 207.389,480.368 207.659,479.263 L209.641,471.155 C209.911,470.051 211.025,469.155 212.129,469.155 z" fill="#F0F0F0"/>
        <path d="M166.474,507.815 L174.582,507.815 C175.686,507.815 176.363,508.71 176.093,509.815 L174.112,517.923 C173.842,519.027 172.728,519.923 171.623,519.923 L163.515,519.923 C162.411,519.923 161.734,519.027 162.004,517.923 L163.985,509.815 C164.255,508.71 165.37,507.815 166.474,507.815 z" fill="#F0F0F0"/>
        <path d="M201.205,507.815 L206.041,507.815 C206.7,507.815 207.104,508.349 206.943,509.008 L205.761,513.844 C205.6,514.503 204.935,515.037 204.277,515.037 L199.44,515.037 C198.782,515.037 198.378,514.503 198.539,513.844 L199.721,509.008 C199.882,508.349 200.546,507.815 201.205,507.815 z" fill="#F0F0F0"/>
      </g>
    </g>
    <g>
      <path d="M219.592,495.947 L224.128,489.282 L224.496,488.759 Q225.634,487.082 227.181,487.082 Q228.161,487.082 228.849,487.725 Q229.537,488.367 229.622,489.347 Q229.712,490.371 228.53,492.048 L221.262,502.329 Q219.827,504.354 218.106,504.354 Q216.691,504.354 215.617,503.287 Q214.544,502.22 214.408,500.673 Q214.374,500.281 214.403,499.867 L214.779,495.947 L210.894,502.329 Q209.677,504.354 207.978,504.354 Q206.519,504.354 205.483,503.222 Q204.448,502.089 204.291,500.303 Q204.268,500.042 204.275,499.867 L204.086,490.741 Q204.063,488.977 204.775,488.03 Q205.487,487.082 206.859,487.082 Q208.906,487.082 209.103,489.326 Q209.135,489.696 209.132,490.153 L209.055,496.252 L213.305,489.304 Q214.657,487.082 216.704,487.082 Q217.967,487.082 218.771,487.801 Q219.574,488.52 219.681,489.739 Q219.725,490.24 219.724,490.48 z" fill="#8AAF8A"/>
      <path d="M235.069,499.301 L237.531,499.301 Q240.275,499.301 240.445,501.24 Q240.561,502.568 239.656,503.309 Q238.752,504.049 237.009,504.049 L233.546,504.049 Q231.629,504.049 230.461,503.265 Q229.292,502.481 229.174,501.131 Q229.111,500.412 229.472,499.301 L232.292,490.458 L232.478,489.848 Q233.265,487.387 235.486,487.387 Q236.401,487.387 237.119,487.997 Q237.836,488.607 237.911,489.456 Q237.972,490.153 237.509,491.591 z M236.294,480.439 Q237.557,480.439 238.517,481.321 Q239.476,482.203 239.587,483.466 Q239.697,484.73 238.892,485.612 Q238.087,486.494 236.824,486.494 Q235.561,486.494 234.601,485.612 Q233.642,484.73 233.531,483.466 Q233.421,482.203 234.226,481.321 Q235.031,480.439 236.294,480.439 z" fill="#8AAF8A"/>
      <path d="M259.797,474.318 Q262.585,474.318 262.753,476.235 Q262.873,477.607 261.96,478.37 Q261.046,479.132 259.304,479.132 L258.65,479.132 Q256.821,479.132 255.829,479.873 Q254.838,480.613 254.273,482.377 L252.664,487.387 L255.67,487.387 Q258.436,487.387 258.606,489.326 Q258.722,490.654 257.817,491.395 Q256.913,492.135 255.17,492.135 L251.163,492.135 L246.465,506.903 L246.459,506.903 L245.981,508.406 Q244.884,511.803 243.06,513.23 Q241.235,514.657 237.968,514.657 L235.485,514.657 Q232.697,514.657 232.529,512.74 Q232.409,511.368 233.323,510.605 Q234.236,509.843 235.978,509.843 L236.632,509.843 Q238.462,509.843 239.453,509.103 Q240.445,508.362 241.009,506.598 L245.63,492.135 L244.149,492.135 Q241.383,492.135 241.217,490.24 Q241.099,488.89 242.003,488.138 Q242.906,487.387 244.649,487.387 L247.132,487.387 L249.301,480.57 Q250.398,477.172 252.223,475.745 Q254.047,474.318 257.314,474.318 L259.797,474.318 z" fill="#8AAF8A"/>
      <path d="M266.505,487.246 L267.181,487.246 Q269.947,487.246 270.116,489.184 Q270.233,490.513 269.317,491.254 Q268.402,491.994 266.681,491.994 L265.091,491.994 L262.799,499.16 L265.239,499.16 Q268.005,499.16 268.175,501.099 Q268.291,502.427 267.386,503.168 Q266.482,503.908 264.74,503.908 L260.841,503.908 Q259.185,503.908 258.149,503.146 Q257.114,502.384 256.999,501.077 Q256.929,500.271 257.235,499.291 L257.565,498.332 L259.581,491.994 L259.254,491.994 Q256.814,491.994 256.649,490.099 Q256.53,488.749 257.434,487.997 Q258.338,487.246 260.08,487.246 L261.082,487.246 L261.987,484.393 L262.175,483.804 Q262.987,481.387 265.187,481.387 Q266.08,481.387 266.775,481.986 Q267.47,482.585 267.544,483.434 Q267.616,484.262 267.161,485.525 z" fill="#8AAF8A"/>
      <path d="M282.926,504.659 L285.54,504.659 Q288.306,504.659 288.474,506.576 Q288.59,507.905 287.675,508.656 Q286.761,509.408 285.04,509.408 L281.425,509.408 L280.706,511.651 Q278.088,519.819 271.685,519.819 Q268.33,519.819 265.917,517.75 Q263.503,515.68 263.231,512.566 Q263.054,510.54 263.976,508.765 Q264.899,506.99 266.681,505.944 Q268.877,504.659 272.776,504.659 L277.459,504.659 L277.986,502.96 Q276.686,503.788 275.466,503.788 Q273.135,503.788 271.546,502.176 Q269.957,500.564 269.73,497.973 Q269.364,493.791 272.011,490.436 Q274.658,487.082 278.317,487.082 Q280.996,487.082 282.477,488.825 Q283.348,487.082 285.222,487.082 Q286.136,487.082 286.831,487.681 Q287.526,488.28 287.601,489.129 Q287.66,489.805 287.215,491.199 z M279.523,498.125 L280.91,493.812 Q281.08,493.268 281.049,492.919 Q280.992,492.266 280.377,491.83 Q279.762,491.395 278.89,491.395 Q277.322,491.395 276.053,493.192 Q274.783,494.989 274.959,496.992 Q275.159,499.279 277.293,499.279 Q279.145,499.279 279.523,498.125 z M275.936,509.408 L272.168,509.408 Q270.207,509.408 269.202,510.235 Q268.196,511.063 268.327,512.566 Q268.417,513.589 269.22,514.308 Q270.024,515.027 271.113,515.027 Q272.681,515.027 273.749,513.785 Q274.816,512.544 275.936,509.408 z" fill="#8AAF8A"/>
      <path d="M293.774,499.301 L296.235,499.301 Q298.979,499.301 299.149,501.24 Q299.265,502.568 298.361,503.309 Q297.456,504.049 295.714,504.049 L292.251,504.049 Q290.334,504.049 289.165,503.265 Q287.997,502.481 287.879,501.131 Q287.816,500.412 288.176,499.301 L290.996,490.458 L291.182,489.848 Q291.969,487.387 294.191,487.387 Q295.105,487.387 295.823,487.997 Q296.541,488.607 296.615,489.456 Q296.676,490.153 296.214,491.591 z M294.999,480.439 Q296.262,480.439 297.221,481.321 Q298.18,482.203 298.291,483.466 Q298.401,484.73 297.597,485.612 Q296.792,486.494 295.528,486.494 Q294.265,486.494 293.306,485.612 Q292.346,484.73 292.236,483.466 Q292.125,482.203 292.93,481.321 Q293.735,480.439 294.999,480.439 z" fill="#8AAF8A"/>
      <path d="M304.817,496.383 L309.268,489.5 L309.609,488.912 Q310.712,487.082 312.28,487.082 Q313.304,487.082 314.014,487.725 Q314.723,488.367 314.811,489.369 Q314.906,490.458 313.748,492.157 L306.602,502.59 Q305.406,504.354 303.576,504.354 Q302.03,504.354 301.043,503.276 Q300.055,502.198 299.891,500.325 Q299.857,499.933 299.858,499.693 L299.882,491.003 Q299.88,489.238 300.594,488.313 Q301.308,487.387 302.658,487.387 Q304.727,487.387 304.91,489.478 Q304.937,489.783 304.915,490.523 z" fill="#8AAF8A"/>
      <path d="M320.078,497.668 Q320.221,499.301 322.682,499.301 L329.151,499.301 Q331.896,499.301 332.065,501.24 Q332.181,502.568 331.277,503.309 Q330.372,504.049 328.63,504.049 L322.466,504.049 Q319.025,504.049 317.079,502.35 Q315.133,500.652 314.848,497.384 Q314.48,493.181 317.055,490.131 Q319.631,487.082 323.552,487.082 Q326.405,487.082 328.267,488.574 Q330.129,490.066 330.343,492.505 Q330.6,495.446 328.328,496.862 Q327.07,497.668 324.434,497.668 z M320.777,493.703 L323.173,493.703 Q325.503,493.703 325.348,492.68 Q325.182,491.525 323.744,491.525 Q321.741,491.525 320.777,493.703 z" fill="#8AAF8A"/>
      <path d="M197.505,474.765 Q198.294,474.765 198.908,475.295 Q199.521,475.824 199.587,476.574 C199.591,477.154 199.613,476.836 199.487,477.526 C200.405,477.734 201.197,478.249 201.949,478.792 Q204.094,480.495 204.336,483.205 Q204.714,486.99 201.723,488.912 C200.46,489.636 199.001,489.747 197.578,489.805 L197.389,489.801 C196.129,489.734 195.388,488.758 195.269,487.58 C195.319,486.357 196.184,485.48 197.389,485.359 L197.389,485.348 C198.705,485.2 199.6,484.698 199.648,483.297 Q199.572,482.454 198.75,481.942 Q197.927,481.429 196.636,481.429 Q194.615,481.429 193.069,482.656 C192.106,483.433 191.762,483.828 191.561,485.107 L191.558,485.104 C191.394,486.909 193.049,488.515 194.188,489.764 L196.096,491.924 L197.191,493.115 Q200.379,496.652 200.724,500.599 C200.909,502.408 200.605,503.346 200.13,504.982 C199.261,506.643 199.705,505.954 198.876,507.103 C196.878,509.666 193.848,510.923 190.645,510.995 C190.189,512.292 189.384,512.923 188.029,513.019 L188.029,513.02 Q187.24,513.019 186.626,512.49 Q186.012,511.961 185.947,511.211 C185.943,510.648 185.921,510.949 186.038,510.31 C184.773,509.975 183.718,509.185 182.719,508.375 Q179.761,505.748 179.402,501.646 C179.188,499.555 179.518,497.493 180.676,495.877 C181.437,494.816 182.221,494.136 183.215,493.277 Q185.321,491.501 187.234,491.501 L187.497,491.52 C187.991,491.643 188.219,491.747 188.629,492.036 Q189.315,492.613 189.395,493.525 Q189.503,494.753 188.123,495.647 L186.707,496.559 Q185.488,497.36 184.753,498.793 L184.478,499.419 C184.3,499.949 184.196,500.629 184.187,501.499 Q184.377,503.678 185.976,505.098 Q187.574,506.517 189.845,506.517 Q192.354,506.517 194.039,504.64 Q195.724,502.763 195.502,500.217 Q195.361,498.606 194.494,497.287 Q193.628,495.969 190.896,493.204 Q188.988,491.281 188.111,489.834 C187.382,488.475 186.893,487.542 186.801,485.094 C186.716,482.832 188.006,480.973 189.63,479.46 C191.08,478.193 192.855,477.549 194.729,477.261 L194.845,476.901 Q195.562,474.765 197.505,474.765 L197.505,474.765 z" fill="#8AAF8A"/>
    </g>
    <g>
      <path d="M176.747,470.155 L184.855,470.155 C185.96,470.155 186.636,471.051 186.366,472.155 L184.385,480.263 C184.115,481.368 183.001,482.263 181.896,482.263 L173.789,482.263 C172.684,482.263 172.007,481.368 172.277,480.263 L174.259,472.155 C174.529,471.051 175.643,470.155 176.747,470.155 z" fill="#CFCFCF"/>
      <path d="M213.129,470.155 L221.237,470.155 C222.342,470.155 223.018,471.051 222.748,472.155 L220.767,480.263 C220.497,481.368 219.383,482.263 218.278,482.263 L210.171,482.263 C209.066,482.263 208.389,481.368 208.659,480.263 L210.641,472.155 C210.911,471.051 212.025,470.155 213.129,470.155 z" fill="#CFCFCF"/>
      <path d="M167.474,508.815 L175.582,508.815 C176.686,508.815 177.363,509.71 177.093,510.815 L175.112,518.923 C174.842,520.027 173.728,520.923 172.623,520.923 L164.515,520.923 C163.411,520.923 162.734,520.027 163.004,518.923 L164.985,510.815 C165.255,509.71 166.37,508.815 167.474,508.815 z" fill="#CFCFCF"/>
      <path d="M202.205,508.815 L207.041,508.815 C207.7,508.815 208.104,509.349 207.943,510.008 L206.761,514.844 C206.6,515.503 205.935,516.037 205.277,516.037 L200.44,516.037 C199.782,516.037 199.378,515.503 199.539,514.844 L200.721,510.008 C200.882,509.349 201.546,508.815 202.205,508.815 z" fill="#CFCFCF"/>
    </g>
  </g>
  <g id="S">
    <g>
      <path d="M278.297,142.137 Q282.993,142.138 286.646,145.287 Q290.3,148.436 290.691,152.903 C290.714,156.116 290.847,154.461 290.224,157.862 C296.513,159.192 301.961,162.395 307.096,166.107 Q319.867,176.245 321.309,192.379 Q323.557,214.908 305.754,226.354 C298.235,230.664 289.546,231.324 281.076,231.667 L279.949,231.644 C272.449,231.246 268.04,225.435 267.334,218.423 C267.631,211.141 272.777,205.924 279.949,205.201 L279.949,205.132 C287.784,204.256 293.111,201.263 293.396,192.924 Q292.948,187.91 288.052,184.857 Q283.156,181.805 275.47,181.805 Q263.438,181.805 254.232,189.109 C248.504,193.738 246.457,196.089 245.255,203.702 L245.239,203.685 C244.263,214.429 254.116,223.989 260.893,231.425 L272.254,244.28 L278.771,251.373 Q297.75,272.429 299.805,295.923 C300.908,306.693 299.098,312.278 296.266,322.015 C291.093,331.906 293.74,327.804 288.806,334.64 C276.908,349.902 258.874,357.382 239.806,357.809 C237.093,365.533 232.3,369.285 224.23,369.862 L224.23,369.863 Q219.535,369.862 215.881,366.713 Q212.227,363.564 211.837,359.098 C211.812,355.746 211.68,357.539 212.378,353.732 C204.847,351.74 198.569,347.035 192.622,342.217 Q175.011,326.574 172.874,302.155 C171.603,289.706 173.568,277.431 180.46,267.816 C184.989,261.496 189.658,257.449 195.576,252.336 Q208.113,241.762 219.497,241.762 L221.062,241.878 C224.005,242.61 225.361,243.227 227.805,244.946 Q231.889,248.381 232.364,253.811 Q233.004,261.126 224.791,266.445 L216.363,271.875 Q209.104,276.641 204.732,285.174 L203.095,288.901 C202.035,292.054 201.412,296.101 201.359,301.283 Q202.494,314.255 212.009,322.704 Q221.524,331.152 235.041,331.152 Q249.976,331.152 260.009,319.978 Q270.041,308.804 268.716,293.652 Q267.876,284.059 262.72,276.21 Q257.564,268.361 241.298,251.9 Q229.94,240.454 224.717,231.842 C220.381,223.748 217.472,218.197 216.924,203.623 C216.418,190.159 224.097,179.091 233.761,170.086 C241.747,163.363 251.345,158.958 261.652,157.374 L262.46,154.849 Q266.731,142.138 278.297,142.138 L278.297,142.137 z M278.3,148.286 L278.297,148.286 C272.644,148.26 270.058,151.891 268.294,156.793 L267.509,159.248 L266.348,162.873 L262.586,163.452 C253.335,164.771 245.091,168.999 237.82,174.712 C229.54,182.277 223.031,191.854 223.069,203.392 C223.113,213.558 225.367,219.927 230.043,228.76 C234.355,235.725 239.981,241.736 245.672,247.578 C256.785,258.825 264.137,267.167 267.859,272.834 C271.859,278.922 274.193,285.713 274.841,293.116 C275.873,304.907 272.414,315.366 264.584,324.086 C256.731,332.832 246.746,337.301 235.041,337.301 C224.549,337.301 215.414,333.95 207.926,327.301 C200.401,320.619 196.127,312.022 195.234,301.819 L195.207,301.52 L195.211,301.22 C195.268,295.591 195.946,290.87 197.266,286.942 L197.354,286.681 L197.465,286.428 L199.102,282.701 L199.176,282.533 L199.26,282.37 C202.647,275.757 207.235,270.512 213.033,266.706 L221.448,261.284 C225.155,258.883 226.447,256.728 226.239,254.347 C226.13,252.444 225.268,251.078 223.955,249.76 C222.792,248.868 221.465,248.333 220.058,247.969 L219.372,247.918 C211.736,248.075 205.351,252.4 199.596,256.988 C191.741,263.776 188.935,266.545 185.457,271.397 C179.908,279.141 177.77,289.576 178.991,301.53 L179,301.619 C180.013,315.662 186.395,328.042 196.629,337.548 C201.833,341.896 207.411,345.795 213.951,347.788 L219.452,349.243 L218.426,354.841 C218.276,355.66 218.177,356.164 218.021,356.931 L217.96,357.23 L217.961,357.297 C217.962,357.398 217.971,357.89 217.972,357.96 C217.981,358.554 217.978,358.318 217.982,358.668 C218.058,360.067 218.957,361.119 219.896,362.056 C221.053,363.136 222.547,363.574 224.085,363.702 C229.59,363.372 232.028,360.69 234.005,355.771 L235.415,351.757 L239.668,351.662 C257.239,351.255 272.657,344.485 283.919,330.906 C284.721,329.795 285.531,328.69 286.336,327.582 C286.768,326.982 286.933,326.731 287.092,326.45 C288.236,324.204 289.369,321.953 290.531,319.717 C291.519,316.328 292.538,312.945 293.238,309.482 C294.042,305.383 294.205,301.594 293.688,296.55 L293.68,296.459 C292.432,282.199 286.001,268.579 274.243,255.533 L267.726,248.44 L267.646,248.352 L256.325,235.541 C254.717,233.795 253.105,232.052 251.513,230.29 C247.65,225.975 244.923,222.417 242.822,218.616 C239.994,213.498 238.638,208.38 239.116,203.128 L240.494,197.32 L242.849,192.048 C244.784,188.962 247.629,186.584 250.411,184.292 C257.642,178.554 266.07,175.656 275.47,175.656 C281.672,175.656 286.982,176.944 291.305,179.639 C296.145,182.657 299.043,187.031 299.521,192.377 L299.555,192.755 L299.542,193.134 C299.327,201.351 294.288,208.269 286.117,210.166 L280.566,211.319 C276.623,211.755 274.001,214.351 273.527,218.267 C274.062,222.378 276.113,224.906 280.248,225.5 L280.999,225.515 C288.609,225.246 295.682,224.658 302.571,221.084 C313.034,214.246 316.085,204.997 315.185,192.927 C314.538,184.081 310.099,176.593 303.37,171.003 C299.022,167.735 294.239,165.188 288.951,163.877 L283.096,162.639 L284.176,156.752 C284.251,156.343 284.32,155.976 284.389,155.624 C284.436,155.386 284.424,155.444 284.534,154.895 L284.568,154.726 L284.568,154.66 C284.567,154.602 284.558,154.169 284.555,154.005 C284.547,153.437 284.549,153.661 284.546,153.332 C284.469,151.934 283.571,150.881 282.632,149.945 C281.365,148.787 279.954,148.424 278.3,148.286 z" fill="#7D7D7D"/>
      <path d="M274.093,139.137 L278.297,139.137 C282.152,139.138 285.629,140.449 288.605,143.014 C291.622,145.615 293.35,148.868 293.68,152.641 L293.69,152.761 L293.691,152.881 C293.695,153.465 293.703,153.899 293.715,154.504 C293.724,155.005 293.719,155.274 293.685,155.614 L293.674,155.682 C299.259,157.258 304.147,160.384 308.854,163.676 L308.961,163.757 C318.118,171.026 323.263,180.536 324.294,192.081 C325.903,208.199 320.214,220.624 307.376,228.878 L307.246,228.957 C300.324,232.925 293.354,234.172 281.197,234.664 L281.015,234.666 L279.79,234.64 C271.116,234.18 265.245,227.615 264.349,218.723 L264.328,218.512 L264.336,218.3 C264.672,210.639 269.66,204.764 276.938,202.751 L276.936,202.45 L279.616,202.151 C285.625,201.515 289.941,199.573 290.384,193.028 C290.159,190.489 288.463,188.766 286.465,187.403 C283.718,185.69 280.068,184.805 275.47,184.805 C268.122,184.805 261.7,187.013 256.118,191.442 C251.071,195.316 249.368,197.785 248.225,204.132 C247.939,212.139 253.351,218.525 258.329,224.188 C259.393,225.376 262.968,229.249 263.141,229.439 L274.463,242.25 L280.999,249.364 C294.069,263.865 301.364,279.315 302.79,295.618 C303.397,301.552 303.196,306.249 302.215,311.245 C301.626,314.246 301.256,315.599 299.147,322.852 L299.063,323.14 L298.925,323.405 C297.405,326.311 295.305,330.513 295.059,330.948 C294.707,331.571 294.372,332.078 293.761,332.927 C293.611,333.135 291.997,335.346 291.239,336.396 L291.172,336.485 C279.226,351.664 260.97,359.824 241.874,360.715 C239.181,367.263 233.998,371.157 227.153,372.488 L227.142,372.863 L224.23,372.863 C220.376,372.862 216.899,371.551 213.923,368.986 C210.906,366.386 209.178,363.132 208.848,359.359 L208.838,359.239 L208.837,359.119 C208.834,358.761 208.83,358.446 208.825,358.11 C208.824,358.058 208.815,357.544 208.813,357.421 C208.806,356.909 208.814,356.609 208.856,356.244 L208.928,355.807 C202.086,353.431 196.316,349.026 190.733,344.548 L190.63,344.46 C178.309,333.516 171.376,319.451 169.89,302.46 C168.457,288.439 171.048,275.799 178.021,266.068 C182.041,260.46 185.24,257.303 193.642,250.042 C202.499,242.572 211.119,238.762 219.497,238.762 L219.718,238.77 L221.283,238.886 L221.538,238.905 L221.786,238.967 C223.945,239.425 225.954,240.273 227.84,241.399 C225.695,238.917 223.911,236.156 222.152,233.397 L222.073,233.258 C216.129,222.165 214.416,216.757 213.926,203.736 C213.433,190.614 219.839,178.958 231.715,167.891 L231.829,167.791 C239.745,161.151 249.192,156.681 259.339,154.76 L259.616,153.894 C261.892,147.134 266.752,140.692 274.238,139.559 L274.093,139.137 z M278.297,142.137 L278.297,142.138 Q266.731,142.138 262.46,154.849 L261.652,157.374 C251.345,158.958 241.747,163.363 233.761,170.086 C224.097,179.091 216.418,190.159 216.924,203.623 C217.472,218.197 220.381,223.748 224.717,231.842 Q229.94,240.454 241.298,251.9 Q257.564,268.361 262.72,276.21 Q267.876,284.059 268.716,293.652 Q270.041,308.804 260.009,319.978 Q249.976,331.152 235.041,331.152 Q221.524,331.152 212.009,322.703 Q202.494,314.255 201.359,301.283 C201.412,296.101 202.035,292.054 203.095,288.901 L204.732,285.174 Q209.104,276.641 216.363,271.875 L224.791,266.445 Q233.004,261.126 232.364,253.811 Q231.889,248.381 227.805,244.946 C225.361,243.227 224.005,242.61 221.062,241.878 L219.497,241.762 Q208.113,241.762 195.576,252.336 C189.658,257.449 184.989,261.496 180.46,267.815 C173.568,277.431 171.603,289.706 172.874,302.155 Q175.011,326.574 192.622,342.217 C198.569,347.035 204.847,351.74 212.378,353.732 C211.68,357.539 211.812,355.746 211.837,359.098 Q212.227,363.564 215.881,366.713 Q219.535,369.862 224.23,369.863 L224.23,369.862 C232.3,369.285 237.093,365.533 239.806,357.809 C258.874,357.382 276.908,349.902 288.806,334.64 C293.74,327.804 291.093,331.906 296.266,322.015 C299.098,312.278 300.908,306.693 299.805,295.923 Q297.75,272.429 278.771,251.373 L272.254,244.28 L260.893,231.425 C254.116,223.989 244.263,214.429 245.239,203.684 L245.255,203.702 C246.457,196.089 248.504,193.738 254.232,189.109 Q263.438,181.805 275.47,181.805 Q283.156,181.805 288.052,184.857 Q292.948,187.91 293.396,192.924 C293.111,201.263 287.784,204.256 279.949,205.132 L279.949,205.201 C272.777,205.924 267.631,211.141 267.334,218.423 C268.04,225.435 272.449,231.246 279.949,231.644 L281.076,231.667 C289.546,231.324 298.235,230.664 305.754,226.354 Q323.557,214.908 321.309,192.379 Q319.867,176.245 307.096,166.107 C301.961,162.395 296.513,159.192 290.224,157.861 C290.847,154.461 290.714,156.116 290.691,152.902 Q290.3,148.436 286.646,145.287 Q282.993,142.138 278.297,142.137 z M278.3,148.286 C279.954,148.424 281.365,148.787 282.632,149.945 C283.571,150.881 284.469,151.934 284.546,153.332 C284.549,153.661 284.547,153.437 284.555,154.005 C284.558,154.169 284.567,154.602 284.568,154.66 L284.568,154.726 L284.534,154.895 C284.424,155.444 284.436,155.386 284.389,155.624 C284.32,155.976 284.251,156.343 284.176,156.752 L283.096,162.639 L288.951,163.877 C294.239,165.188 299.022,167.735 303.37,171.003 C310.099,176.593 314.538,184.081 315.185,192.926 C316.085,204.997 313.034,214.246 302.571,221.084 C295.682,224.658 288.609,225.246 280.999,225.515 L280.248,225.5 C276.113,224.906 274.062,222.378 273.526,218.267 C274.001,214.351 276.623,211.755 280.566,211.318 L286.117,210.166 C294.288,208.269 299.327,201.351 299.541,193.134 L299.554,192.755 L299.521,192.377 C299.043,187.031 296.145,182.657 291.305,179.639 C286.982,176.944 281.672,175.656 275.47,175.656 C266.07,175.656 257.642,178.554 250.411,184.292 C247.629,186.584 244.784,188.962 242.849,192.048 L240.494,197.32 L239.115,203.128 C238.638,208.38 239.994,213.498 242.822,218.616 C244.923,222.417 247.65,225.975 251.513,230.29 C253.105,232.052 254.717,233.795 256.325,235.541 L267.646,248.352 L267.726,248.44 L274.243,255.533 C286.001,268.579 292.432,282.199 293.68,296.459 L293.688,296.549 C294.205,301.594 294.042,305.383 293.238,309.482 C292.538,312.945 291.519,316.328 290.531,319.717 C289.369,321.953 288.236,324.204 287.092,326.45 C286.933,326.731 286.768,326.982 286.336,327.582 C285.531,328.69 284.721,329.795 283.919,330.906 C272.657,344.485 257.239,351.255 239.668,351.662 L235.415,351.757 L234.005,355.771 C232.028,360.69 229.59,363.372 224.085,363.702 C222.547,363.574 221.053,363.136 219.896,362.056 C218.957,361.119 218.058,360.067 217.982,358.668 C217.978,358.318 217.981,358.554 217.972,357.96 C217.971,357.89 217.962,357.398 217.961,357.297 L217.96,357.229 L218.021,356.931 C218.177,356.164 218.276,355.66 218.426,354.841 L219.452,349.243 L213.951,347.788 C207.411,345.795 201.833,341.896 196.629,337.548 C186.395,328.042 180.013,315.662 179,301.619 L178.991,301.53 C177.77,289.576 179.908,279.141 185.457,271.397 C188.935,266.545 191.741,263.776 199.596,256.988 C205.351,252.4 211.736,248.075 219.372,247.918 L220.058,247.969 C221.465,248.333 222.792,248.868 223.955,249.76 C225.268,251.078 226.13,252.444 226.239,254.347 C226.447,256.728 225.155,258.883 221.448,261.284 L213.033,266.706 C207.235,270.512 202.647,275.757 199.26,282.37 L199.176,282.533 L199.102,282.701 L197.465,286.428 L197.354,286.681 L197.266,286.942 C195.946,290.87 195.268,295.591 195.21,301.22 L195.207,301.52 L195.234,301.819 C196.127,312.022 200.401,320.619 207.926,327.301 C215.414,333.95 224.549,337.301 235.041,337.301 C246.746,337.301 256.731,332.832 264.584,324.086 C272.414,315.366 275.873,304.907 274.841,293.116 C274.193,285.713 271.859,278.922 267.859,272.834 C264.137,267.167 256.785,258.825 245.672,247.578 C239.981,241.736 234.355,235.725 230.043,228.76 C225.367,219.927 223.113,213.558 223.068,203.392 C223.031,191.854 229.54,182.277 237.82,174.712 C245.091,168.999 253.335,164.771 262.586,163.452 L266.348,162.873 L267.509,159.248 L268.294,156.792 C270.058,151.891 272.644,148.26 278.297,148.286 L278.3,148.286 z M278.186,151.293 C274.15,151.25 272.44,154.474 271.128,157.781 L270.366,160.163 L269.206,163.788 L268.639,165.556 L266.804,165.839 L263.01,166.421 C254.314,167.589 246.697,171.841 239.768,177 C232.046,183.999 226.377,192.767 226.068,203.379 C225.778,211.943 228.77,219.803 232.643,227.257 C236.811,234.014 242.306,239.795 247.805,245.469 C259.126,256.926 266.531,265.348 270.366,271.186 C274.638,277.689 277.138,284.955 277.829,292.854 C278.934,305.475 275.2,316.753 266.816,326.09 C258.394,335.471 247.597,340.301 235.041,340.301 C223.807,340.301 213.966,336.677 205.934,329.545 C197.838,322.355 193.205,313.05 192.245,302.079 L192.219,301.78 L192.206,301.635 L192.208,301.489 L192.211,301.189 C192.271,295.26 192.995,290.235 194.422,285.987 L194.51,285.725 L194.553,285.597 L194.608,285.473 L194.718,285.222 L196.356,281.494 L196.429,281.327 L196.506,281.165 L196.589,281.002 C200.222,273.912 205.167,268.281 211.408,264.184 L219.818,258.766 C222.552,256.995 223.354,255.796 223.244,254.518 C223.22,253.526 222.605,252.736 221.971,252.034 C221.253,251.482 220.38,251.192 219.522,250.937 L219.344,250.924 C212.418,251.129 206.776,255.247 201.502,259.306 C196.504,263.472 191.771,267.899 187.896,273.145 C182.862,280.17 180.812,289.833 181.978,301.247 L181.992,301.403 C182.858,314.599 189.253,326.217 198.619,335.3 C203.419,339.467 208.773,342.853 214.797,344.909 L220.22,346.343 L222.904,347.053 L222.403,349.784 L221.377,355.382 C221.249,356.092 221.108,356.801 220.965,357.509 L220.966,357.572 C220.966,357.575 220.966,357.575 220.966,357.578 C220.97,357.799 220.97,357.799 220.972,357.917 C220.977,358.255 220.977,358.255 220.979,358.362 C220.98,358.48 220.979,358.429 220.98,358.516 C221.095,359.063 221.576,359.474 221.943,359.863 C222.534,360.417 223.347,360.578 224.122,360.683 C228.186,360.479 229.705,358.11 231.205,354.689 L232.585,350.763 L233.273,348.805 L235.348,348.758 L239.599,348.663 C256.383,348.335 270.558,341.626 281.563,329.044 C282.047,328.374 282.535,327.706 283.022,327.037 C283.022,327.037 283.022,327.037 283.022,327.037 C283.466,326.427 283.663,326.157 283.901,325.829 C284.353,325.189 284.171,325.468 284.463,325.001 C284.754,324.43 285.044,323.859 285.334,323.288 C285.335,323.285 285.335,323.285 285.336,323.283 C286.13,321.718 286.926,320.155 287.733,318.597 C287.787,318.411 287.74,318.571 287.873,318.117 C287.891,318.055 287.891,318.055 287.909,317.993 C289.241,313.438 289.787,311.413 290.294,308.904 C291.054,305.032 291.183,301.529 290.702,296.834 L290.691,296.721 C289.501,283.111 283.327,270.093 272.034,257.563 L265.498,250.449 L265.398,250.339 L254.117,237.573 C253.879,237.314 253.688,237.107 253.258,236.64 L253.25,236.631 C251.267,234.479 250.384,233.515 249.278,232.291 C245.091,227.615 242.336,223.939 240.196,220.067 C237.004,214.291 235.606,208.599 236.128,202.857 L236.147,202.643 L236.197,202.435 L237.575,196.628 L237.64,196.354 L237.755,196.097 L240.11,190.825 L240.196,190.633 L240.307,190.455 C242.152,187.511 244.161,185.556 248.546,181.941 C256.306,175.785 265.39,172.656 275.47,172.656 C282.273,172.656 288.107,174.11 292.892,177.094 C298.557,180.625 301.949,185.849 302.509,192.11 L302.543,192.488 L302.559,192.673 L302.553,192.857 L302.54,193.213 C302.286,202.96 296.152,210.916 286.727,213.103 L281.176,214.256 L281.037,214.285 L280.896,214.3 C278.586,214.558 277.007,215.995 276.572,218.277 C276.916,220.796 278.117,222.011 280.552,222.505 L280.963,222.514 C288.058,222.397 294.612,221.552 301.059,218.484 C310.411,212.474 312.763,203.728 312.193,193.145 C311.646,185.094 307.324,178.634 301.507,173.359 C297.557,170.295 293.053,168.133 288.257,166.797 L282.475,165.574 L279.619,164.97 L280.145,162.098 L281.225,156.211 C281.3,155.803 281.371,155.424 281.445,155.048 C281.473,154.906 281.473,154.906 281.495,154.791 C281.541,154.562 281.519,154.675 281.563,154.453 L281.561,154.369 C281.561,154.365 281.561,154.365 281.561,154.361 C281.558,154.187 281.558,154.187 281.556,154.049 C281.551,153.726 281.551,153.726 281.549,153.624 C281.548,153.513 281.548,153.559 281.547,153.485 C281.432,152.936 280.948,152.525 280.577,152.136 C279.933,151.521 279.029,151.398 278.186,151.293 z M234.233,248.802 C234.993,250.262 235.14,251.952 235.353,253.55 C235.886,259.644 232.76,264.858 226.415,268.967 L218.01,274.382 C213.36,277.355 210.049,281.714 207.431,286.488 L205.908,289.955 C204.72,293.56 204.453,297.371 204.363,301.14 C204.996,309.003 208.434,315.058 214.001,320.46 C219.785,325.597 226.752,328.152 235.041,328.152 C244.145,328.152 251.656,324.79 257.776,317.974 C263.908,311.145 266.539,303.191 265.727,293.913 C265.21,288.009 263.376,282.672 260.213,277.857 C256.914,272.836 249.876,264.849 239.168,254.013 C235.632,250.381 237.271,252.124 234.233,248.802 z" fill="#FFFFFF"/>
    </g>
  </g>
</svg>
