<?xml version="1.0" encoding="UTF-8"?>
<!DOCTYPE svg PUBLIC "-//W3C//DTD SVG 1.1//EN" "http://www.w3.org/Graphics/SVG/1.1/DTD/svg11.dtd">
<svg version="1.1" xmlns="http://www.w3.org/2000/svg" xmlns:xlink="http://www.w3.org/1999/xlink" x="0" y="0" width="180" height="40" viewBox="0, 0, 180, 40">
  <g id="Layer_1">
    <g>
      <g>
        <path d="M38.468,33.694 L37.424,6.748 L41.634,6.748 L41.886,20.62 C41.922,23.979 41.85,26.458 41.778,28.577 L41.85,28.577 C42.605,26.338 43.326,24.019 44.549,20.74 L49.983,6.748 L54.553,6.748 L54.733,20.341 C54.769,23.699 54.733,26.218 54.626,28.457 L54.698,28.457 C55.489,25.898 56.281,23.339 57.253,20.62 L62.471,6.748 L66.898,6.748 L55.958,33.694 L51.423,33.694 L51.063,20.701 C50.991,17.582 51.028,15.384 51.207,12.305 L51.1,12.305 C50.272,15.063 49.516,17.582 48.401,20.5 L43.075,33.694 L38.468,33.694 z" fill="#000000"/>
        <path d="M41.634,6.469 C41.786,6.469 41.91,6.59 41.913,6.743 C41.981,13.465 42.312,20.195 42.107,26.919 C42.352,26.182 42.597,25.445 42.844,24.708 C43.316,23.313 43.77,22.03 44.289,20.639 L49.723,6.647 C49.765,6.539 49.868,6.469 49.983,6.469 L54.553,6.469 C54.706,6.469 54.83,6.591 54.832,6.744 C55.026,13.376 55.062,20.002 54.973,26.632 C57.032,19.849 59.716,13.279 62.21,6.649 C62.251,6.541 62.355,6.469 62.471,6.469 L66.898,6.469 C67.096,6.469 67.231,6.669 67.156,6.853 L56.216,33.799 C56.173,33.904 56.071,33.973 55.958,33.973 L51.423,33.973 C51.272,33.973 51.148,33.853 51.144,33.702 C50.781,27.276 50.71,20.88 50.82,14.459 L50.836,14.143 C50.607,14.897 50.737,14.47 50.442,15.424 C49.848,17.324 49.299,18.931 48.659,20.605 L43.333,33.798 C43.291,33.904 43.188,33.973 43.075,33.973 L38.468,33.973 L38.468,33.905 L38.282,33.908 L38.189,33.705 L37.145,6.758 C37.139,6.6 37.265,6.469 37.424,6.469 z M37.714,7.027 L38.736,33.415 L42.886,33.415 L48.14,20.401 C48.774,18.744 49.319,17.147 49.91,15.257 C50.068,14.749 50.231,14.218 50.42,13.595 C50.533,13.22 50.62,12.932 50.832,12.225 C50.868,12.107 50.976,12.026 51.1,12.026 L51.207,12.026 C51.368,12.026 51.495,12.161 51.486,12.321 C51.307,15.378 51.27,17.569 51.342,20.693 L51.694,33.415 L55.77,33.415 L66.483,7.027 L62.664,7.027 L57.516,20.714 C56.708,22.975 56.151,24.705 54.964,28.539 C54.928,28.656 54.82,28.736 54.698,28.736 L54.626,28.736 C54.466,28.736 54.339,28.602 54.347,28.443 C54.456,26.185 54.49,23.661 54.454,20.345 L54.278,7.027 L50.174,7.027 L44.81,20.838 C44.295,22.219 43.843,23.497 43.373,24.887 C43.109,25.667 42.309,28.086 42.262,28.225 C42.211,28.378 42.162,28.524 42.114,28.666 C42.076,28.779 41.97,28.856 41.85,28.856 L41.778,28.856 C41.62,28.856 41.494,28.725 41.499,28.567 C41.601,25.578 41.637,23.455 41.607,20.625 L41.36,7.027 z" fill="#404040"/>
      </g>
      <g>
        <path d="M73.588,6.748 L68.982,33.694 L64.771,33.694 L69.378,6.748 z" fill="#000000"/>
        <path d="M73.588,6.469 C73.761,6.469 73.892,6.624 73.863,6.795 L69.257,33.741 C69.234,33.875 69.118,33.973 68.982,33.973 L64.771,33.973 C64.599,33.973 64.467,33.818 64.496,33.647 L69.103,6.701 C69.126,6.567 69.242,6.469 69.378,6.469 z M69.613,7.027 L65.102,33.415 L68.746,33.415 L73.257,7.027 z" fill="#404040"/>
      </g>
      <g>
        <path d="M78.121,6.748 L91.509,6.748 L90.789,10.706 L81.648,10.706 L80.353,18.302 L88.846,18.302 L88.162,22.22 L79.669,22.22 L77.726,33.694 L73.515,33.694 z" fill="#000000"/>
        <path d="M91.509,6.469 C91.683,6.469 91.814,6.626 91.783,6.797 L91.063,10.756 C91.039,10.889 90.924,10.985 90.789,10.985 L81.884,10.985 L80.683,18.023 L88.846,18.023 C89.019,18.023 89.15,18.179 89.121,18.35 L88.436,22.268 C88.413,22.402 88.297,22.499 88.162,22.499 L79.904,22.499 L78.001,33.74 C77.978,33.874 77.862,33.973 77.726,33.973 L73.515,33.973 C73.342,33.973 73.211,33.817 73.24,33.647 L77.846,6.701 C77.869,6.567 77.985,6.469 78.121,6.469 z M78.357,7.027 L73.846,33.415 L77.49,33.415 L79.393,22.173 C79.416,22.039 79.533,21.941 79.669,21.941 L87.927,21.941 L88.514,18.58 L80.353,18.58 C80.18,18.581 80.049,18.425 80.078,18.255 L81.373,10.659 C81.396,10.525 81.512,10.427 81.648,10.427 L90.556,10.427 L91.174,7.027 z" fill="#404040"/>
      </g>
      <g>
        <path d="M98.848,10.826 L92.119,10.826 L92.838,6.747 L110.508,6.747 L109.788,10.826 L103.023,10.826 L99.136,33.694 L94.926,33.694 z" fill="#000000"/>
        <path d="M110.508,6.468 C110.681,6.468 110.813,6.625 110.783,6.795 L110.063,10.874 C110.039,11.007 109.924,11.105 109.788,11.105 L103.258,11.104 L99.411,33.74 C99.388,33.874 99.272,33.973 99.136,33.973 L94.926,33.972 C94.753,33.973 94.621,33.817 94.651,33.646 L98.517,11.104 L92.118,11.104 C91.945,11.105 91.814,10.948 91.844,10.777 L92.564,6.698 C92.587,6.565 92.703,6.468 92.838,6.468 z M93.072,7.026 L92.451,10.547 L98.848,10.547 C99.021,10.547 99.152,10.702 99.123,10.873 L95.257,33.415 L98.9,33.415 L102.748,10.779 C102.77,10.645 102.887,10.547 103.023,10.547 L109.554,10.547 L110.175,7.026 z" fill="#404040"/>
      </g>
      <g>
        <path d="M112.817,10.405 C109.686,13.404 107.959,17.922 107.959,22.719 L107.959,22.719 C107.959,25.798 108.823,28.756 110.73,30.795 L110.73,30.795 C112.637,32.915 115.371,33.954 118.718,33.954 L118.718,33.954 C121.704,33.954 124.475,33.115 126.131,32.475 L126.131,32.475 L128.433,18.882 L120.085,18.882 L119.402,22.64 L123.684,22.64 L122.532,29.397 C121.813,29.717 120.734,29.997 119.438,29.997 L119.438,29.997 C114.904,29.997 112.529,27.198 112.529,22.36 L112.529,22.36 C112.529,18.682 113.896,15.203 116.091,13.124 L116.091,13.124 C117.891,11.405 120.265,10.486 122.857,10.486 L122.857,10.486 C125.051,10.486 126.85,10.965 128.002,11.605 L128.002,11.605 L129.297,7.686 C128.434,7.166 126.239,6.447 123.18,6.447 L123.18,6.447 C119.114,6.447 115.479,7.886 112.817,10.405" fill="#87B287"/>
        <path d="M123.18,6.168 C125.857,6.168 128.254,6.733 129.441,7.447 C129.553,7.514 129.603,7.65 129.562,7.773 L128.267,11.692 C128.212,11.859 128.019,11.934 127.866,11.849 C126.659,11.178 124.865,10.765 122.857,10.765 C120.329,10.765 118.026,11.661 116.283,13.327 C114.132,15.364 112.808,18.779 112.808,22.36 C112.808,27.115 115.123,29.718 119.438,29.718 C120.414,29.731 121.374,29.531 122.284,29.192 L123.353,22.919 L119.402,22.919 C119.228,22.919 119.096,22.761 119.127,22.59 L119.811,18.832 C119.835,18.699 119.95,18.603 120.085,18.603 L128.433,18.603 C128.606,18.603 128.737,18.758 128.708,18.928 L126.406,32.521 C126.389,32.618 126.323,32.7 126.231,32.735 C123.891,33.64 121.285,34.233 118.718,34.233 C115.256,34.233 112.464,33.14 110.526,30.986 C108.651,28.982 107.68,26.032 107.68,22.719 C107.68,17.797 109.468,13.226 112.624,10.204 L112.625,10.203 L112.625,10.203 C115.373,7.602 119.092,6.168 123.18,6.168 z M123.18,6.726 C117.578,6.825 112.755,9.436 110.163,14.46 C108.761,17.179 108.373,19.726 108.238,22.719 C108.238,25.9 109.164,28.713 110.937,30.609 C112.766,32.641 115.406,33.675 118.718,33.675 C121.183,33.71 123.572,33.055 125.883,32.265 L128.103,19.161 L120.318,19.161 L119.736,22.361 L123.684,22.361 C123.857,22.361 123.988,22.517 123.959,22.687 L122.807,29.444 C122.792,29.536 122.731,29.614 122.646,29.652 C121.78,30.037 120.649,30.275 119.438,30.275 C114.8,30.275 112.25,27.41 112.25,22.36 C112.25,18.633 113.631,15.07 115.899,12.923 C117.746,11.157 120.188,10.207 122.857,10.207 C124.571,10.189 126.271,10.522 127.834,11.225 L128.958,7.824 C127.473,7.04 125.769,6.917 124.133,6.751 z" fill="#404040"/>
      </g>
      <g>
        <path d="M133.974,6.727 L129.368,33.675 L133.579,33.675 L138.184,6.727 z" fill="#87B287"/>
        <path d="M138.184,6.448 C138.357,6.448 138.489,6.603 138.459,6.774 L133.854,33.722 C133.831,33.856 133.715,33.954 133.579,33.954 L129.368,33.954 C129.195,33.954 129.064,33.798 129.093,33.628 L133.699,6.68 C133.722,6.546 133.838,6.448 133.974,6.448 z M134.209,7.006 L129.699,33.396 L133.343,33.396 L137.854,7.006 z" fill="#404040"/>
      </g>
      <g>
        <path d="M155.457,6.727 L148.98,21.361 C147.72,24.159 146.785,26.638 145.993,28.837 L145.993,28.837 L145.921,28.837 C145.813,26.518 145.669,24.359 145.381,21.56 L145.381,21.56 L143.978,6.727 L139.696,6.727 L142.683,33.675 L147.469,33.675 L160.099,6.727 z" fill="#87B287"/>
        <path d="M143.978,6.448 C144.122,6.448 144.242,6.557 144.256,6.701 C144.646,13.699 145.771,20.635 146.137,27.635 C148.827,20.499 152.122,13.572 155.202,6.614 C155.246,6.513 155.346,6.448 155.457,6.448 L160.099,6.448 C160.303,6.448 160.438,6.66 160.352,6.845 L147.721,33.793 C147.675,33.891 147.577,33.954 147.469,33.954 L142.683,33.954 C142.54,33.954 142.421,33.847 142.405,33.706 L139.419,6.757 C139.4,6.592 139.53,6.448 139.696,6.448 z M140.007,7.006 L142.932,33.396 L147.291,33.396 L159.66,7.006 L155.638,7.006 L149.234,21.475 C148.143,23.901 147.262,26.136 146.255,28.931 C146.216,29.042 146.111,29.116 145.993,29.116 L145.921,29.115 C145.772,29.116 145.649,28.998 145.642,28.849 C145.524,26.297 145.37,24.177 145.104,21.586 L143.724,7.006 z" fill="#404040"/>
      </g>
      <g>
        <path d="M162.006,6.726 L157.4,33.674 L171.398,33.674 L172.081,29.716 L162.294,29.716 L163.661,21.68 L172.369,21.68 L173.053,17.762 L164.309,17.762 L165.532,10.684 L174.78,10.684 L175.464,6.726 z" fill="#87B287"/>
        <path d="M175.464,6.447 C175.637,6.447 175.768,6.603 175.739,6.774 L175.055,10.732 C175.032,10.866 174.916,10.963 174.78,10.963 L165.767,10.963 L164.64,17.483 L173.053,17.483 C173.226,17.483 173.357,17.639 173.328,17.81 L172.644,21.728 C172.621,21.861 172.505,21.959 172.369,21.959 L163.897,21.959 L162.624,29.437 L172.081,29.437 C172.254,29.437 172.386,29.593 172.356,29.763 L171.673,33.722 C171.65,33.856 171.534,33.953 171.398,33.953 L157.4,33.953 C157.227,33.953 157.096,33.798 157.125,33.627 L161.731,6.679 C161.754,6.545 161.87,6.447 162.006,6.447 z M162.241,7.005 L157.731,33.395 L171.163,33.395 L171.75,29.995 L162.294,29.995 C162.121,29.995 161.99,29.839 162.019,29.669 L163.386,21.633 C163.409,21.499 163.525,21.401 163.661,21.401 L172.135,21.401 L172.721,18.041 L164.309,18.041 C164.136,18.041 164.004,17.885 164.034,17.714 L165.257,10.637 C165.28,10.503 165.396,10.405 165.532,10.405 L174.545,10.405 L175.132,7.005 z" fill="#404040"/>
      </g>
      <g>
        <g>
          <path d="M18.13,25.971 L18.129,25.971 C18.85,25.975 19.23,26.553 19.121,27.323 C18.643,30.715 18.152,34.175 17.645,37.724 C17.535,38.498 17.095,38.904 16.309,38.972 C16.229,38.979 16.167,38.982 16.03,38.988 C15.988,38.99 15.969,38.991 15.947,38.992 C15.878,38.996 15.826,38.999 15.779,39.003 C14.818,39.095 14.322,38.583 14.441,37.622 C14.473,37.357 14.499,37.153 14.559,36.667 C14.585,36.453 14.585,36.453 14.611,36.239 C14.758,35.048 14.853,34.287 14.952,33.499 C14.953,33.491 14.953,33.491 14.954,33.484 C15.011,33.054 14.981,33.273 15.044,32.827 C14.991,32.843 15.027,32.832 14.938,32.86 C14.829,32.895 14.749,32.92 14.671,32.945 C14.245,33.08 13.935,33.177 13.63,33.272 C13.623,33.274 13.623,33.274 13.616,33.276 C13.526,33.304 13.526,33.304 13.435,33.332 C11.904,33.807 11.213,34.02 10.355,34.28 C9.455,34.553 8.942,34.293 8.711,33.42 C8.407,32.273 8.138,31.261 7.882,30.295 C7.634,29.361 7.991,28.801 8.959,28.565 C12.235,27.769 14.973,26.987 17.565,26.074 C17.764,26.006 17.952,25.97 18.129,25.971 L18.129,25.971 z" fill="#404040"/>
          <path d="M18.127,26.449 C18.009,26.448 17.874,26.474 17.723,26.526 C14.868,27.531 11.978,28.323 9.073,29.03 C8.358,29.204 8.168,29.504 8.345,30.171 C8.621,31.213 8.898,32.255 9.174,33.297 C9.333,33.896 9.565,34.019 10.217,33.821 C11.304,33.492 12.389,33.155 13.475,32.818 C14.165,32.604 14.855,32.384 15.628,32.14 C15.556,32.647 15.485,33.102 15.427,33.558 C15.254,34.932 15.086,36.306 14.916,37.68 C14.835,38.339 15.08,38.589 15.734,38.526 C15.913,38.51 16.09,38.51 16.269,38.495 C16.831,38.446 17.093,38.21 17.172,37.657 C17.667,34.19 18.159,30.723 18.648,27.256 C18.72,26.742 18.52,26.452 18.127,26.449 z" fill="#000000"/>
        </g>
        <g>
          <path d="M21.818,15.863 C22.483,15.867 23.175,15.871 24.015,15.877 C24.383,15.879 24.677,15.881 25.34,15.886 C28.957,15.91 30.566,15.92 32.576,15.927 C33.169,15.929 33.625,16.096 33.997,16.49 C34.894,17.439 35.413,18.384 35.553,19.517 C35.746,21.074 35.227,22.535 34.074,23.931 C33.111,25.096 31.953,26.006 30.196,27.099 C27.883,28.563 25.396,29.714 22.851,30.708 C22.664,32.101 22.474,33.494 22.285,34.887 C22.28,34.924 22.28,34.924 22.275,34.961 C22.114,36.139 22.035,36.721 21.942,37.405 C21.803,38.437 21.412,38.795 20.37,38.838 C20.339,38.84 20.306,38.841 20.269,38.843 C20.233,38.845 20.206,38.846 20.14,38.85 C20.07,38.853 20.037,38.855 19.997,38.857 C18.995,38.909 18.529,38.403 18.669,37.41 C18.776,36.651 18.876,35.947 19.047,34.743 C19.294,33.004 19.347,32.63 19.458,31.849 C19.517,31.438 19.564,31.102 19.669,30.372 C19.955,28.369 20.079,27.492 20.228,26.386 C20.322,25.694 20.654,25.245 21.317,24.973 C22.717,24.398 23.785,23.836 24.727,23.134 C24.873,23.026 24.99,22.926 25.248,22.697 C25.253,22.693 25.253,22.693 25.257,22.69 C25.33,22.625 25.367,22.592 25.411,22.553 C26.047,21.998 26.096,21.085 25.683,20.537 C25.241,19.952 24.614,19.521 23.701,19.122 C23.135,18.874 22.668,18.691 21.612,18.295 C21.61,18.294 21.61,18.294 21.608,18.293 C21.276,18.168 21.128,18.112 20.943,18.042 C20.381,17.828 20.094,17.421 20.204,16.866 C20.303,16.359 20.662,16.037 21.217,15.922 C21.415,15.881 21.619,15.861 21.818,15.863 z" fill="#404040"/>
          <path d="M21.815,16.341 C21.651,16.34 21.48,16.357 21.314,16.391 C20.934,16.47 20.733,16.656 20.673,16.958 C20.612,17.266 20.759,17.46 21.113,17.595 C22.044,17.95 22.985,18.286 23.893,18.683 C24.732,19.05 25.509,19.513 26.065,20.249 C26.533,20.869 26.661,22.098 25.726,22.914 C25.491,23.119 25.262,23.333 25.013,23.518 C23.923,24.329 22.724,24.912 21.499,25.416 C20.976,25.631 20.771,25.949 20.703,26.451 C20.456,28.272 20.191,30.094 19.932,31.916 C19.669,33.769 19.405,35.622 19.143,37.477 C19.045,38.172 19.271,38.415 19.973,38.379 C20.099,38.373 20.224,38.365 20.35,38.36 C21.161,38.326 21.36,38.142 21.468,37.341 C21.771,35.103 22.079,32.865 22.379,30.627 C22.404,30.436 22.465,30.342 22.67,30.265 C25.189,29.315 27.621,28.137 29.943,26.693 C31.321,25.836 32.651,24.902 33.705,23.626 C34.723,22.395 35.262,21.059 35.078,19.576 C34.94,18.455 34.379,17.591 33.649,16.819 C33.36,16.513 33.017,16.408 32.574,16.406 C28.987,16.393 25.401,16.363 21.815,16.341 z" fill="#000000"/>
        </g>
        <g>
          <path d="M26.466,0.986 C27.389,0.993 27.775,1.553 27.577,2.487 C27.435,3.159 27.289,3.851 27.101,4.751 C27.047,5.008 27.007,5.2 26.906,5.685 C26.857,5.916 26.809,6.147 26.761,6.379 C27.555,6.265 27.186,6.318 27.868,6.22 C27.964,6.206 27.964,6.206 28.059,6.193 C28.423,6.14 28.8,6.086 29.278,6.018 C29.568,5.976 29.858,5.935 30.148,5.893 C30.168,5.702 30.187,5.511 30.206,5.32 C30.22,5.189 30.225,5.132 30.233,5.059 C30.276,4.63 30.308,4.329 30.343,4.026 C30.44,3.201 30.9,2.65 31.652,2.559 C32.009,2.515 32.416,2.62 32.683,2.841 C34.299,4.182 35.911,5.541 38.177,7.465 C38.869,8.052 38.742,9.138 37.987,9.741 C37.273,10.313 36.673,10.788 35.423,11.775 C35.335,11.844 35.335,11.844 35.248,11.912 C34.792,12.272 34.518,12.489 34.227,12.719 C33.977,12.917 33.774,13.078 33.33,13.431 C33.32,13.438 33.32,13.438 33.31,13.446 C32.495,14.093 32.121,14.389 31.661,14.752 C30.871,15.373 29.843,15.286 29.5,14.426 C29.401,14.176 29.378,13.892 29.402,13.559 C29.441,13.007 29.498,12.457 29.552,11.906 C29.467,11.916 29.531,11.909 29.357,11.928 C28.683,12.004 28.33,12.046 27.932,12.102 C26.358,12.324 24.826,12.665 23.33,13.129 C22.37,13.428 21.744,12.853 21.885,11.851 C22.335,8.667 22.786,5.492 23.237,2.324 C23.36,1.462 23.795,1.053 24.634,1.031 C24.704,1.029 24.777,1.026 24.865,1.024 C24.941,1.021 24.941,1.021 25.018,1.019 C25.487,1.003 25.956,0.992 26.425,0.987 L26.438,0.986 z" fill="#404040"/>
          <path d="M26.462,1.465 C26.452,1.465 26.442,1.465 26.432,1.465 C25.838,1.469 25.243,1.492 24.648,1.509 C24.048,1.525 23.801,1.755 23.711,2.391 C23.258,5.567 22.808,8.742 22.359,11.918 C22.266,12.579 22.571,12.865 23.187,12.672 C24.738,12.191 26.298,11.85 27.865,11.628 C28.598,11.526 29.331,11.452 30.085,11.363 C30.012,12.141 29.933,12.869 29.879,13.594 C29.863,13.817 29.869,14.06 29.945,14.25 C30.152,14.769 30.802,14.818 31.365,14.375 C32.221,13.701 33.075,13.021 33.93,12.344 C35.183,11.352 36.44,10.367 37.688,9.368 C38.225,8.939 38.31,8.206 37.868,7.83 C36.044,6.282 34.218,4.737 32.377,3.21 C32.214,3.074 31.937,3.006 31.711,3.034 C31.187,3.097 30.89,3.473 30.819,4.082 C30.743,4.737 30.682,5.393 30.613,6.048 C30.602,6.147 30.585,6.246 30.575,6.316 C29.084,6.529 27.639,6.736 26.162,6.948 C26.171,6.888 26.174,6.847 26.182,6.808 C26.49,5.335 26.797,3.861 27.109,2.388 C27.246,1.74 27.07,1.469 26.462,1.465 z" fill="#87B287"/>
        </g>
        <g>
          <path d="M21.276,1.383 C21.888,1.387 22.26,1.796 22.293,2.422 C22.301,2.566 22.29,2.695 22.262,2.886 C22.145,3.715 22.053,4.363 21.838,5.878 C21.683,6.968 21.611,7.476 21.524,8.093 C21.252,10.007 21.04,11.515 20.837,12.973 C20.745,13.638 20.431,14.074 19.819,14.333 C18.711,14.803 17.85,15.307 17.112,15.956 C17.054,16.008 17.003,16.056 16.899,16.158 C16.892,16.164 16.892,16.164 16.885,16.171 C16.865,16.19 16.865,16.19 16.845,16.21 C16.322,16.715 16.318,17.193 16.699,17.654 C17.031,18.056 17.477,18.359 18.021,18.566 C18.913,18.904 19.634,19.167 21.254,19.748 C21.265,19.752 21.265,19.752 21.276,19.756 C22.272,20.113 22.731,20.279 23.291,20.484 C23.935,20.721 24.454,20.916 25.597,21.349 C25.64,21.365 25.64,21.365 25.682,21.381 C26.314,21.621 26.647,21.747 27.025,21.888 C27.513,22.071 27.776,22.482 27.704,23.015 C27.637,23.518 27.268,23.866 26.729,23.994 C26.544,24.037 26.355,24.059 26.173,24.058 C24.43,24.048 23.036,24.039 19.897,24.017 C19.45,24.014 19.252,24.013 19.003,24.011 C18.98,24.011 18.98,24.011 18.957,24.011 C17.162,23.998 16.325,23.993 15.308,23.986 C14.051,23.977 12.933,23.969 11.863,23.962 C11.85,23.962 11.838,23.962 11.811,23.962 C11.787,23.962 11.775,23.962 11.76,23.962 C11.602,23.961 11.489,23.95 11.361,23.906 C9.568,23.284 8.445,22.715 7.476,21.798 C6.59,20.958 6.171,19.882 6.272,18.616 C6.347,17.681 6.731,16.793 7.395,15.867 C8.264,14.656 9.357,13.662 10.908,12.563 C12.853,11.162 14.995,10.077 17.196,9.142 C17.249,8.166 17.304,7.19 17.36,6.215 C17.389,5.694 17.414,5.268 17.467,4.344 C17.503,3.719 17.519,3.458 17.538,3.117 C17.542,3.064 17.546,3.013 17.553,2.937 C17.554,2.923 17.554,2.923 17.555,2.909 C17.558,2.881 17.558,2.881 17.561,2.852 C17.636,2.063 18.022,1.632 18.779,1.559 C19.501,1.491 20.246,1.438 21.183,1.386 C21.216,1.384 21.246,1.383 21.276,1.383 z" fill="#404040"/>
          <path d="M21.273,1.862 C21.253,1.862 21.233,1.862 21.212,1.864 C20.417,1.908 19.621,1.96 18.824,2.036 C18.3,2.086 18.091,2.336 18.037,2.897 C18.03,2.981 18.021,3.064 18.016,3.147 C17.9,5.159 17.782,7.171 17.673,9.183 C17.661,9.389 17.604,9.492 17.398,9.576 C15.234,10.463 13.15,11.563 11.184,12.954 C9.915,13.853 8.718,14.845 7.784,16.146 C7.232,16.916 6.822,17.743 6.749,18.654 C6.657,19.809 7.049,20.734 7.805,21.45 C8.851,22.441 10.164,22.985 11.518,23.454 C11.622,23.49 11.749,23.482 11.866,23.483 C14.246,23.5 16.626,23.516 19.006,23.532 C21.396,23.549 23.787,23.566 26.176,23.579 C26.322,23.58 26.474,23.562 26.621,23.528 C26.974,23.444 27.191,23.244 27.23,22.952 C27.273,22.632 27.128,22.438 26.858,22.336 C25.613,21.871 24.374,21.392 23.126,20.934 C21.369,20.289 19.599,19.676 17.851,19.013 C17.266,18.791 16.737,18.451 16.33,17.959 C15.879,17.413 15.718,16.633 16.512,15.865 C16.606,15.775 16.699,15.683 16.796,15.597 C17.655,14.84 18.626,14.319 19.632,13.893 C20.1,13.694 20.296,13.39 20.363,12.907 C20.831,9.545 21.312,6.181 21.788,2.819 C21.806,2.695 21.822,2.568 21.815,2.447 C21.795,2.067 21.621,1.864 21.273,1.862 z" fill="#87B287"/>
        </g>
      </g>
    </g>
  </g>
</svg>
