<?xml version="1.0" encoding="UTF-8"?>
<!DOCTYPE svg PUBLIC "-//W3C//DTD SVG 1.1//EN" "http://www.w3.org/Graphics/SVG/1.1/DTD/svg11.dtd">
<svg version="1.1" xmlns="http://www.w3.org/2000/svg" xmlns:xlink="http://www.w3.org/1999/xlink" x="0" y="0" width="150" height="50" viewBox="0, 0, 150, 50">
  <g id="Layer_1">
    <path d="M51.813,25.339 L55.58,19.804 L55.886,19.369 Q56.831,17.977 58.115,17.977 Q58.929,17.977 59.501,18.51 Q60.072,19.044 60.143,19.858 Q60.218,20.708 59.236,22.101 L53.2,30.639 Q52.008,32.321 50.579,32.321 Q49.404,32.321 48.512,31.435 Q47.62,30.548 47.508,29.264 Q47.48,28.938 47.504,28.595 L47.816,25.339 L44.589,30.639 Q43.579,32.321 42.168,32.321 Q40.956,32.321 40.096,31.38 Q39.236,30.44 39.106,28.957 Q39.087,28.739 39.093,28.595 L38.936,21.016 Q38.916,19.55 39.508,18.764 Q40.099,17.977 41.239,17.977 Q42.939,17.977 43.102,19.84 Q43.129,20.147 43.126,20.527 L43.063,25.592 L46.592,19.822 Q47.714,17.977 49.415,17.977 Q50.464,17.977 51.131,18.574 Q51.798,19.17 51.887,20.183 Q51.923,20.6 51.923,20.798 z" fill="#8AAF8A"/>
    <path d="M64.667,28.124 L66.711,28.124 Q68.99,28.124 69.131,29.734 Q69.227,30.838 68.476,31.453 Q67.725,32.068 66.278,32.068 L63.402,32.068 Q61.81,32.068 60.84,31.417 Q59.869,30.765 59.771,29.644 Q59.719,29.047 60.018,28.124 L62.36,20.78 L62.515,20.274 Q63.168,18.23 65.013,18.23 Q65.773,18.23 66.369,18.736 Q66.965,19.243 67.027,19.948 Q67.077,20.527 66.693,21.721 z M65.684,12.46 Q66.733,12.46 67.53,13.192 Q68.327,13.925 68.418,14.974 Q68.51,16.023 67.842,16.756 Q67.173,17.488 66.124,17.488 Q65.075,17.488 64.278,16.756 Q63.481,16.023 63.39,14.974 Q63.298,13.925 63.966,13.192 Q64.635,12.46 65.684,12.46 z" fill="#8AAF8A"/>
    <path d="M85.203,7.377 Q87.519,7.377 87.658,8.968 Q87.758,10.108 86.999,10.741 Q86.24,11.374 84.793,11.374 L84.251,11.374 Q82.731,11.374 81.908,11.989 Q81.084,12.604 80.615,14.069 L79.279,18.23 L81.775,18.23 Q84.073,18.23 84.213,19.84 Q84.31,20.943 83.559,21.558 Q82.808,22.173 81.361,22.173 L78.032,22.173 L74.131,34.437 L74.126,34.437 L73.729,35.686 Q72.818,38.507 71.303,39.692 Q69.787,40.877 67.074,40.877 L65.012,40.877 Q62.697,40.877 62.557,39.285 Q62.458,38.146 63.216,37.513 Q63.975,36.879 65.422,36.879 L65.965,36.879 Q67.484,36.879 68.308,36.264 Q69.131,35.649 69.6,34.184 L73.438,22.173 L72.208,22.173 Q69.91,22.173 69.773,20.6 Q69.675,19.478 70.425,18.854 Q71.175,18.23 72.622,18.23 L74.684,18.23 L76.486,12.568 Q77.397,9.746 78.913,8.561 Q80.428,7.377 83.141,7.377 L85.203,7.377 z" fill="#8AAF8A"/>
    <path d="M90.774,18.113 L91.335,18.113 Q93.632,18.113 93.773,19.723 Q93.869,20.826 93.109,21.441 Q92.349,22.056 90.92,22.056 L89.6,22.056 L87.696,28.007 L89.722,28.007 Q92.02,28.007 92.16,29.617 Q92.257,30.721 91.506,31.336 Q90.755,31.951 89.308,31.951 L86.07,31.951 Q84.695,31.951 83.835,31.317 Q82.974,30.684 82.879,29.599 Q82.821,28.93 83.075,28.116 L83.349,27.32 L85.023,22.056 L84.752,22.056 Q82.726,22.056 82.588,20.482 Q82.49,19.361 83.24,18.737 Q83.991,18.113 85.438,18.113 L86.27,18.113 L87.021,15.743 L87.178,15.255 Q87.852,13.247 89.679,13.247 Q90.421,13.247 90.998,13.744 Q91.575,14.242 91.637,14.947 Q91.697,15.635 91.318,16.684 z" fill="#8AAF8A"/>
    <path d="M104.411,32.574 L106.582,32.574 Q108.879,32.574 109.018,34.166 Q109.115,35.27 108.356,35.894 Q107.596,36.518 106.167,36.518 L103.164,36.518 L102.568,38.381 Q100.394,45.164 95.075,45.164 Q92.29,45.164 90.285,43.446 Q88.281,41.727 88.055,39.14 Q87.907,37.458 88.674,35.984 Q89.44,34.51 90.92,33.642 Q92.744,32.574 95.982,32.574 L99.871,32.574 L100.308,31.163 Q99.229,31.851 98.216,31.851 Q96.28,31.851 94.96,30.512 Q93.64,29.174 93.452,27.021 Q93.148,23.548 95.346,20.762 Q97.545,17.977 100.584,17.977 Q102.808,17.977 104.038,19.424 Q104.762,17.977 106.318,17.977 Q107.077,17.977 107.655,18.474 Q108.232,18.972 108.293,19.677 Q108.342,20.238 107.973,21.395 z M101.585,27.148 L102.737,23.566 Q102.878,23.114 102.853,22.824 Q102.805,22.282 102.294,21.92 Q101.783,21.558 101.06,21.558 Q99.757,21.558 98.703,23.051 Q97.649,24.543 97.794,26.207 Q97.961,28.106 99.733,28.106 Q101.271,28.106 101.585,27.148 z M98.606,36.518 L95.477,36.518 Q93.849,36.518 93.013,37.205 Q92.178,37.892 92.287,39.14 Q92.362,39.991 93.029,40.588 Q93.696,41.185 94.601,41.185 Q95.903,41.185 96.79,40.153 Q97.676,39.122 98.606,36.518 z" fill="#8AAF8A"/>
    <path d="M113.42,28.124 L115.464,28.124 Q117.743,28.124 117.884,29.734 Q117.981,30.838 117.23,31.453 Q116.478,32.068 115.031,32.068 L112.155,32.068 Q110.563,32.068 109.593,31.417 Q108.622,30.765 108.524,29.644 Q108.472,29.047 108.771,28.124 L111.113,20.78 L111.268,20.274 Q111.921,18.23 113.766,18.23 Q114.526,18.23 115.122,18.736 Q115.718,19.243 115.78,19.948 Q115.83,20.527 115.447,21.721 z M114.437,12.46 Q115.486,12.46 116.283,13.192 Q117.08,13.925 117.172,14.974 Q117.263,16.023 116.595,16.756 Q115.926,17.488 114.877,17.488 Q113.828,17.488 113.031,16.756 Q112.235,16.023 112.143,14.974 Q112.051,13.925 112.72,13.192 Q113.388,12.46 114.437,12.46 z" fill="#8AAF8A"/>
    <path d="M122.592,25.701 L126.288,19.984 L126.571,19.496 Q127.487,17.977 128.79,17.977 Q129.64,17.977 130.229,18.51 Q130.819,19.044 130.891,19.876 Q130.971,20.78 130.009,22.191 L124.074,30.856 Q123.081,32.321 121.561,32.321 Q120.277,32.321 119.457,31.426 Q118.637,30.53 118.501,28.975 Q118.472,28.649 118.473,28.45 L118.493,21.233 Q118.491,19.767 119.084,18.999 Q119.677,18.23 120.799,18.23 Q122.517,18.23 122.669,19.966 Q122.691,20.22 122.673,20.835 z" fill="#8AAF8A"/>
    <path d="M135.265,26.768 Q135.384,28.124 137.428,28.124 L142.801,28.124 Q145.08,28.124 145.221,29.734 Q145.317,30.838 144.566,31.453 Q143.815,32.068 142.368,32.068 L137.249,32.068 Q134.391,32.068 132.775,30.657 Q131.159,29.246 130.922,26.533 Q130.616,23.041 132.755,20.509 Q134.894,17.977 138.15,17.977 Q140.52,17.977 142.066,19.216 Q143.613,20.455 143.79,22.481 Q144.004,24.923 142.117,26.098 Q141.072,26.768 138.883,26.768 z M135.846,23.476 L137.835,23.476 Q139.771,23.476 139.642,22.625 Q139.504,21.667 138.31,21.667 Q136.646,21.667 135.846,23.476 z" fill="#8AAF8A"/>
    <path d="M33.47,7.748 Q34.125,7.748 34.635,8.187 Q35.145,8.627 35.199,9.25 C35.203,9.732 35.221,9.467 35.116,10.041 C35.879,10.213 36.537,10.641 37.161,11.092 Q38.942,12.506 39.144,14.757 Q39.457,17.9 36.973,19.497 C35.925,20.098 34.712,20.19 33.531,20.238 L33.373,20.235 C32.327,20.179 31.712,19.368 31.614,18.39 C31.655,17.374 32.373,16.647 33.374,16.546 L33.373,16.536 C34.467,16.414 35.21,15.996 35.25,14.833 Q35.187,14.133 34.504,13.708 Q33.821,13.282 32.749,13.282 Q31.07,13.282 29.786,14.301 C28.987,14.947 28.701,15.275 28.533,16.337 L28.531,16.334 C28.395,17.833 29.77,19.167 30.715,20.204 L32.3,21.998 L33.209,22.987 Q35.857,25.925 36.144,29.202 C36.297,30.705 36.045,31.484 35.65,32.842 C34.928,34.222 35.298,33.65 34.609,34.604 C32.949,36.733 30.433,37.776 27.773,37.836 C27.395,38.913 26.726,39.437 25.6,39.517 L25.6,39.517 Q24.945,39.517 24.436,39.078 Q23.926,38.639 23.871,38.016 C23.868,37.548 23.849,37.798 23.947,37.267 C22.896,36.989 22.02,36.333 21.191,35.661 Q18.734,33.478 18.436,30.072 C18.258,28.335 18.533,26.622 19.494,25.281 C20.126,24.399 20.777,23.835 21.603,23.121 Q23.352,21.646 24.94,21.646 L25.158,21.662 C25.569,21.765 25.758,21.851 26.099,22.09 Q26.669,22.57 26.735,23.327 Q26.824,24.348 25.678,25.09 L24.503,25.847 Q23.49,26.512 22.88,27.703 L22.652,28.223 C22.504,28.662 22.417,29.227 22.41,29.95 Q22.568,31.76 23.895,32.938 Q25.223,34.117 27.108,34.117 Q29.192,34.117 30.592,32.558 Q31.991,30.999 31.806,28.885 Q31.689,27.547 30.97,26.452 Q30.251,25.357 27.981,23.061 Q26.397,21.464 25.668,20.262 C25.063,19.133 24.657,18.359 24.581,16.326 C24.51,14.447 25.582,12.903 26.93,11.647 C28.135,10.594 29.609,10.06 31.165,9.821 L31.261,9.521 Q31.857,7.748 33.47,7.748 L33.47,7.748 z" fill="#8AAF8A"/>
    <path d="M16.231,3.919 L22.965,3.919 C23.882,3.919 24.444,4.663 24.22,5.58 L22.574,12.313 C22.35,13.231 21.425,13.974 20.507,13.974 L13.774,13.974 C12.857,13.974 12.295,13.231 12.519,12.313 L14.164,5.58 C14.389,4.663 15.314,3.919 16.231,3.919 z" fill="#7D7D7D"/>
    <path d="M46.446,3.919 L53.179,3.919 C54.097,3.919 54.659,4.663 54.434,5.58 L52.789,12.313 C52.565,13.231 51.639,13.974 50.722,13.974 L43.989,13.974 C43.071,13.974 42.51,13.231 42.734,12.313 L44.379,5.58 C44.603,4.663 45.529,3.919 46.446,3.919 z" fill="#7D7D7D"/>
    <path d="M8.53,36.026 L15.263,36.026 C16.181,36.026 16.743,36.769 16.518,37.687 L14.873,44.42 C14.649,45.337 13.723,46.081 12.806,46.081 L6.073,46.081 C5.155,46.081 4.594,45.337 4.818,44.42 L6.463,37.687 C6.687,36.769 7.613,36.026 8.53,36.026 z" fill="#7D7D7D"/>
    <path d="M37.374,36.026 L41.39,36.026 C41.937,36.026 42.272,36.469 42.139,37.016 L41.157,41.033 C41.024,41.58 40.472,42.023 39.924,42.023 L35.908,42.023 C35.361,42.023 35.026,41.58 35.159,41.033 L36.141,37.016 C36.275,36.469 36.827,36.026 37.374,36.026 z" fill="#7D7D7D"/>
  </g>
</svg>
